ISO-10303-21;
HEADER;
/* Generated by software containing ST-Developer
 * from STEP Tools, Inc. (www.steptools.com) 
 */

FILE_DESCRIPTION(
/* description */ (''),
/* implementation_level */ '2;1');

FILE_NAME(
/* name */ 'fl57sth76_gt2_adapter.step',
/* time_stamp */ '2026-07-31T10:47:26+02:00',
/* author */ (''),
/* organization */ (''),
/* preprocessor_version */ 'ST-DEVELOPER v20.1',
/* originating_system */ 'Autodesk Translation Framework v15.8.0.0',
/* authorisation */ '');

FILE_SCHEMA (('AUTOMOTIVE_DESIGN { 1 0 10303 214 3 1 1 }'));
ENDSEC;

DATA;
#10=MECHANICAL_DESIGN_GEOMETRIC_PRESENTATION_REPRESENTATION('',(#13,#14),
#1558);
#11=SHAPE_REPRESENTATION_RELATIONSHIP('SRR','None',#1565,#12);
#12=ADVANCED_BREP_SHAPE_REPRESENTATION('',(#15,#16),#1557);
#13=STYLED_ITEM('',(#1574),#15);
#14=STYLED_ITEM('',(#1574),#16);
#15=MANIFOLD_SOLID_BREP('Body2',#957);
#16=MANIFOLD_SOLID_BREP('Body3',#958);
#17=CYLINDRICAL_SURFACE('',#997,1.55);
#18=CYLINDRICAL_SURFACE('',#999,1.55);
#19=CYLINDRICAL_SURFACE('',#1004,2.45);
#20=CYLINDRICAL_SURFACE('',#1021,3.);
#21=CYLINDRICAL_SURFACE('',#1023,1.55);
#22=CYLINDRICAL_SURFACE('',#1027,3.);
#23=CYLINDRICAL_SURFACE('',#1029,1.55);
#24=CYLINDRICAL_SURFACE('',#1030,2.45);
#25=CIRCLE('',#982,1.55);
#26=CIRCLE('',#990,1.55);
#27=CIRCLE('',#998,1.55);
#28=CIRCLE('',#1000,1.55);
#29=CIRCLE('',#1003,2.45);
#30=CIRCLE('',#1005,2.45);
#31=CIRCLE('',#1010,1.55);
#32=CIRCLE('',#1011,1.55);
#33=CIRCLE('',#1019,3.);
#34=CIRCLE('',#1020,1.55);
#35=CIRCLE('',#1022,3.);
#36=CIRCLE('',#1025,3.);
#37=CIRCLE('',#1026,1.55);
#38=CIRCLE('',#1028,3.);
#39=CIRCLE('',#1031,2.45);
#40=CIRCLE('',#1032,2.45);
#41=FACE_BOUND('',#107,.T.);
#42=FACE_BOUND('',#108,.T.);
#43=FACE_BOUND('',#117,.T.);
#44=FACE_BOUND('',#125,.T.);
#45=FACE_BOUND('',#140,.T.);
#46=FACE_BOUND('',#141,.T.);
#47=FACE_BOUND('',#143,.T.);
#48=FACE_BOUND('',#144,.T.);
#49=FACE_BOUND('',#152,.T.);
#50=FACE_BOUND('',#156,.T.);
#51=FACE_BOUND('',#164,.T.);
#52=FACE_BOUND('',#165,.T.);
#53=FACE_OUTER_BOUND('',#105,.T.);
#54=FACE_OUTER_BOUND('',#106,.T.);
#55=FACE_OUTER_BOUND('',#109,.T.);
#56=FACE_OUTER_BOUND('',#110,.T.);
#57=FACE_OUTER_BOUND('',#111,.T.);
#58=FACE_OUTER_BOUND('',#112,.T.);
#59=FACE_OUTER_BOUND('',#113,.T.);
#60=FACE_OUTER_BOUND('',#114,.T.);
#61=FACE_OUTER_BOUND('',#115,.T.);
#62=FACE_OUTER_BOUND('',#116,.T.);
#63=FACE_OUTER_BOUND('',#118,.T.);
#64=FACE_OUTER_BOUND('',#119,.T.);
#65=FACE_OUTER_BOUND('',#120,.T.);
#66=FACE_OUTER_BOUND('',#121,.T.);
#67=FACE_OUTER_BOUND('',#122,.T.);
#68=FACE_OUTER_BOUND('',#123,.T.);
#69=FACE_OUTER_BOUND('',#124,.T.);
#70=FACE_OUTER_BOUND('',#126,.T.);
#71=FACE_OUTER_BOUND('',#127,.T.);
#72=FACE_OUTER_BOUND('',#128,.T.);
#73=FACE_OUTER_BOUND('',#129,.T.);
#74=FACE_OUTER_BOUND('',#130,.T.);
#75=FACE_OUTER_BOUND('',#131,.T.);
#76=FACE_OUTER_BOUND('',#132,.T.);
#77=FACE_OUTER_BOUND('',#133,.T.);
#78=FACE_OUTER_BOUND('',#134,.T.);
#79=FACE_OUTER_BOUND('',#135,.T.);
#80=FACE_OUTER_BOUND('',#136,.T.);
#81=FACE_OUTER_BOUND('',#137,.T.);
#82=FACE_OUTER_BOUND('',#138,.T.);
#83=FACE_OUTER_BOUND('',#139,.T.);
#84=FACE_OUTER_BOUND('',#142,.T.);
#85=FACE_OUTER_BOUND('',#145,.T.);
#86=FACE_OUTER_BOUND('',#146,.T.);
#87=FACE_OUTER_BOUND('',#147,.T.);
#88=FACE_OUTER_BOUND('',#148,.T.);
#89=FACE_OUTER_BOUND('',#149,.T.);
#90=FACE_OUTER_BOUND('',#150,.T.);
#91=FACE_OUTER_BOUND('',#151,.T.);
#92=FACE_OUTER_BOUND('',#153,.T.);
#93=FACE_OUTER_BOUND('',#154,.T.);
#94=FACE_OUTER_BOUND('',#155,.T.);
#95=FACE_OUTER_BOUND('',#157,.T.);
#96=FACE_OUTER_BOUND('',#158,.T.);
#97=FACE_OUTER_BOUND('',#159,.T.);
#98=FACE_OUTER_BOUND('',#160,.T.);
#99=FACE_OUTER_BOUND('',#161,.T.);
#100=FACE_OUTER_BOUND('',#162,.T.);
#101=FACE_OUTER_BOUND('',#163,.T.);
#102=FACE_OUTER_BOUND('',#166,.T.);
#103=FACE_OUTER_BOUND('',#167,.T.);
#104=FACE_OUTER_BOUND('',#168,.T.);
#105=EDGE_LOOP('',(#605,#606,#607,#608,#609,#610,#611,#612));
#106=EDGE_LOOP('',(#613,#614,#615,#616));
#107=EDGE_LOOP('',(#617,#618,#619,#620,#621,#622));
#108=EDGE_LOOP('',(#623,#624,#625,#626,#627,#628));
#109=EDGE_LOOP('',(#629,#630,#631,#632));
#110=EDGE_LOOP('',(#633,#634,#635,#636));
#111=EDGE_LOOP('',(#637,#638,#639,#640));
#112=EDGE_LOOP('',(#641,#642,#643,#644));
#113=EDGE_LOOP('',(#645,#646,#647,#648));
#114=EDGE_LOOP('',(#649,#650,#651,#652));
#115=EDGE_LOOP('',(#653,#654,#655,#656));
#116=EDGE_LOOP('',(#657,#658,#659,#660,#661,#662));
#117=EDGE_LOOP('',(#663));
#118=EDGE_LOOP('',(#664,#665,#666,#667));
#119=EDGE_LOOP('',(#668,#669,#670,#671));
#120=EDGE_LOOP('',(#672,#673,#674,#675));
#121=EDGE_LOOP('',(#676,#677,#678,#679));
#122=EDGE_LOOP('',(#680,#681,#682,#683));
#123=EDGE_LOOP('',(#684,#685,#686,#687));
#124=EDGE_LOOP('',(#688,#689,#690,#691,#692,#693));
#125=EDGE_LOOP('',(#694));
#126=EDGE_LOOP('',(#695,#696,#697,#698));
#127=EDGE_LOOP('',(#699,#700,#701,#702));
#128=EDGE_LOOP('',(#703,#704,#705,#706));
#129=EDGE_LOOP('',(#707,#708,#709,#710));
#130=EDGE_LOOP('',(#711,#712,#713,#714));
#131=EDGE_LOOP('',(#715,#716,#717,#718));
#132=EDGE_LOOP('',(#719,#720,#721,#722));
#133=EDGE_LOOP('',(#723,#724,#725,#726));
#134=EDGE_LOOP('',(#727,#728,#729,#730));
#135=EDGE_LOOP('',(#731,#732,#733,#734,#735,#736));
#136=EDGE_LOOP('',(#737,#738,#739,#740));
#137=EDGE_LOOP('',(#741,#742));
#138=EDGE_LOOP('',(#743,#744,#745,#746));
#139=EDGE_LOOP('',(#747,#748,#749,#750,#751,#752,#753,#754,#755,#756,#757,
#758,#759,#760));
#140=EDGE_LOOP('',(#761));
#141=EDGE_LOOP('',(#762));
#142=EDGE_LOOP('',(#763,#764,#765,#766,#767,#768,#769,#770,#771,#772,#773,
#774,#775,#776));
#143=EDGE_LOOP('',(#777));
#144=EDGE_LOOP('',(#778));
#145=EDGE_LOOP('',(#779,#780,#781,#782));
#146=EDGE_LOOP('',(#783,#784,#785,#786));
#147=EDGE_LOOP('',(#787,#788,#789,#790));
#148=EDGE_LOOP('',(#791,#792,#793,#794));
#149=EDGE_LOOP('',(#795,#796,#797,#798));
#150=EDGE_LOOP('',(#799,#800,#801,#802,#803,#804,#805,#806));
#151=EDGE_LOOP('',(#807));
#152=EDGE_LOOP('',(#808));
#153=EDGE_LOOP('',(#809,#810,#811,#812));
#154=EDGE_LOOP('',(#813,#814,#815,#816));
#155=EDGE_LOOP('',(#817));
#156=EDGE_LOOP('',(#818));
#157=EDGE_LOOP('',(#819,#820,#821,#822));
#158=EDGE_LOOP('',(#823,#824,#825,#826));
#159=EDGE_LOOP('',(#827,#828,#829,#830));
#160=EDGE_LOOP('',(#831,#832));
#161=EDGE_LOOP('',(#833,#834,#835,#836));
#162=EDGE_LOOP('',(#837,#838,#839,#840));
#163=EDGE_LOOP('',(#841,#842,#843,#844));
#164=EDGE_LOOP('',(#845));
#165=EDGE_LOOP('',(#846));
#166=EDGE_LOOP('',(#847,#848,#849,#850));
#167=EDGE_LOOP('',(#851,#852,#853,#854));
#168=EDGE_LOOP('',(#855,#856,#857,#858,#859,#860));
#169=LINE('',#1294,#281);
#170=LINE('',#1296,#282);
#171=LINE('',#1298,#283);
#172=LINE('',#1300,#284);
#173=LINE('',#1302,#285);
#174=LINE('',#1304,#286);
#175=LINE('',#1306,#287);
#176=LINE('',#1307,#288);
#177=LINE('',#1310,#289);
#178=LINE('',#1312,#290);
#179=LINE('',#1313,#291);
#180=LINE('',#1316,#292);
#181=LINE('',#1318,#293);
#182=LINE('',#1320,#294);
#183=LINE('',#1322,#295);
#184=LINE('',#1324,#296);
#185=LINE('',#1325,#297);
#186=LINE('',#1328,#298);
#187=LINE('',#1330,#299);
#188=LINE('',#1332,#300);
#189=LINE('',#1334,#301);
#190=LINE('',#1336,#302);
#191=LINE('',#1337,#303);
#192=LINE('',#1340,#304);
#193=LINE('',#1342,#305);
#194=LINE('',#1343,#306);
#195=LINE('',#1346,#307);
#196=LINE('',#1347,#308);
#197=LINE('',#1350,#309);
#198=LINE('',#1351,#310);
#199=LINE('',#1354,#311);
#200=LINE('',#1356,#312);
#201=LINE('',#1357,#313);
#202=LINE('',#1360,#314);
#203=LINE('',#1361,#315);
#204=LINE('',#1364,#316);
#205=LINE('',#1365,#317);
#206=LINE('',#1367,#318);
#207=LINE('',#1371,#319);
#208=LINE('',#1373,#320);
#209=LINE('',#1375,#321);
#210=LINE('',#1377,#322);
#211=LINE('',#1379,#323);
#212=LINE('',#1380,#324);
#213=LINE('',#1384,#325);
#214=LINE('',#1385,#326);
#215=LINE('',#1387,#327);
#216=LINE('',#1389,#328);
#217=LINE('',#1391,#329);
#218=LINE('',#1393,#330);
#219=LINE('',#1398,#331);
#220=LINE('',#1400,#332);
#221=LINE('',#1402,#333);
#222=LINE('',#1404,#334);
#223=LINE('',#1406,#335);
#224=LINE('',#1407,#336);
#225=LINE('',#1411,#337);
#226=LINE('',#1412,#338);
#227=LINE('',#1414,#339);
#228=LINE('',#1416,#340);
#229=LINE('',#1418,#341);
#230=LINE('',#1420,#342);
#231=LINE('',#1425,#343);
#232=LINE('',#1429,#344);
#233=LINE('',#1432,#345);
#234=LINE('',#1433,#346);
#235=LINE('',#1437,#347);
#236=LINE('',#1440,#348);
#237=LINE('',#1441,#349);
#238=LINE('',#1444,#350);
#239=LINE('',#1447,#351);
#240=LINE('',#1449,#352);
#241=LINE('',#1451,#353);
#242=LINE('',#1456,#354);
#243=LINE('',#1458,#355);
#244=LINE('',#1460,#356);
#245=LINE('',#1462,#357);
#246=LINE('',#1464,#358);
#247=LINE('',#1466,#359);
#248=LINE('',#1468,#360);
#249=LINE('',#1470,#361);
#250=LINE('',#1472,#362);
#251=LINE('',#1474,#363);
#252=LINE('',#1476,#364);
#253=LINE('',#1478,#365);
#254=LINE('',#1480,#366);
#255=LINE('',#1481,#367);
#256=LINE('',#1488,#368);
#257=LINE('',#1490,#369);
#258=LINE('',#1491,#370);
#259=LINE('',#1494,#371);
#260=LINE('',#1495,#372);
#261=LINE('',#1498,#373);
#262=LINE('',#1499,#374);
#263=LINE('',#1502,#375);
#264=LINE('',#1503,#376);
#265=LINE('',#1506,#377);
#266=LINE('',#1507,#378);
#267=LINE('',#1509,#379);
#268=LINE('',#1511,#380);
#269=LINE('',#1513,#381);
#270=LINE('',#1514,#382);
#271=LINE('',#1523,#383);
#272=LINE('',#1525,#384);
#273=LINE('',#1534,#385);
#274=LINE('',#1536,#386);
#275=LINE('',#1542,#387);
#276=LINE('',#1546,#388);
#277=LINE('',#1548,#389);
#278=LINE('',#1549,#390);
#279=LINE('',#1551,#391);
#280=LINE('',#1553,#392);
#281=VECTOR('',#1044,10.);
#282=VECTOR('',#1045,10.);
#283=VECTOR('',#1046,10.);
#284=VECTOR('',#1047,10.);
#285=VECTOR('',#1048,10.);
#286=VECTOR('',#1049,10.);
#287=VECTOR('',#1050,10.);
#288=VECTOR('',#1051,10.);
#289=VECTOR('',#1054,10.);
#290=VECTOR('',#1055,10.);
#291=VECTOR('',#1056,10.);
#292=VECTOR('',#1057,10.);
#293=VECTOR('',#1058,10.);
#294=VECTOR('',#1059,10.);
#295=VECTOR('',#1060,10.);
#296=VECTOR('',#1061,10.);
#297=VECTOR('',#1062,10.);
#298=VECTOR('',#1063,10.);
#299=VECTOR('',#1064,10.);
#300=VECTOR('',#1065,10.);
#301=VECTOR('',#1066,10.);
#302=VECTOR('',#1067,10.);
#303=VECTOR('',#1068,10.);
#304=VECTOR('',#1071,10.);
#305=VECTOR('',#1072,10.);
#306=VECTOR('',#1073,10.);
#307=VECTOR('',#1076,10.);
#308=VECTOR('',#1077,10.);
#309=VECTOR('',#1080,10.);
#310=VECTOR('',#1081,10.);
#311=VECTOR('',#1084,10.);
#312=VECTOR('',#1085,10.);
#313=VECTOR('',#1086,10.);
#314=VECTOR('',#1089,10.);
#315=VECTOR('',#1090,10.);
#316=VECTOR('',#1093,10.);
#317=VECTOR('',#1094,10.);
#318=VECTOR('',#1097,10.);
#319=VECTOR('',#1100,10.);
#320=VECTOR('',#1101,10.);
#321=VECTOR('',#1102,10.);
#322=VECTOR('',#1103,10.);
#323=VECTOR('',#1104,10.);
#324=VECTOR('',#1105,10.);
#325=VECTOR('',#1110,10.);
#326=VECTOR('',#1111,10.);
#327=VECTOR('',#1114,10.);
#328=VECTOR('',#1117,10.);
#329=VECTOR('',#1120,10.);
#330=VECTOR('',#1123,10.);
#331=VECTOR('',#1128,10.);
#332=VECTOR('',#1129,10.);
#333=VECTOR('',#1130,10.);
#334=VECTOR('',#1131,10.);
#335=VECTOR('',#1132,10.);
#336=VECTOR('',#1133,10.);
#337=VECTOR('',#1138,10.);
#338=VECTOR('',#1139,10.);
#339=VECTOR('',#1142,10.);
#340=VECTOR('',#1145,10.);
#341=VECTOR('',#1148,10.);
#342=VECTOR('',#1151,10.);
#343=VECTOR('',#1158,1.55);
#344=VECTOR('',#1163,1.55);
#345=VECTOR('',#1166,10.);
#346=VECTOR('',#1167,10.);
#347=VECTOR('',#1170,10.);
#348=VECTOR('',#1173,10.);
#349=VECTOR('',#1174,10.);
#350=VECTOR('',#1177,10.);
#351=VECTOR('',#1180,10.);
#352=VECTOR('',#1183,10.);
#353=VECTOR('',#1186,10.);
#354=VECTOR('',#1191,10.);
#355=VECTOR('',#1192,10.);
#356=VECTOR('',#1193,10.);
#357=VECTOR('',#1194,10.);
#358=VECTOR('',#1195,10.);
#359=VECTOR('',#1196,10.);
#360=VECTOR('',#1197,10.);
#361=VECTOR('',#1198,10.);
#362=VECTOR('',#1199,10.);
#363=VECTOR('',#1200,10.);
#364=VECTOR('',#1201,10.);
#365=VECTOR('',#1202,10.);
#366=VECTOR('',#1203,10.);
#367=VECTOR('',#1204,10.);
#368=VECTOR('',#1211,10.);
#369=VECTOR('',#1212,10.);
#370=VECTOR('',#1213,10.);
#371=VECTOR('',#1216,10.);
#372=VECTOR('',#1217,10.);
#373=VECTOR('',#1220,10.);
#374=VECTOR('',#1221,10.);
#375=VECTOR('',#1224,10.);
#376=VECTOR('',#1225,10.);
#377=VECTOR('',#1228,10.);
#378=VECTOR('',#1229,10.);
#379=VECTOR('',#1232,10.);
#380=VECTOR('',#1233,10.);
#381=VECTOR('',#1234,10.);
#382=VECTOR('',#1235,10.);
#383=VECTOR('',#1246,3.);
#384=VECTOR('',#1249,1.55);
#385=VECTOR('',#1260,3.);
#386=VECTOR('',#1263,1.55);
#387=VECTOR('',#1274,10.);
#388=VECTOR('',#1279,10.);
#389=VECTOR('',#1280,10.);
#390=VECTOR('',#1281,10.);
#391=VECTOR('',#1284,10.);
#392=VECTOR('',#1287,10.);
#393=VERTEX_POINT('',#1292);
#394=VERTEX_POINT('',#1293);
#395=VERTEX_POINT('',#1295);
#396=VERTEX_POINT('',#1297);
#397=VERTEX_POINT('',#1299);
#398=VERTEX_POINT('',#1301);
#399=VERTEX_POINT('',#1303);
#400=VERTEX_POINT('',#1305);
#401=VERTEX_POINT('',#1309);
#402=VERTEX_POINT('',#1311);
#403=VERTEX_POINT('',#1314);
#404=VERTEX_POINT('',#1315);
#405=VERTEX_POINT('',#1317);
#406=VERTEX_POINT('',#1319);
#407=VERTEX_POINT('',#1321);
#408=VERTEX_POINT('',#1323);
#409=VERTEX_POINT('',#1326);
#410=VERTEX_POINT('',#1327);
#411=VERTEX_POINT('',#1329);
#412=VERTEX_POINT('',#1331);
#413=VERTEX_POINT('',#1333);
#414=VERTEX_POINT('',#1335);
#415=VERTEX_POINT('',#1339);
#416=VERTEX_POINT('',#1341);
#417=VERTEX_POINT('',#1345);
#418=VERTEX_POINT('',#1349);
#419=VERTEX_POINT('',#1353);
#420=VERTEX_POINT('',#1355);
#421=VERTEX_POINT('',#1359);
#422=VERTEX_POINT('',#1363);
#423=VERTEX_POINT('',#1369);
#424=VERTEX_POINT('',#1370);
#425=VERTEX_POINT('',#1372);
#426=VERTEX_POINT('',#1374);
#427=VERTEX_POINT('',#1376);
#428=VERTEX_POINT('',#1378);
#429=VERTEX_POINT('',#1381);
#430=VERTEX_POINT('',#1396);
#431=VERTEX_POINT('',#1397);
#432=VERTEX_POINT('',#1399);
#433=VERTEX_POINT('',#1401);
#434=VERTEX_POINT('',#1403);
#435=VERTEX_POINT('',#1405);
#436=VERTEX_POINT('',#1408);
#437=VERTEX_POINT('',#1423);
#438=VERTEX_POINT('',#1427);
#439=VERTEX_POINT('',#1431);
#440=VERTEX_POINT('',#1435);
#441=VERTEX_POINT('',#1436);
#442=VERTEX_POINT('',#1438);
#443=VERTEX_POINT('',#1443);
#444=VERTEX_POINT('',#1445);
#445=VERTEX_POINT('',#1454);
#446=VERTEX_POINT('',#1455);
#447=VERTEX_POINT('',#1457);
#448=VERTEX_POINT('',#1459);
#449=VERTEX_POINT('',#1461);
#450=VERTEX_POINT('',#1463);
#451=VERTEX_POINT('',#1465);
#452=VERTEX_POINT('',#1467);
#453=VERTEX_POINT('',#1469);
#454=VERTEX_POINT('',#1471);
#455=VERTEX_POINT('',#1473);
#456=VERTEX_POINT('',#1475);
#457=VERTEX_POINT('',#1477);
#458=VERTEX_POINT('',#1479);
#459=VERTEX_POINT('',#1482);
#460=VERTEX_POINT('',#1484);
#461=VERTEX_POINT('',#1487);
#462=VERTEX_POINT('',#1489);
#463=VERTEX_POINT('',#1493);
#464=VERTEX_POINT('',#1497);
#465=VERTEX_POINT('',#1501);
#466=VERTEX_POINT('',#1505);
#467=VERTEX_POINT('',#1510);
#468=VERTEX_POINT('',#1512);
#469=VERTEX_POINT('',#1516);
#470=VERTEX_POINT('',#1518);
#471=VERTEX_POINT('',#1521);
#472=VERTEX_POINT('',#1527);
#473=VERTEX_POINT('',#1529);
#474=VERTEX_POINT('',#1532);
#475=VERTEX_POINT('',#1545);
#476=VERTEX_POINT('',#1547);
#477=EDGE_CURVE('',#393,#394,#169,.T.);
#478=EDGE_CURVE('',#395,#393,#170,.T.);
#479=EDGE_CURVE('',#396,#395,#171,.T.);
#480=EDGE_CURVE('',#397,#396,#172,.T.);
#481=EDGE_CURVE('',#398,#397,#173,.T.);
#482=EDGE_CURVE('',#398,#399,#174,.T.);
#483=EDGE_CURVE('',#399,#400,#175,.T.);
#484=EDGE_CURVE('',#400,#394,#176,.T.);
#485=EDGE_CURVE('',#395,#401,#177,.T.);
#486=EDGE_CURVE('',#402,#401,#178,.T.);
#487=EDGE_CURVE('',#396,#402,#179,.T.);
#488=EDGE_CURVE('',#403,#404,#180,.T.);
#489=EDGE_CURVE('',#404,#405,#181,.T.);
#490=EDGE_CURVE('',#405,#406,#182,.T.);
#491=EDGE_CURVE('',#406,#407,#183,.T.);
#492=EDGE_CURVE('',#407,#408,#184,.T.);
#493=EDGE_CURVE('',#408,#403,#185,.T.);
#494=EDGE_CURVE('',#409,#410,#186,.T.);
#495=EDGE_CURVE('',#410,#411,#187,.T.);
#496=EDGE_CURVE('',#411,#412,#188,.T.);
#497=EDGE_CURVE('',#412,#413,#189,.T.);
#498=EDGE_CURVE('',#413,#414,#190,.T.);
#499=EDGE_CURVE('',#414,#409,#191,.T.);
#500=EDGE_CURVE('',#415,#398,#192,.T.);
#501=EDGE_CURVE('',#415,#416,#193,.T.);
#502=EDGE_CURVE('',#399,#416,#194,.T.);
#503=EDGE_CURVE('',#416,#417,#195,.T.);
#504=EDGE_CURVE('',#400,#417,#196,.T.);
#505=EDGE_CURVE('',#394,#418,#197,.T.);
#506=EDGE_CURVE('',#417,#418,#198,.T.);
#507=EDGE_CURVE('',#419,#415,#199,.T.);
#508=EDGE_CURVE('',#420,#419,#200,.T.);
#509=EDGE_CURVE('',#416,#420,#201,.T.);
#510=EDGE_CURVE('',#421,#420,#202,.T.);
#511=EDGE_CURVE('',#417,#421,#203,.T.);
#512=EDGE_CURVE('',#418,#422,#204,.T.);
#513=EDGE_CURVE('',#422,#421,#205,.T.);
#514=EDGE_CURVE('',#422,#419,#206,.T.);
#515=EDGE_CURVE('',#423,#424,#207,.T.);
#516=EDGE_CURVE('',#425,#423,#208,.T.);
#517=EDGE_CURVE('',#426,#425,#209,.T.);
#518=EDGE_CURVE('',#427,#426,#210,.T.);
#519=EDGE_CURVE('',#428,#427,#211,.T.);
#520=EDGE_CURVE('',#424,#428,#212,.T.);
#521=EDGE_CURVE('',#429,#429,#25,.T.);
#522=EDGE_CURVE('',#410,#423,#213,.T.);
#523=EDGE_CURVE('',#411,#424,#214,.T.);
#524=EDGE_CURVE('',#412,#428,#215,.T.);
#525=EDGE_CURVE('',#413,#427,#216,.T.);
#526=EDGE_CURVE('',#414,#426,#217,.T.);
#527=EDGE_CURVE('',#409,#425,#218,.T.);
#528=EDGE_CURVE('',#430,#431,#219,.T.);
#529=EDGE_CURVE('',#432,#430,#220,.T.);
#530=EDGE_CURVE('',#433,#432,#221,.T.);
#531=EDGE_CURVE('',#434,#433,#222,.T.);
#532=EDGE_CURVE('',#435,#434,#223,.T.);
#533=EDGE_CURVE('',#431,#435,#224,.T.);
#534=EDGE_CURVE('',#436,#436,#26,.T.);
#535=EDGE_CURVE('',#404,#430,#225,.T.);
#536=EDGE_CURVE('',#405,#431,#226,.T.);
#537=EDGE_CURVE('',#406,#435,#227,.T.);
#538=EDGE_CURVE('',#407,#434,#228,.T.);
#539=EDGE_CURVE('',#408,#433,#229,.T.);
#540=EDGE_CURVE('',#403,#432,#230,.T.);
#541=EDGE_CURVE('',#437,#437,#27,.T.);
#542=EDGE_CURVE('',#437,#429,#231,.T.);
#543=EDGE_CURVE('',#438,#438,#28,.T.);
#544=EDGE_CURVE('',#438,#436,#232,.T.);
#545=EDGE_CURVE('',#397,#439,#233,.T.);
#546=EDGE_CURVE('',#439,#402,#234,.T.);
#547=EDGE_CURVE('',#440,#441,#235,.T.);
#548=EDGE_CURVE('',#440,#442,#29,.T.);
#549=EDGE_CURVE('',#439,#442,#236,.T.);
#550=EDGE_CURVE('',#401,#441,#237,.T.);
#551=EDGE_CURVE('',#443,#440,#238,.T.);
#552=EDGE_CURVE('',#444,#443,#30,.T.);
#553=EDGE_CURVE('',#442,#444,#239,.T.);
#554=EDGE_CURVE('',#444,#443,#240,.T.);
#555=EDGE_CURVE('',#441,#393,#241,.T.);
#556=EDGE_CURVE('',#445,#446,#242,.T.);
#557=EDGE_CURVE('',#447,#445,#243,.T.);
#558=EDGE_CURVE('',#448,#447,#244,.T.);
#559=EDGE_CURVE('',#449,#448,#245,.T.);
#560=EDGE_CURVE('',#450,#449,#246,.T.);
#561=EDGE_CURVE('',#451,#450,#247,.T.);
#562=EDGE_CURVE('',#452,#451,#248,.T.);
#563=EDGE_CURVE('',#453,#452,#249,.T.);
#564=EDGE_CURVE('',#454,#453,#250,.T.);
#565=EDGE_CURVE('',#455,#454,#251,.T.);
#566=EDGE_CURVE('',#456,#455,#252,.T.);
#567=EDGE_CURVE('',#457,#456,#253,.T.);
#568=EDGE_CURVE('',#458,#457,#254,.T.);
#569=EDGE_CURVE('',#446,#458,#255,.T.);
#570=EDGE_CURVE('',#459,#459,#31,.T.);
#571=EDGE_CURVE('',#460,#460,#32,.T.);
#572=EDGE_CURVE('',#451,#461,#256,.T.);
#573=EDGE_CURVE('',#462,#461,#257,.T.);
#574=EDGE_CURVE('',#452,#462,#258,.T.);
#575=EDGE_CURVE('',#463,#450,#259,.T.);
#576=EDGE_CURVE('',#461,#463,#260,.T.);
#577=EDGE_CURVE('',#449,#464,#261,.T.);
#578=EDGE_CURVE('',#464,#463,#262,.T.);
#579=EDGE_CURVE('',#465,#448,#263,.T.);
#580=EDGE_CURVE('',#465,#464,#264,.T.);
#581=EDGE_CURVE('',#466,#447,#265,.T.);
#582=EDGE_CURVE('',#466,#465,#266,.T.);
#583=EDGE_CURVE('',#462,#466,#267,.T.);
#584=EDGE_CURVE('',#467,#445,#268,.T.);
#585=EDGE_CURVE('',#468,#467,#269,.T.);
#586=EDGE_CURVE('',#453,#468,#270,.T.);
#587=EDGE_CURVE('',#469,#469,#33,.T.);
#588=EDGE_CURVE('',#470,#470,#34,.T.);
#589=EDGE_CURVE('',#471,#471,#35,.T.);
#590=EDGE_CURVE('',#471,#469,#271,.T.);
#591=EDGE_CURVE('',#470,#460,#272,.T.);
#592=EDGE_CURVE('',#472,#472,#36,.T.);
#593=EDGE_CURVE('',#473,#473,#37,.T.);
#594=EDGE_CURVE('',#474,#474,#38,.T.);
#595=EDGE_CURVE('',#474,#472,#273,.T.);
#596=EDGE_CURVE('',#473,#459,#274,.T.);
#597=EDGE_CURVE('',#458,#455,#39,.T.);
#598=EDGE_CURVE('',#456,#457,#40,.T.);
#599=EDGE_CURVE('',#461,#465,#275,.T.);
#600=EDGE_CURVE('',#467,#475,#276,.T.);
#601=EDGE_CURVE('',#476,#475,#277,.T.);
#602=EDGE_CURVE('',#468,#476,#278,.T.);
#603=EDGE_CURVE('',#454,#476,#279,.T.);
#604=EDGE_CURVE('',#475,#446,#280,.T.);
#605=ORIENTED_EDGE('',*,*,#477,.F.);
#606=ORIENTED_EDGE('',*,*,#478,.F.);
#607=ORIENTED_EDGE('',*,*,#479,.F.);
#608=ORIENTED_EDGE('',*,*,#480,.F.);
#609=ORIENTED_EDGE('',*,*,#481,.F.);
#610=ORIENTED_EDGE('',*,*,#482,.T.);
#611=ORIENTED_EDGE('',*,*,#483,.T.);
#612=ORIENTED_EDGE('',*,*,#484,.T.);
#613=ORIENTED_EDGE('',*,*,#479,.T.);
#614=ORIENTED_EDGE('',*,*,#485,.T.);
#615=ORIENTED_EDGE('',*,*,#486,.F.);
#616=ORIENTED_EDGE('',*,*,#487,.F.);
#617=ORIENTED_EDGE('',*,*,#488,.T.);
#618=ORIENTED_EDGE('',*,*,#489,.T.);
#619=ORIENTED_EDGE('',*,*,#490,.T.);
#620=ORIENTED_EDGE('',*,*,#491,.T.);
#621=ORIENTED_EDGE('',*,*,#492,.T.);
#622=ORIENTED_EDGE('',*,*,#493,.T.);
#623=ORIENTED_EDGE('',*,*,#494,.T.);
#624=ORIENTED_EDGE('',*,*,#495,.T.);
#625=ORIENTED_EDGE('',*,*,#496,.T.);
#626=ORIENTED_EDGE('',*,*,#497,.T.);
#627=ORIENTED_EDGE('',*,*,#498,.T.);
#628=ORIENTED_EDGE('',*,*,#499,.T.);
#629=ORIENTED_EDGE('',*,*,#500,.F.);
#630=ORIENTED_EDGE('',*,*,#501,.T.);
#631=ORIENTED_EDGE('',*,*,#502,.F.);
#632=ORIENTED_EDGE('',*,*,#482,.F.);
#633=ORIENTED_EDGE('',*,*,#483,.F.);
#634=ORIENTED_EDGE('',*,*,#502,.T.);
#635=ORIENTED_EDGE('',*,*,#503,.T.);
#636=ORIENTED_EDGE('',*,*,#504,.F.);
#637=ORIENTED_EDGE('',*,*,#505,.F.);
#638=ORIENTED_EDGE('',*,*,#484,.F.);
#639=ORIENTED_EDGE('',*,*,#504,.T.);
#640=ORIENTED_EDGE('',*,*,#506,.T.);
#641=ORIENTED_EDGE('',*,*,#507,.F.);
#642=ORIENTED_EDGE('',*,*,#508,.F.);
#643=ORIENTED_EDGE('',*,*,#509,.F.);
#644=ORIENTED_EDGE('',*,*,#501,.F.);
#645=ORIENTED_EDGE('',*,*,#503,.F.);
#646=ORIENTED_EDGE('',*,*,#509,.T.);
#647=ORIENTED_EDGE('',*,*,#510,.F.);
#648=ORIENTED_EDGE('',*,*,#511,.F.);
#649=ORIENTED_EDGE('',*,*,#512,.F.);
#650=ORIENTED_EDGE('',*,*,#506,.F.);
#651=ORIENTED_EDGE('',*,*,#511,.T.);
#652=ORIENTED_EDGE('',*,*,#513,.F.);
#653=ORIENTED_EDGE('',*,*,#514,.F.);
#654=ORIENTED_EDGE('',*,*,#513,.T.);
#655=ORIENTED_EDGE('',*,*,#510,.T.);
#656=ORIENTED_EDGE('',*,*,#508,.T.);
#657=ORIENTED_EDGE('',*,*,#515,.F.);
#658=ORIENTED_EDGE('',*,*,#516,.F.);
#659=ORIENTED_EDGE('',*,*,#517,.F.);
#660=ORIENTED_EDGE('',*,*,#518,.F.);
#661=ORIENTED_EDGE('',*,*,#519,.F.);
#662=ORIENTED_EDGE('',*,*,#520,.F.);
#663=ORIENTED_EDGE('',*,*,#521,.F.);
#664=ORIENTED_EDGE('',*,*,#495,.F.);
#665=ORIENTED_EDGE('',*,*,#522,.T.);
#666=ORIENTED_EDGE('',*,*,#515,.T.);
#667=ORIENTED_EDGE('',*,*,#523,.F.);
#668=ORIENTED_EDGE('',*,*,#496,.F.);
#669=ORIENTED_EDGE('',*,*,#523,.T.);
#670=ORIENTED_EDGE('',*,*,#520,.T.);
#671=ORIENTED_EDGE('',*,*,#524,.F.);
#672=ORIENTED_EDGE('',*,*,#497,.F.);
#673=ORIENTED_EDGE('',*,*,#524,.T.);
#674=ORIENTED_EDGE('',*,*,#519,.T.);
#675=ORIENTED_EDGE('',*,*,#525,.F.);
#676=ORIENTED_EDGE('',*,*,#498,.F.);
#677=ORIENTED_EDGE('',*,*,#525,.T.);
#678=ORIENTED_EDGE('',*,*,#518,.T.);
#679=ORIENTED_EDGE('',*,*,#526,.F.);
#680=ORIENTED_EDGE('',*,*,#499,.F.);
#681=ORIENTED_EDGE('',*,*,#526,.T.);
#682=ORIENTED_EDGE('',*,*,#517,.T.);
#683=ORIENTED_EDGE('',*,*,#527,.F.);
#684=ORIENTED_EDGE('',*,*,#494,.F.);
#685=ORIENTED_EDGE('',*,*,#527,.T.);
#686=ORIENTED_EDGE('',*,*,#516,.T.);
#687=ORIENTED_EDGE('',*,*,#522,.F.);
#688=ORIENTED_EDGE('',*,*,#528,.F.);
#689=ORIENTED_EDGE('',*,*,#529,.F.);
#690=ORIENTED_EDGE('',*,*,#530,.F.);
#691=ORIENTED_EDGE('',*,*,#531,.F.);
#692=ORIENTED_EDGE('',*,*,#532,.F.);
#693=ORIENTED_EDGE('',*,*,#533,.F.);
#694=ORIENTED_EDGE('',*,*,#534,.F.);
#695=ORIENTED_EDGE('',*,*,#489,.F.);
#696=ORIENTED_EDGE('',*,*,#535,.T.);
#697=ORIENTED_EDGE('',*,*,#528,.T.);
#698=ORIENTED_EDGE('',*,*,#536,.F.);
#699=ORIENTED_EDGE('',*,*,#490,.F.);
#700=ORIENTED_EDGE('',*,*,#536,.T.);
#701=ORIENTED_EDGE('',*,*,#533,.T.);
#702=ORIENTED_EDGE('',*,*,#537,.F.);
#703=ORIENTED_EDGE('',*,*,#491,.F.);
#704=ORIENTED_EDGE('',*,*,#537,.T.);
#705=ORIENTED_EDGE('',*,*,#532,.T.);
#706=ORIENTED_EDGE('',*,*,#538,.F.);
#707=ORIENTED_EDGE('',*,*,#492,.F.);
#708=ORIENTED_EDGE('',*,*,#538,.T.);
#709=ORIENTED_EDGE('',*,*,#531,.T.);
#710=ORIENTED_EDGE('',*,*,#539,.F.);
#711=ORIENTED_EDGE('',*,*,#493,.F.);
#712=ORIENTED_EDGE('',*,*,#539,.T.);
#713=ORIENTED_EDGE('',*,*,#530,.T.);
#714=ORIENTED_EDGE('',*,*,#540,.F.);
#715=ORIENTED_EDGE('',*,*,#488,.F.);
#716=ORIENTED_EDGE('',*,*,#540,.T.);
#717=ORIENTED_EDGE('',*,*,#529,.T.);
#718=ORIENTED_EDGE('',*,*,#535,.F.);
#719=ORIENTED_EDGE('',*,*,#541,.F.);
#720=ORIENTED_EDGE('',*,*,#542,.T.);
#721=ORIENTED_EDGE('',*,*,#521,.T.);
#722=ORIENTED_EDGE('',*,*,#542,.F.);
#723=ORIENTED_EDGE('',*,*,#543,.F.);
#724=ORIENTED_EDGE('',*,*,#544,.T.);
#725=ORIENTED_EDGE('',*,*,#534,.T.);
#726=ORIENTED_EDGE('',*,*,#544,.F.);
#727=ORIENTED_EDGE('',*,*,#545,.F.);
#728=ORIENTED_EDGE('',*,*,#480,.T.);
#729=ORIENTED_EDGE('',*,*,#487,.T.);
#730=ORIENTED_EDGE('',*,*,#546,.F.);
#731=ORIENTED_EDGE('',*,*,#547,.F.);
#732=ORIENTED_EDGE('',*,*,#548,.T.);
#733=ORIENTED_EDGE('',*,*,#549,.F.);
#734=ORIENTED_EDGE('',*,*,#546,.T.);
#735=ORIENTED_EDGE('',*,*,#486,.T.);
#736=ORIENTED_EDGE('',*,*,#550,.T.);
#737=ORIENTED_EDGE('',*,*,#551,.F.);
#738=ORIENTED_EDGE('',*,*,#552,.F.);
#739=ORIENTED_EDGE('',*,*,#553,.F.);
#740=ORIENTED_EDGE('',*,*,#548,.F.);
#741=ORIENTED_EDGE('',*,*,#554,.F.);
#742=ORIENTED_EDGE('',*,*,#552,.T.);
#743=ORIENTED_EDGE('',*,*,#555,.F.);
#744=ORIENTED_EDGE('',*,*,#550,.F.);
#745=ORIENTED_EDGE('',*,*,#485,.F.);
#746=ORIENTED_EDGE('',*,*,#478,.T.);
#747=ORIENTED_EDGE('',*,*,#545,.T.);
#748=ORIENTED_EDGE('',*,*,#549,.T.);
#749=ORIENTED_EDGE('',*,*,#553,.T.);
#750=ORIENTED_EDGE('',*,*,#554,.T.);
#751=ORIENTED_EDGE('',*,*,#551,.T.);
#752=ORIENTED_EDGE('',*,*,#547,.T.);
#753=ORIENTED_EDGE('',*,*,#555,.T.);
#754=ORIENTED_EDGE('',*,*,#477,.T.);
#755=ORIENTED_EDGE('',*,*,#505,.T.);
#756=ORIENTED_EDGE('',*,*,#512,.T.);
#757=ORIENTED_EDGE('',*,*,#514,.T.);
#758=ORIENTED_EDGE('',*,*,#507,.T.);
#759=ORIENTED_EDGE('',*,*,#500,.T.);
#760=ORIENTED_EDGE('',*,*,#481,.T.);
#761=ORIENTED_EDGE('',*,*,#543,.T.);
#762=ORIENTED_EDGE('',*,*,#541,.T.);
#763=ORIENTED_EDGE('',*,*,#556,.F.);
#764=ORIENTED_EDGE('',*,*,#557,.F.);
#765=ORIENTED_EDGE('',*,*,#558,.F.);
#766=ORIENTED_EDGE('',*,*,#559,.F.);
#767=ORIENTED_EDGE('',*,*,#560,.F.);
#768=ORIENTED_EDGE('',*,*,#561,.F.);
#769=ORIENTED_EDGE('',*,*,#562,.F.);
#770=ORIENTED_EDGE('',*,*,#563,.F.);
#771=ORIENTED_EDGE('',*,*,#564,.F.);
#772=ORIENTED_EDGE('',*,*,#565,.F.);
#773=ORIENTED_EDGE('',*,*,#566,.F.);
#774=ORIENTED_EDGE('',*,*,#567,.F.);
#775=ORIENTED_EDGE('',*,*,#568,.F.);
#776=ORIENTED_EDGE('',*,*,#569,.F.);
#777=ORIENTED_EDGE('',*,*,#570,.F.);
#778=ORIENTED_EDGE('',*,*,#571,.F.);
#779=ORIENTED_EDGE('',*,*,#562,.T.);
#780=ORIENTED_EDGE('',*,*,#572,.T.);
#781=ORIENTED_EDGE('',*,*,#573,.F.);
#782=ORIENTED_EDGE('',*,*,#574,.F.);
#783=ORIENTED_EDGE('',*,*,#561,.T.);
#784=ORIENTED_EDGE('',*,*,#575,.F.);
#785=ORIENTED_EDGE('',*,*,#576,.F.);
#786=ORIENTED_EDGE('',*,*,#572,.F.);
#787=ORIENTED_EDGE('',*,*,#560,.T.);
#788=ORIENTED_EDGE('',*,*,#577,.T.);
#789=ORIENTED_EDGE('',*,*,#578,.T.);
#790=ORIENTED_EDGE('',*,*,#575,.T.);
#791=ORIENTED_EDGE('',*,*,#559,.T.);
#792=ORIENTED_EDGE('',*,*,#579,.F.);
#793=ORIENTED_EDGE('',*,*,#580,.T.);
#794=ORIENTED_EDGE('',*,*,#577,.F.);
#795=ORIENTED_EDGE('',*,*,#558,.T.);
#796=ORIENTED_EDGE('',*,*,#581,.F.);
#797=ORIENTED_EDGE('',*,*,#582,.T.);
#798=ORIENTED_EDGE('',*,*,#579,.T.);
#799=ORIENTED_EDGE('',*,*,#563,.T.);
#800=ORIENTED_EDGE('',*,*,#574,.T.);
#801=ORIENTED_EDGE('',*,*,#583,.T.);
#802=ORIENTED_EDGE('',*,*,#581,.T.);
#803=ORIENTED_EDGE('',*,*,#557,.T.);
#804=ORIENTED_EDGE('',*,*,#584,.F.);
#805=ORIENTED_EDGE('',*,*,#585,.F.);
#806=ORIENTED_EDGE('',*,*,#586,.F.);
#807=ORIENTED_EDGE('',*,*,#587,.F.);
#808=ORIENTED_EDGE('',*,*,#588,.T.);
#809=ORIENTED_EDGE('',*,*,#589,.F.);
#810=ORIENTED_EDGE('',*,*,#590,.T.);
#811=ORIENTED_EDGE('',*,*,#587,.T.);
#812=ORIENTED_EDGE('',*,*,#590,.F.);
#813=ORIENTED_EDGE('',*,*,#588,.F.);
#814=ORIENTED_EDGE('',*,*,#591,.T.);
#815=ORIENTED_EDGE('',*,*,#571,.T.);
#816=ORIENTED_EDGE('',*,*,#591,.F.);
#817=ORIENTED_EDGE('',*,*,#592,.F.);
#818=ORIENTED_EDGE('',*,*,#593,.T.);
#819=ORIENTED_EDGE('',*,*,#594,.F.);
#820=ORIENTED_EDGE('',*,*,#595,.T.);
#821=ORIENTED_EDGE('',*,*,#592,.T.);
#822=ORIENTED_EDGE('',*,*,#595,.F.);
#823=ORIENTED_EDGE('',*,*,#593,.F.);
#824=ORIENTED_EDGE('',*,*,#596,.T.);
#825=ORIENTED_EDGE('',*,*,#570,.T.);
#826=ORIENTED_EDGE('',*,*,#596,.F.);
#827=ORIENTED_EDGE('',*,*,#566,.T.);
#828=ORIENTED_EDGE('',*,*,#597,.F.);
#829=ORIENTED_EDGE('',*,*,#568,.T.);
#830=ORIENTED_EDGE('',*,*,#598,.F.);
#831=ORIENTED_EDGE('',*,*,#567,.T.);
#832=ORIENTED_EDGE('',*,*,#598,.T.);
#833=ORIENTED_EDGE('',*,*,#599,.F.);
#834=ORIENTED_EDGE('',*,*,#576,.T.);
#835=ORIENTED_EDGE('',*,*,#578,.F.);
#836=ORIENTED_EDGE('',*,*,#580,.F.);
#837=ORIENTED_EDGE('',*,*,#583,.F.);
#838=ORIENTED_EDGE('',*,*,#573,.T.);
#839=ORIENTED_EDGE('',*,*,#599,.T.);
#840=ORIENTED_EDGE('',*,*,#582,.F.);
#841=ORIENTED_EDGE('',*,*,#585,.T.);
#842=ORIENTED_EDGE('',*,*,#600,.T.);
#843=ORIENTED_EDGE('',*,*,#601,.F.);
#844=ORIENTED_EDGE('',*,*,#602,.F.);
#845=ORIENTED_EDGE('',*,*,#589,.T.);
#846=ORIENTED_EDGE('',*,*,#594,.T.);
#847=ORIENTED_EDGE('',*,*,#564,.T.);
#848=ORIENTED_EDGE('',*,*,#586,.T.);
#849=ORIENTED_EDGE('',*,*,#602,.T.);
#850=ORIENTED_EDGE('',*,*,#603,.F.);
#851=ORIENTED_EDGE('',*,*,#556,.T.);
#852=ORIENTED_EDGE('',*,*,#604,.F.);
#853=ORIENTED_EDGE('',*,*,#600,.F.);
#854=ORIENTED_EDGE('',*,*,#584,.T.);
#855=ORIENTED_EDGE('',*,*,#565,.T.);
#856=ORIENTED_EDGE('',*,*,#603,.T.);
#857=ORIENTED_EDGE('',*,*,#601,.T.);
#858=ORIENTED_EDGE('',*,*,#604,.T.);
#859=ORIENTED_EDGE('',*,*,#569,.T.);
#860=ORIENTED_EDGE('',*,*,#597,.T.);
#861=PLANE('',#972);
#862=PLANE('',#973);
#863=PLANE('',#974);
#864=PLANE('',#975);
#865=PLANE('',#976);
#866=PLANE('',#977);
#867=PLANE('',#978);
#868=PLANE('',#979);
#869=PLANE('',#980);
#870=PLANE('',#981);
#871=PLANE('',#983);
#872=PLANE('',#984);
#873=PLANE('',#985);
#874=PLANE('',#986);
#875=PLANE('',#987);
#876=PLANE('',#988);
#877=PLANE('',#989);
#878=PLANE('',#991);
#879=PLANE('',#992);
#880=PLANE('',#993);
#881=PLANE('',#994);
#882=PLANE('',#995);
#883=PLANE('',#996);
#884=PLANE('',#1001);
#885=PLANE('',#1002);
#886=PLANE('',#1006);
#887=PLANE('',#1007);
#888=PLANE('',#1008);
#889=PLANE('',#1009);
#890=PLANE('',#1012);
#891=PLANE('',#1013);
#892=PLANE('',#1014);
#893=PLANE('',#1015);
#894=PLANE('',#1016);
#895=PLANE('',#1017);
#896=PLANE('',#1018);
#897=PLANE('',#1024);
#898=PLANE('',#1033);
#899=PLANE('',#1034);
#900=PLANE('',#1035);
#901=PLANE('',#1036);
#902=PLANE('',#1037);
#903=PLANE('',#1038);
#904=PLANE('',#1039);
#905=ADVANCED_FACE('',(#53),#861,.F.);
#906=ADVANCED_FACE('',(#54,#41,#42),#862,.T.);
#907=ADVANCED_FACE('',(#55),#863,.F.);
#908=ADVANCED_FACE('',(#56),#864,.F.);
#909=ADVANCED_FACE('',(#57),#865,.F.);
#910=ADVANCED_FACE('',(#58),#866,.T.);
#911=ADVANCED_FACE('',(#59),#867,.T.);
#912=ADVANCED_FACE('',(#60),#868,.T.);
#913=ADVANCED_FACE('',(#61),#869,.F.);
#914=ADVANCED_FACE('',(#62,#43),#870,.T.);
#915=ADVANCED_FACE('',(#63),#871,.F.);
#916=ADVANCED_FACE('',(#64),#872,.F.);
#917=ADVANCED_FACE('',(#65),#873,.F.);
#918=ADVANCED_FACE('',(#66),#874,.F.);
#919=ADVANCED_FACE('',(#67),#875,.F.);
#920=ADVANCED_FACE('',(#68),#876,.F.);
#921=ADVANCED_FACE('',(#69,#44),#877,.T.);
#922=ADVANCED_FACE('',(#70),#878,.F.);
#923=ADVANCED_FACE('',(#71),#879,.F.);
#924=ADVANCED_FACE('',(#72),#880,.F.);
#925=ADVANCED_FACE('',(#73),#881,.F.);
#926=ADVANCED_FACE('',(#74),#882,.F.);
#927=ADVANCED_FACE('',(#75),#883,.F.);
#928=ADVANCED_FACE('',(#76),#17,.F.);
#929=ADVANCED_FACE('',(#77),#18,.F.);
#930=ADVANCED_FACE('',(#78),#884,.T.);
#931=ADVANCED_FACE('',(#79),#885,.T.);
#932=ADVANCED_FACE('',(#80),#19,.T.);
#933=ADVANCED_FACE('',(#81),#886,.T.);
#934=ADVANCED_FACE('',(#82),#887,.T.);
#935=ADVANCED_FACE('',(#83,#45,#46),#888,.T.);
#936=ADVANCED_FACE('',(#84,#47,#48),#889,.F.);
#937=ADVANCED_FACE('',(#85),#890,.F.);
#938=ADVANCED_FACE('',(#86),#891,.T.);
#939=ADVANCED_FACE('',(#87),#892,.F.);
#940=ADVANCED_FACE('',(#88),#893,.T.);
#941=ADVANCED_FACE('',(#89),#894,.F.);
#942=ADVANCED_FACE('',(#90),#895,.F.);
#943=ADVANCED_FACE('',(#91,#49),#896,.F.);
#944=ADVANCED_FACE('',(#92),#20,.F.);
#945=ADVANCED_FACE('',(#93),#21,.F.);
#946=ADVANCED_FACE('',(#94,#50),#897,.F.);
#947=ADVANCED_FACE('',(#95),#22,.F.);
#948=ADVANCED_FACE('',(#96),#23,.F.);
#949=ADVANCED_FACE('',(#97),#24,.T.);
#950=ADVANCED_FACE('',(#98),#898,.T.);
#951=ADVANCED_FACE('',(#99),#899,.T.);
#952=ADVANCED_FACE('',(#100),#900,.F.);
#953=ADVANCED_FACE('',(#101,#51,#52),#901,.T.);
#954=ADVANCED_FACE('',(#102),#902,.T.);
#955=ADVANCED_FACE('',(#103),#903,.T.);
#956=ADVANCED_FACE('',(#104),#904,.T.);
#957=CLOSED_SHELL('',(#905,#906,#907,#908,#909,#910,#911,#912,#913,#914,
#915,#916,#917,#918,#919,#920,#921,#922,#923,#924,#925,#926,#927,#928,#929,
#930,#931,#932,#933,#934,#935));
#958=CLOSED_SHELL('',(#936,#937,#938,#939,#940,#941,#942,#943,#944,#945,
#946,#947,#948,#949,#950,#951,#952,#953,#954,#955,#956));
#959=DERIVED_UNIT_ELEMENT(#961,1.);
#960=DERIVED_UNIT_ELEMENT(#1560,-3.);
#961=(
MASS_UNIT()
NAMED_UNIT(*)
SI_UNIT(.KILO.,.GRAM.)
);
#962=DERIVED_UNIT((#959,#960));
#963=MEASURE_REPRESENTATION_ITEM('density measure',
POSITIVE_RATIO_MEASURE(1171.75),#962);
#964=PROPERTY_DEFINITION_REPRESENTATION(#969,#966);
#965=PROPERTY_DEFINITION_REPRESENTATION(#970,#967);
#966=REPRESENTATION('material name',(#968),#1557);
#967=REPRESENTATION('density',(#963),#1557);
#968=DESCRIPTIVE_REPRESENTATION_ITEM(
'PA 11 - Nylon- HP 11-30 (with EOS P 396 3D Printer)',
'PA 11 - Nylon- HP 11-30 (with EOS P 396 3D Printer)');
#969=PROPERTY_DEFINITION('material property','material name',#1567);
#970=PROPERTY_DEFINITION('material property','density of part',#1567);
#971=AXIS2_PLACEMENT_3D('',#1290,#1040,#1041);
#972=AXIS2_PLACEMENT_3D('',#1291,#1042,#1043);
#973=AXIS2_PLACEMENT_3D('',#1308,#1052,#1053);
#974=AXIS2_PLACEMENT_3D('',#1338,#1069,#1070);
#975=AXIS2_PLACEMENT_3D('',#1344,#1074,#1075);
#976=AXIS2_PLACEMENT_3D('',#1348,#1078,#1079);
#977=AXIS2_PLACEMENT_3D('',#1352,#1082,#1083);
#978=AXIS2_PLACEMENT_3D('',#1358,#1087,#1088);
#979=AXIS2_PLACEMENT_3D('',#1362,#1091,#1092);
#980=AXIS2_PLACEMENT_3D('',#1366,#1095,#1096);
#981=AXIS2_PLACEMENT_3D('',#1368,#1098,#1099);
#982=AXIS2_PLACEMENT_3D('',#1382,#1106,#1107);
#983=AXIS2_PLACEMENT_3D('',#1383,#1108,#1109);
#984=AXIS2_PLACEMENT_3D('',#1386,#1112,#1113);
#985=AXIS2_PLACEMENT_3D('',#1388,#1115,#1116);
#986=AXIS2_PLACEMENT_3D('',#1390,#1118,#1119);
#987=AXIS2_PLACEMENT_3D('',#1392,#1121,#1122);
#988=AXIS2_PLACEMENT_3D('',#1394,#1124,#1125);
#989=AXIS2_PLACEMENT_3D('',#1395,#1126,#1127);
#990=AXIS2_PLACEMENT_3D('',#1409,#1134,#1135);
#991=AXIS2_PLACEMENT_3D('',#1410,#1136,#1137);
#992=AXIS2_PLACEMENT_3D('',#1413,#1140,#1141);
#993=AXIS2_PLACEMENT_3D('',#1415,#1143,#1144);
#994=AXIS2_PLACEMENT_3D('',#1417,#1146,#1147);
#995=AXIS2_PLACEMENT_3D('',#1419,#1149,#1150);
#996=AXIS2_PLACEMENT_3D('',#1421,#1152,#1153);
#997=AXIS2_PLACEMENT_3D('',#1422,#1154,#1155);
#998=AXIS2_PLACEMENT_3D('',#1424,#1156,#1157);
#999=AXIS2_PLACEMENT_3D('',#1426,#1159,#1160);
#1000=AXIS2_PLACEMENT_3D('',#1428,#1161,#1162);
#1001=AXIS2_PLACEMENT_3D('',#1430,#1164,#1165);
#1002=AXIS2_PLACEMENT_3D('',#1434,#1168,#1169);
#1003=AXIS2_PLACEMENT_3D('',#1439,#1171,#1172);
#1004=AXIS2_PLACEMENT_3D('',#1442,#1175,#1176);
#1005=AXIS2_PLACEMENT_3D('',#1446,#1178,#1179);
#1006=AXIS2_PLACEMENT_3D('',#1448,#1181,#1182);
#1007=AXIS2_PLACEMENT_3D('',#1450,#1184,#1185);
#1008=AXIS2_PLACEMENT_3D('',#1452,#1187,#1188);
#1009=AXIS2_PLACEMENT_3D('',#1453,#1189,#1190);
#1010=AXIS2_PLACEMENT_3D('',#1483,#1205,#1206);
#1011=AXIS2_PLACEMENT_3D('',#1485,#1207,#1208);
#1012=AXIS2_PLACEMENT_3D('',#1486,#1209,#1210);
#1013=AXIS2_PLACEMENT_3D('',#1492,#1214,#1215);
#1014=AXIS2_PLACEMENT_3D('',#1496,#1218,#1219);
#1015=AXIS2_PLACEMENT_3D('',#1500,#1222,#1223);
#1016=AXIS2_PLACEMENT_3D('',#1504,#1226,#1227);
#1017=AXIS2_PLACEMENT_3D('',#1508,#1230,#1231);
#1018=AXIS2_PLACEMENT_3D('',#1515,#1236,#1237);
#1019=AXIS2_PLACEMENT_3D('',#1517,#1238,#1239);
#1020=AXIS2_PLACEMENT_3D('',#1519,#1240,#1241);
#1021=AXIS2_PLACEMENT_3D('',#1520,#1242,#1243);
#1022=AXIS2_PLACEMENT_3D('',#1522,#1244,#1245);
#1023=AXIS2_PLACEMENT_3D('',#1524,#1247,#1248);
#1024=AXIS2_PLACEMENT_3D('',#1526,#1250,#1251);
#1025=AXIS2_PLACEMENT_3D('',#1528,#1252,#1253);
#1026=AXIS2_PLACEMENT_3D('',#1530,#1254,#1255);
#1027=AXIS2_PLACEMENT_3D('',#1531,#1256,#1257);
#1028=AXIS2_PLACEMENT_3D('',#1533,#1258,#1259);
#1029=AXIS2_PLACEMENT_3D('',#1535,#1261,#1262);
#1030=AXIS2_PLACEMENT_3D('',#1537,#1264,#1265);
#1031=AXIS2_PLACEMENT_3D('',#1538,#1266,#1267);
#1032=AXIS2_PLACEMENT_3D('',#1539,#1268,#1269);
#1033=AXIS2_PLACEMENT_3D('',#1540,#1270,#1271);
#1034=AXIS2_PLACEMENT_3D('',#1541,#1272,#1273);
#1035=AXIS2_PLACEMENT_3D('',#1543,#1275,#1276);
#1036=AXIS2_PLACEMENT_3D('',#1544,#1277,#1278);
#1037=AXIS2_PLACEMENT_3D('',#1550,#1282,#1283);
#1038=AXIS2_PLACEMENT_3D('',#1552,#1285,#1286);
#1039=AXIS2_PLACEMENT_3D('',#1554,#1288,#1289);
#1040=DIRECTION('axis',(0.,0.,1.));
#1041=DIRECTION('refdir',(1.,0.,0.));
#1042=DIRECTION('center_axis',(0.,0.,1.));
#1043=DIRECTION('ref_axis',(1.,0.,0.));
#1044=DIRECTION('',(1.,0.,0.));
#1045=DIRECTION('',(0.,-1.,0.));
#1046=DIRECTION('',(-1.,0.,0.));
#1047=DIRECTION('',(0.,1.,0.));
#1048=DIRECTION('',(1.,0.,0.));
#1049=DIRECTION('',(0.,1.,0.));
#1050=DIRECTION('',(-1.,0.,0.));
#1051=DIRECTION('',(0.,-1.,0.));
#1052=DIRECTION('center_axis',(0.,1.,0.));
#1053=DIRECTION('ref_axis',(-1.,0.,0.));
#1054=DIRECTION('',(0.,0.,1.));
#1055=DIRECTION('',(-1.,0.,0.));
#1056=DIRECTION('',(0.,0.,1.));
#1057=DIRECTION('',(-0.5,0.,0.866025403784438));
#1058=DIRECTION('',(-1.,0.,-6.86772387994129E-16));
#1059=DIRECTION('',(-0.499999999999999,0.,-0.866025403784439));
#1060=DIRECTION('',(0.500000000000001,0.,-0.866025403784438));
#1061=DIRECTION('',(1.,0.,1.0301585819912E-15));
#1062=DIRECTION('',(0.499999999999999,0.,0.866025403784439));
#1063=DIRECTION('',(0.518480334557809,0.,-0.855089552431102));
#1064=DIRECTION('',(0.999769442194905,0.,0.0214723648741669));
#1065=DIRECTION('',(0.481289107637095,0.,0.876561917305269));
#1066=DIRECTION('',(-0.518480334557809,0.,0.855089552431102));
#1067=DIRECTION('',(-0.999769442194905,0.,-0.0214723648741664));
#1068=DIRECTION('',(-0.481289107637096,0.,-0.876561917305268));
#1069=DIRECTION('center_axis',(1.,0.,0.));
#1070=DIRECTION('ref_axis',(0.,1.,0.));
#1071=DIRECTION('',(0.,0.,-1.));
#1072=DIRECTION('',(0.,1.,0.));
#1073=DIRECTION('',(0.,0.,1.));
#1074=DIRECTION('center_axis',(0.,1.,0.));
#1075=DIRECTION('ref_axis',(-1.,0.,0.));
#1076=DIRECTION('',(-1.,0.,0.));
#1077=DIRECTION('',(0.,0.,1.));
#1078=DIRECTION('center_axis',(-1.,0.,0.));
#1079=DIRECTION('ref_axis',(0.,-1.,0.));
#1080=DIRECTION('',(0.,0.,1.));
#1081=DIRECTION('',(0.,-1.,0.));
#1082=DIRECTION('center_axis',(-0.996703768233982,4.12652030357827E-16,
0.0811270509027663));
#1083=DIRECTION('ref_axis',(0.0811270509027663,0.,0.996703768233982));
#1084=DIRECTION('',(-0.0811270509027663,0.,-0.996703768233982));
#1085=DIRECTION('',(-1.03759161179921E-16,-1.,0.));
#1086=DIRECTION('',(0.0808613887135333,0.0808613887135336,0.993439918480548));
#1087=DIRECTION('center_axis',(0.,-0.996703768233982,0.0811270509027666));
#1088=DIRECTION('ref_axis',(0.,-0.0811270509027666,-0.996703768233982));
#1089=DIRECTION('',(1.,0.,0.));
#1090=DIRECTION('',(-0.0808613887135328,0.0808613887135336,0.993439918480548));
#1091=DIRECTION('center_axis',(0.996703768233982,-4.36925679202405E-16,
0.081127050902766));
#1092=DIRECTION('ref_axis',(0.081127050902766,0.,-0.996703768233982));
#1093=DIRECTION('',(-0.081127050902766,0.,0.996703768233982));
#1094=DIRECTION('',(1.03759161179921E-16,1.,0.));
#1095=DIRECTION('center_axis',(0.,0.,1.));
#1096=DIRECTION('ref_axis',(1.,0.,0.));
#1097=DIRECTION('',(1.,0.,0.));
#1098=DIRECTION('center_axis',(0.,1.,0.));
#1099=DIRECTION('ref_axis',(-1.,0.,0.));
#1100=DIRECTION('',(0.999769442194905,0.,0.0214723648741669));
#1101=DIRECTION('',(0.518480334557809,0.,-0.855089552431102));
#1102=DIRECTION('',(-0.481289107637096,0.,-0.876561917305268));
#1103=DIRECTION('',(-0.999769442194905,0.,-0.0214723648741664));
#1104=DIRECTION('',(-0.518480334557809,0.,0.855089552431102));
#1105=DIRECTION('',(0.481289107637095,0.,0.876561917305269));
#1106=DIRECTION('center_axis',(0.,1.,0.));
#1107=DIRECTION('ref_axis',(0.,0.,-1.));
#1108=DIRECTION('center_axis',(0.0214723648741669,0.,-0.999769442194905));
#1109=DIRECTION('ref_axis',(0.999769442194905,0.,0.0214723648741669));
#1110=DIRECTION('',(0.,-1.,0.));
#1111=DIRECTION('',(0.,-1.,0.));
#1112=DIRECTION('center_axis',(0.876561917305269,0.,-0.481289107637095));
#1113=DIRECTION('ref_axis',(0.481289107637095,0.,0.876561917305269));
#1114=DIRECTION('',(0.,-1.,0.));
#1115=DIRECTION('center_axis',(0.855089552431102,0.,0.518480334557809));
#1116=DIRECTION('ref_axis',(-0.518480334557809,0.,0.855089552431102));
#1117=DIRECTION('',(0.,-1.,0.));
#1118=DIRECTION('center_axis',(-0.0214723648741664,0.,0.999769442194905));
#1119=DIRECTION('ref_axis',(-0.999769442194905,0.,-0.0214723648741664));
#1120=DIRECTION('',(0.,-1.,0.));
#1121=DIRECTION('center_axis',(-0.876561917305268,0.,0.481289107637096));
#1122=DIRECTION('ref_axis',(-0.481289107637096,0.,-0.876561917305268));
#1123=DIRECTION('',(0.,-1.,0.));
#1124=DIRECTION('center_axis',(-0.855089552431102,0.,-0.518480334557809));
#1125=DIRECTION('ref_axis',(0.518480334557809,0.,-0.855089552431102));
#1126=DIRECTION('center_axis',(0.,1.,0.));
#1127=DIRECTION('ref_axis',(-1.,0.,0.));
#1128=DIRECTION('',(-1.,0.,-6.86772387994129E-16));
#1129=DIRECTION('',(-0.5,0.,0.866025403784438));
#1130=DIRECTION('',(0.499999999999999,0.,0.866025403784439));
#1131=DIRECTION('',(1.,0.,1.0301585819912E-15));
#1132=DIRECTION('',(0.500000000000001,0.,-0.866025403784438));
#1133=DIRECTION('',(-0.499999999999999,0.,-0.866025403784439));
#1134=DIRECTION('center_axis',(0.,1.,0.));
#1135=DIRECTION('ref_axis',(0.,0.,-1.));
#1136=DIRECTION('center_axis',(-6.86772387994129E-16,0.,1.));
#1137=DIRECTION('ref_axis',(-1.,0.,-6.86772387994129E-16));
#1138=DIRECTION('',(0.,-1.,0.));
#1139=DIRECTION('',(0.,-1.,0.));
#1140=DIRECTION('center_axis',(-0.866025403784439,0.,0.499999999999999));
#1141=DIRECTION('ref_axis',(-0.499999999999999,0.,-0.866025403784439));
#1142=DIRECTION('',(0.,-1.,0.));
#1143=DIRECTION('center_axis',(-0.866025403784438,0.,-0.500000000000001));
#1144=DIRECTION('ref_axis',(0.500000000000001,0.,-0.866025403784438));
#1145=DIRECTION('',(0.,-1.,0.));
#1146=DIRECTION('center_axis',(1.0301585819912E-15,0.,-1.));
#1147=DIRECTION('ref_axis',(1.,0.,1.0301585819912E-15));
#1148=DIRECTION('',(0.,-1.,0.));
#1149=DIRECTION('center_axis',(0.866025403784439,0.,-0.499999999999999));
#1150=DIRECTION('ref_axis',(0.499999999999999,0.,0.866025403784439));
#1151=DIRECTION('',(0.,-1.,0.));
#1152=DIRECTION('center_axis',(0.866025403784438,0.,0.5));
#1153=DIRECTION('ref_axis',(-0.5,0.,0.866025403784438));
#1154=DIRECTION('center_axis',(0.,1.,0.));
#1155=DIRECTION('ref_axis',(0.,0.,-1.));
#1156=DIRECTION('center_axis',(0.,1.,0.));
#1157=DIRECTION('ref_axis',(0.,0.,-1.));
#1158=DIRECTION('',(0.,1.,0.));
#1159=DIRECTION('center_axis',(0.,1.,0.));
#1160=DIRECTION('ref_axis',(0.,0.,-1.));
#1161=DIRECTION('center_axis',(0.,1.,0.));
#1162=DIRECTION('ref_axis',(0.,0.,-1.));
#1163=DIRECTION('',(0.,1.,0.));
#1164=DIRECTION('center_axis',(1.,0.,0.));
#1165=DIRECTION('ref_axis',(0.,1.,0.));
#1166=DIRECTION('',(0.,0.,1.));
#1167=DIRECTION('',(0.,1.,0.));
#1168=DIRECTION('center_axis',(0.,0.,1.));
#1169=DIRECTION('ref_axis',(1.,0.,0.));
#1170=DIRECTION('',(-1.,0.,0.));
#1171=DIRECTION('center_axis',(0.,0.,-1.));
#1172=DIRECTION('ref_axis',(-1.,0.,0.));
#1173=DIRECTION('',(-1.,0.,0.));
#1174=DIRECTION('',(0.,-1.,0.));
#1175=DIRECTION('center_axis',(0.,0.,1.));
#1176=DIRECTION('ref_axis',(-1.,0.,0.));
#1177=DIRECTION('',(0.,0.,-1.));
#1178=DIRECTION('center_axis',(0.,0.,1.));
#1179=DIRECTION('ref_axis',(-1.,0.,0.));
#1180=DIRECTION('',(0.,0.,1.));
#1181=DIRECTION('center_axis',(0.,0.,1.));
#1182=DIRECTION('ref_axis',(-1.,0.,0.));
#1183=DIRECTION('',(-1.,0.,0.));
#1184=DIRECTION('center_axis',(-1.,0.,0.));
#1185=DIRECTION('ref_axis',(0.,-1.,0.));
#1186=DIRECTION('',(0.,0.,-1.));
#1187=DIRECTION('center_axis',(0.,-1.,0.));
#1188=DIRECTION('ref_axis',(0.,0.,-1.));
#1189=DIRECTION('center_axis',(0.,-1.,0.));
#1190=DIRECTION('ref_axis',(0.,0.,-1.));
#1191=DIRECTION('',(0.,0.,1.));
#1192=DIRECTION('',(1.,0.,0.));
#1193=DIRECTION('',(0.,0.,-1.));
#1194=DIRECTION('',(-0.0811270509027663,0.,-0.996703768233982));
#1195=DIRECTION('',(1.,0.,0.));
#1196=DIRECTION('',(-0.081127050902766,0.,0.996703768233982));
#1197=DIRECTION('',(0.,0.,1.));
#1198=DIRECTION('',(1.,0.,0.));
#1199=DIRECTION('',(0.,0.,-1.));
#1200=DIRECTION('',(-1.,0.,0.));
#1201=DIRECTION('',(0.,0.,-1.));
#1202=DIRECTION('',(-1.,0.,0.));
#1203=DIRECTION('',(0.,0.,1.));
#1204=DIRECTION('',(-1.,0.,0.));
#1205=DIRECTION('center_axis',(0.,1.,0.));
#1206=DIRECTION('ref_axis',(0.,0.,-1.));
#1207=DIRECTION('center_axis',(0.,1.,0.));
#1208=DIRECTION('ref_axis',(0.,0.,-1.));
#1209=DIRECTION('center_axis',(-1.,0.,0.));
#1210=DIRECTION('ref_axis',(0.,-1.,0.));
#1211=DIRECTION('',(0.,-1.,0.));
#1212=DIRECTION('',(0.,0.,1.));
#1213=DIRECTION('',(0.,-1.,0.));
#1214=DIRECTION('center_axis',(0.996703768233982,-4.36925679202405E-16,
0.081127050902766));
#1215=DIRECTION('ref_axis',(0.081127050902766,0.,-0.996703768233982));
#1216=DIRECTION('',(1.03759161179921E-16,1.,0.));
#1217=DIRECTION('',(-0.0808613887135331,-0.0808613887135325,0.993439918480548));
#1218=DIRECTION('center_axis',(0.,0.,1.));
#1219=DIRECTION('ref_axis',(1.,0.,0.));
#1220=DIRECTION('',(-1.03759161179921E-16,-1.,0.));
#1221=DIRECTION('',(-1.,1.03759161179921E-16,0.));
#1222=DIRECTION('center_axis',(-0.996703768233982,4.12652030357827E-16,
0.0811270509027663));
#1223=DIRECTION('ref_axis',(0.0811270509027663,0.,0.996703768233982));
#1224=DIRECTION('',(0.,1.,0.));
#1225=DIRECTION('',(0.0808613887135331,-0.0808613887135331,0.993439918480548));
#1226=DIRECTION('center_axis',(1.,0.,0.));
#1227=DIRECTION('ref_axis',(0.,1.,0.));
#1228=DIRECTION('',(0.,1.,0.));
#1229=DIRECTION('',(0.,0.,1.));
#1230=DIRECTION('center_axis',(0.,0.,1.));
#1231=DIRECTION('ref_axis',(1.,0.,0.));
#1232=DIRECTION('',(1.,0.,0.));
#1233=DIRECTION('',(0.,1.,0.));
#1234=DIRECTION('',(1.,0.,0.));
#1235=DIRECTION('',(0.,-1.,0.));
#1236=DIRECTION('center_axis',(0.,1.,0.));
#1237=DIRECTION('ref_axis',(0.,0.,-1.));
#1238=DIRECTION('center_axis',(0.,1.,0.));
#1239=DIRECTION('ref_axis',(0.,0.,-1.));
#1240=DIRECTION('center_axis',(0.,1.,0.));
#1241=DIRECTION('ref_axis',(0.,0.,-1.));
#1242=DIRECTION('center_axis',(0.,1.,0.));
#1243=DIRECTION('ref_axis',(0.,0.,-1.));
#1244=DIRECTION('center_axis',(0.,1.,0.));
#1245=DIRECTION('ref_axis',(0.,0.,-1.));
#1246=DIRECTION('',(0.,1.,0.));
#1247=DIRECTION('center_axis',(0.,1.,0.));
#1248=DIRECTION('ref_axis',(0.,0.,-1.));
#1249=DIRECTION('',(0.,1.,0.));
#1250=DIRECTION('center_axis',(0.,1.,0.));
#1251=DIRECTION('ref_axis',(0.,0.,-1.));
#1252=DIRECTION('center_axis',(0.,1.,0.));
#1253=DIRECTION('ref_axis',(0.,0.,-1.));
#1254=DIRECTION('center_axis',(0.,1.,0.));
#1255=DIRECTION('ref_axis',(0.,0.,-1.));
#1256=DIRECTION('center_axis',(0.,1.,0.));
#1257=DIRECTION('ref_axis',(0.,0.,-1.));
#1258=DIRECTION('center_axis',(0.,1.,0.));
#1259=DIRECTION('ref_axis',(0.,0.,-1.));
#1260=DIRECTION('',(0.,1.,0.));
#1261=DIRECTION('center_axis',(0.,1.,0.));
#1262=DIRECTION('ref_axis',(0.,0.,-1.));
#1263=DIRECTION('',(0.,1.,0.));
#1264=DIRECTION('center_axis',(0.,0.,1.));
#1265=DIRECTION('ref_axis',(-1.,0.,0.));
#1266=DIRECTION('center_axis',(0.,0.,-1.));
#1267=DIRECTION('ref_axis',(-1.,0.,0.));
#1268=DIRECTION('center_axis',(0.,0.,1.));
#1269=DIRECTION('ref_axis',(-1.,0.,0.));
#1270=DIRECTION('center_axis',(0.,0.,1.));
#1271=DIRECTION('ref_axis',(-1.,0.,0.));
#1272=DIRECTION('center_axis',(3.39831083824093E-16,0.996703768233982,0.081127050902766));
#1273=DIRECTION('ref_axis',(0.,-0.081127050902766,0.996703768233982));
#1274=DIRECTION('',(1.,0.,0.));
#1275=DIRECTION('center_axis',(0.,-1.,0.));
#1276=DIRECTION('ref_axis',(1.,0.,0.));
#1277=DIRECTION('center_axis',(0.,-1.,0.));
#1278=DIRECTION('ref_axis',(1.,0.,0.));
#1279=DIRECTION('',(0.,0.,1.));
#1280=DIRECTION('',(1.,0.,0.));
#1281=DIRECTION('',(0.,0.,1.));
#1282=DIRECTION('center_axis',(-1.,0.,0.));
#1283=DIRECTION('ref_axis',(0.,-1.,0.));
#1284=DIRECTION('',(0.,-1.,0.));
#1285=DIRECTION('center_axis',(1.,0.,0.));
#1286=DIRECTION('ref_axis',(0.,1.,0.));
#1287=DIRECTION('',(0.,1.,0.));
#1288=DIRECTION('center_axis',(0.,0.,1.));
#1289=DIRECTION('ref_axis',(1.,0.,0.));
#1290=CARTESIAN_POINT('',(0.,0.,0.));
#1291=CARTESIAN_POINT('Origin',(0.,0.,0.));
#1292=CARTESIAN_POINT('',(-8.5,0.,0.));
#1293=CARTESIAN_POINT('',(-2.5,0.,0.));
#1294=CARTESIAN_POINT('',(0.,0.,0.));
#1295=CARTESIAN_POINT('',(-8.5,8.5,0.));
#1296=CARTESIAN_POINT('',(-8.5,8.5,0.));
#1297=CARTESIAN_POINT('',(8.5,8.5,0.));
#1298=CARTESIAN_POINT('',(8.5,8.5,0.));
#1299=CARTESIAN_POINT('',(8.5,0.,0.));
#1300=CARTESIAN_POINT('',(8.5,-8.5,0.));
#1301=CARTESIAN_POINT('',(2.5,0.,0.));
#1302=CARTESIAN_POINT('',(0.,0.,0.));
#1303=CARTESIAN_POINT('',(2.5,2.5,0.));
#1304=CARTESIAN_POINT('',(2.5,-1.25,0.));
#1305=CARTESIAN_POINT('',(-2.5,2.5,0.));
#1306=CARTESIAN_POINT('',(1.25,2.5,0.));
#1307=CARTESIAN_POINT('',(-2.5,1.25,0.));
#1308=CARTESIAN_POINT('Origin',(8.5,8.5,0.));
#1309=CARTESIAN_POINT('',(-8.5,8.5,17.));
#1310=CARTESIAN_POINT('',(-8.5,8.5,0.));
#1311=CARTESIAN_POINT('',(8.5,8.5,17.));
#1312=CARTESIAN_POINT('',(8.5,8.5,17.));
#1313=CARTESIAN_POINT('',(8.5,8.5,0.));
#1314=CARTESIAN_POINT('',(-1.6668384925381,8.5,11.));
#1315=CARTESIAN_POINT('',(-3.28341924626905,8.5,13.8));
#1316=CARTESIAN_POINT('',(1.98558617943638,8.5,4.67381489732213));
#1317=CARTESIAN_POINT('',(-6.51658075373096,8.5,13.8));
#1318=CARTESIAN_POINT('',(2.60829037686547,8.5,13.8));
#1319=CARTESIAN_POINT('',(-8.1331615074619,8.5,11.));
#1320=CARTESIAN_POINT('',(-7.62729580257091,8.5,11.8761851026779));
#1321=CARTESIAN_POINT('',(-6.51658075373095,8.5,8.2));
#1322=CARTESIAN_POINT('',(-3.67244645862195,8.5,3.27381489732213));
#1323=CARTESIAN_POINT('',(-3.28341924626905,8.5,8.2));
#1324=CARTESIAN_POINT('',(0.991709623134521,8.5,8.20000000000001));
#1325=CARTESIAN_POINT('',(-3.58584391824352,8.5,7.67618510267787));
#1326=CARTESIAN_POINT('',(1.66758392315878,8.5,3.93057637641467));
#1327=CARTESIAN_POINT('',(3.34391458322705,8.5,1.1659337500616));
#1328=CARTESIAN_POINT('',(3.4572401658003,8.5,0.9790346234743));
#1329=CARTESIAN_POINT('',(6.57633066006828,8.5,1.23535737364694));
#1330=CARTESIAN_POINT('',(5.90825386151574,8.5,1.22100887670649));
#1331=CARTESIAN_POINT('',(8.13241607684122,8.5,4.06942362358533));
#1332=CARTESIAN_POINT('',(6.53854317755869,8.5,1.16653581173508));
#1333=CARTESIAN_POINT('',(6.45608541677294,8.5,6.8340662499384));
#1334=CARTESIAN_POINT('',(9.0839069894486,8.5,2.5002031838215));
#1335=CARTESIAN_POINT('',(3.22366933993172,8.5,6.76464262635307));
#1336=CARTESIAN_POINT('',(7.40421665664102,8.5,6.85442956479062));
#1337=CARTESIAN_POINT('',(2.40783914903566,8.5,5.27878793947202));
#1338=CARTESIAN_POINT('Origin',(2.5,-2.5,0.));
#1339=CARTESIAN_POINT('',(2.5,0.,5.));
#1340=CARTESIAN_POINT('',(2.5,0.,8.75));
#1341=CARTESIAN_POINT('',(2.5,2.5,5.));
#1342=CARTESIAN_POINT('',(2.5,-2.5,5.));
#1343=CARTESIAN_POINT('',(2.5,2.5,0.));
#1344=CARTESIAN_POINT('Origin',(2.5,2.5,0.));
#1345=CARTESIAN_POINT('',(-2.5,2.5,5.));
#1346=CARTESIAN_POINT('',(2.5,2.5,5.));
#1347=CARTESIAN_POINT('',(-2.5,2.5,0.));
#1348=CARTESIAN_POINT('Origin',(-2.5,2.5,0.));
#1349=CARTESIAN_POINT('',(-2.5,0.,5.));
#1350=CARTESIAN_POINT('',(-2.5,0.,8.75));
#1351=CARTESIAN_POINT('',(-2.5,2.5,5.));
#1352=CARTESIAN_POINT('Origin',(2.5,2.5,5.));
#1353=CARTESIAN_POINT('',(2.675,0.,7.15));
#1354=CARTESIAN_POINT('',(2.99714573539288,0.,11.1077904633983));
#1355=CARTESIAN_POINT('',(2.675,2.675,7.15));
#1356=CARTESIAN_POINT('',(2.675,-2.675,7.15));
#1357=CARTESIAN_POINT('',(2.5,2.5,5.));
#1358=CARTESIAN_POINT('Origin',(-2.5,2.5,5.));
#1359=CARTESIAN_POINT('',(-2.675,2.675,7.15));
#1360=CARTESIAN_POINT('',(2.675,2.675,7.15));
#1361=CARTESIAN_POINT('',(-2.5,2.5,5.));
#1362=CARTESIAN_POINT('Origin',(-2.5,-2.5,5.));
#1363=CARTESIAN_POINT('',(-2.675,0.,7.15));
#1364=CARTESIAN_POINT('',(-2.99714573539288,0.,11.1077904633983));
#1365=CARTESIAN_POINT('',(-2.675,2.675,7.15));
#1366=CARTESIAN_POINT('Origin',(4.16333634234434E-16,5.42495341578202E-16,
7.15));
#1367=CARTESIAN_POINT('',(2.08166817117217E-16,0.,7.15));
#1368=CARTESIAN_POINT('Origin',(4.9,5.9,4.));
#1369=CARTESIAN_POINT('',(3.34391458322705,5.9,1.1659337500616));
#1370=CARTESIAN_POINT('',(6.57633066006828,5.9,1.23535737364694));
#1371=CARTESIAN_POINT('',(6.57633066006828,5.9,1.23535737364694));
#1372=CARTESIAN_POINT('',(1.66758392315878,5.9,3.93057637641467));
#1373=CARTESIAN_POINT('',(3.34391458322705,5.9,1.1659337500616));
#1374=CARTESIAN_POINT('',(3.22366933993172,5.9,6.76464262635307));
#1375=CARTESIAN_POINT('',(1.66758392315878,5.9,3.93057637641467));
#1376=CARTESIAN_POINT('',(6.45608541677294,5.9,6.8340662499384));
#1377=CARTESIAN_POINT('',(3.22366933993172,5.9,6.76464262635307));
#1378=CARTESIAN_POINT('',(8.13241607684122,5.9,4.06942362358533));
#1379=CARTESIAN_POINT('',(6.45608541677294,5.9,6.8340662499384));
#1380=CARTESIAN_POINT('',(8.13241607684122,5.9,4.06942362358533));
#1381=CARTESIAN_POINT('',(4.9,5.9,5.55));
#1382=CARTESIAN_POINT('Origin',(4.9,5.9,4.));
#1383=CARTESIAN_POINT('Origin',(3.34391458322705,8.5,1.1659337500616));
#1384=CARTESIAN_POINT('',(3.34391458322705,8.5,1.1659337500616));
#1385=CARTESIAN_POINT('',(6.57633066006828,8.5,1.23535737364694));
#1386=CARTESIAN_POINT('Origin',(6.57633066006828,8.5,1.23535737364694));
#1387=CARTESIAN_POINT('',(8.13241607684122,8.5,4.06942362358533));
#1388=CARTESIAN_POINT('Origin',(8.13241607684122,8.5,4.06942362358533));
#1389=CARTESIAN_POINT('',(6.45608541677294,8.5,6.8340662499384));
#1390=CARTESIAN_POINT('Origin',(6.45608541677294,8.5,6.8340662499384));
#1391=CARTESIAN_POINT('',(3.22366933993172,8.5,6.76464262635307));
#1392=CARTESIAN_POINT('Origin',(3.22366933993172,8.5,6.76464262635307));
#1393=CARTESIAN_POINT('',(1.66758392315878,8.5,3.93057637641467));
#1394=CARTESIAN_POINT('Origin',(1.66758392315878,8.5,3.93057637641467));
#1395=CARTESIAN_POINT('Origin',(-4.9,5.9,11.));
#1396=CARTESIAN_POINT('',(-3.28341924626905,5.9,13.8));
#1397=CARTESIAN_POINT('',(-6.51658075373096,5.9,13.8));
#1398=CARTESIAN_POINT('',(-6.51658075373096,5.9,13.8));
#1399=CARTESIAN_POINT('',(-1.6668384925381,5.9,11.));
#1400=CARTESIAN_POINT('',(-3.28341924626905,5.9,13.8));
#1401=CARTESIAN_POINT('',(-3.28341924626905,5.9,8.2));
#1402=CARTESIAN_POINT('',(-1.6668384925381,5.9,11.));
#1403=CARTESIAN_POINT('',(-6.51658075373095,5.9,8.2));
#1404=CARTESIAN_POINT('',(-3.28341924626905,5.9,8.2));
#1405=CARTESIAN_POINT('',(-8.1331615074619,5.9,11.));
#1406=CARTESIAN_POINT('',(-6.51658075373095,5.9,8.2));
#1407=CARTESIAN_POINT('',(-8.1331615074619,5.9,11.));
#1408=CARTESIAN_POINT('',(-4.9,5.9,12.55));
#1409=CARTESIAN_POINT('Origin',(-4.9,5.9,11.));
#1410=CARTESIAN_POINT('Origin',(-3.28341924626905,8.5,13.8));
#1411=CARTESIAN_POINT('',(-3.28341924626905,8.5,13.8));
#1412=CARTESIAN_POINT('',(-6.51658075373096,8.5,13.8));
#1413=CARTESIAN_POINT('Origin',(-6.51658075373096,8.5,13.8));
#1414=CARTESIAN_POINT('',(-8.1331615074619,8.5,11.));
#1415=CARTESIAN_POINT('Origin',(-8.1331615074619,8.5,11.));
#1416=CARTESIAN_POINT('',(-6.51658075373095,8.5,8.2));
#1417=CARTESIAN_POINT('Origin',(-6.51658075373095,8.5,8.2));
#1418=CARTESIAN_POINT('',(-3.28341924626905,8.5,8.2));
#1419=CARTESIAN_POINT('Origin',(-3.28341924626905,8.5,8.2));
#1420=CARTESIAN_POINT('',(-1.6668384925381,8.5,11.));
#1421=CARTESIAN_POINT('Origin',(-1.6668384925381,8.5,11.));
#1422=CARTESIAN_POINT('Origin',(4.9,13.,4.));
#1423=CARTESIAN_POINT('',(4.9,0.,5.55));
#1424=CARTESIAN_POINT('Origin',(4.9,0.,4.));
#1425=CARTESIAN_POINT('',(4.9,13.,5.55));
#1426=CARTESIAN_POINT('Origin',(-4.9,11.5,11.));
#1427=CARTESIAN_POINT('',(-4.9,0.,12.55));
#1428=CARTESIAN_POINT('Origin',(-4.9,0.,11.));
#1429=CARTESIAN_POINT('',(-4.9,11.5,12.55));
#1430=CARTESIAN_POINT('Origin',(8.5,-8.5,0.));
#1431=CARTESIAN_POINT('',(8.5,0.,17.));
#1432=CARTESIAN_POINT('',(8.5,0.,8.75));
#1433=CARTESIAN_POINT('',(8.5,-8.5,17.));
#1434=CARTESIAN_POINT('Origin',(0.,0.,17.));
#1435=CARTESIAN_POINT('',(-2.45,0.,17.));
#1436=CARTESIAN_POINT('',(-8.5,0.,17.));
#1437=CARTESIAN_POINT('',(0.,0.,17.));
#1438=CARTESIAN_POINT('',(2.45,3.00038465791102E-16,17.));
#1439=CARTESIAN_POINT('Origin',(0.,0.,17.));
#1440=CARTESIAN_POINT('',(0.,0.,17.));
#1441=CARTESIAN_POINT('',(-8.5,8.5,17.));
#1442=CARTESIAN_POINT('Origin',(0.,0.,17.));
#1443=CARTESIAN_POINT('',(-2.45,0.,35.));
#1444=CARTESIAN_POINT('',(-2.45,0.,17.));
#1445=CARTESIAN_POINT('',(2.45,3.00038465791102E-16,35.));
#1446=CARTESIAN_POINT('Origin',(0.,0.,35.));
#1447=CARTESIAN_POINT('',(2.45,0.,17.));
#1448=CARTESIAN_POINT('Origin',(0.,0.,35.));
#1449=CARTESIAN_POINT('',(0.,0.,35.));
#1450=CARTESIAN_POINT('Origin',(-8.5,8.5,0.));
#1451=CARTESIAN_POINT('',(-8.5,0.,8.75));
#1452=CARTESIAN_POINT('Origin',(0.,0.,17.5));
#1453=CARTESIAN_POINT('Origin',(0.,-15.,17.5));
#1454=CARTESIAN_POINT('',(8.5,-15.,0.));
#1455=CARTESIAN_POINT('',(8.5,-15.,17.));
#1456=CARTESIAN_POINT('',(8.5,-15.,8.75));
#1457=CARTESIAN_POINT('',(2.5,-15.,0.));
#1458=CARTESIAN_POINT('',(0.,-15.,0.));
#1459=CARTESIAN_POINT('',(2.5,-15.,5.));
#1460=CARTESIAN_POINT('',(2.5,-15.,8.75));
#1461=CARTESIAN_POINT('',(2.675,-15.,7.15));
#1462=CARTESIAN_POINT('',(2.99714573539288,-15.,11.1077904633983));
#1463=CARTESIAN_POINT('',(-2.675,-15.,7.15));
#1464=CARTESIAN_POINT('',(2.08166817117217E-16,-15.,7.15));
#1465=CARTESIAN_POINT('',(-2.5,-15.,5.));
#1466=CARTESIAN_POINT('',(-2.99714573539288,-15.,11.1077904633983));
#1467=CARTESIAN_POINT('',(-2.5,-15.,0.));
#1468=CARTESIAN_POINT('',(-2.5,-15.,8.75));
#1469=CARTESIAN_POINT('',(-8.5,-15.,0.));
#1470=CARTESIAN_POINT('',(0.,-15.,0.));
#1471=CARTESIAN_POINT('',(-8.5,-15.,17.));
#1472=CARTESIAN_POINT('',(-8.5,-15.,8.75));
#1473=CARTESIAN_POINT('',(-2.45,-15.,17.));
#1474=CARTESIAN_POINT('',(0.,-15.,17.));
#1475=CARTESIAN_POINT('',(-2.45,-15.,35.));
#1476=CARTESIAN_POINT('',(-2.45,-15.,17.));
#1477=CARTESIAN_POINT('',(2.45,-15.,35.));
#1478=CARTESIAN_POINT('',(0.,-15.,35.));
#1479=CARTESIAN_POINT('',(2.45,-15.,17.));
#1480=CARTESIAN_POINT('',(2.45,-15.,17.));
#1481=CARTESIAN_POINT('',(0.,-15.,17.));
#1482=CARTESIAN_POINT('',(4.9,-15.,5.55));
#1483=CARTESIAN_POINT('Origin',(4.9,-15.,4.));
#1484=CARTESIAN_POINT('',(-4.9,-15.,12.55));
#1485=CARTESIAN_POINT('Origin',(-4.9,-15.,11.));
#1486=CARTESIAN_POINT('Origin',(-2.5,-12.5,0.));
#1487=CARTESIAN_POINT('',(-2.5,-17.5,5.));
#1488=CARTESIAN_POINT('',(-2.5,-12.5,5.));
#1489=CARTESIAN_POINT('',(-2.5,-17.5,0.));
#1490=CARTESIAN_POINT('',(-2.5,-17.5,0.));
#1491=CARTESIAN_POINT('',(-2.5,-13.75,0.));
#1492=CARTESIAN_POINT('Origin',(-2.5,-17.5,5.));
#1493=CARTESIAN_POINT('',(-2.675,-17.675,7.15));
#1494=CARTESIAN_POINT('',(-2.675,-12.325,7.15));
#1495=CARTESIAN_POINT('',(-2.5,-17.5,5.));
#1496=CARTESIAN_POINT('Origin',(4.16333634234434E-16,-15.,7.15));
#1497=CARTESIAN_POINT('',(2.675,-17.675,7.15));
#1498=CARTESIAN_POINT('',(2.675,-17.675,7.15));
#1499=CARTESIAN_POINT('',(-2.675,-17.675,7.15));
#1500=CARTESIAN_POINT('Origin',(2.5,-12.5,5.));
#1501=CARTESIAN_POINT('',(2.5,-17.5,5.));
#1502=CARTESIAN_POINT('',(2.5,-17.5,5.));
#1503=CARTESIAN_POINT('',(2.5,-17.5,5.));
#1504=CARTESIAN_POINT('Origin',(2.5,-17.5,0.));
#1505=CARTESIAN_POINT('',(2.5,-17.5,0.));
#1506=CARTESIAN_POINT('',(2.5,-16.25,0.));
#1507=CARTESIAN_POINT('',(2.5,-17.5,0.));
#1508=CARTESIAN_POINT('Origin',(0.,-15.,0.));
#1509=CARTESIAN_POINT('',(-1.25,-17.5,0.));
#1510=CARTESIAN_POINT('',(8.5,-23.5,0.));
#1511=CARTESIAN_POINT('',(8.5,-23.5,0.));
#1512=CARTESIAN_POINT('',(-8.5,-23.5,0.));
#1513=CARTESIAN_POINT('',(-8.5,-23.5,0.));
#1514=CARTESIAN_POINT('',(-8.5,-6.5,0.));
#1515=CARTESIAN_POINT('Origin',(-4.9,-21.5,11.));
#1516=CARTESIAN_POINT('',(-4.9,-21.5,14.));
#1517=CARTESIAN_POINT('Origin',(-4.9,-21.5,11.));
#1518=CARTESIAN_POINT('',(-4.9,-21.5,12.55));
#1519=CARTESIAN_POINT('Origin',(-4.9,-21.5,11.));
#1520=CARTESIAN_POINT('Origin',(-4.9,-22.5,11.));
#1521=CARTESIAN_POINT('',(-4.9,-23.5,14.));
#1522=CARTESIAN_POINT('Origin',(-4.9,-23.5,11.));
#1523=CARTESIAN_POINT('',(-4.9,-22.5,14.));
#1524=CARTESIAN_POINT('Origin',(-4.9,-3.5,11.));
#1525=CARTESIAN_POINT('',(-4.9,-3.5,12.55));
#1526=CARTESIAN_POINT('Origin',(4.9,-21.5,4.));
#1527=CARTESIAN_POINT('',(4.9,-21.5,7.));
#1528=CARTESIAN_POINT('Origin',(4.9,-21.5,4.));
#1529=CARTESIAN_POINT('',(4.9,-21.5,5.55));
#1530=CARTESIAN_POINT('Origin',(4.9,-21.5,4.));
#1531=CARTESIAN_POINT('Origin',(4.9,-22.5,4.));
#1532=CARTESIAN_POINT('',(4.9,-23.5,7.));
#1533=CARTESIAN_POINT('Origin',(4.9,-23.5,4.));
#1534=CARTESIAN_POINT('',(4.9,-22.5,7.));
#1535=CARTESIAN_POINT('Origin',(4.9,-2.,4.));
#1536=CARTESIAN_POINT('',(4.9,-2.,5.55));
#1537=CARTESIAN_POINT('Origin',(0.,-15.,17.));
#1538=CARTESIAN_POINT('Origin',(0.,-15.,17.));
#1539=CARTESIAN_POINT('Origin',(0.,-15.,35.));
#1540=CARTESIAN_POINT('Origin',(0.,-15.,35.));
#1541=CARTESIAN_POINT('Origin',(2.5,-17.5,5.));
#1542=CARTESIAN_POINT('',(-2.5,-17.5,5.));
#1543=CARTESIAN_POINT('Origin',(-2.5,-17.5,0.));
#1544=CARTESIAN_POINT('Origin',(-8.5,-23.5,0.));
#1545=CARTESIAN_POINT('',(8.5,-23.5,17.));
#1546=CARTESIAN_POINT('',(8.5,-23.5,0.));
#1547=CARTESIAN_POINT('',(-8.5,-23.5,17.));
#1548=CARTESIAN_POINT('',(-8.5,-23.5,17.));
#1549=CARTESIAN_POINT('',(-8.5,-23.5,0.));
#1550=CARTESIAN_POINT('Origin',(-8.5,-6.5,0.));
#1551=CARTESIAN_POINT('',(-8.5,-6.5,17.));
#1552=CARTESIAN_POINT('Origin',(8.5,-23.5,0.));
#1553=CARTESIAN_POINT('',(8.5,-23.5,17.));
#1554=CARTESIAN_POINT('Origin',(0.,-15.,17.));
#1555=UNCERTAINTY_MEASURE_WITH_UNIT(LENGTH_MEASURE(0.01),#1559,
'DISTANCE_ACCURACY_VALUE',
'Maximum model space distance between geometric entities at asserted c
onnectivities');
#1556=UNCERTAINTY_MEASURE_WITH_UNIT(LENGTH_MEASURE(0.01),#1559,
'DISTANCE_ACCURACY_VALUE',
'Maximum model space distance between geometric entities at asserted c
onnectivities');
#1557=(
GEOMETRIC_REPRESENTATION_CONTEXT(3)
GLOBAL_UNCERTAINTY_ASSIGNED_CONTEXT((#1555))
GLOBAL_UNIT_ASSIGNED_CONTEXT((#1559,#1561,#1562))
REPRESENTATION_CONTEXT('','3D')
);
#1558=(
GEOMETRIC_REPRESENTATION_CONTEXT(3)
GLOBAL_UNCERTAINTY_ASSIGNED_CONTEXT((#1556))
GLOBAL_UNIT_ASSIGNED_CONTEXT((#1559,#1561,#1562))
REPRESENTATION_CONTEXT('','3D')
);
#1559=(
LENGTH_UNIT()
NAMED_UNIT(*)
SI_UNIT(.MILLI.,.METRE.)
);
#1560=(
LENGTH_UNIT()
NAMED_UNIT(*)
SI_UNIT($,.METRE.)
);
#1561=(
NAMED_UNIT(*)
PLANE_ANGLE_UNIT()
SI_UNIT($,.RADIAN.)
);
#1562=(
NAMED_UNIT(*)
SI_UNIT($,.STERADIAN.)
SOLID_ANGLE_UNIT()
);
#1563=SHAPE_DEFINITION_REPRESENTATION(#1564,#1565);
#1564=PRODUCT_DEFINITION_SHAPE('',$,#1567);
#1565=SHAPE_REPRESENTATION('',(#971),#1557);
#1566=PRODUCT_DEFINITION_CONTEXT('part definition',#1571,'design');
#1567=PRODUCT_DEFINITION('fl57sth76_gt2_adapter',
'fl57sth76_gt2_adapter v4',#1568,#1566);
#1568=PRODUCT_DEFINITION_FORMATION('',$,#1573);
#1569=PRODUCT_RELATED_PRODUCT_CATEGORY('fl57sth76_gt2_adapter v4',
'fl57sth76_gt2_adapter v4',(#1573));
#1570=APPLICATION_PROTOCOL_DEFINITION('international standard',
'automotive_design',2009,#1571);
#1571=APPLICATION_CONTEXT(
'Core Data for Automotive Mechanical Design Process');
#1572=PRODUCT_CONTEXT('part definition',#1571,'mechanical');
#1573=PRODUCT('fl57sth76_gt2_adapter','fl57sth76_gt2_adapter v4',$,(#1572));
#1574=PRESENTATION_STYLE_ASSIGNMENT((#1575));
#1575=SURFACE_STYLE_USAGE(.BOTH.,#1576);
#1576=SURFACE_SIDE_STYLE('',(#1577));
#1577=SURFACE_STYLE_FILL_AREA(#1578);
#1578=FILL_AREA_STYLE('ABS (White)',(#1579));
#1579=FILL_AREA_STYLE_COLOUR('ABS (White)',#1580);
#1580=COLOUR_RGB('ABS (White)',0.964705882352941,0.964705882352941,0.952941176470588);
ENDSEC;
END-ISO-10303-21;
