ISO-10303-21;
HEADER;
/* Generated by software containing ST-Developer
 * from STEP Tools, Inc. (www.steptools.com) 
 */

FILE_DESCRIPTION(
/* description */ (''),
/* implementation_level */ '2;1');

FILE_NAME(
/* name */ 'eth_usb_mount.step',
/* time_stamp */ '2026-08-03T11:10:08+02:00',
/* author */ (''),
/* organization */ (''),
/* preprocessor_version */ 'ST-DEVELOPER v20.1',
/* originating_system */ 'Autodesk Translation Framework v15.8.0.0',
/* authorisation */ '');

FILE_SCHEMA (('AUTOMOTIVE_DESIGN { 1 0 10303 214 3 1 1 }'));
ENDSEC;

DATA;
#10=MECHANICAL_DESIGN_GEOMETRIC_PRESENTATION_REPRESENTATION('',(#13,#14),
#2186);
#11=SHAPE_REPRESENTATION_RELATIONSHIP('SRR','None',#2193,#12);
#12=ADVANCED_BREP_SHAPE_REPRESENTATION('',(#15,#16),#2185);
#13=STYLED_ITEM('',(#2202),#15);
#14=STYLED_ITEM('',(#2202),#16);
#15=MANIFOLD_SOLID_BREP('position_mount',#1379);
#16=MANIFOLD_SOLID_BREP('protect_housing',#1380);
#17=FACE_BOUND('',#234,.T.);
#18=FACE_BOUND('',#235,.T.);
#19=FACE_BOUND('',#236,.T.);
#20=FACE_BOUND('',#237,.T.);
#21=FACE_BOUND('',#238,.T.);
#22=FACE_BOUND('',#239,.T.);
#23=FACE_BOUND('',#240,.T.);
#24=FACE_BOUND('',#241,.T.);
#25=FACE_BOUND('',#242,.T.);
#26=FACE_BOUND('',#243,.T.);
#27=FACE_BOUND('',#245,.T.);
#28=FACE_BOUND('',#246,.T.);
#29=FACE_BOUND('',#247,.T.);
#30=FACE_BOUND('',#248,.T.);
#31=FACE_BOUND('',#249,.T.);
#32=FACE_BOUND('',#250,.T.);
#33=FACE_BOUND('',#251,.T.);
#34=FACE_BOUND('',#252,.T.);
#35=FACE_BOUND('',#253,.T.);
#36=FACE_BOUND('',#254,.T.);
#37=FACE_BOUND('',#255,.T.);
#38=FACE_BOUND('',#256,.T.);
#39=FACE_BOUND('',#257,.T.);
#40=FACE_BOUND('',#258,.T.);
#41=PLANE('',#1397);
#42=PLANE('',#1401);
#43=PLANE('',#1405);
#44=PLANE('',#1409);
#45=PLANE('',#1410);
#46=PLANE('',#1411);
#47=PLANE('',#1412);
#48=PLANE('',#1413);
#49=PLANE('',#1414);
#50=PLANE('',#1415);
#51=PLANE('',#1416);
#52=PLANE('',#1417);
#53=PLANE('',#1418);
#54=PLANE('',#1419);
#55=PLANE('',#1420);
#56=PLANE('',#1421);
#57=PLANE('',#1422);
#58=PLANE('',#1423);
#59=PLANE('',#1424);
#60=PLANE('',#1425);
#61=PLANE('',#1426);
#62=PLANE('',#1427);
#63=PLANE('',#1428);
#64=PLANE('',#1429);
#65=PLANE('',#1430);
#66=PLANE('',#1431);
#67=PLANE('',#1432);
#68=PLANE('',#1433);
#69=PLANE('',#1434);
#70=PLANE('',#1435);
#71=PLANE('',#1436);
#72=PLANE('',#1437);
#73=PLANE('',#1438);
#74=PLANE('',#1439);
#75=PLANE('',#1440);
#76=PLANE('',#1441);
#77=PLANE('',#1442);
#78=PLANE('',#1443);
#79=PLANE('',#1444);
#80=PLANE('',#1445);
#81=PLANE('',#1446);
#82=PLANE('',#1447);
#83=PLANE('',#1448);
#84=PLANE('',#1449);
#85=PLANE('',#1450);
#86=PLANE('',#1451);
#87=PLANE('',#1452);
#88=PLANE('',#1453);
#89=PLANE('',#1454);
#90=PLANE('',#1455);
#91=PLANE('',#1456);
#92=PLANE('',#1457);
#93=PLANE('',#1458);
#94=PLANE('',#1459);
#95=PLANE('',#1460);
#96=PLANE('',#1461);
#97=PLANE('',#1462);
#98=PLANE('',#1463);
#99=PLANE('',#1464);
#100=PLANE('',#1465);
#101=PLANE('',#1466);
#102=PLANE('',#1467);
#103=PLANE('',#1468);
#104=PLANE('',#1469);
#105=PLANE('',#1470);
#106=PLANE('',#1471);
#107=FACE_OUTER_BOUND('',#177,.T.);
#108=FACE_OUTER_BOUND('',#178,.T.);
#109=FACE_OUTER_BOUND('',#179,.T.);
#110=FACE_OUTER_BOUND('',#180,.T.);
#111=FACE_OUTER_BOUND('',#181,.T.);
#112=FACE_OUTER_BOUND('',#182,.T.);
#113=FACE_OUTER_BOUND('',#183,.T.);
#114=FACE_OUTER_BOUND('',#184,.T.);
#115=FACE_OUTER_BOUND('',#185,.T.);
#116=FACE_OUTER_BOUND('',#186,.T.);
#117=FACE_OUTER_BOUND('',#187,.T.);
#118=FACE_OUTER_BOUND('',#188,.T.);
#119=FACE_OUTER_BOUND('',#189,.T.);
#120=FACE_OUTER_BOUND('',#190,.T.);
#121=FACE_OUTER_BOUND('',#191,.T.);
#122=FACE_OUTER_BOUND('',#192,.T.);
#123=FACE_OUTER_BOUND('',#193,.T.);
#124=FACE_OUTER_BOUND('',#194,.T.);
#125=FACE_OUTER_BOUND('',#195,.T.);
#126=FACE_OUTER_BOUND('',#196,.T.);
#127=FACE_OUTER_BOUND('',#197,.T.);
#128=FACE_OUTER_BOUND('',#198,.T.);
#129=FACE_OUTER_BOUND('',#199,.T.);
#130=FACE_OUTER_BOUND('',#200,.T.);
#131=FACE_OUTER_BOUND('',#201,.T.);
#132=FACE_OUTER_BOUND('',#202,.T.);
#133=FACE_OUTER_BOUND('',#203,.T.);
#134=FACE_OUTER_BOUND('',#204,.T.);
#135=FACE_OUTER_BOUND('',#205,.T.);
#136=FACE_OUTER_BOUND('',#206,.T.);
#137=FACE_OUTER_BOUND('',#207,.T.);
#138=FACE_OUTER_BOUND('',#208,.T.);
#139=FACE_OUTER_BOUND('',#209,.T.);
#140=FACE_OUTER_BOUND('',#210,.T.);
#141=FACE_OUTER_BOUND('',#211,.T.);
#142=FACE_OUTER_BOUND('',#212,.T.);
#143=FACE_OUTER_BOUND('',#213,.T.);
#144=FACE_OUTER_BOUND('',#214,.T.);
#145=FACE_OUTER_BOUND('',#215,.T.);
#146=FACE_OUTER_BOUND('',#216,.T.);
#147=FACE_OUTER_BOUND('',#217,.T.);
#148=FACE_OUTER_BOUND('',#218,.T.);
#149=FACE_OUTER_BOUND('',#219,.T.);
#150=FACE_OUTER_BOUND('',#220,.T.);
#151=FACE_OUTER_BOUND('',#221,.T.);
#152=FACE_OUTER_BOUND('',#222,.T.);
#153=FACE_OUTER_BOUND('',#223,.T.);
#154=FACE_OUTER_BOUND('',#224,.T.);
#155=FACE_OUTER_BOUND('',#225,.T.);
#156=FACE_OUTER_BOUND('',#226,.T.);
#157=FACE_OUTER_BOUND('',#227,.T.);
#158=FACE_OUTER_BOUND('',#228,.T.);
#159=FACE_OUTER_BOUND('',#229,.T.);
#160=FACE_OUTER_BOUND('',#230,.T.);
#161=FACE_OUTER_BOUND('',#231,.T.);
#162=FACE_OUTER_BOUND('',#232,.T.);
#163=FACE_OUTER_BOUND('',#233,.T.);
#164=FACE_OUTER_BOUND('',#244,.T.);
#165=FACE_OUTER_BOUND('',#259,.T.);
#166=FACE_OUTER_BOUND('',#260,.T.);
#167=FACE_OUTER_BOUND('',#261,.T.);
#168=FACE_OUTER_BOUND('',#262,.T.);
#169=FACE_OUTER_BOUND('',#263,.T.);
#170=FACE_OUTER_BOUND('',#264,.T.);
#171=FACE_OUTER_BOUND('',#265,.T.);
#172=FACE_OUTER_BOUND('',#266,.T.);
#173=FACE_OUTER_BOUND('',#267,.T.);
#174=FACE_OUTER_BOUND('',#268,.T.);
#175=FACE_OUTER_BOUND('',#269,.T.);
#176=FACE_OUTER_BOUND('',#270,.T.);
#177=EDGE_LOOP('',(#937,#938,#939,#940));
#178=EDGE_LOOP('',(#941));
#179=EDGE_LOOP('',(#942,#943,#944,#945));
#180=EDGE_LOOP('',(#946));
#181=EDGE_LOOP('',(#947,#948,#949,#950));
#182=EDGE_LOOP('',(#951));
#183=EDGE_LOOP('',(#952,#953,#954,#955));
#184=EDGE_LOOP('',(#956));
#185=EDGE_LOOP('',(#957,#958,#959,#960));
#186=EDGE_LOOP('',(#961,#962,#963,#964));
#187=EDGE_LOOP('',(#965,#966,#967,#968));
#188=EDGE_LOOP('',(#969,#970,#971,#972));
#189=EDGE_LOOP('',(#973,#974,#975,#976));
#190=EDGE_LOOP('',(#977,#978,#979,#980));
#191=EDGE_LOOP('',(#981,#982,#983,#984));
#192=EDGE_LOOP('',(#985,#986,#987,#988));
#193=EDGE_LOOP('',(#989,#990,#991,#992));
#194=EDGE_LOOP('',(#993,#994,#995,#996));
#195=EDGE_LOOP('',(#997,#998,#999,#1000));
#196=EDGE_LOOP('',(#1001,#1002,#1003,#1004));
#197=EDGE_LOOP('',(#1005,#1006,#1007,#1008));
#198=EDGE_LOOP('',(#1009,#1010,#1011,#1012));
#199=EDGE_LOOP('',(#1013,#1014,#1015,#1016));
#200=EDGE_LOOP('',(#1017,#1018,#1019,#1020));
#201=EDGE_LOOP('',(#1021,#1022,#1023,#1024));
#202=EDGE_LOOP('',(#1025,#1026,#1027,#1028));
#203=EDGE_LOOP('',(#1029,#1030,#1031,#1032));
#204=EDGE_LOOP('',(#1033,#1034,#1035,#1036));
#205=EDGE_LOOP('',(#1037,#1038,#1039,#1040));
#206=EDGE_LOOP('',(#1041,#1042,#1043,#1044));
#207=EDGE_LOOP('',(#1045,#1046,#1047,#1048));
#208=EDGE_LOOP('',(#1049,#1050,#1051,#1052));
#209=EDGE_LOOP('',(#1053,#1054,#1055,#1056));
#210=EDGE_LOOP('',(#1057,#1058,#1059,#1060));
#211=EDGE_LOOP('',(#1061,#1062,#1063,#1064));
#212=EDGE_LOOP('',(#1065,#1066,#1067,#1068));
#213=EDGE_LOOP('',(#1069,#1070,#1071,#1072));
#214=EDGE_LOOP('',(#1073,#1074,#1075,#1076));
#215=EDGE_LOOP('',(#1077,#1078,#1079,#1080));
#216=EDGE_LOOP('',(#1081,#1082,#1083,#1084));
#217=EDGE_LOOP('',(#1085,#1086,#1087,#1088));
#218=EDGE_LOOP('',(#1089,#1090,#1091,#1092));
#219=EDGE_LOOP('',(#1093,#1094,#1095,#1096));
#220=EDGE_LOOP('',(#1097,#1098,#1099,#1100));
#221=EDGE_LOOP('',(#1101,#1102,#1103,#1104));
#222=EDGE_LOOP('',(#1105,#1106,#1107,#1108));
#223=EDGE_LOOP('',(#1109,#1110,#1111,#1112));
#224=EDGE_LOOP('',(#1113,#1114,#1115,#1116));
#225=EDGE_LOOP('',(#1117,#1118,#1119,#1120));
#226=EDGE_LOOP('',(#1121,#1122,#1123,#1124));
#227=EDGE_LOOP('',(#1125,#1126,#1127,#1128));
#228=EDGE_LOOP('',(#1129,#1130,#1131,#1132));
#229=EDGE_LOOP('',(#1133,#1134,#1135,#1136));
#230=EDGE_LOOP('',(#1137,#1138,#1139,#1140));
#231=EDGE_LOOP('',(#1141,#1142,#1143,#1144));
#232=EDGE_LOOP('',(#1145,#1146,#1147,#1148));
#233=EDGE_LOOP('',(#1149,#1150,#1151,#1152));
#234=EDGE_LOOP('',(#1153,#1154,#1155,#1156));
#235=EDGE_LOOP('',(#1157,#1158,#1159,#1160));
#236=EDGE_LOOP('',(#1161,#1162,#1163,#1164));
#237=EDGE_LOOP('',(#1165,#1166,#1167,#1168));
#238=EDGE_LOOP('',(#1169,#1170,#1171,#1172,#1173,#1174));
#239=EDGE_LOOP('',(#1175,#1176,#1177,#1178));
#240=EDGE_LOOP('',(#1179,#1180,#1181,#1182));
#241=EDGE_LOOP('',(#1183,#1184,#1185,#1186));
#242=EDGE_LOOP('',(#1187,#1188,#1189,#1190));
#243=EDGE_LOOP('',(#1191,#1192,#1193,#1194,#1195,#1196));
#244=EDGE_LOOP('',(#1197,#1198,#1199,#1200));
#245=EDGE_LOOP('',(#1201));
#246=EDGE_LOOP('',(#1202));
#247=EDGE_LOOP('',(#1203,#1204,#1205,#1206));
#248=EDGE_LOOP('',(#1207,#1208,#1209,#1210));
#249=EDGE_LOOP('',(#1211,#1212,#1213,#1214));
#250=EDGE_LOOP('',(#1215,#1216,#1217,#1218));
#251=EDGE_LOOP('',(#1219,#1220,#1221,#1222,#1223,#1224));
#252=EDGE_LOOP('',(#1225,#1226,#1227,#1228));
#253=EDGE_LOOP('',(#1229,#1230,#1231,#1232));
#254=EDGE_LOOP('',(#1233,#1234,#1235,#1236));
#255=EDGE_LOOP('',(#1237,#1238,#1239,#1240));
#256=EDGE_LOOP('',(#1241,#1242,#1243,#1244,#1245,#1246));
#257=EDGE_LOOP('',(#1247));
#258=EDGE_LOOP('',(#1248));
#259=EDGE_LOOP('',(#1249,#1250,#1251,#1252,#1253,#1254));
#260=EDGE_LOOP('',(#1255,#1256,#1257,#1258));
#261=EDGE_LOOP('',(#1259,#1260,#1261,#1262));
#262=EDGE_LOOP('',(#1263,#1264,#1265,#1266));
#263=EDGE_LOOP('',(#1267,#1268,#1269,#1270));
#264=EDGE_LOOP('',(#1271,#1272,#1273,#1274));
#265=EDGE_LOOP('',(#1275,#1276,#1277,#1278));
#266=EDGE_LOOP('',(#1279,#1280,#1281,#1282));
#267=EDGE_LOOP('',(#1283,#1284,#1285,#1286,#1287));
#268=EDGE_LOOP('',(#1288,#1289,#1290,#1291,#1292));
#269=EDGE_LOOP('',(#1293,#1294,#1295,#1296));
#270=EDGE_LOOP('',(#1297,#1298,#1299,#1300,#1301,#1302,#1303,#1304));
#271=LINE('',#1811,#447);
#272=LINE('',#1818,#448);
#273=LINE('',#1825,#449);
#274=LINE('',#1832,#450);
#275=LINE('',#1838,#451);
#276=LINE('',#1840,#452);
#277=LINE('',#1842,#453);
#278=LINE('',#1843,#454);
#279=LINE('',#1846,#455);
#280=LINE('',#1848,#456);
#281=LINE('',#1849,#457);
#282=LINE('',#1852,#458);
#283=LINE('',#1854,#459);
#284=LINE('',#1855,#460);
#285=LINE('',#1858,#461);
#286=LINE('',#1860,#462);
#287=LINE('',#1861,#463);
#288=LINE('',#1864,#464);
#289=LINE('',#1866,#465);
#290=LINE('',#1867,#466);
#291=LINE('',#1869,#467);
#292=LINE('',#1870,#468);
#293=LINE('',#1874,#469);
#294=LINE('',#1876,#470);
#295=LINE('',#1878,#471);
#296=LINE('',#1879,#472);
#297=LINE('',#1882,#473);
#298=LINE('',#1884,#474);
#299=LINE('',#1885,#475);
#300=LINE('',#1888,#476);
#301=LINE('',#1890,#477);
#302=LINE('',#1891,#478);
#303=LINE('',#1893,#479);
#304=LINE('',#1894,#480);
#305=LINE('',#1898,#481);
#306=LINE('',#1900,#482);
#307=LINE('',#1902,#483);
#308=LINE('',#1903,#484);
#309=LINE('',#1906,#485);
#310=LINE('',#1908,#486);
#311=LINE('',#1909,#487);
#312=LINE('',#1912,#488);
#313=LINE('',#1914,#489);
#314=LINE('',#1915,#490);
#315=LINE('',#1917,#491);
#316=LINE('',#1918,#492);
#317=LINE('',#1922,#493);
#318=LINE('',#1924,#494);
#319=LINE('',#1926,#495);
#320=LINE('',#1927,#496);
#321=LINE('',#1930,#497);
#322=LINE('',#1932,#498);
#323=LINE('',#1933,#499);
#324=LINE('',#1936,#500);
#325=LINE('',#1938,#501);
#326=LINE('',#1939,#502);
#327=LINE('',#1941,#503);
#328=LINE('',#1942,#504);
#329=LINE('',#1946,#505);
#330=LINE('',#1948,#506);
#331=LINE('',#1950,#507);
#332=LINE('',#1951,#508);
#333=LINE('',#1954,#509);
#334=LINE('',#1956,#510);
#335=LINE('',#1957,#511);
#336=LINE('',#1960,#512);
#337=LINE('',#1962,#513);
#338=LINE('',#1963,#514);
#339=LINE('',#1965,#515);
#340=LINE('',#1966,#516);
#341=LINE('',#1970,#517);
#342=LINE('',#1972,#518);
#343=LINE('',#1974,#519);
#344=LINE('',#1975,#520);
#345=LINE('',#1978,#521);
#346=LINE('',#1980,#522);
#347=LINE('',#1981,#523);
#348=LINE('',#1984,#524);
#349=LINE('',#1986,#525);
#350=LINE('',#1987,#526);
#351=LINE('',#1990,#527);
#352=LINE('',#1992,#528);
#353=LINE('',#1993,#529);
#354=LINE('',#1996,#530);
#355=LINE('',#1998,#531);
#356=LINE('',#1999,#532);
#357=LINE('',#2001,#533);
#358=LINE('',#2002,#534);
#359=LINE('',#2006,#535);
#360=LINE('',#2008,#536);
#361=LINE('',#2010,#537);
#362=LINE('',#2011,#538);
#363=LINE('',#2014,#539);
#364=LINE('',#2016,#540);
#365=LINE('',#2017,#541);
#366=LINE('',#2020,#542);
#367=LINE('',#2022,#543);
#368=LINE('',#2023,#544);
#369=LINE('',#2025,#545);
#370=LINE('',#2026,#546);
#371=LINE('',#2030,#547);
#372=LINE('',#2032,#548);
#373=LINE('',#2034,#549);
#374=LINE('',#2035,#550);
#375=LINE('',#2038,#551);
#376=LINE('',#2040,#552);
#377=LINE('',#2041,#553);
#378=LINE('',#2044,#554);
#379=LINE('',#2046,#555);
#380=LINE('',#2047,#556);
#381=LINE('',#2049,#557);
#382=LINE('',#2050,#558);
#383=LINE('',#2054,#559);
#384=LINE('',#2056,#560);
#385=LINE('',#2058,#561);
#386=LINE('',#2059,#562);
#387=LINE('',#2062,#563);
#388=LINE('',#2064,#564);
#389=LINE('',#2065,#565);
#390=LINE('',#2068,#566);
#391=LINE('',#2070,#567);
#392=LINE('',#2071,#568);
#393=LINE('',#2073,#569);
#394=LINE('',#2074,#570);
#395=LINE('',#2078,#571);
#396=LINE('',#2080,#572);
#397=LINE('',#2082,#573);
#398=LINE('',#2083,#574);
#399=LINE('',#2086,#575);
#400=LINE('',#2088,#576);
#401=LINE('',#2089,#577);
#402=LINE('',#2092,#578);
#403=LINE('',#2094,#579);
#404=LINE('',#2095,#580);
#405=LINE('',#2097,#581);
#406=LINE('',#2098,#582);
#407=LINE('',#2102,#583);
#408=LINE('',#2104,#584);
#409=LINE('',#2106,#585);
#410=LINE('',#2107,#586);
#411=LINE('',#2110,#587);
#412=LINE('',#2112,#588);
#413=LINE('',#2113,#589);
#414=LINE('',#2116,#590);
#415=LINE('',#2118,#591);
#416=LINE('',#2119,#592);
#417=LINE('',#2121,#593);
#418=LINE('',#2122,#594);
#419=LINE('',#2128,#595);
#420=LINE('',#2130,#596);
#421=LINE('',#2132,#597);
#422=LINE('',#2134,#598);
#423=LINE('',#2136,#599);
#424=LINE('',#2137,#600);
#425=LINE('',#2140,#601);
#426=LINE('',#2142,#602);
#427=LINE('',#2143,#603);
#428=LINE('',#2146,#604);
#429=LINE('',#2148,#605);
#430=LINE('',#2149,#606);
#431=LINE('',#2152,#607);
#432=LINE('',#2154,#608);
#433=LINE('',#2155,#609);
#434=LINE('',#2158,#610);
#435=LINE('',#2159,#611);
#436=LINE('',#2163,#612);
#437=LINE('',#2164,#613);
#438=LINE('',#2165,#614);
#439=LINE('',#2168,#615);
#440=LINE('',#2169,#616);
#441=LINE('',#2171,#617);
#442=LINE('',#2174,#618);
#443=LINE('',#2175,#619);
#444=LINE('',#2178,#620);
#445=LINE('',#2179,#621);
#446=LINE('',#2181,#622);
#447=VECTOR('',#1478,0.699999999999998);
#448=VECTOR('',#1487,0.699999999999998);
#449=VECTOR('',#1496,0.700000000000003);
#450=VECTOR('',#1505,0.700000000000003);
#451=VECTOR('',#1512,10.);
#452=VECTOR('',#1513,10.);
#453=VECTOR('',#1514,10.);
#454=VECTOR('',#1515,10.);
#455=VECTOR('',#1518,10.);
#456=VECTOR('',#1519,10.);
#457=VECTOR('',#1520,10.);
#458=VECTOR('',#1523,10.);
#459=VECTOR('',#1524,10.);
#460=VECTOR('',#1525,10.);
#461=VECTOR('',#1528,10.);
#462=VECTOR('',#1529,10.);
#463=VECTOR('',#1530,10.);
#464=VECTOR('',#1533,10.);
#465=VECTOR('',#1534,10.);
#466=VECTOR('',#1535,10.);
#467=VECTOR('',#1538,10.);
#468=VECTOR('',#1539,10.);
#469=VECTOR('',#1542,10.);
#470=VECTOR('',#1543,10.);
#471=VECTOR('',#1544,10.);
#472=VECTOR('',#1545,10.);
#473=VECTOR('',#1548,10.);
#474=VECTOR('',#1549,10.);
#475=VECTOR('',#1550,10.);
#476=VECTOR('',#1553,10.);
#477=VECTOR('',#1554,10.);
#478=VECTOR('',#1555,10.);
#479=VECTOR('',#1558,10.);
#480=VECTOR('',#1559,10.);
#481=VECTOR('',#1562,10.);
#482=VECTOR('',#1563,10.);
#483=VECTOR('',#1564,10.);
#484=VECTOR('',#1565,10.);
#485=VECTOR('',#1568,10.);
#486=VECTOR('',#1569,10.);
#487=VECTOR('',#1570,10.);
#488=VECTOR('',#1573,10.);
#489=VECTOR('',#1574,10.);
#490=VECTOR('',#1575,10.);
#491=VECTOR('',#1578,10.);
#492=VECTOR('',#1579,10.);
#493=VECTOR('',#1582,10.);
#494=VECTOR('',#1583,10.);
#495=VECTOR('',#1584,10.);
#496=VECTOR('',#1585,10.);
#497=VECTOR('',#1588,10.);
#498=VECTOR('',#1589,10.);
#499=VECTOR('',#1590,10.);
#500=VECTOR('',#1593,10.);
#501=VECTOR('',#1594,10.);
#502=VECTOR('',#1595,10.);
#503=VECTOR('',#1598,10.);
#504=VECTOR('',#1599,10.);
#505=VECTOR('',#1602,10.);
#506=VECTOR('',#1603,10.);
#507=VECTOR('',#1604,10.);
#508=VECTOR('',#1605,10.);
#509=VECTOR('',#1608,10.);
#510=VECTOR('',#1609,10.);
#511=VECTOR('',#1610,10.);
#512=VECTOR('',#1613,10.);
#513=VECTOR('',#1614,10.);
#514=VECTOR('',#1615,10.);
#515=VECTOR('',#1618,10.);
#516=VECTOR('',#1619,10.);
#517=VECTOR('',#1622,10.);
#518=VECTOR('',#1623,10.);
#519=VECTOR('',#1624,10.);
#520=VECTOR('',#1625,10.);
#521=VECTOR('',#1628,10.);
#522=VECTOR('',#1629,10.);
#523=VECTOR('',#1630,10.);
#524=VECTOR('',#1633,10.);
#525=VECTOR('',#1634,10.);
#526=VECTOR('',#1635,10.);
#527=VECTOR('',#1638,10.);
#528=VECTOR('',#1639,10.);
#529=VECTOR('',#1640,10.);
#530=VECTOR('',#1643,10.);
#531=VECTOR('',#1644,10.);
#532=VECTOR('',#1645,10.);
#533=VECTOR('',#1648,10.);
#534=VECTOR('',#1649,10.);
#535=VECTOR('',#1652,10.);
#536=VECTOR('',#1653,10.);
#537=VECTOR('',#1654,10.);
#538=VECTOR('',#1655,10.);
#539=VECTOR('',#1658,10.);
#540=VECTOR('',#1659,10.);
#541=VECTOR('',#1660,10.);
#542=VECTOR('',#1663,10.);
#543=VECTOR('',#1664,10.);
#544=VECTOR('',#1665,10.);
#545=VECTOR('',#1668,10.);
#546=VECTOR('',#1669,10.);
#547=VECTOR('',#1672,10.);
#548=VECTOR('',#1673,10.);
#549=VECTOR('',#1674,10.);
#550=VECTOR('',#1675,10.);
#551=VECTOR('',#1678,10.);
#552=VECTOR('',#1679,10.);
#553=VECTOR('',#1680,10.);
#554=VECTOR('',#1683,10.);
#555=VECTOR('',#1684,10.);
#556=VECTOR('',#1685,10.);
#557=VECTOR('',#1688,10.);
#558=VECTOR('',#1689,10.);
#559=VECTOR('',#1692,10.);
#560=VECTOR('',#1693,10.);
#561=VECTOR('',#1694,10.);
#562=VECTOR('',#1695,10.);
#563=VECTOR('',#1698,10.);
#564=VECTOR('',#1699,10.);
#565=VECTOR('',#1700,10.);
#566=VECTOR('',#1703,10.);
#567=VECTOR('',#1704,10.);
#568=VECTOR('',#1705,10.);
#569=VECTOR('',#1708,10.);
#570=VECTOR('',#1709,10.);
#571=VECTOR('',#1712,10.);
#572=VECTOR('',#1713,10.);
#573=VECTOR('',#1714,10.);
#574=VECTOR('',#1715,10.);
#575=VECTOR('',#1718,10.);
#576=VECTOR('',#1719,10.);
#577=VECTOR('',#1720,10.);
#578=VECTOR('',#1723,10.);
#579=VECTOR('',#1724,10.);
#580=VECTOR('',#1725,10.);
#581=VECTOR('',#1728,10.);
#582=VECTOR('',#1729,10.);
#583=VECTOR('',#1732,10.);
#584=VECTOR('',#1733,10.);
#585=VECTOR('',#1734,10.);
#586=VECTOR('',#1735,10.);
#587=VECTOR('',#1738,10.);
#588=VECTOR('',#1739,10.);
#589=VECTOR('',#1740,10.);
#590=VECTOR('',#1743,10.);
#591=VECTOR('',#1744,10.);
#592=VECTOR('',#1745,10.);
#593=VECTOR('',#1748,10.);
#594=VECTOR('',#1749,10.);
#595=VECTOR('',#1756,10.);
#596=VECTOR('',#1757,10.);
#597=VECTOR('',#1758,10.);
#598=VECTOR('',#1759,10.);
#599=VECTOR('',#1760,10.);
#600=VECTOR('',#1761,10.);
#601=VECTOR('',#1764,10.);
#602=VECTOR('',#1765,10.);
#603=VECTOR('',#1766,10.);
#604=VECTOR('',#1769,10.);
#605=VECTOR('',#1770,10.);
#606=VECTOR('',#1771,10.);
#607=VECTOR('',#1774,10.);
#608=VECTOR('',#1775,10.);
#609=VECTOR('',#1776,10.);
#610=VECTOR('',#1779,10.);
#611=VECTOR('',#1780,10.);
#612=VECTOR('',#1783,10.);
#613=VECTOR('',#1784,10.);
#614=VECTOR('',#1785,10.);
#615=VECTOR('',#1788,10.);
#616=VECTOR('',#1789,10.);
#617=VECTOR('',#1792,10.);
#618=VECTOR('',#1795,10.);
#619=VECTOR('',#1796,10.);
#620=VECTOR('',#1799,10.);
#621=VECTOR('',#1800,10.);
#622=VECTOR('',#1803,10.);
#623=CIRCLE('',#1395,0.699999999999998);
#624=CIRCLE('',#1396,0.699999999999998);
#625=CIRCLE('',#1399,0.699999999999998);
#626=CIRCLE('',#1400,0.699999999999998);
#627=CIRCLE('',#1403,0.700000000000003);
#628=CIRCLE('',#1404,0.700000000000003);
#629=CIRCLE('',#1407,0.700000000000003);
#630=CIRCLE('',#1408,0.700000000000003);
#631=VERTEX_POINT('',#1808);
#632=VERTEX_POINT('',#1810);
#633=VERTEX_POINT('',#1815);
#634=VERTEX_POINT('',#1817);
#635=VERTEX_POINT('',#1822);
#636=VERTEX_POINT('',#1824);
#637=VERTEX_POINT('',#1829);
#638=VERTEX_POINT('',#1831);
#639=VERTEX_POINT('',#1836);
#640=VERTEX_POINT('',#1837);
#641=VERTEX_POINT('',#1839);
#642=VERTEX_POINT('',#1841);
#643=VERTEX_POINT('',#1845);
#644=VERTEX_POINT('',#1847);
#645=VERTEX_POINT('',#1851);
#646=VERTEX_POINT('',#1853);
#647=VERTEX_POINT('',#1857);
#648=VERTEX_POINT('',#1859);
#649=VERTEX_POINT('',#1863);
#650=VERTEX_POINT('',#1865);
#651=VERTEX_POINT('',#1872);
#652=VERTEX_POINT('',#1873);
#653=VERTEX_POINT('',#1875);
#654=VERTEX_POINT('',#1877);
#655=VERTEX_POINT('',#1881);
#656=VERTEX_POINT('',#1883);
#657=VERTEX_POINT('',#1887);
#658=VERTEX_POINT('',#1889);
#659=VERTEX_POINT('',#1896);
#660=VERTEX_POINT('',#1897);
#661=VERTEX_POINT('',#1899);
#662=VERTEX_POINT('',#1901);
#663=VERTEX_POINT('',#1905);
#664=VERTEX_POINT('',#1907);
#665=VERTEX_POINT('',#1911);
#666=VERTEX_POINT('',#1913);
#667=VERTEX_POINT('',#1920);
#668=VERTEX_POINT('',#1921);
#669=VERTEX_POINT('',#1923);
#670=VERTEX_POINT('',#1925);
#671=VERTEX_POINT('',#1929);
#672=VERTEX_POINT('',#1931);
#673=VERTEX_POINT('',#1935);
#674=VERTEX_POINT('',#1937);
#675=VERTEX_POINT('',#1944);
#676=VERTEX_POINT('',#1945);
#677=VERTEX_POINT('',#1947);
#678=VERTEX_POINT('',#1949);
#679=VERTEX_POINT('',#1953);
#680=VERTEX_POINT('',#1955);
#681=VERTEX_POINT('',#1959);
#682=VERTEX_POINT('',#1961);
#683=VERTEX_POINT('',#1968);
#684=VERTEX_POINT('',#1969);
#685=VERTEX_POINT('',#1971);
#686=VERTEX_POINT('',#1973);
#687=VERTEX_POINT('',#1977);
#688=VERTEX_POINT('',#1979);
#689=VERTEX_POINT('',#1983);
#690=VERTEX_POINT('',#1985);
#691=VERTEX_POINT('',#1989);
#692=VERTEX_POINT('',#1991);
#693=VERTEX_POINT('',#1995);
#694=VERTEX_POINT('',#1997);
#695=VERTEX_POINT('',#2004);
#696=VERTEX_POINT('',#2005);
#697=VERTEX_POINT('',#2007);
#698=VERTEX_POINT('',#2009);
#699=VERTEX_POINT('',#2013);
#700=VERTEX_POINT('',#2015);
#701=VERTEX_POINT('',#2019);
#702=VERTEX_POINT('',#2021);
#703=VERTEX_POINT('',#2028);
#704=VERTEX_POINT('',#2029);
#705=VERTEX_POINT('',#2031);
#706=VERTEX_POINT('',#2033);
#707=VERTEX_POINT('',#2037);
#708=VERTEX_POINT('',#2039);
#709=VERTEX_POINT('',#2043);
#710=VERTEX_POINT('',#2045);
#711=VERTEX_POINT('',#2052);
#712=VERTEX_POINT('',#2053);
#713=VERTEX_POINT('',#2055);
#714=VERTEX_POINT('',#2057);
#715=VERTEX_POINT('',#2061);
#716=VERTEX_POINT('',#2063);
#717=VERTEX_POINT('',#2067);
#718=VERTEX_POINT('',#2069);
#719=VERTEX_POINT('',#2076);
#720=VERTEX_POINT('',#2077);
#721=VERTEX_POINT('',#2079);
#722=VERTEX_POINT('',#2081);
#723=VERTEX_POINT('',#2085);
#724=VERTEX_POINT('',#2087);
#725=VERTEX_POINT('',#2091);
#726=VERTEX_POINT('',#2093);
#727=VERTEX_POINT('',#2100);
#728=VERTEX_POINT('',#2101);
#729=VERTEX_POINT('',#2103);
#730=VERTEX_POINT('',#2105);
#731=VERTEX_POINT('',#2109);
#732=VERTEX_POINT('',#2111);
#733=VERTEX_POINT('',#2115);
#734=VERTEX_POINT('',#2117);
#735=VERTEX_POINT('',#2126);
#736=VERTEX_POINT('',#2127);
#737=VERTEX_POINT('',#2129);
#738=VERTEX_POINT('',#2131);
#739=VERTEX_POINT('',#2133);
#740=VERTEX_POINT('',#2135);
#741=VERTEX_POINT('',#2139);
#742=VERTEX_POINT('',#2141);
#743=VERTEX_POINT('',#2145);
#744=VERTEX_POINT('',#2147);
#745=VERTEX_POINT('',#2151);
#746=VERTEX_POINT('',#2153);
#747=VERTEX_POINT('',#2157);
#748=VERTEX_POINT('',#2161);
#749=VERTEX_POINT('',#2162);
#750=VERTEX_POINT('',#2167);
#751=VERTEX_POINT('',#2173);
#752=VERTEX_POINT('',#2177);
#753=EDGE_CURVE('',#631,#631,#623,.T.);
#754=EDGE_CURVE('',#631,#632,#271,.T.);
#755=EDGE_CURVE('',#632,#632,#624,.T.);
#756=EDGE_CURVE('',#633,#633,#625,.T.);
#757=EDGE_CURVE('',#633,#634,#272,.T.);
#758=EDGE_CURVE('',#634,#634,#626,.T.);
#759=EDGE_CURVE('',#635,#635,#627,.T.);
#760=EDGE_CURVE('',#635,#636,#273,.T.);
#761=EDGE_CURVE('',#636,#636,#628,.T.);
#762=EDGE_CURVE('',#637,#637,#629,.T.);
#763=EDGE_CURVE('',#637,#638,#274,.T.);
#764=EDGE_CURVE('',#638,#638,#630,.T.);
#765=EDGE_CURVE('',#639,#640,#275,.T.);
#766=EDGE_CURVE('',#641,#639,#276,.T.);
#767=EDGE_CURVE('',#642,#641,#277,.T.);
#768=EDGE_CURVE('',#642,#640,#278,.T.);
#769=EDGE_CURVE('',#640,#643,#279,.T.);
#770=EDGE_CURVE('',#644,#642,#280,.T.);
#771=EDGE_CURVE('',#644,#643,#281,.T.);
#772=EDGE_CURVE('',#643,#645,#282,.T.);
#773=EDGE_CURVE('',#646,#644,#283,.T.);
#774=EDGE_CURVE('',#646,#645,#284,.T.);
#775=EDGE_CURVE('',#645,#647,#285,.T.);
#776=EDGE_CURVE('',#648,#646,#286,.T.);
#777=EDGE_CURVE('',#648,#647,#287,.T.);
#778=EDGE_CURVE('',#647,#649,#288,.T.);
#779=EDGE_CURVE('',#650,#648,#289,.T.);
#780=EDGE_CURVE('',#650,#649,#290,.T.);
#781=EDGE_CURVE('',#649,#639,#291,.T.);
#782=EDGE_CURVE('',#641,#650,#292,.T.);
#783=EDGE_CURVE('',#651,#652,#293,.T.);
#784=EDGE_CURVE('',#653,#651,#294,.T.);
#785=EDGE_CURVE('',#654,#653,#295,.T.);
#786=EDGE_CURVE('',#654,#652,#296,.T.);
#787=EDGE_CURVE('',#652,#655,#297,.T.);
#788=EDGE_CURVE('',#656,#654,#298,.T.);
#789=EDGE_CURVE('',#656,#655,#299,.T.);
#790=EDGE_CURVE('',#655,#657,#300,.T.);
#791=EDGE_CURVE('',#658,#656,#301,.T.);
#792=EDGE_CURVE('',#658,#657,#302,.T.);
#793=EDGE_CURVE('',#657,#651,#303,.T.);
#794=EDGE_CURVE('',#653,#658,#304,.T.);
#795=EDGE_CURVE('',#659,#660,#305,.T.);
#796=EDGE_CURVE('',#661,#659,#306,.T.);
#797=EDGE_CURVE('',#662,#661,#307,.T.);
#798=EDGE_CURVE('',#662,#660,#308,.T.);
#799=EDGE_CURVE('',#660,#663,#309,.T.);
#800=EDGE_CURVE('',#664,#662,#310,.T.);
#801=EDGE_CURVE('',#664,#663,#311,.T.);
#802=EDGE_CURVE('',#663,#665,#312,.T.);
#803=EDGE_CURVE('',#666,#664,#313,.T.);
#804=EDGE_CURVE('',#666,#665,#314,.T.);
#805=EDGE_CURVE('',#665,#659,#315,.T.);
#806=EDGE_CURVE('',#661,#666,#316,.T.);
#807=EDGE_CURVE('',#667,#668,#317,.T.);
#808=EDGE_CURVE('',#669,#667,#318,.T.);
#809=EDGE_CURVE('',#670,#669,#319,.T.);
#810=EDGE_CURVE('',#670,#668,#320,.T.);
#811=EDGE_CURVE('',#668,#671,#321,.T.);
#812=EDGE_CURVE('',#672,#670,#322,.T.);
#813=EDGE_CURVE('',#672,#671,#323,.T.);
#814=EDGE_CURVE('',#671,#673,#324,.T.);
#815=EDGE_CURVE('',#674,#672,#325,.T.);
#816=EDGE_CURVE('',#674,#673,#326,.T.);
#817=EDGE_CURVE('',#673,#667,#327,.T.);
#818=EDGE_CURVE('',#669,#674,#328,.T.);
#819=EDGE_CURVE('',#675,#676,#329,.T.);
#820=EDGE_CURVE('',#677,#675,#330,.T.);
#821=EDGE_CURVE('',#678,#677,#331,.T.);
#822=EDGE_CURVE('',#678,#676,#332,.T.);
#823=EDGE_CURVE('',#676,#679,#333,.T.);
#824=EDGE_CURVE('',#680,#678,#334,.T.);
#825=EDGE_CURVE('',#680,#679,#335,.T.);
#826=EDGE_CURVE('',#679,#681,#336,.T.);
#827=EDGE_CURVE('',#682,#680,#337,.T.);
#828=EDGE_CURVE('',#682,#681,#338,.T.);
#829=EDGE_CURVE('',#681,#675,#339,.T.);
#830=EDGE_CURVE('',#677,#682,#340,.T.);
#831=EDGE_CURVE('',#683,#684,#341,.T.);
#832=EDGE_CURVE('',#685,#683,#342,.T.);
#833=EDGE_CURVE('',#686,#685,#343,.T.);
#834=EDGE_CURVE('',#686,#684,#344,.T.);
#835=EDGE_CURVE('',#684,#687,#345,.T.);
#836=EDGE_CURVE('',#688,#686,#346,.T.);
#837=EDGE_CURVE('',#688,#687,#347,.T.);
#838=EDGE_CURVE('',#687,#689,#348,.T.);
#839=EDGE_CURVE('',#690,#688,#349,.T.);
#840=EDGE_CURVE('',#690,#689,#350,.T.);
#841=EDGE_CURVE('',#689,#691,#351,.T.);
#842=EDGE_CURVE('',#692,#690,#352,.T.);
#843=EDGE_CURVE('',#692,#691,#353,.T.);
#844=EDGE_CURVE('',#691,#693,#354,.T.);
#845=EDGE_CURVE('',#694,#692,#355,.T.);
#846=EDGE_CURVE('',#694,#693,#356,.T.);
#847=EDGE_CURVE('',#693,#683,#357,.T.);
#848=EDGE_CURVE('',#685,#694,#358,.T.);
#849=EDGE_CURVE('',#695,#696,#359,.T.);
#850=EDGE_CURVE('',#697,#695,#360,.T.);
#851=EDGE_CURVE('',#698,#697,#361,.T.);
#852=EDGE_CURVE('',#698,#696,#362,.T.);
#853=EDGE_CURVE('',#696,#699,#363,.T.);
#854=EDGE_CURVE('',#700,#698,#364,.T.);
#855=EDGE_CURVE('',#700,#699,#365,.T.);
#856=EDGE_CURVE('',#699,#701,#366,.T.);
#857=EDGE_CURVE('',#702,#700,#367,.T.);
#858=EDGE_CURVE('',#702,#701,#368,.T.);
#859=EDGE_CURVE('',#701,#695,#369,.T.);
#860=EDGE_CURVE('',#697,#702,#370,.T.);
#861=EDGE_CURVE('',#703,#704,#371,.T.);
#862=EDGE_CURVE('',#705,#703,#372,.T.);
#863=EDGE_CURVE('',#706,#705,#373,.T.);
#864=EDGE_CURVE('',#706,#704,#374,.T.);
#865=EDGE_CURVE('',#704,#707,#375,.T.);
#866=EDGE_CURVE('',#708,#706,#376,.T.);
#867=EDGE_CURVE('',#708,#707,#377,.T.);
#868=EDGE_CURVE('',#707,#709,#378,.T.);
#869=EDGE_CURVE('',#710,#708,#379,.T.);
#870=EDGE_CURVE('',#710,#709,#380,.T.);
#871=EDGE_CURVE('',#709,#703,#381,.T.);
#872=EDGE_CURVE('',#705,#710,#382,.T.);
#873=EDGE_CURVE('',#711,#712,#383,.T.);
#874=EDGE_CURVE('',#713,#711,#384,.T.);
#875=EDGE_CURVE('',#714,#713,#385,.T.);
#876=EDGE_CURVE('',#714,#712,#386,.T.);
#877=EDGE_CURVE('',#712,#715,#387,.T.);
#878=EDGE_CURVE('',#716,#714,#388,.T.);
#879=EDGE_CURVE('',#716,#715,#389,.T.);
#880=EDGE_CURVE('',#715,#717,#390,.T.);
#881=EDGE_CURVE('',#718,#716,#391,.T.);
#882=EDGE_CURVE('',#718,#717,#392,.T.);
#883=EDGE_CURVE('',#717,#711,#393,.T.);
#884=EDGE_CURVE('',#713,#718,#394,.T.);
#885=EDGE_CURVE('',#719,#720,#395,.T.);
#886=EDGE_CURVE('',#721,#719,#396,.T.);
#887=EDGE_CURVE('',#722,#721,#397,.T.);
#888=EDGE_CURVE('',#722,#720,#398,.T.);
#889=EDGE_CURVE('',#720,#723,#399,.T.);
#890=EDGE_CURVE('',#724,#722,#400,.T.);
#891=EDGE_CURVE('',#724,#723,#401,.T.);
#892=EDGE_CURVE('',#723,#725,#402,.T.);
#893=EDGE_CURVE('',#726,#724,#403,.T.);
#894=EDGE_CURVE('',#726,#725,#404,.T.);
#895=EDGE_CURVE('',#725,#719,#405,.T.);
#896=EDGE_CURVE('',#721,#726,#406,.T.);
#897=EDGE_CURVE('',#727,#728,#407,.T.);
#898=EDGE_CURVE('',#729,#727,#408,.T.);
#899=EDGE_CURVE('',#730,#729,#409,.T.);
#900=EDGE_CURVE('',#730,#728,#410,.T.);
#901=EDGE_CURVE('',#728,#731,#411,.T.);
#902=EDGE_CURVE('',#732,#730,#412,.T.);
#903=EDGE_CURVE('',#732,#731,#413,.T.);
#904=EDGE_CURVE('',#731,#733,#414,.T.);
#905=EDGE_CURVE('',#734,#732,#415,.T.);
#906=EDGE_CURVE('',#734,#733,#416,.T.);
#907=EDGE_CURVE('',#733,#727,#417,.T.);
#908=EDGE_CURVE('',#729,#734,#418,.T.);
#909=EDGE_CURVE('',#735,#736,#419,.T.);
#910=EDGE_CURVE('',#737,#735,#420,.T.);
#911=EDGE_CURVE('',#738,#737,#421,.T.);
#912=EDGE_CURVE('',#738,#739,#422,.F.);
#913=EDGE_CURVE('',#739,#740,#423,.F.);
#914=EDGE_CURVE('',#740,#736,#424,.F.);
#915=EDGE_CURVE('',#735,#741,#425,.T.);
#916=EDGE_CURVE('',#742,#741,#426,.T.);
#917=EDGE_CURVE('',#737,#742,#427,.T.);
#918=EDGE_CURVE('',#741,#743,#428,.T.);
#919=EDGE_CURVE('',#743,#744,#429,.T.);
#920=EDGE_CURVE('',#744,#742,#430,.T.);
#921=EDGE_CURVE('',#736,#745,#431,.F.);
#922=EDGE_CURVE('',#745,#746,#432,.T.);
#923=EDGE_CURVE('',#746,#735,#433,.T.);
#924=EDGE_CURVE('',#747,#740,#434,.F.);
#925=EDGE_CURVE('',#747,#745,#435,.F.);
#926=EDGE_CURVE('',#748,#749,#436,.T.);
#927=EDGE_CURVE('',#749,#738,#437,.F.);
#928=EDGE_CURVE('',#748,#737,#438,.T.);
#929=EDGE_CURVE('',#749,#750,#439,.F.);
#930=EDGE_CURVE('',#750,#739,#440,.F.);
#931=EDGE_CURVE('',#750,#747,#441,.F.);
#932=EDGE_CURVE('',#751,#746,#442,.T.);
#933=EDGE_CURVE('',#751,#743,#443,.T.);
#934=EDGE_CURVE('',#748,#752,#444,.T.);
#935=EDGE_CURVE('',#752,#744,#445,.T.);
#936=EDGE_CURVE('',#752,#751,#446,.T.);
#937=ORIENTED_EDGE('',*,*,#753,.F.);
#938=ORIENTED_EDGE('',*,*,#754,.T.);
#939=ORIENTED_EDGE('',*,*,#755,.F.);
#940=ORIENTED_EDGE('',*,*,#754,.F.);
#941=ORIENTED_EDGE('',*,*,#753,.T.);
#942=ORIENTED_EDGE('',*,*,#756,.F.);
#943=ORIENTED_EDGE('',*,*,#757,.T.);
#944=ORIENTED_EDGE('',*,*,#758,.F.);
#945=ORIENTED_EDGE('',*,*,#757,.F.);
#946=ORIENTED_EDGE('',*,*,#756,.T.);
#947=ORIENTED_EDGE('',*,*,#759,.F.);
#948=ORIENTED_EDGE('',*,*,#760,.T.);
#949=ORIENTED_EDGE('',*,*,#761,.F.);
#950=ORIENTED_EDGE('',*,*,#760,.F.);
#951=ORIENTED_EDGE('',*,*,#759,.T.);
#952=ORIENTED_EDGE('',*,*,#762,.F.);
#953=ORIENTED_EDGE('',*,*,#763,.T.);
#954=ORIENTED_EDGE('',*,*,#764,.F.);
#955=ORIENTED_EDGE('',*,*,#763,.F.);
#956=ORIENTED_EDGE('',*,*,#762,.T.);
#957=ORIENTED_EDGE('',*,*,#765,.F.);
#958=ORIENTED_EDGE('',*,*,#766,.F.);
#959=ORIENTED_EDGE('',*,*,#767,.F.);
#960=ORIENTED_EDGE('',*,*,#768,.T.);
#961=ORIENTED_EDGE('',*,*,#769,.F.);
#962=ORIENTED_EDGE('',*,*,#768,.F.);
#963=ORIENTED_EDGE('',*,*,#770,.F.);
#964=ORIENTED_EDGE('',*,*,#771,.T.);
#965=ORIENTED_EDGE('',*,*,#772,.F.);
#966=ORIENTED_EDGE('',*,*,#771,.F.);
#967=ORIENTED_EDGE('',*,*,#773,.F.);
#968=ORIENTED_EDGE('',*,*,#774,.T.);
#969=ORIENTED_EDGE('',*,*,#775,.F.);
#970=ORIENTED_EDGE('',*,*,#774,.F.);
#971=ORIENTED_EDGE('',*,*,#776,.F.);
#972=ORIENTED_EDGE('',*,*,#777,.T.);
#973=ORIENTED_EDGE('',*,*,#778,.F.);
#974=ORIENTED_EDGE('',*,*,#777,.F.);
#975=ORIENTED_EDGE('',*,*,#779,.F.);
#976=ORIENTED_EDGE('',*,*,#780,.T.);
#977=ORIENTED_EDGE('',*,*,#781,.F.);
#978=ORIENTED_EDGE('',*,*,#780,.F.);
#979=ORIENTED_EDGE('',*,*,#782,.F.);
#980=ORIENTED_EDGE('',*,*,#766,.T.);
#981=ORIENTED_EDGE('',*,*,#783,.F.);
#982=ORIENTED_EDGE('',*,*,#784,.F.);
#983=ORIENTED_EDGE('',*,*,#785,.F.);
#984=ORIENTED_EDGE('',*,*,#786,.T.);
#985=ORIENTED_EDGE('',*,*,#787,.F.);
#986=ORIENTED_EDGE('',*,*,#786,.F.);
#987=ORIENTED_EDGE('',*,*,#788,.F.);
#988=ORIENTED_EDGE('',*,*,#789,.T.);
#989=ORIENTED_EDGE('',*,*,#790,.F.);
#990=ORIENTED_EDGE('',*,*,#789,.F.);
#991=ORIENTED_EDGE('',*,*,#791,.F.);
#992=ORIENTED_EDGE('',*,*,#792,.T.);
#993=ORIENTED_EDGE('',*,*,#793,.F.);
#994=ORIENTED_EDGE('',*,*,#792,.F.);
#995=ORIENTED_EDGE('',*,*,#794,.F.);
#996=ORIENTED_EDGE('',*,*,#784,.T.);
#997=ORIENTED_EDGE('',*,*,#795,.F.);
#998=ORIENTED_EDGE('',*,*,#796,.F.);
#999=ORIENTED_EDGE('',*,*,#797,.F.);
#1000=ORIENTED_EDGE('',*,*,#798,.T.);
#1001=ORIENTED_EDGE('',*,*,#799,.F.);
#1002=ORIENTED_EDGE('',*,*,#798,.F.);
#1003=ORIENTED_EDGE('',*,*,#800,.F.);
#1004=ORIENTED_EDGE('',*,*,#801,.T.);
#1005=ORIENTED_EDGE('',*,*,#802,.F.);
#1006=ORIENTED_EDGE('',*,*,#801,.F.);
#1007=ORIENTED_EDGE('',*,*,#803,.F.);
#1008=ORIENTED_EDGE('',*,*,#804,.T.);
#1009=ORIENTED_EDGE('',*,*,#805,.F.);
#1010=ORIENTED_EDGE('',*,*,#804,.F.);
#1011=ORIENTED_EDGE('',*,*,#806,.F.);
#1012=ORIENTED_EDGE('',*,*,#796,.T.);
#1013=ORIENTED_EDGE('',*,*,#807,.F.);
#1014=ORIENTED_EDGE('',*,*,#808,.F.);
#1015=ORIENTED_EDGE('',*,*,#809,.F.);
#1016=ORIENTED_EDGE('',*,*,#810,.T.);
#1017=ORIENTED_EDGE('',*,*,#811,.F.);
#1018=ORIENTED_EDGE('',*,*,#810,.F.);
#1019=ORIENTED_EDGE('',*,*,#812,.F.);
#1020=ORIENTED_EDGE('',*,*,#813,.T.);
#1021=ORIENTED_EDGE('',*,*,#814,.F.);
#1022=ORIENTED_EDGE('',*,*,#813,.F.);
#1023=ORIENTED_EDGE('',*,*,#815,.F.);
#1024=ORIENTED_EDGE('',*,*,#816,.T.);
#1025=ORIENTED_EDGE('',*,*,#817,.F.);
#1026=ORIENTED_EDGE('',*,*,#816,.F.);
#1027=ORIENTED_EDGE('',*,*,#818,.F.);
#1028=ORIENTED_EDGE('',*,*,#808,.T.);
#1029=ORIENTED_EDGE('',*,*,#819,.F.);
#1030=ORIENTED_EDGE('',*,*,#820,.F.);
#1031=ORIENTED_EDGE('',*,*,#821,.F.);
#1032=ORIENTED_EDGE('',*,*,#822,.T.);
#1033=ORIENTED_EDGE('',*,*,#823,.F.);
#1034=ORIENTED_EDGE('',*,*,#822,.F.);
#1035=ORIENTED_EDGE('',*,*,#824,.F.);
#1036=ORIENTED_EDGE('',*,*,#825,.T.);
#1037=ORIENTED_EDGE('',*,*,#826,.F.);
#1038=ORIENTED_EDGE('',*,*,#825,.F.);
#1039=ORIENTED_EDGE('',*,*,#827,.F.);
#1040=ORIENTED_EDGE('',*,*,#828,.T.);
#1041=ORIENTED_EDGE('',*,*,#829,.F.);
#1042=ORIENTED_EDGE('',*,*,#828,.F.);
#1043=ORIENTED_EDGE('',*,*,#830,.F.);
#1044=ORIENTED_EDGE('',*,*,#820,.T.);
#1045=ORIENTED_EDGE('',*,*,#831,.F.);
#1046=ORIENTED_EDGE('',*,*,#832,.F.);
#1047=ORIENTED_EDGE('',*,*,#833,.F.);
#1048=ORIENTED_EDGE('',*,*,#834,.T.);
#1049=ORIENTED_EDGE('',*,*,#835,.F.);
#1050=ORIENTED_EDGE('',*,*,#834,.F.);
#1051=ORIENTED_EDGE('',*,*,#836,.F.);
#1052=ORIENTED_EDGE('',*,*,#837,.T.);
#1053=ORIENTED_EDGE('',*,*,#838,.F.);
#1054=ORIENTED_EDGE('',*,*,#837,.F.);
#1055=ORIENTED_EDGE('',*,*,#839,.F.);
#1056=ORIENTED_EDGE('',*,*,#840,.T.);
#1057=ORIENTED_EDGE('',*,*,#841,.F.);
#1058=ORIENTED_EDGE('',*,*,#840,.F.);
#1059=ORIENTED_EDGE('',*,*,#842,.F.);
#1060=ORIENTED_EDGE('',*,*,#843,.T.);
#1061=ORIENTED_EDGE('',*,*,#844,.F.);
#1062=ORIENTED_EDGE('',*,*,#843,.F.);
#1063=ORIENTED_EDGE('',*,*,#845,.F.);
#1064=ORIENTED_EDGE('',*,*,#846,.T.);
#1065=ORIENTED_EDGE('',*,*,#847,.F.);
#1066=ORIENTED_EDGE('',*,*,#846,.F.);
#1067=ORIENTED_EDGE('',*,*,#848,.F.);
#1068=ORIENTED_EDGE('',*,*,#832,.T.);
#1069=ORIENTED_EDGE('',*,*,#849,.F.);
#1070=ORIENTED_EDGE('',*,*,#850,.F.);
#1071=ORIENTED_EDGE('',*,*,#851,.F.);
#1072=ORIENTED_EDGE('',*,*,#852,.T.);
#1073=ORIENTED_EDGE('',*,*,#853,.F.);
#1074=ORIENTED_EDGE('',*,*,#852,.F.);
#1075=ORIENTED_EDGE('',*,*,#854,.F.);
#1076=ORIENTED_EDGE('',*,*,#855,.T.);
#1077=ORIENTED_EDGE('',*,*,#856,.F.);
#1078=ORIENTED_EDGE('',*,*,#855,.F.);
#1079=ORIENTED_EDGE('',*,*,#857,.F.);
#1080=ORIENTED_EDGE('',*,*,#858,.T.);
#1081=ORIENTED_EDGE('',*,*,#859,.F.);
#1082=ORIENTED_EDGE('',*,*,#858,.F.);
#1083=ORIENTED_EDGE('',*,*,#860,.F.);
#1084=ORIENTED_EDGE('',*,*,#850,.T.);
#1085=ORIENTED_EDGE('',*,*,#861,.F.);
#1086=ORIENTED_EDGE('',*,*,#862,.F.);
#1087=ORIENTED_EDGE('',*,*,#863,.F.);
#1088=ORIENTED_EDGE('',*,*,#864,.T.);
#1089=ORIENTED_EDGE('',*,*,#865,.F.);
#1090=ORIENTED_EDGE('',*,*,#864,.F.);
#1091=ORIENTED_EDGE('',*,*,#866,.F.);
#1092=ORIENTED_EDGE('',*,*,#867,.T.);
#1093=ORIENTED_EDGE('',*,*,#868,.F.);
#1094=ORIENTED_EDGE('',*,*,#867,.F.);
#1095=ORIENTED_EDGE('',*,*,#869,.F.);
#1096=ORIENTED_EDGE('',*,*,#870,.T.);
#1097=ORIENTED_EDGE('',*,*,#871,.F.);
#1098=ORIENTED_EDGE('',*,*,#870,.F.);
#1099=ORIENTED_EDGE('',*,*,#872,.F.);
#1100=ORIENTED_EDGE('',*,*,#862,.T.);
#1101=ORIENTED_EDGE('',*,*,#873,.F.);
#1102=ORIENTED_EDGE('',*,*,#874,.F.);
#1103=ORIENTED_EDGE('',*,*,#875,.F.);
#1104=ORIENTED_EDGE('',*,*,#876,.T.);
#1105=ORIENTED_EDGE('',*,*,#877,.F.);
#1106=ORIENTED_EDGE('',*,*,#876,.F.);
#1107=ORIENTED_EDGE('',*,*,#878,.F.);
#1108=ORIENTED_EDGE('',*,*,#879,.T.);
#1109=ORIENTED_EDGE('',*,*,#880,.F.);
#1110=ORIENTED_EDGE('',*,*,#879,.F.);
#1111=ORIENTED_EDGE('',*,*,#881,.F.);
#1112=ORIENTED_EDGE('',*,*,#882,.T.);
#1113=ORIENTED_EDGE('',*,*,#883,.F.);
#1114=ORIENTED_EDGE('',*,*,#882,.F.);
#1115=ORIENTED_EDGE('',*,*,#884,.F.);
#1116=ORIENTED_EDGE('',*,*,#874,.T.);
#1117=ORIENTED_EDGE('',*,*,#885,.F.);
#1118=ORIENTED_EDGE('',*,*,#886,.F.);
#1119=ORIENTED_EDGE('',*,*,#887,.F.);
#1120=ORIENTED_EDGE('',*,*,#888,.T.);
#1121=ORIENTED_EDGE('',*,*,#889,.F.);
#1122=ORIENTED_EDGE('',*,*,#888,.F.);
#1123=ORIENTED_EDGE('',*,*,#890,.F.);
#1124=ORIENTED_EDGE('',*,*,#891,.T.);
#1125=ORIENTED_EDGE('',*,*,#892,.F.);
#1126=ORIENTED_EDGE('',*,*,#891,.F.);
#1127=ORIENTED_EDGE('',*,*,#893,.F.);
#1128=ORIENTED_EDGE('',*,*,#894,.T.);
#1129=ORIENTED_EDGE('',*,*,#895,.F.);
#1130=ORIENTED_EDGE('',*,*,#894,.F.);
#1131=ORIENTED_EDGE('',*,*,#896,.F.);
#1132=ORIENTED_EDGE('',*,*,#886,.T.);
#1133=ORIENTED_EDGE('',*,*,#897,.F.);
#1134=ORIENTED_EDGE('',*,*,#898,.F.);
#1135=ORIENTED_EDGE('',*,*,#899,.F.);
#1136=ORIENTED_EDGE('',*,*,#900,.T.);
#1137=ORIENTED_EDGE('',*,*,#901,.F.);
#1138=ORIENTED_EDGE('',*,*,#900,.F.);
#1139=ORIENTED_EDGE('',*,*,#902,.F.);
#1140=ORIENTED_EDGE('',*,*,#903,.T.);
#1141=ORIENTED_EDGE('',*,*,#904,.F.);
#1142=ORIENTED_EDGE('',*,*,#903,.F.);
#1143=ORIENTED_EDGE('',*,*,#905,.F.);
#1144=ORIENTED_EDGE('',*,*,#906,.T.);
#1145=ORIENTED_EDGE('',*,*,#907,.F.);
#1146=ORIENTED_EDGE('',*,*,#906,.F.);
#1147=ORIENTED_EDGE('',*,*,#908,.F.);
#1148=ORIENTED_EDGE('',*,*,#898,.T.);
#1149=ORIENTED_EDGE('',*,*,#905,.T.);
#1150=ORIENTED_EDGE('',*,*,#902,.T.);
#1151=ORIENTED_EDGE('',*,*,#899,.T.);
#1152=ORIENTED_EDGE('',*,*,#908,.T.);
#1153=ORIENTED_EDGE('',*,*,#893,.T.);
#1154=ORIENTED_EDGE('',*,*,#890,.T.);
#1155=ORIENTED_EDGE('',*,*,#887,.T.);
#1156=ORIENTED_EDGE('',*,*,#896,.T.);
#1157=ORIENTED_EDGE('',*,*,#881,.T.);
#1158=ORIENTED_EDGE('',*,*,#878,.T.);
#1159=ORIENTED_EDGE('',*,*,#875,.T.);
#1160=ORIENTED_EDGE('',*,*,#884,.T.);
#1161=ORIENTED_EDGE('',*,*,#869,.T.);
#1162=ORIENTED_EDGE('',*,*,#866,.T.);
#1163=ORIENTED_EDGE('',*,*,#863,.T.);
#1164=ORIENTED_EDGE('',*,*,#872,.T.);
#1165=ORIENTED_EDGE('',*,*,#857,.T.);
#1166=ORIENTED_EDGE('',*,*,#854,.T.);
#1167=ORIENTED_EDGE('',*,*,#851,.T.);
#1168=ORIENTED_EDGE('',*,*,#860,.T.);
#1169=ORIENTED_EDGE('',*,*,#842,.T.);
#1170=ORIENTED_EDGE('',*,*,#839,.T.);
#1171=ORIENTED_EDGE('',*,*,#836,.T.);
#1172=ORIENTED_EDGE('',*,*,#833,.T.);
#1173=ORIENTED_EDGE('',*,*,#848,.T.);
#1174=ORIENTED_EDGE('',*,*,#845,.T.);
#1175=ORIENTED_EDGE('',*,*,#827,.T.);
#1176=ORIENTED_EDGE('',*,*,#824,.T.);
#1177=ORIENTED_EDGE('',*,*,#821,.T.);
#1178=ORIENTED_EDGE('',*,*,#830,.T.);
#1179=ORIENTED_EDGE('',*,*,#815,.T.);
#1180=ORIENTED_EDGE('',*,*,#812,.T.);
#1181=ORIENTED_EDGE('',*,*,#809,.T.);
#1182=ORIENTED_EDGE('',*,*,#818,.T.);
#1183=ORIENTED_EDGE('',*,*,#803,.T.);
#1184=ORIENTED_EDGE('',*,*,#800,.T.);
#1185=ORIENTED_EDGE('',*,*,#797,.T.);
#1186=ORIENTED_EDGE('',*,*,#806,.T.);
#1187=ORIENTED_EDGE('',*,*,#791,.T.);
#1188=ORIENTED_EDGE('',*,*,#788,.T.);
#1189=ORIENTED_EDGE('',*,*,#785,.T.);
#1190=ORIENTED_EDGE('',*,*,#794,.T.);
#1191=ORIENTED_EDGE('',*,*,#776,.T.);
#1192=ORIENTED_EDGE('',*,*,#773,.T.);
#1193=ORIENTED_EDGE('',*,*,#770,.T.);
#1194=ORIENTED_EDGE('',*,*,#767,.T.);
#1195=ORIENTED_EDGE('',*,*,#782,.T.);
#1196=ORIENTED_EDGE('',*,*,#779,.T.);
#1197=ORIENTED_EDGE('',*,*,#904,.T.);
#1198=ORIENTED_EDGE('',*,*,#907,.T.);
#1199=ORIENTED_EDGE('',*,*,#897,.T.);
#1200=ORIENTED_EDGE('',*,*,#901,.T.);
#1201=ORIENTED_EDGE('',*,*,#758,.T.);
#1202=ORIENTED_EDGE('',*,*,#764,.T.);
#1203=ORIENTED_EDGE('',*,*,#892,.T.);
#1204=ORIENTED_EDGE('',*,*,#895,.T.);
#1205=ORIENTED_EDGE('',*,*,#885,.T.);
#1206=ORIENTED_EDGE('',*,*,#889,.T.);
#1207=ORIENTED_EDGE('',*,*,#880,.T.);
#1208=ORIENTED_EDGE('',*,*,#883,.T.);
#1209=ORIENTED_EDGE('',*,*,#873,.T.);
#1210=ORIENTED_EDGE('',*,*,#877,.T.);
#1211=ORIENTED_EDGE('',*,*,#868,.T.);
#1212=ORIENTED_EDGE('',*,*,#871,.T.);
#1213=ORIENTED_EDGE('',*,*,#861,.T.);
#1214=ORIENTED_EDGE('',*,*,#865,.T.);
#1215=ORIENTED_EDGE('',*,*,#856,.T.);
#1216=ORIENTED_EDGE('',*,*,#859,.T.);
#1217=ORIENTED_EDGE('',*,*,#849,.T.);
#1218=ORIENTED_EDGE('',*,*,#853,.T.);
#1219=ORIENTED_EDGE('',*,*,#841,.T.);
#1220=ORIENTED_EDGE('',*,*,#844,.T.);
#1221=ORIENTED_EDGE('',*,*,#847,.T.);
#1222=ORIENTED_EDGE('',*,*,#831,.T.);
#1223=ORIENTED_EDGE('',*,*,#835,.T.);
#1224=ORIENTED_EDGE('',*,*,#838,.T.);
#1225=ORIENTED_EDGE('',*,*,#826,.T.);
#1226=ORIENTED_EDGE('',*,*,#829,.T.);
#1227=ORIENTED_EDGE('',*,*,#819,.T.);
#1228=ORIENTED_EDGE('',*,*,#823,.T.);
#1229=ORIENTED_EDGE('',*,*,#814,.T.);
#1230=ORIENTED_EDGE('',*,*,#817,.T.);
#1231=ORIENTED_EDGE('',*,*,#807,.T.);
#1232=ORIENTED_EDGE('',*,*,#811,.T.);
#1233=ORIENTED_EDGE('',*,*,#802,.T.);
#1234=ORIENTED_EDGE('',*,*,#805,.T.);
#1235=ORIENTED_EDGE('',*,*,#795,.T.);
#1236=ORIENTED_EDGE('',*,*,#799,.T.);
#1237=ORIENTED_EDGE('',*,*,#790,.T.);
#1238=ORIENTED_EDGE('',*,*,#793,.T.);
#1239=ORIENTED_EDGE('',*,*,#783,.T.);
#1240=ORIENTED_EDGE('',*,*,#787,.T.);
#1241=ORIENTED_EDGE('',*,*,#775,.T.);
#1242=ORIENTED_EDGE('',*,*,#778,.T.);
#1243=ORIENTED_EDGE('',*,*,#781,.T.);
#1244=ORIENTED_EDGE('',*,*,#765,.T.);
#1245=ORIENTED_EDGE('',*,*,#769,.T.);
#1246=ORIENTED_EDGE('',*,*,#772,.T.);
#1247=ORIENTED_EDGE('',*,*,#761,.T.);
#1248=ORIENTED_EDGE('',*,*,#755,.T.);
#1249=ORIENTED_EDGE('',*,*,#909,.F.);
#1250=ORIENTED_EDGE('',*,*,#910,.F.);
#1251=ORIENTED_EDGE('',*,*,#911,.F.);
#1252=ORIENTED_EDGE('',*,*,#912,.T.);
#1253=ORIENTED_EDGE('',*,*,#913,.T.);
#1254=ORIENTED_EDGE('',*,*,#914,.T.);
#1255=ORIENTED_EDGE('',*,*,#910,.T.);
#1256=ORIENTED_EDGE('',*,*,#915,.T.);
#1257=ORIENTED_EDGE('',*,*,#916,.F.);
#1258=ORIENTED_EDGE('',*,*,#917,.F.);
#1259=ORIENTED_EDGE('',*,*,#916,.T.);
#1260=ORIENTED_EDGE('',*,*,#918,.T.);
#1261=ORIENTED_EDGE('',*,*,#919,.T.);
#1262=ORIENTED_EDGE('',*,*,#920,.T.);
#1263=ORIENTED_EDGE('',*,*,#909,.T.);
#1264=ORIENTED_EDGE('',*,*,#921,.T.);
#1265=ORIENTED_EDGE('',*,*,#922,.T.);
#1266=ORIENTED_EDGE('',*,*,#923,.T.);
#1267=ORIENTED_EDGE('',*,*,#921,.F.);
#1268=ORIENTED_EDGE('',*,*,#914,.F.);
#1269=ORIENTED_EDGE('',*,*,#924,.F.);
#1270=ORIENTED_EDGE('',*,*,#925,.T.);
#1271=ORIENTED_EDGE('',*,*,#926,.T.);
#1272=ORIENTED_EDGE('',*,*,#927,.T.);
#1273=ORIENTED_EDGE('',*,*,#911,.T.);
#1274=ORIENTED_EDGE('',*,*,#928,.F.);
#1275=ORIENTED_EDGE('',*,*,#927,.F.);
#1276=ORIENTED_EDGE('',*,*,#929,.T.);
#1277=ORIENTED_EDGE('',*,*,#930,.T.);
#1278=ORIENTED_EDGE('',*,*,#912,.F.);
#1279=ORIENTED_EDGE('',*,*,#931,.T.);
#1280=ORIENTED_EDGE('',*,*,#924,.T.);
#1281=ORIENTED_EDGE('',*,*,#913,.F.);
#1282=ORIENTED_EDGE('',*,*,#930,.F.);
#1283=ORIENTED_EDGE('',*,*,#932,.F.);
#1284=ORIENTED_EDGE('',*,*,#933,.T.);
#1285=ORIENTED_EDGE('',*,*,#918,.F.);
#1286=ORIENTED_EDGE('',*,*,#915,.F.);
#1287=ORIENTED_EDGE('',*,*,#923,.F.);
#1288=ORIENTED_EDGE('',*,*,#934,.F.);
#1289=ORIENTED_EDGE('',*,*,#928,.T.);
#1290=ORIENTED_EDGE('',*,*,#917,.T.);
#1291=ORIENTED_EDGE('',*,*,#920,.F.);
#1292=ORIENTED_EDGE('',*,*,#935,.F.);
#1293=ORIENTED_EDGE('',*,*,#936,.F.);
#1294=ORIENTED_EDGE('',*,*,#935,.T.);
#1295=ORIENTED_EDGE('',*,*,#919,.F.);
#1296=ORIENTED_EDGE('',*,*,#933,.F.);
#1297=ORIENTED_EDGE('',*,*,#922,.F.);
#1298=ORIENTED_EDGE('',*,*,#925,.F.);
#1299=ORIENTED_EDGE('',*,*,#931,.F.);
#1300=ORIENTED_EDGE('',*,*,#929,.F.);
#1301=ORIENTED_EDGE('',*,*,#926,.F.);
#1302=ORIENTED_EDGE('',*,*,#934,.T.);
#1303=ORIENTED_EDGE('',*,*,#936,.T.);
#1304=ORIENTED_EDGE('',*,*,#932,.T.);
#1305=CYLINDRICAL_SURFACE('',#1394,0.699999999999998);
#1306=CYLINDRICAL_SURFACE('',#1398,0.699999999999998);
#1307=CYLINDRICAL_SURFACE('',#1402,0.700000000000003);
#1308=CYLINDRICAL_SURFACE('',#1406,0.700000000000003);
#1309=ADVANCED_FACE('',(#107),#1305,.T.);
#1310=ADVANCED_FACE('',(#108),#41,.T.);
#1311=ADVANCED_FACE('',(#109),#1306,.T.);
#1312=ADVANCED_FACE('',(#110),#42,.T.);
#1313=ADVANCED_FACE('',(#111),#1307,.T.);
#1314=ADVANCED_FACE('',(#112),#43,.T.);
#1315=ADVANCED_FACE('',(#113),#1308,.T.);
#1316=ADVANCED_FACE('',(#114),#44,.T.);
#1317=ADVANCED_FACE('',(#115),#45,.F.);
#1318=ADVANCED_FACE('',(#116),#46,.F.);
#1319=ADVANCED_FACE('',(#117),#47,.F.);
#1320=ADVANCED_FACE('',(#118),#48,.F.);
#1321=ADVANCED_FACE('',(#119),#49,.F.);
#1322=ADVANCED_FACE('',(#120),#50,.F.);
#1323=ADVANCED_FACE('',(#121),#51,.F.);
#1324=ADVANCED_FACE('',(#122),#52,.F.);
#1325=ADVANCED_FACE('',(#123),#53,.F.);
#1326=ADVANCED_FACE('',(#124),#54,.F.);
#1327=ADVANCED_FACE('',(#125),#55,.F.);
#1328=ADVANCED_FACE('',(#126),#56,.F.);
#1329=ADVANCED_FACE('',(#127),#57,.F.);
#1330=ADVANCED_FACE('',(#128),#58,.F.);
#1331=ADVANCED_FACE('',(#129),#59,.F.);
#1332=ADVANCED_FACE('',(#130),#60,.F.);
#1333=ADVANCED_FACE('',(#131),#61,.F.);
#1334=ADVANCED_FACE('',(#132),#62,.F.);
#1335=ADVANCED_FACE('',(#133),#63,.F.);
#1336=ADVANCED_FACE('',(#134),#64,.F.);
#1337=ADVANCED_FACE('',(#135),#65,.F.);
#1338=ADVANCED_FACE('',(#136),#66,.F.);
#1339=ADVANCED_FACE('',(#137),#67,.F.);
#1340=ADVANCED_FACE('',(#138),#68,.F.);
#1341=ADVANCED_FACE('',(#139),#69,.F.);
#1342=ADVANCED_FACE('',(#140),#70,.F.);
#1343=ADVANCED_FACE('',(#141),#71,.F.);
#1344=ADVANCED_FACE('',(#142),#72,.F.);
#1345=ADVANCED_FACE('',(#143),#73,.F.);
#1346=ADVANCED_FACE('',(#144),#74,.F.);
#1347=ADVANCED_FACE('',(#145),#75,.F.);
#1348=ADVANCED_FACE('',(#146),#76,.F.);
#1349=ADVANCED_FACE('',(#147),#77,.F.);
#1350=ADVANCED_FACE('',(#148),#78,.F.);
#1351=ADVANCED_FACE('',(#149),#79,.F.);
#1352=ADVANCED_FACE('',(#150),#80,.F.);
#1353=ADVANCED_FACE('',(#151),#81,.F.);
#1354=ADVANCED_FACE('',(#152),#82,.F.);
#1355=ADVANCED_FACE('',(#153),#83,.F.);
#1356=ADVANCED_FACE('',(#154),#84,.F.);
#1357=ADVANCED_FACE('',(#155),#85,.F.);
#1358=ADVANCED_FACE('',(#156),#86,.F.);
#1359=ADVANCED_FACE('',(#157),#87,.F.);
#1360=ADVANCED_FACE('',(#158),#88,.F.);
#1361=ADVANCED_FACE('',(#159),#89,.F.);
#1362=ADVANCED_FACE('',(#160),#90,.F.);
#1363=ADVANCED_FACE('',(#161),#91,.F.);
#1364=ADVANCED_FACE('',(#162),#92,.F.);
#1365=ADVANCED_FACE('',(#163,#17,#18,#19,#20,#21,#22,#23,#24,#25,#26),#93,
 .T.);
#1366=ADVANCED_FACE('',(#164,#27,#28,#29,#30,#31,#32,#33,#34,#35,#36,#37,
#38,#39,#40),#94,.T.);
#1367=ADVANCED_FACE('',(#165),#95,.F.);
#1368=ADVANCED_FACE('',(#166),#96,.T.);
#1369=ADVANCED_FACE('',(#167),#97,.T.);
#1370=ADVANCED_FACE('',(#168),#98,.T.);
#1371=ADVANCED_FACE('',(#169),#99,.T.);
#1372=ADVANCED_FACE('',(#170),#100,.T.);
#1373=ADVANCED_FACE('',(#171),#101,.T.);
#1374=ADVANCED_FACE('',(#172),#102,.T.);
#1375=ADVANCED_FACE('',(#173),#103,.T.);
#1376=ADVANCED_FACE('',(#174),#104,.T.);
#1377=ADVANCED_FACE('',(#175),#105,.T.);
#1378=ADVANCED_FACE('',(#176),#106,.F.);
#1379=CLOSED_SHELL('',(#1309,#1310,#1311,#1312,#1313,#1314,#1315,#1316,
#1317,#1318,#1319,#1320,#1321,#1322,#1323,#1324,#1325,#1326,#1327,#1328,
#1329,#1330,#1331,#1332,#1333,#1334,#1335,#1336,#1337,#1338,#1339,#1340,
#1341,#1342,#1343,#1344,#1345,#1346,#1347,#1348,#1349,#1350,#1351,#1352,
#1353,#1354,#1355,#1356,#1357,#1358,#1359,#1360,#1361,#1362,#1363,#1364,
#1365,#1366));
#1380=CLOSED_SHELL('',(#1367,#1368,#1369,#1370,#1371,#1372,#1373,#1374,
#1375,#1376,#1377,#1378));
#1381=DERIVED_UNIT_ELEMENT(#1383,1.);
#1382=DERIVED_UNIT_ELEMENT(#2188,-3.);
#1383=(
MASS_UNIT()
NAMED_UNIT(*)
SI_UNIT(.KILO.,.GRAM.)
);
#1384=DERIVED_UNIT((#1381,#1382));
#1385=MEASURE_REPRESENTATION_ITEM('density measure',
POSITIVE_RATIO_MEASURE(1171.75),#1384);
#1386=PROPERTY_DEFINITION_REPRESENTATION(#1391,#1388);
#1387=PROPERTY_DEFINITION_REPRESENTATION(#1392,#1389);
#1388=REPRESENTATION('material name',(#1390),#2185);
#1389=REPRESENTATION('density',(#1385),#2185);
#1390=DESCRIPTIVE_REPRESENTATION_ITEM(
'PA 11 - Nylon- HP 11-30 (with EOS P 396 3D Printer)',
'PA 11 - Nylon- HP 11-30 (with EOS P 396 3D Printer)');
#1391=PROPERTY_DEFINITION('material property','material name',#2195);
#1392=PROPERTY_DEFINITION('material property','density of part',#2195);
#1393=AXIS2_PLACEMENT_3D('',#1806,#1472,#1473);
#1394=AXIS2_PLACEMENT_3D('',#1807,#1474,#1475);
#1395=AXIS2_PLACEMENT_3D('',#1809,#1476,#1477);
#1396=AXIS2_PLACEMENT_3D('',#1812,#1479,#1480);
#1397=AXIS2_PLACEMENT_3D('',#1813,#1481,#1482);
#1398=AXIS2_PLACEMENT_3D('',#1814,#1483,#1484);
#1399=AXIS2_PLACEMENT_3D('',#1816,#1485,#1486);
#1400=AXIS2_PLACEMENT_3D('',#1819,#1488,#1489);
#1401=AXIS2_PLACEMENT_3D('',#1820,#1490,#1491);
#1402=AXIS2_PLACEMENT_3D('',#1821,#1492,#1493);
#1403=AXIS2_PLACEMENT_3D('',#1823,#1494,#1495);
#1404=AXIS2_PLACEMENT_3D('',#1826,#1497,#1498);
#1405=AXIS2_PLACEMENT_3D('',#1827,#1499,#1500);
#1406=AXIS2_PLACEMENT_3D('',#1828,#1501,#1502);
#1407=AXIS2_PLACEMENT_3D('',#1830,#1503,#1504);
#1408=AXIS2_PLACEMENT_3D('',#1833,#1506,#1507);
#1409=AXIS2_PLACEMENT_3D('',#1834,#1508,#1509);
#1410=AXIS2_PLACEMENT_3D('',#1835,#1510,#1511);
#1411=AXIS2_PLACEMENT_3D('',#1844,#1516,#1517);
#1412=AXIS2_PLACEMENT_3D('',#1850,#1521,#1522);
#1413=AXIS2_PLACEMENT_3D('',#1856,#1526,#1527);
#1414=AXIS2_PLACEMENT_3D('',#1862,#1531,#1532);
#1415=AXIS2_PLACEMENT_3D('',#1868,#1536,#1537);
#1416=AXIS2_PLACEMENT_3D('',#1871,#1540,#1541);
#1417=AXIS2_PLACEMENT_3D('',#1880,#1546,#1547);
#1418=AXIS2_PLACEMENT_3D('',#1886,#1551,#1552);
#1419=AXIS2_PLACEMENT_3D('',#1892,#1556,#1557);
#1420=AXIS2_PLACEMENT_3D('',#1895,#1560,#1561);
#1421=AXIS2_PLACEMENT_3D('',#1904,#1566,#1567);
#1422=AXIS2_PLACEMENT_3D('',#1910,#1571,#1572);
#1423=AXIS2_PLACEMENT_3D('',#1916,#1576,#1577);
#1424=AXIS2_PLACEMENT_3D('',#1919,#1580,#1581);
#1425=AXIS2_PLACEMENT_3D('',#1928,#1586,#1587);
#1426=AXIS2_PLACEMENT_3D('',#1934,#1591,#1592);
#1427=AXIS2_PLACEMENT_3D('',#1940,#1596,#1597);
#1428=AXIS2_PLACEMENT_3D('',#1943,#1600,#1601);
#1429=AXIS2_PLACEMENT_3D('',#1952,#1606,#1607);
#1430=AXIS2_PLACEMENT_3D('',#1958,#1611,#1612);
#1431=AXIS2_PLACEMENT_3D('',#1964,#1616,#1617);
#1432=AXIS2_PLACEMENT_3D('',#1967,#1620,#1621);
#1433=AXIS2_PLACEMENT_3D('',#1976,#1626,#1627);
#1434=AXIS2_PLACEMENT_3D('',#1982,#1631,#1632);
#1435=AXIS2_PLACEMENT_3D('',#1988,#1636,#1637);
#1436=AXIS2_PLACEMENT_3D('',#1994,#1641,#1642);
#1437=AXIS2_PLACEMENT_3D('',#2000,#1646,#1647);
#1438=AXIS2_PLACEMENT_3D('',#2003,#1650,#1651);
#1439=AXIS2_PLACEMENT_3D('',#2012,#1656,#1657);
#1440=AXIS2_PLACEMENT_3D('',#2018,#1661,#1662);
#1441=AXIS2_PLACEMENT_3D('',#2024,#1666,#1667);
#1442=AXIS2_PLACEMENT_3D('',#2027,#1670,#1671);
#1443=AXIS2_PLACEMENT_3D('',#2036,#1676,#1677);
#1444=AXIS2_PLACEMENT_3D('',#2042,#1681,#1682);
#1445=AXIS2_PLACEMENT_3D('',#2048,#1686,#1687);
#1446=AXIS2_PLACEMENT_3D('',#2051,#1690,#1691);
#1447=AXIS2_PLACEMENT_3D('',#2060,#1696,#1697);
#1448=AXIS2_PLACEMENT_3D('',#2066,#1701,#1702);
#1449=AXIS2_PLACEMENT_3D('',#2072,#1706,#1707);
#1450=AXIS2_PLACEMENT_3D('',#2075,#1710,#1711);
#1451=AXIS2_PLACEMENT_3D('',#2084,#1716,#1717);
#1452=AXIS2_PLACEMENT_3D('',#2090,#1721,#1722);
#1453=AXIS2_PLACEMENT_3D('',#2096,#1726,#1727);
#1454=AXIS2_PLACEMENT_3D('',#2099,#1730,#1731);
#1455=AXIS2_PLACEMENT_3D('',#2108,#1736,#1737);
#1456=AXIS2_PLACEMENT_3D('',#2114,#1741,#1742);
#1457=AXIS2_PLACEMENT_3D('',#2120,#1746,#1747);
#1458=AXIS2_PLACEMENT_3D('',#2123,#1750,#1751);
#1459=AXIS2_PLACEMENT_3D('',#2124,#1752,#1753);
#1460=AXIS2_PLACEMENT_3D('',#2125,#1754,#1755);
#1461=AXIS2_PLACEMENT_3D('',#2138,#1762,#1763);
#1462=AXIS2_PLACEMENT_3D('',#2144,#1767,#1768);
#1463=AXIS2_PLACEMENT_3D('',#2150,#1772,#1773);
#1464=AXIS2_PLACEMENT_3D('',#2156,#1777,#1778);
#1465=AXIS2_PLACEMENT_3D('',#2160,#1781,#1782);
#1466=AXIS2_PLACEMENT_3D('',#2166,#1786,#1787);
#1467=AXIS2_PLACEMENT_3D('',#2170,#1790,#1791);
#1468=AXIS2_PLACEMENT_3D('',#2172,#1793,#1794);
#1469=AXIS2_PLACEMENT_3D('',#2176,#1797,#1798);
#1470=AXIS2_PLACEMENT_3D('',#2180,#1801,#1802);
#1471=AXIS2_PLACEMENT_3D('',#2182,#1804,#1805);
#1472=DIRECTION('axis',(0.,0.,1.));
#1473=DIRECTION('refdir',(1.,0.,0.));
#1474=DIRECTION('center_axis',(0.,0.,-1.));
#1475=DIRECTION('ref_axis',(1.,0.,0.));
#1476=DIRECTION('center_axis',(0.,0.,-1.));
#1477=DIRECTION('ref_axis',(1.,0.,0.));
#1478=DIRECTION('',(0.,0.,1.));
#1479=DIRECTION('center_axis',(0.,0.,1.));
#1480=DIRECTION('ref_axis',(1.,0.,0.));
#1481=DIRECTION('center_axis',(0.,0.,-1.));
#1482=DIRECTION('ref_axis',(1.,0.,0.));
#1483=DIRECTION('center_axis',(0.,0.,-1.));
#1484=DIRECTION('ref_axis',(1.,0.,0.));
#1485=DIRECTION('center_axis',(0.,0.,-1.));
#1486=DIRECTION('ref_axis',(1.,0.,0.));
#1487=DIRECTION('',(0.,0.,1.));
#1488=DIRECTION('center_axis',(0.,0.,1.));
#1489=DIRECTION('ref_axis',(1.,0.,0.));
#1490=DIRECTION('center_axis',(0.,0.,-1.));
#1491=DIRECTION('ref_axis',(1.,0.,0.));
#1492=DIRECTION('center_axis',(0.,0.,-1.));
#1493=DIRECTION('ref_axis',(1.,0.,0.));
#1494=DIRECTION('center_axis',(0.,0.,-1.));
#1495=DIRECTION('ref_axis',(1.,0.,0.));
#1496=DIRECTION('',(0.,0.,1.));
#1497=DIRECTION('center_axis',(0.,0.,1.));
#1498=DIRECTION('ref_axis',(1.,0.,0.));
#1499=DIRECTION('center_axis',(0.,0.,-1.));
#1500=DIRECTION('ref_axis',(1.,0.,0.));
#1501=DIRECTION('center_axis',(0.,0.,-1.));
#1502=DIRECTION('ref_axis',(1.,0.,0.));
#1503=DIRECTION('center_axis',(0.,0.,-1.));
#1504=DIRECTION('ref_axis',(1.,0.,0.));
#1505=DIRECTION('',(0.,0.,1.));
#1506=DIRECTION('center_axis',(0.,0.,1.));
#1507=DIRECTION('ref_axis',(1.,0.,0.));
#1508=DIRECTION('center_axis',(0.,0.,-1.));
#1509=DIRECTION('ref_axis',(1.,0.,0.));
#1510=DIRECTION('center_axis',(0.,-1.,0.));
#1511=DIRECTION('ref_axis',(-1.,0.,0.));
#1512=DIRECTION('',(1.,0.,0.));
#1513=DIRECTION('',(0.,0.,-1.));
#1514=DIRECTION('',(-1.,0.,0.));
#1515=DIRECTION('',(0.,0.,-1.));
#1516=DIRECTION('center_axis',(1.,0.,0.));
#1517=DIRECTION('ref_axis',(0.,-1.,0.));
#1518=DIRECTION('',(0.,1.,0.));
#1519=DIRECTION('',(0.,-1.,0.));
#1520=DIRECTION('',(0.,0.,-1.));
#1521=DIRECTION('center_axis',(0.,1.,0.));
#1522=DIRECTION('ref_axis',(1.,0.,0.));
#1523=DIRECTION('',(-1.,0.,0.));
#1524=DIRECTION('',(1.,0.,0.));
#1525=DIRECTION('',(0.,0.,-1.));
#1526=DIRECTION('center_axis',(-1.,0.,0.));
#1527=DIRECTION('ref_axis',(0.,1.,0.));
#1528=DIRECTION('',(0.,-1.,0.));
#1529=DIRECTION('',(0.,1.,0.));
#1530=DIRECTION('',(0.,0.,-1.));
#1531=DIRECTION('center_axis',(0.,-1.,0.));
#1532=DIRECTION('ref_axis',(-1.,0.,0.));
#1533=DIRECTION('',(1.,0.,0.));
#1534=DIRECTION('',(-1.,0.,0.));
#1535=DIRECTION('',(0.,0.,-1.));
#1536=DIRECTION('center_axis',(-1.,0.,0.));
#1537=DIRECTION('ref_axis',(0.,1.,0.));
#1538=DIRECTION('',(0.,-1.,0.));
#1539=DIRECTION('',(0.,1.,0.));
#1540=DIRECTION('center_axis',(-1.,0.,0.));
#1541=DIRECTION('ref_axis',(0.,1.,0.));
#1542=DIRECTION('',(0.,-1.,0.));
#1543=DIRECTION('',(0.,0.,-1.));
#1544=DIRECTION('',(0.,1.,0.));
#1545=DIRECTION('',(0.,0.,-1.));
#1546=DIRECTION('center_axis',(0.,-1.,0.));
#1547=DIRECTION('ref_axis',(-1.,0.,0.));
#1548=DIRECTION('',(1.,0.,0.));
#1549=DIRECTION('',(-1.,0.,0.));
#1550=DIRECTION('',(0.,0.,-1.));
#1551=DIRECTION('center_axis',(1.,0.,0.));
#1552=DIRECTION('ref_axis',(0.,-1.,0.));
#1553=DIRECTION('',(0.,1.,0.));
#1554=DIRECTION('',(0.,-1.,0.));
#1555=DIRECTION('',(0.,0.,-1.));
#1556=DIRECTION('center_axis',(0.,1.,0.));
#1557=DIRECTION('ref_axis',(1.,0.,0.));
#1558=DIRECTION('',(-1.,0.,0.));
#1559=DIRECTION('',(1.,0.,0.));
#1560=DIRECTION('center_axis',(1.,0.,0.));
#1561=DIRECTION('ref_axis',(0.,-1.,0.));
#1562=DIRECTION('',(0.,1.,0.));
#1563=DIRECTION('',(0.,0.,-1.));
#1564=DIRECTION('',(0.,-1.,0.));
#1565=DIRECTION('',(0.,0.,-1.));
#1566=DIRECTION('center_axis',(0.,1.,0.));
#1567=DIRECTION('ref_axis',(1.,0.,0.));
#1568=DIRECTION('',(-1.,0.,0.));
#1569=DIRECTION('',(1.,0.,0.));
#1570=DIRECTION('',(0.,0.,-1.));
#1571=DIRECTION('center_axis',(-1.,0.,0.));
#1572=DIRECTION('ref_axis',(0.,1.,0.));
#1573=DIRECTION('',(0.,-1.,0.));
#1574=DIRECTION('',(0.,1.,0.));
#1575=DIRECTION('',(0.,0.,-1.));
#1576=DIRECTION('center_axis',(0.,-1.,0.));
#1577=DIRECTION('ref_axis',(-1.,0.,0.));
#1578=DIRECTION('',(1.,0.,0.));
#1579=DIRECTION('',(-1.,0.,0.));
#1580=DIRECTION('center_axis',(0.,-1.,0.));
#1581=DIRECTION('ref_axis',(-1.,0.,0.));
#1582=DIRECTION('',(1.,0.,0.));
#1583=DIRECTION('',(0.,0.,-1.));
#1584=DIRECTION('',(-1.,0.,0.));
#1585=DIRECTION('',(0.,0.,-1.));
#1586=DIRECTION('center_axis',(1.,0.,0.));
#1587=DIRECTION('ref_axis',(0.,-1.,0.));
#1588=DIRECTION('',(0.,1.,0.));
#1589=DIRECTION('',(0.,-1.,0.));
#1590=DIRECTION('',(0.,0.,-1.));
#1591=DIRECTION('center_axis',(0.,1.,0.));
#1592=DIRECTION('ref_axis',(1.,0.,0.));
#1593=DIRECTION('',(-1.,0.,0.));
#1594=DIRECTION('',(1.,0.,0.));
#1595=DIRECTION('',(0.,0.,-1.));
#1596=DIRECTION('center_axis',(-1.,0.,0.));
#1597=DIRECTION('ref_axis',(0.,1.,0.));
#1598=DIRECTION('',(0.,-1.,0.));
#1599=DIRECTION('',(0.,1.,0.));
#1600=DIRECTION('center_axis',(1.,0.,0.));
#1601=DIRECTION('ref_axis',(0.,-1.,0.));
#1602=DIRECTION('',(0.,1.,0.));
#1603=DIRECTION('',(0.,0.,-1.));
#1604=DIRECTION('',(0.,-1.,0.));
#1605=DIRECTION('',(0.,0.,-1.));
#1606=DIRECTION('center_axis',(0.,1.,0.));
#1607=DIRECTION('ref_axis',(1.,0.,0.));
#1608=DIRECTION('',(-1.,0.,0.));
#1609=DIRECTION('',(1.,0.,0.));
#1610=DIRECTION('',(0.,0.,-1.));
#1611=DIRECTION('center_axis',(-1.,0.,0.));
#1612=DIRECTION('ref_axis',(0.,1.,0.));
#1613=DIRECTION('',(0.,-1.,0.));
#1614=DIRECTION('',(0.,1.,0.));
#1615=DIRECTION('',(0.,0.,-1.));
#1616=DIRECTION('center_axis',(0.,-1.,0.));
#1617=DIRECTION('ref_axis',(-1.,0.,0.));
#1618=DIRECTION('',(1.,0.,0.));
#1619=DIRECTION('',(-1.,0.,0.));
#1620=DIRECTION('center_axis',(-1.,0.,0.));
#1621=DIRECTION('ref_axis',(0.,1.,0.));
#1622=DIRECTION('',(0.,-1.,0.));
#1623=DIRECTION('',(0.,0.,-1.));
#1624=DIRECTION('',(0.,1.,0.));
#1625=DIRECTION('',(0.,0.,-1.));
#1626=DIRECTION('center_axis',(0.,-1.,0.));
#1627=DIRECTION('ref_axis',(-1.,0.,0.));
#1628=DIRECTION('',(1.,0.,0.));
#1629=DIRECTION('',(-1.,0.,0.));
#1630=DIRECTION('',(0.,0.,-1.));
#1631=DIRECTION('center_axis',(1.,0.,0.));
#1632=DIRECTION('ref_axis',(0.,-1.,0.));
#1633=DIRECTION('',(0.,1.,0.));
#1634=DIRECTION('',(0.,-1.,0.));
#1635=DIRECTION('',(0.,0.,-1.));
#1636=DIRECTION('center_axis',(0.,-1.,0.));
#1637=DIRECTION('ref_axis',(-1.,0.,0.));
#1638=DIRECTION('',(1.,0.,0.));
#1639=DIRECTION('',(-1.,0.,0.));
#1640=DIRECTION('',(0.,0.,-1.));
#1641=DIRECTION('center_axis',(1.,0.,0.));
#1642=DIRECTION('ref_axis',(0.,-1.,0.));
#1643=DIRECTION('',(0.,1.,0.));
#1644=DIRECTION('',(0.,-1.,0.));
#1645=DIRECTION('',(0.,0.,-1.));
#1646=DIRECTION('center_axis',(0.,1.,0.));
#1647=DIRECTION('ref_axis',(1.,0.,0.));
#1648=DIRECTION('',(-1.,0.,0.));
#1649=DIRECTION('',(1.,0.,0.));
#1650=DIRECTION('center_axis',(1.,0.,0.));
#1651=DIRECTION('ref_axis',(0.,-1.,0.));
#1652=DIRECTION('',(0.,1.,0.));
#1653=DIRECTION('',(0.,0.,-1.));
#1654=DIRECTION('',(0.,-1.,0.));
#1655=DIRECTION('',(0.,0.,-1.));
#1656=DIRECTION('center_axis',(0.,1.,0.));
#1657=DIRECTION('ref_axis',(1.,0.,0.));
#1658=DIRECTION('',(-1.,0.,0.));
#1659=DIRECTION('',(1.,0.,0.));
#1660=DIRECTION('',(0.,0.,-1.));
#1661=DIRECTION('center_axis',(-1.,0.,0.));
#1662=DIRECTION('ref_axis',(0.,1.,0.));
#1663=DIRECTION('',(0.,-1.,0.));
#1664=DIRECTION('',(0.,1.,0.));
#1665=DIRECTION('',(0.,0.,-1.));
#1666=DIRECTION('center_axis',(0.,-1.,0.));
#1667=DIRECTION('ref_axis',(-1.,0.,0.));
#1668=DIRECTION('',(1.,0.,0.));
#1669=DIRECTION('',(-1.,0.,0.));
#1670=DIRECTION('center_axis',(0.,-1.,0.));
#1671=DIRECTION('ref_axis',(-1.,0.,0.));
#1672=DIRECTION('',(1.,0.,0.));
#1673=DIRECTION('',(0.,0.,-1.));
#1674=DIRECTION('',(-1.,0.,0.));
#1675=DIRECTION('',(0.,0.,-1.));
#1676=DIRECTION('center_axis',(1.,0.,0.));
#1677=DIRECTION('ref_axis',(0.,-1.,0.));
#1678=DIRECTION('',(0.,1.,0.));
#1679=DIRECTION('',(0.,-1.,0.));
#1680=DIRECTION('',(0.,0.,-1.));
#1681=DIRECTION('center_axis',(0.,1.,0.));
#1682=DIRECTION('ref_axis',(1.,0.,0.));
#1683=DIRECTION('',(-1.,0.,0.));
#1684=DIRECTION('',(1.,0.,0.));
#1685=DIRECTION('',(0.,0.,-1.));
#1686=DIRECTION('center_axis',(-1.,0.,0.));
#1687=DIRECTION('ref_axis',(0.,1.,0.));
#1688=DIRECTION('',(0.,-1.,0.));
#1689=DIRECTION('',(0.,1.,0.));
#1690=DIRECTION('center_axis',(0.,-1.,0.));
#1691=DIRECTION('ref_axis',(-1.,0.,0.));
#1692=DIRECTION('',(1.,0.,0.));
#1693=DIRECTION('',(0.,0.,-1.));
#1694=DIRECTION('',(-1.,0.,0.));
#1695=DIRECTION('',(0.,0.,-1.));
#1696=DIRECTION('center_axis',(1.,0.,0.));
#1697=DIRECTION('ref_axis',(0.,-1.,0.));
#1698=DIRECTION('',(0.,1.,0.));
#1699=DIRECTION('',(0.,-1.,0.));
#1700=DIRECTION('',(0.,0.,-1.));
#1701=DIRECTION('center_axis',(0.,1.,0.));
#1702=DIRECTION('ref_axis',(1.,0.,0.));
#1703=DIRECTION('',(-1.,0.,0.));
#1704=DIRECTION('',(1.,0.,0.));
#1705=DIRECTION('',(0.,0.,-1.));
#1706=DIRECTION('center_axis',(-1.,0.,0.));
#1707=DIRECTION('ref_axis',(0.,1.,0.));
#1708=DIRECTION('',(0.,-1.,0.));
#1709=DIRECTION('',(0.,1.,0.));
#1710=DIRECTION('center_axis',(1.,0.,0.));
#1711=DIRECTION('ref_axis',(0.,-1.,0.));
#1712=DIRECTION('',(0.,1.,0.));
#1713=DIRECTION('',(0.,0.,-1.));
#1714=DIRECTION('',(0.,-1.,0.));
#1715=DIRECTION('',(0.,0.,-1.));
#1716=DIRECTION('center_axis',(0.,1.,0.));
#1717=DIRECTION('ref_axis',(1.,0.,0.));
#1718=DIRECTION('',(-1.,0.,0.));
#1719=DIRECTION('',(1.,0.,0.));
#1720=DIRECTION('',(0.,0.,-1.));
#1721=DIRECTION('center_axis',(-1.,0.,0.));
#1722=DIRECTION('ref_axis',(0.,1.,0.));
#1723=DIRECTION('',(0.,-1.,0.));
#1724=DIRECTION('',(0.,1.,0.));
#1725=DIRECTION('',(0.,0.,-1.));
#1726=DIRECTION('center_axis',(0.,-1.,0.));
#1727=DIRECTION('ref_axis',(-1.,0.,0.));
#1728=DIRECTION('',(1.,0.,0.));
#1729=DIRECTION('',(-1.,0.,0.));
#1730=DIRECTION('center_axis',(2.64338815386942E-17,1.,0.));
#1731=DIRECTION('ref_axis',(1.,-2.64338815386942E-17,0.));
#1732=DIRECTION('',(-1.,2.64338815386942E-17,0.));
#1733=DIRECTION('',(0.,0.,-1.));
#1734=DIRECTION('',(1.,-2.64338815386942E-17,0.));
#1735=DIRECTION('',(0.,0.,-1.));
#1736=DIRECTION('center_axis',(1.,0.,0.));
#1737=DIRECTION('ref_axis',(0.,-1.,0.));
#1738=DIRECTION('',(0.,1.,0.));
#1739=DIRECTION('',(0.,-1.,0.));
#1740=DIRECTION('',(0.,0.,-1.));
#1741=DIRECTION('center_axis',(0.,-1.,0.));
#1742=DIRECTION('ref_axis',(-1.,0.,0.));
#1743=DIRECTION('',(1.,0.,0.));
#1744=DIRECTION('',(-1.,0.,0.));
#1745=DIRECTION('',(0.,0.,-1.));
#1746=DIRECTION('center_axis',(-1.,0.,0.));
#1747=DIRECTION('ref_axis',(0.,1.,0.));
#1748=DIRECTION('',(0.,-1.,0.));
#1749=DIRECTION('',(0.,1.,0.));
#1750=DIRECTION('center_axis',(0.,0.,1.));
#1751=DIRECTION('ref_axis',(1.,0.,0.));
#1752=DIRECTION('center_axis',(0.,0.,-1.));
#1753=DIRECTION('ref_axis',(-1.,0.,0.));
#1754=DIRECTION('center_axis',(0.,0.,1.));
#1755=DIRECTION('ref_axis',(1.,0.,0.));
#1756=DIRECTION('',(-0.707106781186547,0.707106781186548,0.));
#1757=DIRECTION('',(1.,-2.22044604925031E-17,0.));
#1758=DIRECTION('',(-0.707106781186548,-0.707106781186547,0.));
#1759=DIRECTION('',(0.,-1.,0.));
#1760=DIRECTION('',(-1.,0.,0.));
#1761=DIRECTION('',(0.,1.,0.));
#1762=DIRECTION('center_axis',(-2.22044604925031E-17,-1.,0.));
#1763=DIRECTION('ref_axis',(1.,-2.22044604925031E-17,0.));
#1764=DIRECTION('',(0.,0.,1.));
#1765=DIRECTION('',(1.,-2.22044604925031E-17,0.));
#1766=DIRECTION('',(0.,0.,1.));
#1767=DIRECTION('center_axis',(0.,0.,1.));
#1768=DIRECTION('ref_axis',(1.,0.,0.));
#1769=DIRECTION('',(0.,1.,0.));
#1770=DIRECTION('',(-1.,0.,0.));
#1771=DIRECTION('',(0.,-1.,0.));
#1772=DIRECTION('center_axis',(-0.707106781186548,-0.707106781186547,0.));
#1773=DIRECTION('ref_axis',(0.,0.,1.));
#1774=DIRECTION('',(0.,0.,1.));
#1775=DIRECTION('',(0.707106781186547,-0.707106781186548,0.));
#1776=DIRECTION('',(0.,0.,1.));
#1777=DIRECTION('center_axis',(-1.,0.,0.));
#1778=DIRECTION('ref_axis',(0.,-1.,0.));
#1779=DIRECTION('',(0.,0.,-1.));
#1780=DIRECTION('',(0.,1.,0.));
#1781=DIRECTION('center_axis',(0.707106781186547,-0.707106781186548,0.));
#1782=DIRECTION('ref_axis',(0.,0.,-1.));
#1783=DIRECTION('',(0.707106781186548,0.707106781186547,0.));
#1784=DIRECTION('',(0.,0.,-1.));
#1785=DIRECTION('',(0.,0.,1.));
#1786=DIRECTION('center_axis',(1.,0.,0.));
#1787=DIRECTION('ref_axis',(0.,1.,0.));
#1788=DIRECTION('',(0.,-1.,0.));
#1789=DIRECTION('',(0.,0.,-1.));
#1790=DIRECTION('center_axis',(0.,-1.,0.));
#1791=DIRECTION('ref_axis',(1.,0.,0.));
#1792=DIRECTION('',(-1.,0.,0.));
#1793=DIRECTION('center_axis',(1.,0.,0.));
#1794=DIRECTION('ref_axis',(0.,1.,0.));
#1795=DIRECTION('',(0.,-1.,0.));
#1796=DIRECTION('',(0.,0.,1.));
#1797=DIRECTION('center_axis',(-1.,0.,0.));
#1798=DIRECTION('ref_axis',(0.,-1.,0.));
#1799=DIRECTION('',(0.,1.,0.));
#1800=DIRECTION('',(0.,0.,1.));
#1801=DIRECTION('center_axis',(0.,1.,0.));
#1802=DIRECTION('ref_axis',(-1.,0.,0.));
#1803=DIRECTION('',(1.,0.,0.));
#1804=DIRECTION('center_axis',(0.,0.,1.));
#1805=DIRECTION('ref_axis',(1.,0.,0.));
#1806=CARTESIAN_POINT('',(0.,0.,0.));
#1807=CARTESIAN_POINT('Origin',(37.2000005215406,22.9200004172325,-7.));
#1808=CARTESIAN_POINT('',(36.5000005215406,22.9200004172325,-9.6));
#1809=CARTESIAN_POINT('Origin',(37.2000005215406,22.9200004172325,-9.6));
#1810=CARTESIAN_POINT('',(36.5000005215406,22.9200004172325,-7.));
#1811=CARTESIAN_POINT('',(36.5000005215406,22.9200004172325,-7.));
#1812=CARTESIAN_POINT('Origin',(37.2000005215406,22.9200004172325,-7.));
#1813=CARTESIAN_POINT('Origin',(37.2000005215406,22.9200004172325,-9.6));
#1814=CARTESIAN_POINT('Origin',(37.2000005215406,2.60000041723251,-7.));
#1815=CARTESIAN_POINT('',(36.5000005215406,2.60000041723251,-9.6));
#1816=CARTESIAN_POINT('Origin',(37.2000005215406,2.60000041723251,-9.6));
#1817=CARTESIAN_POINT('',(36.5000005215406,2.60000041723251,-7.));
#1818=CARTESIAN_POINT('',(36.5000005215406,2.60000041723251,-7.));
#1819=CARTESIAN_POINT('Origin',(37.2000005215406,2.60000041723251,-7.));
#1820=CARTESIAN_POINT('Origin',(37.2000005215406,2.60000041723251,-9.6));
#1821=CARTESIAN_POINT('Origin',(52.4400005215406,22.9200004172325,-7.));
#1822=CARTESIAN_POINT('',(51.7400005215406,22.9200004172325,-9.6));
#1823=CARTESIAN_POINT('Origin',(52.4400005215406,22.9200004172325,-9.6));
#1824=CARTESIAN_POINT('',(51.7400005215406,22.9200004172325,-7.));
#1825=CARTESIAN_POINT('',(51.7400005215406,22.9200004172325,-7.));
#1826=CARTESIAN_POINT('Origin',(52.4400005215406,22.9200004172325,-7.));
#1827=CARTESIAN_POINT('Origin',(52.4400005215406,22.9200004172325,-9.6));
#1828=CARTESIAN_POINT('Origin',(52.4400005215406,2.60000041723251,-7.));
#1829=CARTESIAN_POINT('',(51.7400005215406,2.60000041723251,-9.6));
#1830=CARTESIAN_POINT('Origin',(52.4400005215406,2.60000041723251,-9.6));
#1831=CARTESIAN_POINT('',(51.7400005215406,2.60000041723251,-7.));
#1832=CARTESIAN_POINT('',(51.7400005215406,2.60000041723251,-7.));
#1833=CARTESIAN_POINT('Origin',(52.4400005215406,2.60000041723251,-7.));
#1834=CARTESIAN_POINT('Origin',(52.4400005215406,2.60000041723251,-9.6));
#1835=CARTESIAN_POINT('Origin',(54.4000005215406,8.00000011920929,0.));
#1836=CARTESIAN_POINT('',(53.4000005066395,8.00000011920929,-7.));
#1837=CARTESIAN_POINT('',(54.4000005215406,8.00000011920929,-7.));
#1838=CARTESIAN_POINT('',(49.5500005215406,8.00000011920929,-7.));
#1839=CARTESIAN_POINT('',(53.4000005066395,8.00000011920929,0.));
#1840=CARTESIAN_POINT('',(53.4000005066395,8.00000011920929,0.));
#1841=CARTESIAN_POINT('',(54.4000005215406,8.00000011920929,0.));
#1842=CARTESIAN_POINT('',(49.5500005215406,8.00000011920929,0.));
#1843=CARTESIAN_POINT('',(54.4000005215406,8.00000011920929,0.));
#1844=CARTESIAN_POINT('Origin',(54.4000005215406,12.9000003278255,0.));
#1845=CARTESIAN_POINT('',(54.4000005215406,12.9000003278255,-7.));
#1846=CARTESIAN_POINT('',(54.4000005215406,13.550000372529,-7.));
#1847=CARTESIAN_POINT('',(54.4000005215406,12.9000003278255,0.));
#1848=CARTESIAN_POINT('',(54.4000005215406,13.550000372529,0.));
#1849=CARTESIAN_POINT('',(54.4000005215406,12.9000003278255,0.));
#1850=CARTESIAN_POINT('Origin',(51.6000005215406,12.9000003278255,0.));
#1851=CARTESIAN_POINT('',(51.6000005215406,12.9000003278255,-7.));
#1852=CARTESIAN_POINT('',(48.1500005215406,12.9000003278255,-7.));
#1853=CARTESIAN_POINT('',(51.6000005215406,12.9000003278255,0.));
#1854=CARTESIAN_POINT('',(48.1500005215406,12.9000003278255,0.));
#1855=CARTESIAN_POINT('',(51.6000005215406,12.9000003278255,0.));
#1856=CARTESIAN_POINT('Origin',(51.6000005215406,11.0000001639128,0.));
#1857=CARTESIAN_POINT('',(51.6000005215406,11.0000001639128,-7.));
#1858=CARTESIAN_POINT('',(51.6000005215406,12.6000002905726,-7.));
#1859=CARTESIAN_POINT('',(51.6000005215406,11.0000001639128,0.));
#1860=CARTESIAN_POINT('',(51.6000005215406,12.6000002905726,0.));
#1861=CARTESIAN_POINT('',(51.6000005215406,11.0000001639128,0.));
#1862=CARTESIAN_POINT('Origin',(53.4000005066395,11.0000001639128,0.));
#1863=CARTESIAN_POINT('',(53.4000005066395,11.0000001639128,-7.));
#1864=CARTESIAN_POINT('',(49.0500005140901,11.0000001639128,-7.));
#1865=CARTESIAN_POINT('',(53.4000005066395,11.0000001639128,0.));
#1866=CARTESIAN_POINT('',(49.0500005140901,11.0000001639128,0.));
#1867=CARTESIAN_POINT('',(53.4000005066395,11.0000001639128,0.));
#1868=CARTESIAN_POINT('Origin',(53.4000005066395,8.00000011920929,0.));
#1869=CARTESIAN_POINT('',(53.4000005066395,11.1000002682209,-7.));
#1870=CARTESIAN_POINT('',(53.4000005066395,11.1000002682209,0.));
#1871=CARTESIAN_POINT('Origin',(48.3000005215406,25.6000004172325,0.));
#1872=CARTESIAN_POINT('',(48.3000005215406,28.0000004172325,-7.));
#1873=CARTESIAN_POINT('',(48.3000005215406,25.6000004172325,-7.));
#1874=CARTESIAN_POINT('',(48.3000005215406,19.9000004172325,-7.));
#1875=CARTESIAN_POINT('',(48.3000005215406,28.0000004172325,0.));
#1876=CARTESIAN_POINT('',(48.3000005215406,28.0000004172325,0.));
#1877=CARTESIAN_POINT('',(48.3000005215406,25.6000004172325,0.));
#1878=CARTESIAN_POINT('',(48.3000005215406,19.9000004172325,0.));
#1879=CARTESIAN_POINT('',(48.3000005215406,25.6000004172325,0.));
#1880=CARTESIAN_POINT('Origin',(54.4000005215406,25.6000004172325,0.));
#1881=CARTESIAN_POINT('',(54.4000005215406,25.6000004172325,-7.));
#1882=CARTESIAN_POINT('',(49.5500005215406,25.6000004172325,-7.));
#1883=CARTESIAN_POINT('',(54.4000005215406,25.6000004172325,0.));
#1884=CARTESIAN_POINT('',(49.5500005215406,25.6000004172325,0.));
#1885=CARTESIAN_POINT('',(54.4000005215406,25.6000004172325,0.));
#1886=CARTESIAN_POINT('Origin',(54.4000005215406,28.0000004172325,0.));
#1887=CARTESIAN_POINT('',(54.4000005215406,28.0000004172325,-7.));
#1888=CARTESIAN_POINT('',(54.4000005215406,21.1000004172325,-7.));
#1889=CARTESIAN_POINT('',(54.4000005215406,28.0000004172325,0.));
#1890=CARTESIAN_POINT('',(54.4000005215406,21.1000004172325,0.));
#1891=CARTESIAN_POINT('',(54.4000005215406,28.0000004172325,0.));
#1892=CARTESIAN_POINT('Origin',(48.3000005215406,28.0000004172325,0.));
#1893=CARTESIAN_POINT('',(46.5000005215406,28.0000004172325,-7.));
#1894=CARTESIAN_POINT('',(46.5000005215406,28.0000004172325,0.));
#1895=CARTESIAN_POINT('Origin',(48.9500005215406,16.5000004172325,0.));
#1896=CARTESIAN_POINT('',(48.9500005215406,11.0000001639128,-7.));
#1897=CARTESIAN_POINT('',(48.9500005215406,16.5000004172325,-7.));
#1898=CARTESIAN_POINT('',(48.9500005215406,15.3500004172325,-7.));
#1899=CARTESIAN_POINT('',(48.9500005215406,11.0000001639128,0.));
#1900=CARTESIAN_POINT('',(48.9500005215406,11.0000001639128,0.));
#1901=CARTESIAN_POINT('',(48.9500005215406,16.5000004172325,0.));
#1902=CARTESIAN_POINT('',(48.9500005215406,15.3500004172325,0.));
#1903=CARTESIAN_POINT('',(48.9500005215406,16.5000004172325,0.));
#1904=CARTESIAN_POINT('Origin',(40.4500005215406,16.5000004172325,0.));
#1905=CARTESIAN_POINT('',(40.4500005215406,16.5000004172325,-7.));
#1906=CARTESIAN_POINT('',(42.5750005215406,16.5000004172325,-7.));
#1907=CARTESIAN_POINT('',(40.4500005215406,16.5000004172325,0.));
#1908=CARTESIAN_POINT('',(42.5750005215406,16.5000004172325,0.));
#1909=CARTESIAN_POINT('',(40.4500005215406,16.5000004172325,0.));
#1910=CARTESIAN_POINT('Origin',(40.4500005215406,11.0000001639128,0.));
#1911=CARTESIAN_POINT('',(40.4500005215406,11.0000001639128,-7.));
#1912=CARTESIAN_POINT('',(40.4500005215406,12.6000002905726,-7.));
#1913=CARTESIAN_POINT('',(40.4500005215406,11.0000001639128,0.));
#1914=CARTESIAN_POINT('',(40.4500005215406,12.6000002905726,0.));
#1915=CARTESIAN_POINT('',(40.4500005215406,11.0000001639128,0.));
#1916=CARTESIAN_POINT('Origin',(48.9500005215406,11.0000001639128,0.));
#1917=CARTESIAN_POINT('',(46.8250005215406,11.0000001639128,-7.));
#1918=CARTESIAN_POINT('',(46.8250005215406,11.0000001639128,0.));
#1919=CARTESIAN_POINT('Origin',(36.0000005364418,20.1000003278255,0.));
#1920=CARTESIAN_POINT('',(35.0000005215406,20.1000003278255,-7.));
#1921=CARTESIAN_POINT('',(36.0000005364418,20.1000003278255,-7.));
#1922=CARTESIAN_POINT('',(40.3500005289912,20.1000003278255,-7.));
#1923=CARTESIAN_POINT('',(35.0000005215406,20.1000003278255,0.));
#1924=CARTESIAN_POINT('',(35.0000005215406,20.1000003278255,0.));
#1925=CARTESIAN_POINT('',(36.0000005364418,20.1000003278255,0.));
#1926=CARTESIAN_POINT('',(40.3500005289912,20.1000003278255,0.));
#1927=CARTESIAN_POINT('',(36.0000005364418,20.1000003278255,0.));
#1928=CARTESIAN_POINT('Origin',(36.0000005364418,22.0000003278255,0.));
#1929=CARTESIAN_POINT('',(36.0000005364418,22.0000003278255,-7.));
#1930=CARTESIAN_POINT('',(36.0000005364418,18.100000372529,-7.));
#1931=CARTESIAN_POINT('',(36.0000005364418,22.0000003278255,0.));
#1932=CARTESIAN_POINT('',(36.0000005364418,18.100000372529,0.));
#1933=CARTESIAN_POINT('',(36.0000005364418,22.0000003278255,0.));
#1934=CARTESIAN_POINT('Origin',(35.0000005215406,22.0000003278255,0.));
#1935=CARTESIAN_POINT('',(35.0000005215406,22.0000003278255,-7.));
#1936=CARTESIAN_POINT('',(39.8500005215406,22.0000003278255,-7.));
#1937=CARTESIAN_POINT('',(35.0000005215406,22.0000003278255,0.));
#1938=CARTESIAN_POINT('',(39.8500005215406,22.0000003278255,0.));
#1939=CARTESIAN_POINT('',(35.0000005215406,22.0000003278255,0.));
#1940=CARTESIAN_POINT('Origin',(35.0000005215406,20.1000003278255,0.));
#1941=CARTESIAN_POINT('',(35.0000005215406,17.150000372529,-7.));
#1942=CARTESIAN_POINT('',(35.0000005215406,17.150000372529,0.));
#1943=CARTESIAN_POINT('Origin',(54.4000005215406,18.3000003278255,0.));
#1944=CARTESIAN_POINT('',(54.4000005215406,16.4000003278255,-7.));
#1945=CARTESIAN_POINT('',(54.4000005215406,18.3000003278255,-7.));
#1946=CARTESIAN_POINT('',(54.4000005215406,16.250000372529,-7.));
#1947=CARTESIAN_POINT('',(54.4000005215406,16.4000003278255,0.));
#1948=CARTESIAN_POINT('',(54.4000005215406,16.4000003278255,0.));
#1949=CARTESIAN_POINT('',(54.4000005215406,18.3000003278255,0.));
#1950=CARTESIAN_POINT('',(54.4000005215406,16.250000372529,0.));
#1951=CARTESIAN_POINT('',(54.4000005215406,18.3000003278255,0.));
#1952=CARTESIAN_POINT('Origin',(51.6000005215406,18.3000003278255,0.));
#1953=CARTESIAN_POINT('',(51.6000005215406,18.3000003278255,-7.));
#1954=CARTESIAN_POINT('',(48.1500005215406,18.3000003278255,-7.));
#1955=CARTESIAN_POINT('',(51.6000005215406,18.3000003278255,0.));
#1956=CARTESIAN_POINT('',(48.1500005215406,18.3000003278255,0.));
#1957=CARTESIAN_POINT('',(51.6000005215406,18.3000003278255,0.));
#1958=CARTESIAN_POINT('Origin',(51.6000005215406,16.4000003278255,0.));
#1959=CARTESIAN_POINT('',(51.6000005215406,16.4000003278255,-7.));
#1960=CARTESIAN_POINT('',(51.6000005215406,15.300000372529,-7.));
#1961=CARTESIAN_POINT('',(51.6000005215406,16.4000003278255,0.));
#1962=CARTESIAN_POINT('',(51.6000005215406,15.300000372529,0.));
#1963=CARTESIAN_POINT('',(51.6000005215406,16.4000003278255,0.));
#1964=CARTESIAN_POINT('Origin',(54.4000005215406,16.4000003278255,0.));
#1965=CARTESIAN_POINT('',(49.5500005215406,16.4000003278255,-7.));
#1966=CARTESIAN_POINT('',(49.5500005215406,16.4000003278255,0.));
#1967=CARTESIAN_POINT('Origin',(35.0000005215406,8.00000011920929,0.));
#1968=CARTESIAN_POINT('',(35.0000005215406,12.9000003278255,-7.));
#1969=CARTESIAN_POINT('',(35.0000005215406,8.00000011920929,-7.));
#1970=CARTESIAN_POINT('',(35.0000005215406,11.1000002682209,-7.));
#1971=CARTESIAN_POINT('',(35.0000005215406,12.9000003278255,0.));
#1972=CARTESIAN_POINT('',(35.0000005215406,12.9000003278255,0.));
#1973=CARTESIAN_POINT('',(35.0000005215406,8.00000011920929,0.));
#1974=CARTESIAN_POINT('',(35.0000005215406,11.1000002682209,0.));
#1975=CARTESIAN_POINT('',(35.0000005215406,8.00000011920929,0.));
#1976=CARTESIAN_POINT('Origin',(36.0000005364418,8.00000011920929,0.));
#1977=CARTESIAN_POINT('',(36.0000005364418,8.00000011920929,-7.));
#1978=CARTESIAN_POINT('',(40.3500005289912,8.00000011920929,-7.));
#1979=CARTESIAN_POINT('',(36.0000005364418,8.00000011920929,0.));
#1980=CARTESIAN_POINT('',(40.3500005289912,8.00000011920929,0.));
#1981=CARTESIAN_POINT('',(36.0000005364418,8.00000011920929,0.));
#1982=CARTESIAN_POINT('Origin',(36.0000005364418,11.0000001639128,0.));
#1983=CARTESIAN_POINT('',(36.0000005364418,11.0000001639128,-7.));
#1984=CARTESIAN_POINT('',(36.0000005364418,12.6000002905726,-7.));
#1985=CARTESIAN_POINT('',(36.0000005364418,11.0000001639128,0.));
#1986=CARTESIAN_POINT('',(36.0000005364418,12.6000002905726,0.));
#1987=CARTESIAN_POINT('',(36.0000005364418,11.0000001639128,0.));
#1988=CARTESIAN_POINT('Origin',(37.8000005215406,11.0000001639128,0.));
#1989=CARTESIAN_POINT('',(37.8000005215406,11.0000001639128,-7.));
#1990=CARTESIAN_POINT('',(41.2500005215406,11.0000001639128,-7.));
#1991=CARTESIAN_POINT('',(37.8000005215406,11.0000001639128,0.));
#1992=CARTESIAN_POINT('',(41.2500005215406,11.0000001639128,0.));
#1993=CARTESIAN_POINT('',(37.8000005215406,11.0000001639128,0.));
#1994=CARTESIAN_POINT('Origin',(37.8000005215406,12.9000003278255,0.));
#1995=CARTESIAN_POINT('',(37.8000005215406,12.9000003278255,-7.));
#1996=CARTESIAN_POINT('',(37.8000005215406,13.550000372529,-7.));
#1997=CARTESIAN_POINT('',(37.8000005215406,12.9000003278255,0.));
#1998=CARTESIAN_POINT('',(37.8000005215406,13.550000372529,0.));
#1999=CARTESIAN_POINT('',(37.8000005215406,12.9000003278255,0.));
#2000=CARTESIAN_POINT('Origin',(35.0000005215406,12.9000003278255,0.));
#2001=CARTESIAN_POINT('',(39.8500005215406,12.9000003278255,-7.));
#2002=CARTESIAN_POINT('',(39.8500005215406,12.9000003278255,0.));
#2003=CARTESIAN_POINT('Origin',(41.1000005215406,28.0000004172325,0.));
#2004=CARTESIAN_POINT('',(41.1000005215406,25.6000004172325,-7.));
#2005=CARTESIAN_POINT('',(41.1000005215406,28.0000004172325,-7.));
#2006=CARTESIAN_POINT('',(41.1000005215406,21.1000004172325,-7.));
#2007=CARTESIAN_POINT('',(41.1000005215406,25.6000004172325,0.));
#2008=CARTESIAN_POINT('',(41.1000005215406,25.6000004172325,0.));
#2009=CARTESIAN_POINT('',(41.1000005215406,28.0000004172325,0.));
#2010=CARTESIAN_POINT('',(41.1000005215406,21.1000004172325,0.));
#2011=CARTESIAN_POINT('',(41.1000005215406,28.0000004172325,0.));
#2012=CARTESIAN_POINT('Origin',(35.0000005215406,28.0000004172325,0.));
#2013=CARTESIAN_POINT('',(35.0000005215406,28.0000004172325,-7.));
#2014=CARTESIAN_POINT('',(39.8500005215406,28.0000004172325,-7.));
#2015=CARTESIAN_POINT('',(35.0000005215406,28.0000004172325,0.));
#2016=CARTESIAN_POINT('',(39.8500005215406,28.0000004172325,0.));
#2017=CARTESIAN_POINT('',(35.0000005215406,28.0000004172325,0.));
#2018=CARTESIAN_POINT('Origin',(35.0000005215406,25.6000004172325,0.));
#2019=CARTESIAN_POINT('',(35.0000005215406,25.6000004172325,-7.));
#2020=CARTESIAN_POINT('',(35.0000005215406,19.9000004172325,-7.));
#2021=CARTESIAN_POINT('',(35.0000005215406,25.6000004172325,0.));
#2022=CARTESIAN_POINT('',(35.0000005215406,19.9000004172325,0.));
#2023=CARTESIAN_POINT('',(35.0000005215406,25.6000004172325,0.));
#2024=CARTESIAN_POINT('Origin',(41.1000005215406,25.6000004172325,0.));
#2025=CARTESIAN_POINT('',(42.9000005215406,25.6000004172325,-7.));
#2026=CARTESIAN_POINT('',(42.9000005215406,25.6000004172325,0.));
#2027=CARTESIAN_POINT('Origin',(49.9500005215406,21.0000004172325,0.));
#2028=CARTESIAN_POINT('',(39.4500005215406,21.0000004172325,-7.));
#2029=CARTESIAN_POINT('',(49.9500005215406,21.0000004172325,-7.));
#2030=CARTESIAN_POINT('',(47.3250005215406,21.0000004172325,-7.));
#2031=CARTESIAN_POINT('',(39.4500005215406,21.0000004172325,0.));
#2032=CARTESIAN_POINT('',(39.4500005215406,21.0000004172325,0.));
#2033=CARTESIAN_POINT('',(49.9500005215406,21.0000004172325,0.));
#2034=CARTESIAN_POINT('',(47.3250005215406,21.0000004172325,0.));
#2035=CARTESIAN_POINT('',(49.9500005215406,21.0000004172325,0.));
#2036=CARTESIAN_POINT('Origin',(49.9500005215406,24.5000004172325,0.));
#2037=CARTESIAN_POINT('',(49.9500005215406,24.5000004172325,-7.));
#2038=CARTESIAN_POINT('',(49.9500005215406,19.3500004172325,-7.));
#2039=CARTESIAN_POINT('',(49.9500005215406,24.5000004172325,0.));
#2040=CARTESIAN_POINT('',(49.9500005215406,19.3500004172325,0.));
#2041=CARTESIAN_POINT('',(49.9500005215406,24.5000004172325,0.));
#2042=CARTESIAN_POINT('Origin',(39.4500005215406,24.5000004172325,0.));
#2043=CARTESIAN_POINT('',(39.4500005215406,24.5000004172325,-7.));
#2044=CARTESIAN_POINT('',(42.0750005215406,24.5000004172325,-7.));
#2045=CARTESIAN_POINT('',(39.4500005215406,24.5000004172325,0.));
#2046=CARTESIAN_POINT('',(42.0750005215406,24.5000004172325,0.));
#2047=CARTESIAN_POINT('',(39.4500005215406,24.5000004172325,0.));
#2048=CARTESIAN_POINT('Origin',(39.4500005215406,21.0000004172325,0.));
#2049=CARTESIAN_POINT('',(39.4500005215406,17.6000004172325,-7.));
#2050=CARTESIAN_POINT('',(39.4500005215406,17.6000004172325,0.));
#2051=CARTESIAN_POINT('Origin',(37.8000005215406,16.4000003278255,0.));
#2052=CARTESIAN_POINT('',(35.0000005215406,16.4000003278255,-7.));
#2053=CARTESIAN_POINT('',(37.8000005215406,16.4000003278255,-7.));
#2054=CARTESIAN_POINT('',(41.2500005215406,16.4000003278255,-7.));
#2055=CARTESIAN_POINT('',(35.0000005215406,16.4000003278255,0.));
#2056=CARTESIAN_POINT('',(35.0000005215406,16.4000003278255,0.));
#2057=CARTESIAN_POINT('',(37.8000005215406,16.4000003278255,0.));
#2058=CARTESIAN_POINT('',(41.2500005215406,16.4000003278255,0.));
#2059=CARTESIAN_POINT('',(37.8000005215406,16.4000003278255,0.));
#2060=CARTESIAN_POINT('Origin',(37.8000005215406,18.3000003278255,0.));
#2061=CARTESIAN_POINT('',(37.8000005215406,18.3000003278255,-7.));
#2062=CARTESIAN_POINT('',(37.8000005215406,16.250000372529,-7.));
#2063=CARTESIAN_POINT('',(37.8000005215406,18.3000003278255,0.));
#2064=CARTESIAN_POINT('',(37.8000005215406,16.250000372529,0.));
#2065=CARTESIAN_POINT('',(37.8000005215406,18.3000003278255,0.));
#2066=CARTESIAN_POINT('Origin',(35.0000005215406,18.3000003278255,0.));
#2067=CARTESIAN_POINT('',(35.0000005215406,18.3000003278255,-7.));
#2068=CARTESIAN_POINT('',(39.8500005215406,18.3000003278255,-7.));
#2069=CARTESIAN_POINT('',(35.0000005215406,18.3000003278255,0.));
#2070=CARTESIAN_POINT('',(39.8500005215406,18.3000003278255,0.));
#2071=CARTESIAN_POINT('',(35.0000005215406,18.3000003278255,0.));
#2072=CARTESIAN_POINT('Origin',(35.0000005215406,16.4000003278255,0.));
#2073=CARTESIAN_POINT('',(35.0000005215406,15.300000372529,-7.));
#2074=CARTESIAN_POINT('',(35.0000005215406,15.300000372529,0.));
#2075=CARTESIAN_POINT('Origin',(54.4000005215406,22.0000003278255,0.));
#2076=CARTESIAN_POINT('',(54.4000005215406,20.1000003278255,-7.));
#2077=CARTESIAN_POINT('',(54.4000005215406,22.0000003278255,-7.));
#2078=CARTESIAN_POINT('',(54.4000005215406,18.100000372529,-7.));
#2079=CARTESIAN_POINT('',(54.4000005215406,20.1000003278255,0.));
#2080=CARTESIAN_POINT('',(54.4000005215406,20.1000003278255,0.));
#2081=CARTESIAN_POINT('',(54.4000005215406,22.0000003278255,0.));
#2082=CARTESIAN_POINT('',(54.4000005215406,18.100000372529,0.));
#2083=CARTESIAN_POINT('',(54.4000005215406,22.0000003278255,0.));
#2084=CARTESIAN_POINT('Origin',(53.4000005066395,22.0000003278255,0.));
#2085=CARTESIAN_POINT('',(53.4000005066395,22.0000003278255,-7.));
#2086=CARTESIAN_POINT('',(49.0500005140901,22.0000003278255,-7.));
#2087=CARTESIAN_POINT('',(53.4000005066395,22.0000003278255,0.));
#2088=CARTESIAN_POINT('',(49.0500005140901,22.0000003278255,0.));
#2089=CARTESIAN_POINT('',(53.4000005066395,22.0000003278255,0.));
#2090=CARTESIAN_POINT('Origin',(53.4000005066395,20.1000003278255,0.));
#2091=CARTESIAN_POINT('',(53.4000005066395,20.1000003278255,-7.));
#2092=CARTESIAN_POINT('',(53.4000005066395,17.150000372529,-7.));
#2093=CARTESIAN_POINT('',(53.4000005066395,20.1000003278255,0.));
#2094=CARTESIAN_POINT('',(53.4000005066395,17.150000372529,0.));
#2095=CARTESIAN_POINT('',(53.4000005066395,20.1000003278255,0.));
#2096=CARTESIAN_POINT('Origin',(54.4000005215406,20.1000003278255,0.));
#2097=CARTESIAN_POINT('',(49.5500005215406,20.1000003278255,-7.));
#2098=CARTESIAN_POINT('',(49.5500005215406,20.1000003278255,0.));
#2099=CARTESIAN_POINT('Origin',(34.2000005215406,-0.399999582767489,0.));
#2100=CARTESIAN_POINT('',(55.2000005215406,-0.39999958276749,-7.));
#2101=CARTESIAN_POINT('',(34.2000005215406,-0.399999582767489,-7.));
#2102=CARTESIAN_POINT('',(39.4500005215406,-0.39999958276749,-7.));
#2103=CARTESIAN_POINT('',(55.2000005215406,-0.39999958276749,0.));
#2104=CARTESIAN_POINT('',(55.2000005215406,-0.39999958276749,0.));
#2105=CARTESIAN_POINT('',(34.2000005215406,-0.399999582767489,0.));
#2106=CARTESIAN_POINT('',(39.4500005215406,-0.39999958276749,0.));
#2107=CARTESIAN_POINT('',(34.2000005215406,-0.399999582767489,0.));
#2108=CARTESIAN_POINT('Origin',(34.2000005215406,28.8000004172325,0.));
#2109=CARTESIAN_POINT('',(34.2000005215406,28.8000004172325,-7.));
#2110=CARTESIAN_POINT('',(34.2000005215406,21.5000004172325,-7.));
#2111=CARTESIAN_POINT('',(34.2000005215406,28.8000004172325,0.));
#2112=CARTESIAN_POINT('',(34.2000005215406,21.5000004172325,0.));
#2113=CARTESIAN_POINT('',(34.2000005215406,28.8000004172325,0.));
#2114=CARTESIAN_POINT('Origin',(55.2000005215406,28.8000004172325,0.));
#2115=CARTESIAN_POINT('',(55.2000005215406,28.8000004172325,-7.));
#2116=CARTESIAN_POINT('',(49.9500005215406,28.8000004172325,-7.));
#2117=CARTESIAN_POINT('',(55.2000005215406,28.8000004172325,0.));
#2118=CARTESIAN_POINT('',(49.9500005215406,28.8000004172325,0.));
#2119=CARTESIAN_POINT('',(55.2000005215406,28.8000004172325,0.));
#2120=CARTESIAN_POINT('Origin',(55.2000005215406,-0.39999958276749,0.));
#2121=CARTESIAN_POINT('',(55.2000005215406,6.90000041723251,-7.));
#2122=CARTESIAN_POINT('',(55.2000005215406,6.90000041723251,0.));
#2123=CARTESIAN_POINT('Origin',(44.7000005215406,14.2000004172325,0.));
#2124=CARTESIAN_POINT('Origin',(44.7000005215406,14.2000004172325,-7.));
#2125=CARTESIAN_POINT('Origin',(44.7000005215406,42.2000004172325,32.));
#2126=CARTESIAN_POINT('',(57.2000005215406,25.6000004172325,32.));
#2127=CARTESIAN_POINT('',(55.7000005215406,27.1000004172325,32.));
#2128=CARTESIAN_POINT('',(49.4250005215406,33.3750004172325,32.));
#2129=CARTESIAN_POINT('',(32.2000005215406,25.6000004172325,32.));
#2130=CARTESIAN_POINT('',(57.2000005215406,25.6000004172325,32.));
#2131=CARTESIAN_POINT('',(33.7000005215406,27.1000004172325,32.));
#2132=CARTESIAN_POINT('',(39.9750005215406,33.3750004172325,32.));
#2133=CARTESIAN_POINT('',(33.7000005215406,57.3000004172325,32.));
#2134=CARTESIAN_POINT('',(33.7000005215406,34.9000004172325,32.));
#2135=CARTESIAN_POINT('',(55.7000005215406,57.3000004172325,32.));
#2136=CARTESIAN_POINT('',(39.4500005215406,57.3000004172325,32.));
#2137=CARTESIAN_POINT('',(55.7000005215406,49.5000004172325,32.));
#2138=CARTESIAN_POINT('Origin',(55.2000005215406,25.6000004172325,32.));
#2139=CARTESIAN_POINT('',(57.2000005215406,25.6000004172325,34.5));
#2140=CARTESIAN_POINT('',(57.2000005215406,25.6000004172325,32.));
#2141=CARTESIAN_POINT('',(32.2000005215406,25.6000004172325,34.5));
#2142=CARTESIAN_POINT('',(57.2000005215406,25.6000004172325,34.5));
#2143=CARTESIAN_POINT('',(32.2000005215406,25.6000004172325,32.));
#2144=CARTESIAN_POINT('Origin',(44.7000005215406,42.2000004172325,34.5));
#2145=CARTESIAN_POINT('',(57.2000005215406,58.8000004172325,34.5));
#2146=CARTESIAN_POINT('',(57.2000005215406,58.8000004172325,34.5));
#2147=CARTESIAN_POINT('',(32.2000005215406,58.8000004172325,34.5));
#2148=CARTESIAN_POINT('',(32.2000005215406,58.8000004172325,34.5));
#2149=CARTESIAN_POINT('',(32.2000005215406,25.6000004172325,34.5));
#2150=CARTESIAN_POINT('Origin',(56.2000005215406,26.6000004172325,0.));
#2151=CARTESIAN_POINT('',(55.7000005215406,27.1000004172325,0.));
#2152=CARTESIAN_POINT('',(55.7000005215406,27.1000004172325,0.));
#2153=CARTESIAN_POINT('',(57.2000005215406,25.6000004172325,0.));
#2154=CARTESIAN_POINT('',(49.4250005215406,33.3750004172325,0.));
#2155=CARTESIAN_POINT('',(57.2000005215406,25.6000004172325,0.));
#2156=CARTESIAN_POINT('Origin',(55.7000005215406,56.8000004172325,0.));
#2157=CARTESIAN_POINT('',(55.7000005215406,57.3000004172325,0.));
#2158=CARTESIAN_POINT('',(55.7000005215406,57.3000004172325,0.));
#2159=CARTESIAN_POINT('',(55.7000005215406,49.5000004172325,0.));
#2160=CARTESIAN_POINT('Origin',(33.2000005215406,26.6000004172325,0.));
#2161=CARTESIAN_POINT('',(32.2000005215406,25.6000004172325,0.));
#2162=CARTESIAN_POINT('',(33.7000005215406,27.1000004172325,0.));
#2163=CARTESIAN_POINT('',(39.9750005215406,33.3750004172325,0.));
#2164=CARTESIAN_POINT('',(33.7000005215406,27.1000004172325,0.));
#2165=CARTESIAN_POINT('',(32.2000005215406,25.6000004172325,0.));
#2166=CARTESIAN_POINT('Origin',(33.7000005215406,27.6000004172325,0.));
#2167=CARTESIAN_POINT('',(33.7000005215406,57.3000004172325,0.));
#2168=CARTESIAN_POINT('',(33.7000005215406,34.9000004172325,0.));
#2169=CARTESIAN_POINT('',(33.7000005215406,57.3000004172325,0.));
#2170=CARTESIAN_POINT('Origin',(34.2000005215406,57.3000004172325,0.));
#2171=CARTESIAN_POINT('',(39.4500005215406,57.3000004172325,0.));
#2172=CARTESIAN_POINT('Origin',(57.2000005215406,25.6000004172325,0.));
#2173=CARTESIAN_POINT('',(57.2000005215406,58.8000004172325,0.));
#2174=CARTESIAN_POINT('',(57.2000005215406,58.8000004172325,0.));
#2175=CARTESIAN_POINT('',(57.2000005215406,58.8000004172325,0.));
#2176=CARTESIAN_POINT('Origin',(32.2000005215406,58.8000004172325,0.));
#2177=CARTESIAN_POINT('',(32.2000005215406,58.8000004172325,0.));
#2178=CARTESIAN_POINT('',(32.2000005215406,25.6000004172325,0.));
#2179=CARTESIAN_POINT('',(32.2000005215406,58.8000004172325,0.));
#2180=CARTESIAN_POINT('Origin',(57.2000005215406,58.8000004172325,0.));
#2181=CARTESIAN_POINT('',(32.2000005215406,58.8000004172325,0.));
#2182=CARTESIAN_POINT('Origin',(44.7000005215406,42.2000004172325,0.));
#2183=UNCERTAINTY_MEASURE_WITH_UNIT(LENGTH_MEASURE(0.01),#2187,
'DISTANCE_ACCURACY_VALUE',
'Maximum model space distance between geometric entities at asserted c
onnectivities');
#2184=UNCERTAINTY_MEASURE_WITH_UNIT(LENGTH_MEASURE(0.01),#2187,
'DISTANCE_ACCURACY_VALUE',
'Maximum model space distance between geometric entities at asserted c
onnectivities');
#2185=(
GEOMETRIC_REPRESENTATION_CONTEXT(3)
GLOBAL_UNCERTAINTY_ASSIGNED_CONTEXT((#2183))
GLOBAL_UNIT_ASSIGNED_CONTEXT((#2187,#2189,#2190))
REPRESENTATION_CONTEXT('','3D')
);
#2186=(
GEOMETRIC_REPRESENTATION_CONTEXT(3)
GLOBAL_UNCERTAINTY_ASSIGNED_CONTEXT((#2184))
GLOBAL_UNIT_ASSIGNED_CONTEXT((#2187,#2189,#2190))
REPRESENTATION_CONTEXT('','3D')
);
#2187=(
LENGTH_UNIT()
NAMED_UNIT(*)
SI_UNIT(.MILLI.,.METRE.)
);
#2188=(
LENGTH_UNIT()
NAMED_UNIT(*)
SI_UNIT($,.METRE.)
);
#2189=(
NAMED_UNIT(*)
PLANE_ANGLE_UNIT()
SI_UNIT($,.RADIAN.)
);
#2190=(
NAMED_UNIT(*)
SI_UNIT($,.STERADIAN.)
SOLID_ANGLE_UNIT()
);
#2191=SHAPE_DEFINITION_REPRESENTATION(#2192,#2193);
#2192=PRODUCT_DEFINITION_SHAPE('',$,#2195);
#2193=SHAPE_REPRESENTATION('',(#1393),#2185);
#2194=PRODUCT_DEFINITION_CONTEXT('part definition',#2199,'design');
#2195=PRODUCT_DEFINITION('Podstawka_na_gniazdo_2xusb_1xrj45',
'Podstawka_na_gniazdo_2xusb_1xrj45 v2',#2196,#2194);
#2196=PRODUCT_DEFINITION_FORMATION('',$,#2201);
#2197=PRODUCT_RELATED_PRODUCT_CATEGORY(
'Podstawka_na_gniazdo_2xusb_1xrj45 v2',
'Podstawka_na_gniazdo_2xusb_1xrj45 v2',(#2201));
#2198=APPLICATION_PROTOCOL_DEFINITION('international standard',
'automotive_design',2009,#2199);
#2199=APPLICATION_CONTEXT(
'Core Data for Automotive Mechanical Design Process');
#2200=PRODUCT_CONTEXT('part definition',#2199,'mechanical');
#2201=PRODUCT('Podstawka_na_gniazdo_2xusb_1xrj45',
'Podstawka_na_gniazdo_2xusb_1xrj45 v2',$,(#2200));
#2202=PRESENTATION_STYLE_ASSIGNMENT((#2203));
#2203=SURFACE_STYLE_USAGE(.BOTH.,#2204);
#2204=SURFACE_SIDE_STYLE('',(#2205));
#2205=SURFACE_STYLE_FILL_AREA(#2206);
#2206=FILL_AREA_STYLE(
'PA 11 - Nylon- HP 11-30 (with EOS P 396 3D Printer)',(#2207));
#2207=FILL_AREA_STYLE_COLOUR(
'PA 11 - Nylon- HP 11-30 (with EOS P 396 3D Printer)',#2208);
#2208=COLOUR_RGB('PA 11 - Nylon- HP 11-30 (with EOS P 396 3D Printer)',
0.247058823529412,0.247058823529412,0.247058823529412);
ENDSEC;
END-ISO-10303-21;
