ISO-10303-21;
HEADER;
/* Generated by software containing ST-Developer
 * from STEP Tools, Inc. (www.steptools.com) 
 */

FILE_DESCRIPTION(
/* description */ (''),
/* implementation_level */ '2;1');

FILE_NAME(
/* name */ 'bolted_clamp.step',
/* time_stamp */ '2026-08-04T09:11:52+02:00',
/* author */ (''),
/* organization */ (''),
/* preprocessor_version */ 'ST-DEVELOPER v20.1',
/* originating_system */ 'Autodesk Translation Framework v15.8.0.0',
/* authorisation */ '');

FILE_SCHEMA (('AUTOMOTIVE_DESIGN { 1 0 10303 214 3 1 1 }'));
ENDSEC;

DATA;
#10=MECHANICAL_DESIGN_GEOMETRIC_PRESENTATION_REPRESENTATION('',(#13,#14),
#1396);
#11=SHAPE_REPRESENTATION_RELATIONSHIP('SRR','None',#1403,#12);
#12=ADVANCED_BREP_SHAPE_REPRESENTATION('',(#15,#16),#1395);
#13=STYLED_ITEM('',(#1412),#15);
#14=STYLED_ITEM('',(#1412),#16);
#15=MANIFOLD_SOLID_BREP('bolted_clamp_a',#855);
#16=MANIFOLD_SOLID_BREP('bolted_clamp_b',#856);
#17=CYLINDRICAL_SURFACE('',#895,1.5);
#18=CYLINDRICAL_SURFACE('',#897,1.5);
#19=CYLINDRICAL_SURFACE('',#900,2.55);
#20=CYLINDRICAL_SURFACE('',#918,3.);
#21=CYLINDRICAL_SURFACE('',#923,3.);
#22=CYLINDRICAL_SURFACE('',#926,1.5);
#23=CYLINDRICAL_SURFACE('',#927,1.5);
#24=CYLINDRICAL_SURFACE('',#929,2.55);
#25=FACE_BOUND('',#94,.T.);
#26=FACE_BOUND('',#102,.T.);
#27=FACE_BOUND('',#105,.T.);
#28=FACE_BOUND('',#106,.T.);
#29=FACE_BOUND('',#115,.T.);
#30=FACE_BOUND('',#116,.T.);
#31=FACE_BOUND('',#118,.T.);
#32=FACE_BOUND('',#119,.T.);
#33=FACE_BOUND('',#128,.T.);
#34=FACE_BOUND('',#131,.T.);
#35=FACE_BOUND('',#134,.T.);
#36=FACE_BOUND('',#135,.T.);
#37=FACE_OUTER_BOUND('',#83,.T.);
#38=FACE_OUTER_BOUND('',#84,.T.);
#39=FACE_OUTER_BOUND('',#85,.T.);
#40=FACE_OUTER_BOUND('',#86,.T.);
#41=FACE_OUTER_BOUND('',#87,.T.);
#42=FACE_OUTER_BOUND('',#88,.T.);
#43=FACE_OUTER_BOUND('',#89,.T.);
#44=FACE_OUTER_BOUND('',#90,.T.);
#45=FACE_OUTER_BOUND('',#91,.T.);
#46=FACE_OUTER_BOUND('',#92,.T.);
#47=FACE_OUTER_BOUND('',#93,.T.);
#48=FACE_OUTER_BOUND('',#95,.T.);
#49=FACE_OUTER_BOUND('',#96,.T.);
#50=FACE_OUTER_BOUND('',#97,.T.);
#51=FACE_OUTER_BOUND('',#98,.T.);
#52=FACE_OUTER_BOUND('',#99,.T.);
#53=FACE_OUTER_BOUND('',#100,.T.);
#54=FACE_OUTER_BOUND('',#101,.T.);
#55=FACE_OUTER_BOUND('',#103,.T.);
#56=FACE_OUTER_BOUND('',#104,.T.);
#57=FACE_OUTER_BOUND('',#107,.T.);
#58=FACE_OUTER_BOUND('',#108,.T.);
#59=FACE_OUTER_BOUND('',#109,.T.);
#60=FACE_OUTER_BOUND('',#110,.T.);
#61=FACE_OUTER_BOUND('',#111,.T.);
#62=FACE_OUTER_BOUND('',#112,.T.);
#63=FACE_OUTER_BOUND('',#113,.T.);
#64=FACE_OUTER_BOUND('',#114,.T.);
#65=FACE_OUTER_BOUND('',#117,.T.);
#66=FACE_OUTER_BOUND('',#120,.T.);
#67=FACE_OUTER_BOUND('',#121,.T.);
#68=FACE_OUTER_BOUND('',#122,.T.);
#69=FACE_OUTER_BOUND('',#123,.T.);
#70=FACE_OUTER_BOUND('',#124,.T.);
#71=FACE_OUTER_BOUND('',#125,.T.);
#72=FACE_OUTER_BOUND('',#126,.T.);
#73=FACE_OUTER_BOUND('',#127,.T.);
#74=FACE_OUTER_BOUND('',#129,.T.);
#75=FACE_OUTER_BOUND('',#130,.T.);
#76=FACE_OUTER_BOUND('',#132,.T.);
#77=FACE_OUTER_BOUND('',#133,.T.);
#78=FACE_OUTER_BOUND('',#136,.T.);
#79=FACE_OUTER_BOUND('',#137,.T.);
#80=FACE_OUTER_BOUND('',#138,.T.);
#81=FACE_OUTER_BOUND('',#139,.T.);
#82=FACE_OUTER_BOUND('',#140,.T.);
#83=EDGE_LOOP('',(#543,#544,#545,#546,#547,#548));
#84=EDGE_LOOP('',(#549,#550,#551,#552));
#85=EDGE_LOOP('',(#553,#554,#555,#556));
#86=EDGE_LOOP('',(#557,#558,#559,#560));
#87=EDGE_LOOP('',(#561,#562,#563,#564));
#88=EDGE_LOOP('',(#565,#566,#567,#568));
#89=EDGE_LOOP('',(#569,#570,#571,#572));
#90=EDGE_LOOP('',(#573,#574,#575,#576));
#91=EDGE_LOOP('',(#577,#578,#579,#580));
#92=EDGE_LOOP('',(#581,#582,#583,#584));
#93=EDGE_LOOP('',(#585,#586,#587,#588,#589,#590));
#94=EDGE_LOOP('',(#591));
#95=EDGE_LOOP('',(#592,#593,#594,#595));
#96=EDGE_LOOP('',(#596,#597,#598,#599));
#97=EDGE_LOOP('',(#600,#601,#602,#603));
#98=EDGE_LOOP('',(#604,#605,#606,#607));
#99=EDGE_LOOP('',(#608,#609,#610,#611));
#100=EDGE_LOOP('',(#612,#613,#614,#615));
#101=EDGE_LOOP('',(#616,#617,#618,#619,#620,#621));
#102=EDGE_LOOP('',(#622));
#103=EDGE_LOOP('',(#623,#624,#625,#626));
#104=EDGE_LOOP('',(#627,#628,#629,#630));
#105=EDGE_LOOP('',(#631,#632,#633,#634,#635,#636));
#106=EDGE_LOOP('',(#637,#638,#639,#640,#641,#642));
#107=EDGE_LOOP('',(#643,#644,#645,#646,#647,#648,#649,#650));
#108=EDGE_LOOP('',(#651,#652,#653,#654));
#109=EDGE_LOOP('',(#655,#656,#657,#658));
#110=EDGE_LOOP('',(#659,#660,#661,#662));
#111=EDGE_LOOP('',(#663,#664,#665,#666));
#112=EDGE_LOOP('',(#667,#668,#669,#670));
#113=EDGE_LOOP('',(#671,#672));
#114=EDGE_LOOP('',(#673,#674,#675,#676,#677,#678,#679,#680,#681,#682,#683,
#684));
#115=EDGE_LOOP('',(#685));
#116=EDGE_LOOP('',(#686));
#117=EDGE_LOOP('',(#687,#688,#689,#690,#691,#692,#693,#694,#695,#696,#697,
#698));
#118=EDGE_LOOP('',(#699));
#119=EDGE_LOOP('',(#700));
#120=EDGE_LOOP('',(#701,#702,#703,#704));
#121=EDGE_LOOP('',(#705,#706,#707,#708));
#122=EDGE_LOOP('',(#709,#710,#711,#712,#713,#714));
#123=EDGE_LOOP('',(#715,#716,#717,#718));
#124=EDGE_LOOP('',(#719,#720,#721,#722));
#125=EDGE_LOOP('',(#723,#724,#725,#726,#727,#728,#729,#730));
#126=EDGE_LOOP('',(#731,#732,#733,#734));
#127=EDGE_LOOP('',(#735));
#128=EDGE_LOOP('',(#736));
#129=EDGE_LOOP('',(#737,#738,#739,#740));
#130=EDGE_LOOP('',(#741));
#131=EDGE_LOOP('',(#742));
#132=EDGE_LOOP('',(#743,#744,#745,#746));
#133=EDGE_LOOP('',(#747,#748,#749,#750));
#134=EDGE_LOOP('',(#751));
#135=EDGE_LOOP('',(#752));
#136=EDGE_LOOP('',(#753,#754,#755,#756));
#137=EDGE_LOOP('',(#757,#758,#759,#760));
#138=EDGE_LOOP('',(#761,#762,#763,#764));
#139=EDGE_LOOP('',(#765,#766,#767,#768));
#140=EDGE_LOOP('',(#769,#770));
#141=CIRCLE('',#871,2.55);
#142=CIRCLE('',#882,1.5);
#143=CIRCLE('',#890,1.5);
#144=CIRCLE('',#896,1.5);
#145=CIRCLE('',#898,1.5);
#146=CIRCLE('',#901,2.55);
#147=CIRCLE('',#905,1.5);
#148=CIRCLE('',#906,1.5);
#149=CIRCLE('',#910,2.55);
#150=CIRCLE('',#916,3.);
#151=CIRCLE('',#917,1.5);
#152=CIRCLE('',#919,3.);
#153=CIRCLE('',#921,3.);
#154=CIRCLE('',#922,1.5);
#155=CIRCLE('',#924,3.);
#156=CIRCLE('',#930,2.55);
#157=LINE('',#1160,#255);
#158=LINE('',#1164,#256);
#159=LINE('',#1166,#257);
#160=LINE('',#1168,#258);
#161=LINE('',#1169,#259);
#162=LINE('',#1173,#260);
#163=LINE('',#1175,#261);
#164=LINE('',#1177,#262);
#165=LINE('',#1178,#263);
#166=LINE('',#1181,#264);
#167=LINE('',#1183,#265);
#168=LINE('',#1184,#266);
#169=LINE('',#1188,#267);
#170=LINE('',#1189,#268);
#171=LINE('',#1190,#269);
#172=LINE('',#1194,#270);
#173=LINE('',#1196,#271);
#174=LINE('',#1198,#272);
#175=LINE('',#1199,#273);
#176=LINE('',#1202,#274);
#177=LINE('',#1204,#275);
#178=LINE('',#1205,#276);
#179=LINE('',#1208,#277);
#180=LINE('',#1210,#278);
#181=LINE('',#1211,#279);
#182=LINE('',#1214,#280);
#183=LINE('',#1216,#281);
#184=LINE('',#1217,#282);
#185=LINE('',#1220,#283);
#186=LINE('',#1222,#284);
#187=LINE('',#1223,#285);
#188=LINE('',#1225,#286);
#189=LINE('',#1226,#287);
#190=LINE('',#1233,#288);
#191=LINE('',#1235,#289);
#192=LINE('',#1237,#290);
#193=LINE('',#1238,#291);
#194=LINE('',#1241,#292);
#195=LINE('',#1243,#293);
#196=LINE('',#1244,#294);
#197=LINE('',#1247,#295);
#198=LINE('',#1249,#296);
#199=LINE('',#1250,#297);
#200=LINE('',#1253,#298);
#201=LINE('',#1255,#299);
#202=LINE('',#1256,#300);
#203=LINE('',#1259,#301);
#204=LINE('',#1261,#302);
#205=LINE('',#1262,#303);
#206=LINE('',#1264,#304);
#207=LINE('',#1265,#305);
#208=LINE('',#1271,#306);
#209=LINE('',#1273,#307);
#210=LINE('',#1274,#308);
#211=LINE('',#1277,#309);
#212=LINE('',#1278,#310);
#213=LINE('',#1280,#311);
#214=LINE('',#1282,#312);
#215=LINE('',#1283,#313);
#216=LINE('',#1285,#314);
#217=LINE('',#1289,#315);
#218=LINE('',#1293,#316);
#219=LINE('',#1295,#317);
#220=LINE('',#1298,#318);
#221=LINE('',#1301,#319);
#222=LINE('',#1303,#320);
#223=LINE('',#1308,#321);
#224=LINE('',#1310,#322);
#225=LINE('',#1312,#323);
#226=LINE('',#1314,#324);
#227=LINE('',#1316,#325);
#228=LINE('',#1318,#326);
#229=LINE('',#1320,#327);
#230=LINE('',#1322,#328);
#231=LINE('',#1324,#329);
#232=LINE('',#1326,#330);
#233=LINE('',#1328,#331);
#234=LINE('',#1329,#332);
#235=LINE('',#1336,#333);
#236=LINE('',#1338,#334);
#237=LINE('',#1339,#335);
#238=LINE('',#1342,#336);
#239=LINE('',#1344,#337);
#240=LINE('',#1345,#338);
#241=LINE('',#1348,#339);
#242=LINE('',#1349,#340);
#243=LINE('',#1353,#341);
#244=LINE('',#1354,#342);
#245=LINE('',#1357,#343);
#246=LINE('',#1358,#344);
#247=LINE('',#1360,#345);
#248=LINE('',#1362,#346);
#249=LINE('',#1363,#347);
#250=LINE('',#1373,#348);
#251=LINE('',#1382,#349);
#252=LINE('',#1384,#350);
#253=LINE('',#1386,#351);
#254=LINE('',#1388,#352);
#255=VECTOR('',#936,10.);
#256=VECTOR('',#939,10.);
#257=VECTOR('',#940,10.);
#258=VECTOR('',#941,10.);
#259=VECTOR('',#942,10.);
#260=VECTOR('',#945,10.);
#261=VECTOR('',#946,10.);
#262=VECTOR('',#947,10.);
#263=VECTOR('',#948,10.);
#264=VECTOR('',#951,10.);
#265=VECTOR('',#952,10.);
#266=VECTOR('',#953,10.);
#267=VECTOR('',#956,10.);
#268=VECTOR('',#957,10.);
#269=VECTOR('',#958,10.);
#270=VECTOR('',#961,10.);
#271=VECTOR('',#962,10.);
#272=VECTOR('',#963,10.);
#273=VECTOR('',#964,10.);
#274=VECTOR('',#967,10.);
#275=VECTOR('',#968,10.);
#276=VECTOR('',#969,10.);
#277=VECTOR('',#972,10.);
#278=VECTOR('',#973,10.);
#279=VECTOR('',#974,10.);
#280=VECTOR('',#977,10.);
#281=VECTOR('',#978,10.);
#282=VECTOR('',#979,10.);
#283=VECTOR('',#982,10.);
#284=VECTOR('',#983,10.);
#285=VECTOR('',#984,10.);
#286=VECTOR('',#987,10.);
#287=VECTOR('',#988,10.);
#288=VECTOR('',#995,10.);
#289=VECTOR('',#996,10.);
#290=VECTOR('',#997,10.);
#291=VECTOR('',#998,10.);
#292=VECTOR('',#1001,10.);
#293=VECTOR('',#1002,10.);
#294=VECTOR('',#1003,10.);
#295=VECTOR('',#1006,10.);
#296=VECTOR('',#1007,10.);
#297=VECTOR('',#1008,10.);
#298=VECTOR('',#1011,10.);
#299=VECTOR('',#1012,10.);
#300=VECTOR('',#1013,10.);
#301=VECTOR('',#1016,10.);
#302=VECTOR('',#1017,10.);
#303=VECTOR('',#1018,10.);
#304=VECTOR('',#1021,10.);
#305=VECTOR('',#1022,10.);
#306=VECTOR('',#1029,10.);
#307=VECTOR('',#1030,10.);
#308=VECTOR('',#1031,10.);
#309=VECTOR('',#1034,10.);
#310=VECTOR('',#1035,10.);
#311=VECTOR('',#1038,10.);
#312=VECTOR('',#1039,10.);
#313=VECTOR('',#1040,10.);
#314=VECTOR('',#1043,10.);
#315=VECTOR('',#1048,1.5);
#316=VECTOR('',#1053,1.5);
#317=VECTOR('',#1056,10.);
#318=VECTOR('',#1059,10.);
#319=VECTOR('',#1062,10.);
#320=VECTOR('',#1065,10.);
#321=VECTOR('',#1070,10.);
#322=VECTOR('',#1071,10.);
#323=VECTOR('',#1072,10.);
#324=VECTOR('',#1073,10.);
#325=VECTOR('',#1074,10.);
#326=VECTOR('',#1075,10.);
#327=VECTOR('',#1076,10.);
#328=VECTOR('',#1077,10.);
#329=VECTOR('',#1078,10.);
#330=VECTOR('',#1079,10.);
#331=VECTOR('',#1080,10.);
#332=VECTOR('',#1081,10.);
#333=VECTOR('',#1088,10.);
#334=VECTOR('',#1089,10.);
#335=VECTOR('',#1090,10.);
#336=VECTOR('',#1093,10.);
#337=VECTOR('',#1094,10.);
#338=VECTOR('',#1095,10.);
#339=VECTOR('',#1098,10.);
#340=VECTOR('',#1099,10.);
#341=VECTOR('',#1104,10.);
#342=VECTOR('',#1105,10.);
#343=VECTOR('',#1108,10.);
#344=VECTOR('',#1109,10.);
#345=VECTOR('',#1112,10.);
#346=VECTOR('',#1113,10.);
#347=VECTOR('',#1114,10.);
#348=VECTOR('',#1127,3.);
#349=VECTOR('',#1138,3.);
#350=VECTOR('',#1141,10.);
#351=VECTOR('',#1144,1.5);
#352=VECTOR('',#1147,1.5);
#353=VERTEX_POINT('',#1158);
#354=VERTEX_POINT('',#1159);
#355=VERTEX_POINT('',#1161);
#356=VERTEX_POINT('',#1163);
#357=VERTEX_POINT('',#1165);
#358=VERTEX_POINT('',#1167);
#359=VERTEX_POINT('',#1171);
#360=VERTEX_POINT('',#1172);
#361=VERTEX_POINT('',#1174);
#362=VERTEX_POINT('',#1176);
#363=VERTEX_POINT('',#1180);
#364=VERTEX_POINT('',#1182);
#365=VERTEX_POINT('',#1186);
#366=VERTEX_POINT('',#1187);
#367=VERTEX_POINT('',#1192);
#368=VERTEX_POINT('',#1193);
#369=VERTEX_POINT('',#1195);
#370=VERTEX_POINT('',#1197);
#371=VERTEX_POINT('',#1201);
#372=VERTEX_POINT('',#1203);
#373=VERTEX_POINT('',#1207);
#374=VERTEX_POINT('',#1209);
#375=VERTEX_POINT('',#1213);
#376=VERTEX_POINT('',#1215);
#377=VERTEX_POINT('',#1219);
#378=VERTEX_POINT('',#1221);
#379=VERTEX_POINT('',#1228);
#380=VERTEX_POINT('',#1231);
#381=VERTEX_POINT('',#1232);
#382=VERTEX_POINT('',#1234);
#383=VERTEX_POINT('',#1236);
#384=VERTEX_POINT('',#1240);
#385=VERTEX_POINT('',#1242);
#386=VERTEX_POINT('',#1246);
#387=VERTEX_POINT('',#1248);
#388=VERTEX_POINT('',#1252);
#389=VERTEX_POINT('',#1254);
#390=VERTEX_POINT('',#1258);
#391=VERTEX_POINT('',#1260);
#392=VERTEX_POINT('',#1267);
#393=VERTEX_POINT('',#1270);
#394=VERTEX_POINT('',#1272);
#395=VERTEX_POINT('',#1276);
#396=VERTEX_POINT('',#1281);
#397=VERTEX_POINT('',#1287);
#398=VERTEX_POINT('',#1291);
#399=VERTEX_POINT('',#1297);
#400=VERTEX_POINT('',#1299);
#401=VERTEX_POINT('',#1306);
#402=VERTEX_POINT('',#1307);
#403=VERTEX_POINT('',#1309);
#404=VERTEX_POINT('',#1311);
#405=VERTEX_POINT('',#1313);
#406=VERTEX_POINT('',#1315);
#407=VERTEX_POINT('',#1317);
#408=VERTEX_POINT('',#1319);
#409=VERTEX_POINT('',#1321);
#410=VERTEX_POINT('',#1323);
#411=VERTEX_POINT('',#1325);
#412=VERTEX_POINT('',#1327);
#413=VERTEX_POINT('',#1330);
#414=VERTEX_POINT('',#1332);
#415=VERTEX_POINT('',#1335);
#416=VERTEX_POINT('',#1337);
#417=VERTEX_POINT('',#1341);
#418=VERTEX_POINT('',#1343);
#419=VERTEX_POINT('',#1347);
#420=VERTEX_POINT('',#1352);
#421=VERTEX_POINT('',#1356);
#422=VERTEX_POINT('',#1361);
#423=VERTEX_POINT('',#1366);
#424=VERTEX_POINT('',#1368);
#425=VERTEX_POINT('',#1371);
#426=VERTEX_POINT('',#1375);
#427=VERTEX_POINT('',#1377);
#428=VERTEX_POINT('',#1380);
#429=EDGE_CURVE('',#353,#354,#157,.T.);
#430=EDGE_CURVE('',#353,#355,#141,.T.);
#431=EDGE_CURVE('',#356,#355,#158,.T.);
#432=EDGE_CURVE('',#356,#357,#159,.T.);
#433=EDGE_CURVE('',#357,#358,#160,.T.);
#434=EDGE_CURVE('',#358,#354,#161,.T.);
#435=EDGE_CURVE('',#359,#360,#162,.T.);
#436=EDGE_CURVE('',#361,#359,#163,.T.);
#437=EDGE_CURVE('',#361,#362,#164,.T.);
#438=EDGE_CURVE('',#360,#362,#165,.T.);
#439=EDGE_CURVE('',#363,#361,#166,.T.);
#440=EDGE_CURVE('',#363,#364,#167,.T.);
#441=EDGE_CURVE('',#362,#364,#168,.T.);
#442=EDGE_CURVE('',#365,#366,#169,.T.);
#443=EDGE_CURVE('',#364,#365,#170,.T.);
#444=EDGE_CURVE('',#366,#363,#171,.T.);
#445=EDGE_CURVE('',#367,#368,#172,.T.);
#446=EDGE_CURVE('',#367,#369,#173,.T.);
#447=EDGE_CURVE('',#369,#370,#174,.T.);
#448=EDGE_CURVE('',#368,#370,#175,.T.);
#449=EDGE_CURVE('',#371,#367,#176,.T.);
#450=EDGE_CURVE('',#371,#372,#177,.T.);
#451=EDGE_CURVE('',#372,#369,#178,.T.);
#452=EDGE_CURVE('',#373,#371,#179,.T.);
#453=EDGE_CURVE('',#373,#374,#180,.T.);
#454=EDGE_CURVE('',#374,#372,#181,.T.);
#455=EDGE_CURVE('',#375,#373,#182,.T.);
#456=EDGE_CURVE('',#375,#376,#183,.T.);
#457=EDGE_CURVE('',#376,#374,#184,.T.);
#458=EDGE_CURVE('',#377,#375,#185,.T.);
#459=EDGE_CURVE('',#377,#378,#186,.T.);
#460=EDGE_CURVE('',#378,#376,#187,.T.);
#461=EDGE_CURVE('',#368,#377,#188,.T.);
#462=EDGE_CURVE('',#370,#378,#189,.T.);
#463=EDGE_CURVE('',#379,#379,#142,.T.);
#464=EDGE_CURVE('',#380,#381,#190,.T.);
#465=EDGE_CURVE('',#380,#382,#191,.T.);
#466=EDGE_CURVE('',#382,#383,#192,.T.);
#467=EDGE_CURVE('',#381,#383,#193,.T.);
#468=EDGE_CURVE('',#384,#380,#194,.T.);
#469=EDGE_CURVE('',#384,#385,#195,.T.);
#470=EDGE_CURVE('',#385,#382,#196,.T.);
#471=EDGE_CURVE('',#386,#384,#197,.T.);
#472=EDGE_CURVE('',#386,#387,#198,.T.);
#473=EDGE_CURVE('',#387,#385,#199,.T.);
#474=EDGE_CURVE('',#388,#386,#200,.T.);
#475=EDGE_CURVE('',#388,#389,#201,.T.);
#476=EDGE_CURVE('',#389,#387,#202,.T.);
#477=EDGE_CURVE('',#390,#388,#203,.T.);
#478=EDGE_CURVE('',#390,#391,#204,.T.);
#479=EDGE_CURVE('',#391,#389,#205,.T.);
#480=EDGE_CURVE('',#381,#390,#206,.T.);
#481=EDGE_CURVE('',#383,#391,#207,.T.);
#482=EDGE_CURVE('',#392,#392,#143,.T.);
#483=EDGE_CURVE('',#354,#393,#208,.T.);
#484=EDGE_CURVE('',#394,#358,#209,.T.);
#485=EDGE_CURVE('',#393,#394,#210,.T.);
#486=EDGE_CURVE('',#394,#395,#211,.T.);
#487=EDGE_CURVE('',#395,#357,#212,.T.);
#488=EDGE_CURVE('',#393,#359,#213,.T.);
#489=EDGE_CURVE('',#395,#396,#214,.T.);
#490=EDGE_CURVE('',#366,#396,#215,.T.);
#491=EDGE_CURVE('',#360,#365,#216,.T.);
#492=EDGE_CURVE('',#397,#397,#144,.T.);
#493=EDGE_CURVE('',#397,#392,#217,.T.);
#494=EDGE_CURVE('',#398,#398,#145,.T.);
#495=EDGE_CURVE('',#398,#379,#218,.T.);
#496=EDGE_CURVE('',#396,#356,#219,.T.);
#497=EDGE_CURVE('',#399,#353,#220,.T.);
#498=EDGE_CURVE('',#399,#400,#146,.T.);
#499=EDGE_CURVE('',#355,#400,#221,.T.);
#500=EDGE_CURVE('',#400,#399,#222,.T.);
#501=EDGE_CURVE('',#401,#402,#223,.T.);
#502=EDGE_CURVE('',#403,#401,#224,.T.);
#503=EDGE_CURVE('',#404,#403,#225,.T.);
#504=EDGE_CURVE('',#405,#404,#226,.T.);
#505=EDGE_CURVE('',#406,#405,#227,.T.);
#506=EDGE_CURVE('',#407,#406,#228,.T.);
#507=EDGE_CURVE('',#408,#407,#229,.T.);
#508=EDGE_CURVE('',#409,#408,#230,.T.);
#509=EDGE_CURVE('',#410,#409,#231,.T.);
#510=EDGE_CURVE('',#411,#410,#232,.T.);
#511=EDGE_CURVE('',#412,#411,#233,.T.);
#512=EDGE_CURVE('',#402,#412,#234,.T.);
#513=EDGE_CURVE('',#413,#413,#147,.T.);
#514=EDGE_CURVE('',#414,#414,#148,.T.);
#515=EDGE_CURVE('',#415,#406,#235,.T.);
#516=EDGE_CURVE('',#415,#416,#236,.T.);
#517=EDGE_CURVE('',#407,#416,#237,.T.);
#518=EDGE_CURVE('',#417,#404,#238,.T.);
#519=EDGE_CURVE('',#418,#417,#239,.T.);
#520=EDGE_CURVE('',#405,#418,#240,.T.);
#521=EDGE_CURVE('',#416,#419,#241,.T.);
#522=EDGE_CURVE('',#419,#412,#242,.T.);
#523=EDGE_CURVE('',#411,#408,#149,.T.);
#524=EDGE_CURVE('',#403,#420,#243,.T.);
#525=EDGE_CURVE('',#420,#417,#244,.T.);
#526=EDGE_CURVE('',#421,#401,#245,.T.);
#527=EDGE_CURVE('',#420,#421,#246,.T.);
#528=EDGE_CURVE('',#418,#421,#247,.T.);
#529=EDGE_CURVE('',#402,#422,#248,.T.);
#530=EDGE_CURVE('',#422,#415,#249,.T.);
#531=EDGE_CURVE('',#423,#423,#150,.T.);
#532=EDGE_CURVE('',#424,#424,#151,.T.);
#533=EDGE_CURVE('',#425,#425,#152,.T.);
#534=EDGE_CURVE('',#425,#423,#250,.T.);
#535=EDGE_CURVE('',#426,#426,#153,.T.);
#536=EDGE_CURVE('',#427,#427,#154,.T.);
#537=EDGE_CURVE('',#428,#428,#155,.T.);
#538=EDGE_CURVE('',#428,#426,#251,.T.);
#539=EDGE_CURVE('',#422,#419,#252,.T.);
#540=EDGE_CURVE('',#427,#414,#253,.T.);
#541=EDGE_CURVE('',#424,#413,#254,.T.);
#542=EDGE_CURVE('',#410,#409,#156,.T.);
#543=ORIENTED_EDGE('',*,*,#429,.F.);
#544=ORIENTED_EDGE('',*,*,#430,.T.);
#545=ORIENTED_EDGE('',*,*,#431,.F.);
#546=ORIENTED_EDGE('',*,*,#432,.T.);
#547=ORIENTED_EDGE('',*,*,#433,.T.);
#548=ORIENTED_EDGE('',*,*,#434,.T.);
#549=ORIENTED_EDGE('',*,*,#435,.F.);
#550=ORIENTED_EDGE('',*,*,#436,.F.);
#551=ORIENTED_EDGE('',*,*,#437,.T.);
#552=ORIENTED_EDGE('',*,*,#438,.F.);
#553=ORIENTED_EDGE('',*,*,#439,.F.);
#554=ORIENTED_EDGE('',*,*,#440,.T.);
#555=ORIENTED_EDGE('',*,*,#441,.F.);
#556=ORIENTED_EDGE('',*,*,#437,.F.);
#557=ORIENTED_EDGE('',*,*,#442,.F.);
#558=ORIENTED_EDGE('',*,*,#443,.F.);
#559=ORIENTED_EDGE('',*,*,#440,.F.);
#560=ORIENTED_EDGE('',*,*,#444,.F.);
#561=ORIENTED_EDGE('',*,*,#445,.F.);
#562=ORIENTED_EDGE('',*,*,#446,.T.);
#563=ORIENTED_EDGE('',*,*,#447,.T.);
#564=ORIENTED_EDGE('',*,*,#448,.F.);
#565=ORIENTED_EDGE('',*,*,#449,.F.);
#566=ORIENTED_EDGE('',*,*,#450,.T.);
#567=ORIENTED_EDGE('',*,*,#451,.T.);
#568=ORIENTED_EDGE('',*,*,#446,.F.);
#569=ORIENTED_EDGE('',*,*,#452,.F.);
#570=ORIENTED_EDGE('',*,*,#453,.T.);
#571=ORIENTED_EDGE('',*,*,#454,.T.);
#572=ORIENTED_EDGE('',*,*,#450,.F.);
#573=ORIENTED_EDGE('',*,*,#455,.F.);
#574=ORIENTED_EDGE('',*,*,#456,.T.);
#575=ORIENTED_EDGE('',*,*,#457,.T.);
#576=ORIENTED_EDGE('',*,*,#453,.F.);
#577=ORIENTED_EDGE('',*,*,#458,.F.);
#578=ORIENTED_EDGE('',*,*,#459,.T.);
#579=ORIENTED_EDGE('',*,*,#460,.T.);
#580=ORIENTED_EDGE('',*,*,#456,.F.);
#581=ORIENTED_EDGE('',*,*,#461,.F.);
#582=ORIENTED_EDGE('',*,*,#448,.T.);
#583=ORIENTED_EDGE('',*,*,#462,.T.);
#584=ORIENTED_EDGE('',*,*,#459,.F.);
#585=ORIENTED_EDGE('',*,*,#462,.F.);
#586=ORIENTED_EDGE('',*,*,#447,.F.);
#587=ORIENTED_EDGE('',*,*,#451,.F.);
#588=ORIENTED_EDGE('',*,*,#454,.F.);
#589=ORIENTED_EDGE('',*,*,#457,.F.);
#590=ORIENTED_EDGE('',*,*,#460,.F.);
#591=ORIENTED_EDGE('',*,*,#463,.F.);
#592=ORIENTED_EDGE('',*,*,#464,.F.);
#593=ORIENTED_EDGE('',*,*,#465,.T.);
#594=ORIENTED_EDGE('',*,*,#466,.T.);
#595=ORIENTED_EDGE('',*,*,#467,.F.);
#596=ORIENTED_EDGE('',*,*,#468,.F.);
#597=ORIENTED_EDGE('',*,*,#469,.T.);
#598=ORIENTED_EDGE('',*,*,#470,.T.);
#599=ORIENTED_EDGE('',*,*,#465,.F.);
#600=ORIENTED_EDGE('',*,*,#471,.F.);
#601=ORIENTED_EDGE('',*,*,#472,.T.);
#602=ORIENTED_EDGE('',*,*,#473,.T.);
#603=ORIENTED_EDGE('',*,*,#469,.F.);
#604=ORIENTED_EDGE('',*,*,#474,.F.);
#605=ORIENTED_EDGE('',*,*,#475,.T.);
#606=ORIENTED_EDGE('',*,*,#476,.T.);
#607=ORIENTED_EDGE('',*,*,#472,.F.);
#608=ORIENTED_EDGE('',*,*,#477,.F.);
#609=ORIENTED_EDGE('',*,*,#478,.T.);
#610=ORIENTED_EDGE('',*,*,#479,.T.);
#611=ORIENTED_EDGE('',*,*,#475,.F.);
#612=ORIENTED_EDGE('',*,*,#480,.F.);
#613=ORIENTED_EDGE('',*,*,#467,.T.);
#614=ORIENTED_EDGE('',*,*,#481,.T.);
#615=ORIENTED_EDGE('',*,*,#478,.F.);
#616=ORIENTED_EDGE('',*,*,#481,.F.);
#617=ORIENTED_EDGE('',*,*,#466,.F.);
#618=ORIENTED_EDGE('',*,*,#470,.F.);
#619=ORIENTED_EDGE('',*,*,#473,.F.);
#620=ORIENTED_EDGE('',*,*,#476,.F.);
#621=ORIENTED_EDGE('',*,*,#479,.F.);
#622=ORIENTED_EDGE('',*,*,#482,.F.);
#623=ORIENTED_EDGE('',*,*,#483,.F.);
#624=ORIENTED_EDGE('',*,*,#434,.F.);
#625=ORIENTED_EDGE('',*,*,#484,.F.);
#626=ORIENTED_EDGE('',*,*,#485,.F.);
#627=ORIENTED_EDGE('',*,*,#486,.F.);
#628=ORIENTED_EDGE('',*,*,#484,.T.);
#629=ORIENTED_EDGE('',*,*,#433,.F.);
#630=ORIENTED_EDGE('',*,*,#487,.F.);
#631=ORIENTED_EDGE('',*,*,#445,.T.);
#632=ORIENTED_EDGE('',*,*,#461,.T.);
#633=ORIENTED_EDGE('',*,*,#458,.T.);
#634=ORIENTED_EDGE('',*,*,#455,.T.);
#635=ORIENTED_EDGE('',*,*,#452,.T.);
#636=ORIENTED_EDGE('',*,*,#449,.T.);
#637=ORIENTED_EDGE('',*,*,#464,.T.);
#638=ORIENTED_EDGE('',*,*,#480,.T.);
#639=ORIENTED_EDGE('',*,*,#477,.T.);
#640=ORIENTED_EDGE('',*,*,#474,.T.);
#641=ORIENTED_EDGE('',*,*,#471,.T.);
#642=ORIENTED_EDGE('',*,*,#468,.T.);
#643=ORIENTED_EDGE('',*,*,#488,.F.);
#644=ORIENTED_EDGE('',*,*,#485,.T.);
#645=ORIENTED_EDGE('',*,*,#486,.T.);
#646=ORIENTED_EDGE('',*,*,#489,.T.);
#647=ORIENTED_EDGE('',*,*,#490,.F.);
#648=ORIENTED_EDGE('',*,*,#444,.T.);
#649=ORIENTED_EDGE('',*,*,#439,.T.);
#650=ORIENTED_EDGE('',*,*,#436,.T.);
#651=ORIENTED_EDGE('',*,*,#491,.F.);
#652=ORIENTED_EDGE('',*,*,#438,.T.);
#653=ORIENTED_EDGE('',*,*,#441,.T.);
#654=ORIENTED_EDGE('',*,*,#443,.T.);
#655=ORIENTED_EDGE('',*,*,#492,.F.);
#656=ORIENTED_EDGE('',*,*,#493,.T.);
#657=ORIENTED_EDGE('',*,*,#482,.T.);
#658=ORIENTED_EDGE('',*,*,#493,.F.);
#659=ORIENTED_EDGE('',*,*,#494,.F.);
#660=ORIENTED_EDGE('',*,*,#495,.T.);
#661=ORIENTED_EDGE('',*,*,#463,.T.);
#662=ORIENTED_EDGE('',*,*,#495,.F.);
#663=ORIENTED_EDGE('',*,*,#496,.F.);
#664=ORIENTED_EDGE('',*,*,#489,.F.);
#665=ORIENTED_EDGE('',*,*,#487,.T.);
#666=ORIENTED_EDGE('',*,*,#432,.F.);
#667=ORIENTED_EDGE('',*,*,#497,.F.);
#668=ORIENTED_EDGE('',*,*,#498,.T.);
#669=ORIENTED_EDGE('',*,*,#499,.F.);
#670=ORIENTED_EDGE('',*,*,#430,.F.);
#671=ORIENTED_EDGE('',*,*,#500,.F.);
#672=ORIENTED_EDGE('',*,*,#498,.F.);
#673=ORIENTED_EDGE('',*,*,#490,.T.);
#674=ORIENTED_EDGE('',*,*,#496,.T.);
#675=ORIENTED_EDGE('',*,*,#431,.T.);
#676=ORIENTED_EDGE('',*,*,#499,.T.);
#677=ORIENTED_EDGE('',*,*,#500,.T.);
#678=ORIENTED_EDGE('',*,*,#497,.T.);
#679=ORIENTED_EDGE('',*,*,#429,.T.);
#680=ORIENTED_EDGE('',*,*,#483,.T.);
#681=ORIENTED_EDGE('',*,*,#488,.T.);
#682=ORIENTED_EDGE('',*,*,#435,.T.);
#683=ORIENTED_EDGE('',*,*,#491,.T.);
#684=ORIENTED_EDGE('',*,*,#442,.T.);
#685=ORIENTED_EDGE('',*,*,#494,.T.);
#686=ORIENTED_EDGE('',*,*,#492,.T.);
#687=ORIENTED_EDGE('',*,*,#501,.F.);
#688=ORIENTED_EDGE('',*,*,#502,.F.);
#689=ORIENTED_EDGE('',*,*,#503,.F.);
#690=ORIENTED_EDGE('',*,*,#504,.F.);
#691=ORIENTED_EDGE('',*,*,#505,.F.);
#692=ORIENTED_EDGE('',*,*,#506,.F.);
#693=ORIENTED_EDGE('',*,*,#507,.F.);
#694=ORIENTED_EDGE('',*,*,#508,.F.);
#695=ORIENTED_EDGE('',*,*,#509,.F.);
#696=ORIENTED_EDGE('',*,*,#510,.F.);
#697=ORIENTED_EDGE('',*,*,#511,.F.);
#698=ORIENTED_EDGE('',*,*,#512,.F.);
#699=ORIENTED_EDGE('',*,*,#513,.F.);
#700=ORIENTED_EDGE('',*,*,#514,.F.);
#701=ORIENTED_EDGE('',*,*,#506,.T.);
#702=ORIENTED_EDGE('',*,*,#515,.F.);
#703=ORIENTED_EDGE('',*,*,#516,.T.);
#704=ORIENTED_EDGE('',*,*,#517,.F.);
#705=ORIENTED_EDGE('',*,*,#504,.T.);
#706=ORIENTED_EDGE('',*,*,#518,.F.);
#707=ORIENTED_EDGE('',*,*,#519,.F.);
#708=ORIENTED_EDGE('',*,*,#520,.F.);
#709=ORIENTED_EDGE('',*,*,#507,.T.);
#710=ORIENTED_EDGE('',*,*,#517,.T.);
#711=ORIENTED_EDGE('',*,*,#521,.T.);
#712=ORIENTED_EDGE('',*,*,#522,.T.);
#713=ORIENTED_EDGE('',*,*,#511,.T.);
#714=ORIENTED_EDGE('',*,*,#523,.T.);
#715=ORIENTED_EDGE('',*,*,#503,.T.);
#716=ORIENTED_EDGE('',*,*,#524,.T.);
#717=ORIENTED_EDGE('',*,*,#525,.T.);
#718=ORIENTED_EDGE('',*,*,#518,.T.);
#719=ORIENTED_EDGE('',*,*,#502,.T.);
#720=ORIENTED_EDGE('',*,*,#526,.F.);
#721=ORIENTED_EDGE('',*,*,#527,.F.);
#722=ORIENTED_EDGE('',*,*,#524,.F.);
#723=ORIENTED_EDGE('',*,*,#505,.T.);
#724=ORIENTED_EDGE('',*,*,#520,.T.);
#725=ORIENTED_EDGE('',*,*,#528,.T.);
#726=ORIENTED_EDGE('',*,*,#526,.T.);
#727=ORIENTED_EDGE('',*,*,#501,.T.);
#728=ORIENTED_EDGE('',*,*,#529,.T.);
#729=ORIENTED_EDGE('',*,*,#530,.T.);
#730=ORIENTED_EDGE('',*,*,#515,.T.);
#731=ORIENTED_EDGE('',*,*,#528,.F.);
#732=ORIENTED_EDGE('',*,*,#519,.T.);
#733=ORIENTED_EDGE('',*,*,#525,.F.);
#734=ORIENTED_EDGE('',*,*,#527,.T.);
#735=ORIENTED_EDGE('',*,*,#531,.F.);
#736=ORIENTED_EDGE('',*,*,#532,.T.);
#737=ORIENTED_EDGE('',*,*,#533,.F.);
#738=ORIENTED_EDGE('',*,*,#534,.T.);
#739=ORIENTED_EDGE('',*,*,#531,.T.);
#740=ORIENTED_EDGE('',*,*,#534,.F.);
#741=ORIENTED_EDGE('',*,*,#535,.F.);
#742=ORIENTED_EDGE('',*,*,#536,.T.);
#743=ORIENTED_EDGE('',*,*,#537,.F.);
#744=ORIENTED_EDGE('',*,*,#538,.T.);
#745=ORIENTED_EDGE('',*,*,#535,.T.);
#746=ORIENTED_EDGE('',*,*,#538,.F.);
#747=ORIENTED_EDGE('',*,*,#530,.F.);
#748=ORIENTED_EDGE('',*,*,#539,.T.);
#749=ORIENTED_EDGE('',*,*,#521,.F.);
#750=ORIENTED_EDGE('',*,*,#516,.F.);
#751=ORIENTED_EDGE('',*,*,#533,.T.);
#752=ORIENTED_EDGE('',*,*,#537,.T.);
#753=ORIENTED_EDGE('',*,*,#536,.F.);
#754=ORIENTED_EDGE('',*,*,#540,.T.);
#755=ORIENTED_EDGE('',*,*,#514,.T.);
#756=ORIENTED_EDGE('',*,*,#540,.F.);
#757=ORIENTED_EDGE('',*,*,#532,.F.);
#758=ORIENTED_EDGE('',*,*,#541,.T.);
#759=ORIENTED_EDGE('',*,*,#513,.T.);
#760=ORIENTED_EDGE('',*,*,#541,.F.);
#761=ORIENTED_EDGE('',*,*,#512,.T.);
#762=ORIENTED_EDGE('',*,*,#522,.F.);
#763=ORIENTED_EDGE('',*,*,#539,.F.);
#764=ORIENTED_EDGE('',*,*,#529,.F.);
#765=ORIENTED_EDGE('',*,*,#508,.T.);
#766=ORIENTED_EDGE('',*,*,#523,.F.);
#767=ORIENTED_EDGE('',*,*,#510,.T.);
#768=ORIENTED_EDGE('',*,*,#542,.T.);
#769=ORIENTED_EDGE('',*,*,#509,.T.);
#770=ORIENTED_EDGE('',*,*,#542,.F.);
#771=PLANE('',#870);
#772=PLANE('',#872);
#773=PLANE('',#873);
#774=PLANE('',#874);
#775=PLANE('',#875);
#776=PLANE('',#876);
#777=PLANE('',#877);
#778=PLANE('',#878);
#779=PLANE('',#879);
#780=PLANE('',#880);
#781=PLANE('',#881);
#782=PLANE('',#883);
#783=PLANE('',#884);
#784=PLANE('',#885);
#785=PLANE('',#886);
#786=PLANE('',#887);
#787=PLANE('',#888);
#788=PLANE('',#889);
#789=PLANE('',#891);
#790=PLANE('',#892);
#791=PLANE('',#893);
#792=PLANE('',#894);
#793=PLANE('',#899);
#794=PLANE('',#902);
#795=PLANE('',#903);
#796=PLANE('',#904);
#797=PLANE('',#907);
#798=PLANE('',#908);
#799=PLANE('',#909);
#800=PLANE('',#911);
#801=PLANE('',#912);
#802=PLANE('',#913);
#803=PLANE('',#914);
#804=PLANE('',#915);
#805=PLANE('',#920);
#806=PLANE('',#925);
#807=PLANE('',#928);
#808=PLANE('',#931);
#809=ADVANCED_FACE('',(#37),#771,.T.);
#810=ADVANCED_FACE('',(#38),#772,.T.);
#811=ADVANCED_FACE('',(#39),#773,.T.);
#812=ADVANCED_FACE('',(#40),#774,.T.);
#813=ADVANCED_FACE('',(#41),#775,.F.);
#814=ADVANCED_FACE('',(#42),#776,.F.);
#815=ADVANCED_FACE('',(#43),#777,.F.);
#816=ADVANCED_FACE('',(#44),#778,.F.);
#817=ADVANCED_FACE('',(#45),#779,.F.);
#818=ADVANCED_FACE('',(#46),#780,.F.);
#819=ADVANCED_FACE('',(#47,#25),#781,.T.);
#820=ADVANCED_FACE('',(#48),#782,.F.);
#821=ADVANCED_FACE('',(#49),#783,.F.);
#822=ADVANCED_FACE('',(#50),#784,.F.);
#823=ADVANCED_FACE('',(#51),#785,.F.);
#824=ADVANCED_FACE('',(#52),#786,.F.);
#825=ADVANCED_FACE('',(#53),#787,.F.);
#826=ADVANCED_FACE('',(#54,#26),#788,.T.);
#827=ADVANCED_FACE('',(#55),#789,.T.);
#828=ADVANCED_FACE('',(#56,#27,#28),#790,.T.);
#829=ADVANCED_FACE('',(#57),#791,.F.);
#830=ADVANCED_FACE('',(#58),#792,.T.);
#831=ADVANCED_FACE('',(#59),#17,.F.);
#832=ADVANCED_FACE('',(#60),#18,.F.);
#833=ADVANCED_FACE('',(#61),#793,.T.);
#834=ADVANCED_FACE('',(#62),#19,.F.);
#835=ADVANCED_FACE('',(#63),#794,.T.);
#836=ADVANCED_FACE('',(#64,#29,#30),#795,.T.);
#837=ADVANCED_FACE('',(#65,#31,#32),#796,.F.);
#838=ADVANCED_FACE('',(#66),#797,.T.);
#839=ADVANCED_FACE('',(#67),#798,.T.);
#840=ADVANCED_FACE('',(#68),#799,.T.);
#841=ADVANCED_FACE('',(#69),#800,.T.);
#842=ADVANCED_FACE('',(#70),#801,.T.);
#843=ADVANCED_FACE('',(#71),#802,.F.);
#844=ADVANCED_FACE('',(#72),#803,.T.);
#845=ADVANCED_FACE('',(#73,#33),#804,.F.);
#846=ADVANCED_FACE('',(#74),#20,.F.);
#847=ADVANCED_FACE('',(#75,#34),#805,.F.);
#848=ADVANCED_FACE('',(#76),#21,.F.);
#849=ADVANCED_FACE('',(#77,#35,#36),#806,.T.);
#850=ADVANCED_FACE('',(#78),#22,.F.);
#851=ADVANCED_FACE('',(#79),#23,.F.);
#852=ADVANCED_FACE('',(#80),#807,.T.);
#853=ADVANCED_FACE('',(#81),#24,.F.);
#854=ADVANCED_FACE('',(#82),#808,.T.);
#855=CLOSED_SHELL('',(#809,#810,#811,#812,#813,#814,#815,#816,#817,#818,
#819,#820,#821,#822,#823,#824,#825,#826,#827,#828,#829,#830,#831,#832,#833,
#834,#835,#836));
#856=CLOSED_SHELL('',(#837,#838,#839,#840,#841,#842,#843,#844,#845,#846,
#847,#848,#849,#850,#851,#852,#853,#854));
#857=DERIVED_UNIT_ELEMENT(#859,1.);
#858=DERIVED_UNIT_ELEMENT(#1398,-3.);
#859=(
MASS_UNIT()
NAMED_UNIT(*)
SI_UNIT(.KILO.,.GRAM.)
);
#860=DERIVED_UNIT((#857,#858));
#861=MEASURE_REPRESENTATION_ITEM('density measure',
POSITIVE_RATIO_MEASURE(1171.75),#860);
#862=PROPERTY_DEFINITION_REPRESENTATION(#867,#864);
#863=PROPERTY_DEFINITION_REPRESENTATION(#868,#865);
#864=REPRESENTATION('material name',(#866),#1395);
#865=REPRESENTATION('density',(#861),#1395);
#866=DESCRIPTIVE_REPRESENTATION_ITEM(
'PA 11 - Nylon- HP 11-30 (with EOS P 396 3D Printer)',
'PA 11 - Nylon- HP 11-30 (with EOS P 396 3D Printer)');
#867=PROPERTY_DEFINITION('material property','material name',#1405);
#868=PROPERTY_DEFINITION('material property','density of part',#1405);
#869=AXIS2_PLACEMENT_3D('',#1156,#932,#933);
#870=AXIS2_PLACEMENT_3D('',#1157,#934,#935);
#871=AXIS2_PLACEMENT_3D('',#1162,#937,#938);
#872=AXIS2_PLACEMENT_3D('',#1170,#943,#944);
#873=AXIS2_PLACEMENT_3D('',#1179,#949,#950);
#874=AXIS2_PLACEMENT_3D('',#1185,#954,#955);
#875=AXIS2_PLACEMENT_3D('',#1191,#959,#960);
#876=AXIS2_PLACEMENT_3D('',#1200,#965,#966);
#877=AXIS2_PLACEMENT_3D('',#1206,#970,#971);
#878=AXIS2_PLACEMENT_3D('',#1212,#975,#976);
#879=AXIS2_PLACEMENT_3D('',#1218,#980,#981);
#880=AXIS2_PLACEMENT_3D('',#1224,#985,#986);
#881=AXIS2_PLACEMENT_3D('',#1227,#989,#990);
#882=AXIS2_PLACEMENT_3D('',#1229,#991,#992);
#883=AXIS2_PLACEMENT_3D('',#1230,#993,#994);
#884=AXIS2_PLACEMENT_3D('',#1239,#999,#1000);
#885=AXIS2_PLACEMENT_3D('',#1245,#1004,#1005);
#886=AXIS2_PLACEMENT_3D('',#1251,#1009,#1010);
#887=AXIS2_PLACEMENT_3D('',#1257,#1014,#1015);
#888=AXIS2_PLACEMENT_3D('',#1263,#1019,#1020);
#889=AXIS2_PLACEMENT_3D('',#1266,#1023,#1024);
#890=AXIS2_PLACEMENT_3D('',#1268,#1025,#1026);
#891=AXIS2_PLACEMENT_3D('',#1269,#1027,#1028);
#892=AXIS2_PLACEMENT_3D('',#1275,#1032,#1033);
#893=AXIS2_PLACEMENT_3D('',#1279,#1036,#1037);
#894=AXIS2_PLACEMENT_3D('',#1284,#1041,#1042);
#895=AXIS2_PLACEMENT_3D('',#1286,#1044,#1045);
#896=AXIS2_PLACEMENT_3D('',#1288,#1046,#1047);
#897=AXIS2_PLACEMENT_3D('',#1290,#1049,#1050);
#898=AXIS2_PLACEMENT_3D('',#1292,#1051,#1052);
#899=AXIS2_PLACEMENT_3D('',#1294,#1054,#1055);
#900=AXIS2_PLACEMENT_3D('',#1296,#1057,#1058);
#901=AXIS2_PLACEMENT_3D('',#1300,#1060,#1061);
#902=AXIS2_PLACEMENT_3D('',#1302,#1063,#1064);
#903=AXIS2_PLACEMENT_3D('',#1304,#1066,#1067);
#904=AXIS2_PLACEMENT_3D('',#1305,#1068,#1069);
#905=AXIS2_PLACEMENT_3D('',#1331,#1082,#1083);
#906=AXIS2_PLACEMENT_3D('',#1333,#1084,#1085);
#907=AXIS2_PLACEMENT_3D('',#1334,#1086,#1087);
#908=AXIS2_PLACEMENT_3D('',#1340,#1091,#1092);
#909=AXIS2_PLACEMENT_3D('',#1346,#1096,#1097);
#910=AXIS2_PLACEMENT_3D('',#1350,#1100,#1101);
#911=AXIS2_PLACEMENT_3D('',#1351,#1102,#1103);
#912=AXIS2_PLACEMENT_3D('',#1355,#1106,#1107);
#913=AXIS2_PLACEMENT_3D('',#1359,#1110,#1111);
#914=AXIS2_PLACEMENT_3D('',#1364,#1115,#1116);
#915=AXIS2_PLACEMENT_3D('',#1365,#1117,#1118);
#916=AXIS2_PLACEMENT_3D('',#1367,#1119,#1120);
#917=AXIS2_PLACEMENT_3D('',#1369,#1121,#1122);
#918=AXIS2_PLACEMENT_3D('',#1370,#1123,#1124);
#919=AXIS2_PLACEMENT_3D('',#1372,#1125,#1126);
#920=AXIS2_PLACEMENT_3D('',#1374,#1128,#1129);
#921=AXIS2_PLACEMENT_3D('',#1376,#1130,#1131);
#922=AXIS2_PLACEMENT_3D('',#1378,#1132,#1133);
#923=AXIS2_PLACEMENT_3D('',#1379,#1134,#1135);
#924=AXIS2_PLACEMENT_3D('',#1381,#1136,#1137);
#925=AXIS2_PLACEMENT_3D('',#1383,#1139,#1140);
#926=AXIS2_PLACEMENT_3D('',#1385,#1142,#1143);
#927=AXIS2_PLACEMENT_3D('',#1387,#1145,#1146);
#928=AXIS2_PLACEMENT_3D('',#1389,#1148,#1149);
#929=AXIS2_PLACEMENT_3D('',#1390,#1150,#1151);
#930=AXIS2_PLACEMENT_3D('',#1391,#1152,#1153);
#931=AXIS2_PLACEMENT_3D('',#1392,#1154,#1155);
#932=DIRECTION('axis',(0.,0.,1.));
#933=DIRECTION('refdir',(1.,0.,0.));
#934=DIRECTION('center_axis',(0.,0.,-1.));
#935=DIRECTION('ref_axis',(1.,0.,0.));
#936=DIRECTION('',(-1.,0.,0.));
#937=DIRECTION('center_axis',(0.,0.,1.));
#938=DIRECTION('ref_axis',(1.,0.,0.));
#939=DIRECTION('',(-1.,0.,0.));
#940=DIRECTION('',(-1.26882631385732E-16,-1.,0.));
#941=DIRECTION('',(-1.,-1.26882631385732E-16,0.));
#942=DIRECTION('',(1.26882631385732E-16,1.,0.));
#943=DIRECTION('center_axis',(-1.,-8.5401771125012E-17,0.));
#944=DIRECTION('ref_axis',(-8.5401771125012E-17,1.,0.));
#945=DIRECTION('',(0.,0.,1.));
#946=DIRECTION('',(-8.5401771125012E-17,1.,0.));
#947=DIRECTION('',(0.,0.,1.));
#948=DIRECTION('',(8.5401771125012E-17,-1.,0.));
#949=DIRECTION('center_axis',(-8.5401771125012E-17,-1.,0.));
#950=DIRECTION('ref_axis',(-1.,8.5401771125012E-17,0.));
#951=DIRECTION('',(-1.,8.5401771125012E-17,0.));
#952=DIRECTION('',(0.,0.,1.));
#953=DIRECTION('',(1.,-8.5401771125012E-17,0.));
#954=DIRECTION('center_axis',(1.,1.70803542250024E-16,0.));
#955=DIRECTION('ref_axis',(1.70803542250024E-16,-1.,0.));
#956=DIRECTION('',(0.,0.,-1.));
#957=DIRECTION('',(-1.70803542250024E-16,1.,0.));
#958=DIRECTION('',(1.70803542250024E-16,-1.,0.));
#959=DIRECTION('center_axis',(0.500000051619138,0.,0.866025373982114));
#960=DIRECTION('ref_axis',(0.866025373982114,0.,-0.500000051619138));
#961=DIRECTION('',(0.866025373982114,1.09883578297663E-16,-0.500000051619138));
#962=DIRECTION('',(0.,1.,0.));
#963=DIRECTION('',(0.866025373982114,0.,-0.500000051619138));
#964=DIRECTION('',(0.,1.,0.));
#965=DIRECTION('center_axis',(-0.499999948380861,0.,0.866025433586761));
#966=DIRECTION('ref_axis',(0.866025433586761,0.,0.499999948380861));
#967=DIRECTION('',(0.866025433586761,1.09883585860458E-16,0.499999948380861));
#968=DIRECTION('',(0.,1.,0.));
#969=DIRECTION('',(0.866025433586761,0.,0.499999948380861));
#970=DIRECTION('center_axis',(-0.999999999999998,0.,5.96046472768091E-8));
#971=DIRECTION('ref_axis',(5.96046472768091E-8,0.,0.999999999999998));
#972=DIRECTION('',(5.96046472768091E-8,7.56279448929995E-24,0.999999999999998));
#973=DIRECTION('',(0.,1.,0.));
#974=DIRECTION('',(5.96046472768091E-8,0.,0.999999999999998));
#975=DIRECTION('center_axis',(-0.500000051619138,0.,-0.866025373982114));
#976=DIRECTION('ref_axis',(-0.866025373982114,0.,0.500000051619138));
#977=DIRECTION('',(-0.866025373982114,-1.09883578297663E-16,0.500000051619138));
#978=DIRECTION('',(0.,1.,0.));
#979=DIRECTION('',(-0.866025373982114,0.,0.500000051619138));
#980=DIRECTION('center_axis',(0.49999994838086,0.,-0.866025433586761));
#981=DIRECTION('ref_axis',(-0.866025433586761,0.,-0.49999994838086));
#982=DIRECTION('',(-0.866025433586761,-1.09883585860458E-16,-0.49999994838086));
#983=DIRECTION('',(0.,1.,0.));
#984=DIRECTION('',(-0.866025433586761,0.,-0.49999994838086));
#985=DIRECTION('center_axis',(0.999999999999998,0.,-5.9604647105116E-8));
#986=DIRECTION('ref_axis',(-5.9604647105116E-8,0.,-0.999999999999998));
#987=DIRECTION('',(-5.9604647105116E-8,-7.56279446751508E-24,-0.999999999999998));
#988=DIRECTION('',(-5.9604647105116E-8,0.,-0.999999999999998));
#989=DIRECTION('center_axis',(0.,-1.,0.));
#990=DIRECTION('ref_axis',(1.,0.,0.));
#991=DIRECTION('center_axis',(0.,-1.,0.));
#992=DIRECTION('ref_axis',(0.,0.,1.));
#993=DIRECTION('center_axis',(-0.500086277345356,0.,0.865975585805318));
#994=DIRECTION('ref_axis',(0.865975585805318,0.,0.500086277345356));
#995=DIRECTION('',(0.865975585805318,1.0987726104278E-16,0.500086277345356));
#996=DIRECTION('',(0.,1.,0.));
#997=DIRECTION('',(0.865975585805318,0.,0.500086277345356));
#998=DIRECTION('',(0.,1.,0.));
#999=DIRECTION('center_axis',(-0.999999995037194,0.,-9.96273624099101E-5));
#1000=DIRECTION('ref_axis',(-9.96273624099101E-5,0.,0.999999995037194));
#1001=DIRECTION('',(-9.96273624099101E-5,-1.26409819005894E-20,0.999999995037194));
#1002=DIRECTION('',(0.,1.,0.));
#1003=DIRECTION('',(-9.96273624099101E-5,0.,0.999999995037194));
#1004=DIRECTION('center_axis',(-0.499913717691838,0.,-0.866075213167728));
#1005=DIRECTION('ref_axis',(-0.866075213167728,0.,0.499913717691838));
#1006=DIRECTION('',(-0.866075213167728,-1.0988990202468E-16,0.499913717691838));
#1007=DIRECTION('',(0.,1.,0.));
#1008=DIRECTION('',(-0.866075213167728,0.,0.499913717691838));
#1009=DIRECTION('center_axis',(0.500086277345356,0.,-0.865975585805318));
#1010=DIRECTION('ref_axis',(-0.865975585805318,0.,-0.500086277345356));
#1011=DIRECTION('',(-0.865975585805318,-1.0987726104278E-16,-0.500086277345356));
#1012=DIRECTION('',(0.,1.,0.));
#1013=DIRECTION('',(-0.865975585805318,0.,-0.500086277345356));
#1014=DIRECTION('center_axis',(0.999999995037194,0.,9.96273624099101E-5));
#1015=DIRECTION('ref_axis',(9.96273624099101E-5,0.,-0.999999995037194));
#1016=DIRECTION('',(9.96273624099101E-5,1.26409819005894E-20,-0.999999995037194));
#1017=DIRECTION('',(0.,1.,0.));
#1018=DIRECTION('',(9.96273624099101E-5,0.,-0.999999995037194));
#1019=DIRECTION('center_axis',(0.499913717691838,0.,0.866075213167728));
#1020=DIRECTION('ref_axis',(0.866075213167728,0.,-0.499913717691838));
#1021=DIRECTION('',(0.866075213167728,1.0988990202468E-16,-0.499913717691838));
#1022=DIRECTION('',(0.866075213167728,0.,-0.499913717691838));
#1023=DIRECTION('center_axis',(0.,-1.,0.));
#1024=DIRECTION('ref_axis',(1.,0.,0.));
#1025=DIRECTION('center_axis',(0.,-1.,0.));
#1026=DIRECTION('ref_axis',(0.,0.,1.));
#1027=DIRECTION('center_axis',(-1.,1.26882631385732E-16,0.));
#1028=DIRECTION('ref_axis',(1.26882631385732E-16,1.,0.));
#1029=DIRECTION('',(0.,0.,1.));
#1030=DIRECTION('',(0.,0.,-1.));
#1031=DIRECTION('',(-1.26882631385732E-16,-1.,0.));
#1032=DIRECTION('center_axis',(1.26882631385732E-16,-1.,0.));
#1033=DIRECTION('ref_axis',(-1.,-1.26882631385732E-16,0.));
#1034=DIRECTION('',(1.,1.26882631385732E-16,0.));
#1035=DIRECTION('',(0.,0.,-1.));
#1036=DIRECTION('center_axis',(0.,0.,-1.));
#1037=DIRECTION('ref_axis',(1.,0.,0.));
#1038=DIRECTION('',(1.,0.,0.));
#1039=DIRECTION('',(1.26882631385732E-16,1.,0.));
#1040=DIRECTION('',(1.,0.,0.));
#1041=DIRECTION('center_axis',(0.,0.,1.));
#1042=DIRECTION('ref_axis',(1.,0.,0.));
#1043=DIRECTION('',(1.,0.,0.));
#1044=DIRECTION('center_axis',(0.,-1.,0.));
#1045=DIRECTION('ref_axis',(0.,0.,1.));
#1046=DIRECTION('center_axis',(0.,-1.,0.));
#1047=DIRECTION('ref_axis',(0.,0.,1.));
#1048=DIRECTION('',(0.,-1.,0.));
#1049=DIRECTION('center_axis',(0.,-1.,0.));
#1050=DIRECTION('ref_axis',(0.,0.,1.));
#1051=DIRECTION('center_axis',(0.,-1.,0.));
#1052=DIRECTION('ref_axis',(0.,0.,1.));
#1053=DIRECTION('',(0.,-1.,0.));
#1054=DIRECTION('center_axis',(1.,-1.26882631385732E-16,0.));
#1055=DIRECTION('ref_axis',(-1.26882631385732E-16,-1.,0.));
#1056=DIRECTION('',(0.,0.,-1.));
#1057=DIRECTION('center_axis',(0.,0.,-1.));
#1058=DIRECTION('ref_axis',(1.,0.,0.));
#1059=DIRECTION('',(0.,0.,-1.));
#1060=DIRECTION('center_axis',(0.,0.,1.));
#1061=DIRECTION('ref_axis',(1.,0.,0.));
#1062=DIRECTION('',(0.,0.,1.));
#1063=DIRECTION('center_axis',(0.,0.,-1.));
#1064=DIRECTION('ref_axis',(-1.,0.,0.));
#1065=DIRECTION('',(-1.,0.,0.));
#1066=DIRECTION('center_axis',(0.,1.,0.));
#1067=DIRECTION('ref_axis',(0.,0.,1.));
#1068=DIRECTION('center_axis',(0.,1.,0.));
#1069=DIRECTION('ref_axis',(0.,0.,1.));
#1070=DIRECTION('',(1.,0.,0.));
#1071=DIRECTION('',(0.,0.,-1.));
#1072=DIRECTION('',(1.,0.,0.));
#1073=DIRECTION('',(0.,0.,1.));
#1074=DIRECTION('',(1.,0.,0.));
#1075=DIRECTION('',(0.,0.,1.));
#1076=DIRECTION('',(-1.,0.,0.));
#1077=DIRECTION('',(0.,0.,-1.));
#1078=DIRECTION('',(-1.,0.,0.));
#1079=DIRECTION('',(0.,0.,1.));
#1080=DIRECTION('',(-1.,0.,0.));
#1081=DIRECTION('',(0.,0.,-1.));
#1082=DIRECTION('center_axis',(0.,-1.,0.));
#1083=DIRECTION('ref_axis',(0.,0.,1.));
#1084=DIRECTION('center_axis',(0.,-1.,0.));
#1085=DIRECTION('ref_axis',(0.,0.,1.));
#1086=DIRECTION('center_axis',(-1.,1.26882631385732E-16,0.));
#1087=DIRECTION('ref_axis',(1.26882631385732E-16,1.,0.));
#1088=DIRECTION('',(-1.26882631385732E-16,-1.,0.));
#1089=DIRECTION('',(0.,0.,-1.));
#1090=DIRECTION('',(1.26882631385732E-16,1.,0.));
#1091=DIRECTION('center_axis',(-1.,-8.5401771125012E-17,0.));
#1092=DIRECTION('ref_axis',(-8.5401771125012E-17,1.,0.));
#1093=DIRECTION('',(8.5401771125012E-17,-1.,0.));
#1094=DIRECTION('',(0.,0.,1.));
#1095=DIRECTION('',(-8.5401771125012E-17,1.,0.));
#1096=DIRECTION('center_axis',(0.,0.,-1.));
#1097=DIRECTION('ref_axis',(1.,0.,0.));
#1098=DIRECTION('',(1.,0.,0.));
#1099=DIRECTION('',(-1.26882631385732E-16,-1.,0.));
#1100=DIRECTION('center_axis',(0.,0.,1.));
#1101=DIRECTION('ref_axis',(1.,0.,0.));
#1102=DIRECTION('center_axis',(0.,0.,1.));
#1103=DIRECTION('ref_axis',(1.,0.,0.));
#1104=DIRECTION('',(-1.70803542250024E-16,1.,0.));
#1105=DIRECTION('',(-1.,0.,0.));
#1106=DIRECTION('center_axis',(1.,1.70803542250024E-16,0.));
#1107=DIRECTION('ref_axis',(1.70803542250024E-16,-1.,0.));
#1108=DIRECTION('',(1.70803542250024E-16,-1.,0.));
#1109=DIRECTION('',(0.,0.,-1.));
#1110=DIRECTION('center_axis',(0.,0.,-1.));
#1111=DIRECTION('ref_axis',(1.,0.,0.));
#1112=DIRECTION('',(1.,0.,0.));
#1113=DIRECTION('',(1.26882631385732E-16,1.,0.));
#1114=DIRECTION('',(-1.,0.,0.));
#1115=DIRECTION('center_axis',(0.,1.,0.));
#1116=DIRECTION('ref_axis',(1.,0.,0.));
#1117=DIRECTION('center_axis',(0.,-1.,0.));
#1118=DIRECTION('ref_axis',(0.,0.,1.));
#1119=DIRECTION('center_axis',(0.,-1.,0.));
#1120=DIRECTION('ref_axis',(0.,0.,1.));
#1121=DIRECTION('center_axis',(0.,-1.,0.));
#1122=DIRECTION('ref_axis',(0.,0.,1.));
#1123=DIRECTION('center_axis',(0.,-1.,0.));
#1124=DIRECTION('ref_axis',(0.,0.,1.));
#1125=DIRECTION('center_axis',(0.,-1.,0.));
#1126=DIRECTION('ref_axis',(0.,0.,1.));
#1127=DIRECTION('',(0.,-1.,0.));
#1128=DIRECTION('center_axis',(0.,-1.,0.));
#1129=DIRECTION('ref_axis',(0.,0.,1.));
#1130=DIRECTION('center_axis',(0.,-1.,0.));
#1131=DIRECTION('ref_axis',(0.,0.,1.));
#1132=DIRECTION('center_axis',(0.,-1.,0.));
#1133=DIRECTION('ref_axis',(0.,0.,1.));
#1134=DIRECTION('center_axis',(0.,-1.,0.));
#1135=DIRECTION('ref_axis',(0.,0.,1.));
#1136=DIRECTION('center_axis',(0.,-1.,0.));
#1137=DIRECTION('ref_axis',(0.,0.,1.));
#1138=DIRECTION('',(0.,-1.,0.));
#1139=DIRECTION('center_axis',(0.,1.,0.));
#1140=DIRECTION('ref_axis',(1.,0.,0.));
#1141=DIRECTION('',(0.,0.,-1.));
#1142=DIRECTION('center_axis',(0.,-1.,0.));
#1143=DIRECTION('ref_axis',(0.,0.,1.));
#1144=DIRECTION('',(0.,-1.,0.));
#1145=DIRECTION('center_axis',(0.,-1.,0.));
#1146=DIRECTION('ref_axis',(0.,0.,1.));
#1147=DIRECTION('',(0.,-1.,0.));
#1148=DIRECTION('center_axis',(1.,-1.26882631385732E-16,0.));
#1149=DIRECTION('ref_axis',(-1.26882631385732E-16,-1.,0.));
#1150=DIRECTION('center_axis',(0.,0.,-1.));
#1151=DIRECTION('ref_axis',(1.,0.,0.));
#1152=DIRECTION('center_axis',(0.,0.,1.));
#1153=DIRECTION('ref_axis',(1.,0.,0.));
#1154=DIRECTION('center_axis',(0.,0.,-1.));
#1155=DIRECTION('ref_axis',(-1.,0.,0.));
#1156=CARTESIAN_POINT('',(0.,0.,0.));
#1157=CARTESIAN_POINT('Origin',(-5.56221735337203E-12,1.52322598978571E-12,
-12.));
#1158=CARTESIAN_POINT('',(-2.55,2.36269684509109E-14,-12.));
#1159=CARTESIAN_POINT('',(-8.75000000000556,0.,-12.));
#1160=CARTESIAN_POINT('',(-5.56193979761588E-12,0.,-12.));
#1161=CARTESIAN_POINT('',(2.55,0.,-12.));
#1162=CARTESIAN_POINT('Origin',(-4.44089209850063E-15,2.33146835171283E-14,
-12.));
#1163=CARTESIAN_POINT('',(8.74999999999444,0.,-12.));
#1164=CARTESIAN_POINT('',(-5.56193979761588E-12,0.,-12.));
#1165=CARTESIAN_POINT('',(8.74999999999444,-8.74999999999848,-12.));
#1166=CARTESIAN_POINT('',(8.74999999999444,-8.74999999999848,-12.));
#1167=CARTESIAN_POINT('',(-8.75000000000556,-8.74999999999848,-12.));
#1168=CARTESIAN_POINT('',(-8.75000000000556,-8.74999999999848,-12.));
#1169=CARTESIAN_POINT('',(-8.75000000000556,8.75000000000152,-12.));
#1170=CARTESIAN_POINT('Origin',(-3.25,-3.25,3.6));
#1171=CARTESIAN_POINT('',(-3.25,0.,0.));
#1172=CARTESIAN_POINT('',(-3.25,0.,5.6));
#1173=CARTESIAN_POINT('',(-3.25,0.,0.2));
#1174=CARTESIAN_POINT('',(-3.25,-3.25,0.));
#1175=CARTESIAN_POINT('',(-3.25,-1.62499999999924,0.));
#1176=CARTESIAN_POINT('',(-3.25,-3.25,5.6));
#1177=CARTESIAN_POINT('',(-3.25,-3.25,3.6));
#1178=CARTESIAN_POINT('',(-3.25,-3.25,5.6));
#1179=CARTESIAN_POINT('Origin',(3.25,-3.25,3.6));
#1180=CARTESIAN_POINT('',(3.25,-3.25,0.));
#1181=CARTESIAN_POINT('',(1.62499999999722,-3.25,0.));
#1182=CARTESIAN_POINT('',(3.25,-3.25,5.6));
#1183=CARTESIAN_POINT('',(3.25,-3.25,3.6));
#1184=CARTESIAN_POINT('',(3.25,-3.25,5.6));
#1185=CARTESIAN_POINT('Origin',(3.25,3.25,3.6));
#1186=CARTESIAN_POINT('',(3.25,0.,5.6));
#1187=CARTESIAN_POINT('',(3.25,0.,0.));
#1188=CARTESIAN_POINT('',(3.25,0.,0.2));
#1189=CARTESIAN_POINT('',(3.25,3.25,5.6));
#1190=CARTESIAN_POINT('',(3.25,1.62500000000076,0.));
#1191=CARTESIAN_POINT('Origin',(-4.99999980728299,-8.74999999999848,-2.7668384925381));
#1192=CARTESIAN_POINT('',(-4.99999980728299,-8.74999999999848,-2.7668384925381));
#1193=CARTESIAN_POINT('',(-2.19999990363872,-8.74999999999848,-4.38341941316206));
#1194=CARTESIAN_POINT('',(-0.442788381341303,-8.74999999999848,-5.39794609823423));
#1195=CARTESIAN_POINT('',(-4.99999980728299,-5.74999999999848,-2.7668384925381));
#1196=CARTESIAN_POINT('',(-4.99999980728299,-8.74999999999848,-2.7668384925381));
#1197=CARTESIAN_POINT('',(-2.19999990363872,-5.74999999999848,-4.38341941316206));
#1198=CARTESIAN_POINT('',(-2.19999990363872,-5.74999999999848,-4.38341941316206));
#1199=CARTESIAN_POINT('',(-2.19999990363872,-8.74999999999848,-4.38341941316206));
#1200=CARTESIAN_POINT('Origin',(-7.79999990363871,-8.74999999999848,-4.38341907937604));
#1201=CARTESIAN_POINT('',(-7.79999990363871,-8.74999999999848,-4.38341907937604));
#1202=CARTESIAN_POINT('',(-0.644711508402708,-8.74999999999848,-0.25231196690836));
#1203=CARTESIAN_POINT('',(-7.79999990363871,-5.74999999999848,-4.38341907937604));
#1204=CARTESIAN_POINT('',(-7.79999990363871,-8.74999999999848,-4.38341907937604));
#1205=CARTESIAN_POINT('',(-4.99999980728299,-5.74999999999848,-2.7668384925381));
#1206=CARTESIAN_POINT('Origin',(-7.80000009635016,-8.74999999999848,-7.61658058683794));
#1207=CARTESIAN_POINT('',(-7.80000009635016,-8.74999999999848,-7.61658058683794));
#1208=CARTESIAN_POINT('',(-7.79999986935833,-8.74999999999848,-3.80828980019052));
#1209=CARTESIAN_POINT('',(-7.80000009635016,-5.74999999999848,-7.61658058683794));
#1210=CARTESIAN_POINT('',(-7.80000009635016,-8.74999999999848,-7.61658058683794));
#1211=CARTESIAN_POINT('',(-7.79999990363871,-5.74999999999848,-4.38341907937604));
#1212=CARTESIAN_POINT('Origin',(-5.00000019270589,-8.74999999999848,-9.2331615074619));
#1213=CARTESIAN_POINT('',(-5.00000019270589,-8.74999999999848,-9.2331615074619));
#1214=CARTESIAN_POINT('',(-1.84278871858634,-8.74999999999848,-11.055978652846));
#1215=CARTESIAN_POINT('',(-5.00000019270589,-5.74999999999848,-9.2331615074619));
#1216=CARTESIAN_POINT('',(-5.00000019270589,-8.74999999999848,-9.2331615074619));
#1217=CARTESIAN_POINT('',(-7.80000009635016,-5.74999999999848,-7.61658058683794));
#1218=CARTESIAN_POINT('Origin',(-2.20000009635017,-8.74999999999848,-7.61658092062396));
#1219=CARTESIAN_POINT('',(-2.20000009635017,-8.74999999999848,-7.61658092062396));
#1220=CARTESIAN_POINT('',(3.55528825070797,-8.74999999999848,-4.29376410157525));
#1221=CARTESIAN_POINT('',(-2.20000009635017,-5.74999999999848,-7.61658092062396));
#1222=CARTESIAN_POINT('',(-2.20000009635017,-8.74999999999848,-7.61658092062396));
#1223=CARTESIAN_POINT('',(-5.00000019270589,-5.74999999999848,-9.2331615074619));
#1224=CARTESIAN_POINT('Origin',(-2.19999990363872,-8.74999999999848,-4.38341941316206));
#1225=CARTESIAN_POINT('',(-2.19999977300262,-8.74999999999848,-2.1917093802456));
#1226=CARTESIAN_POINT('',(-2.20000009635017,-5.74999999999848,-7.61658092062396));
#1227=CARTESIAN_POINT('Origin',(-4.99999999999444,-5.74999999999848,-6.));
#1228=CARTESIAN_POINT('',(-4.99999999999444,-5.74999999999848,-7.5));
#1229=CARTESIAN_POINT('Origin',(-4.99999999999444,-5.74999999999848,-6.));
#1230=CARTESIAN_POINT('Origin',(2.19983895821368,-8.74999999999848,-4.38369821090657));
#1231=CARTESIAN_POINT('',(2.19983895821368,-8.74999999999848,-4.38369821090657));
#1232=CARTESIAN_POINT('',(4.9996778886412,-8.74999999999848,-2.76683850858365));
#1233=CARTESIAN_POINT('',(5.60507442777296,-8.74999999999848,-2.41723223037591));
#1234=CARTESIAN_POINT('',(2.19983895821368,-5.74999999999848,-4.38369821090657));
#1235=CARTESIAN_POINT('',(2.19983895821368,-8.74999999999848,-4.38369821090657));
#1236=CARTESIAN_POINT('',(4.9996778886412,-5.74999999999848,-2.76683850858365));
#1237=CARTESIAN_POINT('',(4.9996778886412,-5.74999999999848,-2.76683850858365));
#1238=CARTESIAN_POINT('',(4.9996778886412,-8.74999999999848,-2.76683850858365));
#1239=CARTESIAN_POINT('Origin',(2.20016106956691,-8.74999999999848,-7.61685970232292));
#1240=CARTESIAN_POINT('',(2.20016106956691,-8.74999999999848,-7.61685970232292));
#1241=CARTESIAN_POINT('',(2.19978167825338,-8.74999999999848,-3.80875616054926));
#1242=CARTESIAN_POINT('',(2.20016106956691,-5.74999999999848,-7.61685970232292));
#1243=CARTESIAN_POINT('',(2.20016106956691,-8.74999999999848,-7.61685970232292));
#1244=CARTESIAN_POINT('',(2.19983895821368,-5.74999999999848,-4.38369821090657));
#1245=CARTESIAN_POINT('Origin',(5.00032211134767,-8.74999999999848,-9.23316149141635));
#1246=CARTESIAN_POINT('',(5.00032211134767,-8.74999999999848,-9.23316149141635));
#1247=CARTESIAN_POINT('',(4.4078049774253,-8.74999999999848,-8.8911502680125));
#1248=CARTESIAN_POINT('',(5.00032211134767,-5.74999999999848,-9.23316149141635));
#1249=CARTESIAN_POINT('',(5.00032211134767,-8.74999999999848,-9.23316149141635));
#1250=CARTESIAN_POINT('',(2.20016106956691,-5.74999999999848,-7.61685970232292));
#1251=CARTESIAN_POINT('Origin',(7.8001610417752,-8.74999999999848,-7.61630178909343));
#1252=CARTESIAN_POINT('',(7.8001610417752,-8.74999999999848,-7.61630178909343));
#1253=CARTESIAN_POINT('',(9.80547704612072,-8.74999999999848,-6.45826565972423));
#1254=CARTESIAN_POINT('',(7.8001610417752,-5.74999999999848,-7.61630178909343));
#1255=CARTESIAN_POINT('',(7.8001610417752,-8.74999999999848,-7.61630178909343));
#1256=CARTESIAN_POINT('',(5.00032211134767,-5.74999999999848,-9.23316149141635));
#1257=CARTESIAN_POINT('Origin',(7.79983893042197,-8.74999999999848,-4.38314029767708));
#1258=CARTESIAN_POINT('',(7.79983893042197,-8.74999999999848,-4.38314029767708));
#1259=CARTESIAN_POINT('',(7.79962059478505,-8.74999999999848,-2.19161750161159));
#1260=CARTESIAN_POINT('',(7.79983893042197,-5.74999999999848,-4.38314029767708));
#1261=CARTESIAN_POINT('',(7.79983893042197,-8.74999999999848,-4.38314029767708));
#1262=CARTESIAN_POINT('',(7.8001610417752,-5.74999999999848,-7.61630178909343));
#1263=CARTESIAN_POINT('Origin',(4.9996778886412,-8.74999999999848,-2.76683850858365));
#1264=CARTESIAN_POINT('',(5.80724127560921,-8.74999999999848,-3.23297817972651));
#1265=CARTESIAN_POINT('',(7.79983893042197,-5.74999999999848,-4.38314029767708));
#1266=CARTESIAN_POINT('Origin',(4.99999999999444,-5.74999999999848,-6.));
#1267=CARTESIAN_POINT('',(4.99999999999444,-5.74999999999848,-7.5));
#1268=CARTESIAN_POINT('Origin',(4.99999999999444,-5.74999999999848,-6.));
#1269=CARTESIAN_POINT('Origin',(-8.75000000000556,-8.74999999999848,0.));
#1270=CARTESIAN_POINT('',(-8.75000000000556,0.,0.));
#1271=CARTESIAN_POINT('',(-8.75000000000556,0.,-1.6));
#1272=CARTESIAN_POINT('',(-8.75000000000556,-8.74999999999848,0.));
#1273=CARTESIAN_POINT('',(-8.75000000000556,-8.74999999999848,0.));
#1274=CARTESIAN_POINT('',(-8.75000000000556,8.75000000000152,0.));
#1275=CARTESIAN_POINT('Origin',(8.74999999999444,-8.74999999999848,0.));
#1276=CARTESIAN_POINT('',(8.74999999999444,-8.74999999999848,0.));
#1277=CARTESIAN_POINT('',(-8.75000000000556,-8.74999999999848,0.));
#1278=CARTESIAN_POINT('',(8.74999999999444,-8.74999999999848,0.));
#1279=CARTESIAN_POINT('Origin',(-5.56221735337203E-12,1.52322598978571E-12,
0.));
#1280=CARTESIAN_POINT('',(-5.56193979761588E-12,0.,0.));
#1281=CARTESIAN_POINT('',(8.74999999999444,0.,0.));
#1282=CARTESIAN_POINT('',(8.74999999999444,-8.74999999999848,0.));
#1283=CARTESIAN_POINT('',(-5.56193979761588E-12,0.,0.));
#1284=CARTESIAN_POINT('Origin',(0.,-5.55111512312578E-16,5.6));
#1285=CARTESIAN_POINT('',(-2.78083112092986E-12,0.,5.6));
#1286=CARTESIAN_POINT('Origin',(4.99999999999444,-0.249999999998476,-6.));
#1287=CARTESIAN_POINT('',(4.99999999999444,0.,-7.5));
#1288=CARTESIAN_POINT('Origin',(4.99999999999444,0.,-6.));
#1289=CARTESIAN_POINT('',(4.99999999999444,-0.249999999998476,-7.5));
#1290=CARTESIAN_POINT('Origin',(-4.99999999999444,-0.249999999998476,-6.));
#1291=CARTESIAN_POINT('',(-4.99999999999444,0.,-7.5));
#1292=CARTESIAN_POINT('Origin',(-4.99999999999444,0.,-6.));
#1293=CARTESIAN_POINT('',(-4.99999999999444,-0.249999999998476,-7.5));
#1294=CARTESIAN_POINT('Origin',(8.74999999999444,8.75000000000152,0.));
#1295=CARTESIAN_POINT('',(8.74999999999444,0.,-1.6));
#1296=CARTESIAN_POINT('Origin',(-4.44089209850063E-15,2.33146835171283E-14,
0.));
#1297=CARTESIAN_POINT('',(-2.55,2.30023985833457E-14,-2.4));
#1298=CARTESIAN_POINT('',(-2.55,0.,0.));
#1299=CARTESIAN_POINT('',(2.55,0.,-2.4));
#1300=CARTESIAN_POINT('Origin',(-4.44089209850063E-15,2.33146835171283E-14,
-2.4));
#1301=CARTESIAN_POINT('',(2.55,0.,0.));
#1302=CARTESIAN_POINT('Origin',(0.,-5.55111512312578E-16,-2.4));
#1303=CARTESIAN_POINT('',(-2.78083112092986E-12,0.,-2.4));
#1304=CARTESIAN_POINT('Origin',(-5.56166224185972E-12,0.,-3.2));
#1305=CARTESIAN_POINT('Origin',(-5.56166224185972E-12,0.,-3.2));
#1306=CARTESIAN_POINT('',(3.25,0.,0.));
#1307=CARTESIAN_POINT('',(8.74999999999444,0.,0.));
#1308=CARTESIAN_POINT('',(-5.56193979761588E-12,0.,0.));
#1309=CARTESIAN_POINT('',(3.25,0.,5.6));
#1310=CARTESIAN_POINT('',(3.25,0.,0.2));
#1311=CARTESIAN_POINT('',(-3.25,0.,5.6));
#1312=CARTESIAN_POINT('',(-2.78083112092986E-12,0.,5.6));
#1313=CARTESIAN_POINT('',(-3.25,0.,0.));
#1314=CARTESIAN_POINT('',(-3.25,0.,0.2));
#1315=CARTESIAN_POINT('',(-8.75000000000556,0.,0.));
#1316=CARTESIAN_POINT('',(-5.56193979761588E-12,0.,0.));
#1317=CARTESIAN_POINT('',(-8.75000000000556,0.,-12.));
#1318=CARTESIAN_POINT('',(-8.75000000000556,0.,-1.6));
#1319=CARTESIAN_POINT('',(-2.55,2.36269684509109E-14,-12.));
#1320=CARTESIAN_POINT('',(-5.56193979761588E-12,0.,-12.));
#1321=CARTESIAN_POINT('',(-2.55,2.30023985833457E-14,-2.4));
#1322=CARTESIAN_POINT('',(-2.55,0.,0.));
#1323=CARTESIAN_POINT('',(2.55,0.,-2.4));
#1324=CARTESIAN_POINT('',(-2.78083112092986E-12,0.,-2.4));
#1325=CARTESIAN_POINT('',(2.55,0.,-12.));
#1326=CARTESIAN_POINT('',(2.55,0.,0.));
#1327=CARTESIAN_POINT('',(8.74999999999444,0.,-12.));
#1328=CARTESIAN_POINT('',(-5.56193979761588E-12,0.,-12.));
#1329=CARTESIAN_POINT('',(8.74999999999444,0.,-1.6));
#1330=CARTESIAN_POINT('',(4.99999999999444,0.,-7.5));
#1331=CARTESIAN_POINT('Origin',(4.99999999999444,0.,-6.));
#1332=CARTESIAN_POINT('',(-4.99999999999444,0.,-7.5));
#1333=CARTESIAN_POINT('Origin',(-4.99999999999444,0.,-6.));
#1334=CARTESIAN_POINT('Origin',(-8.75000000000556,-8.74999999999848,0.));
#1335=CARTESIAN_POINT('',(-8.75000000000556,8.75000000000152,0.));
#1336=CARTESIAN_POINT('',(-8.75000000000556,8.75000000000152,0.));
#1337=CARTESIAN_POINT('',(-8.75000000000556,8.75000000000152,-12.));
#1338=CARTESIAN_POINT('',(-8.75000000000556,8.75000000000152,0.));
#1339=CARTESIAN_POINT('',(-8.75000000000556,8.75000000000152,-12.));
#1340=CARTESIAN_POINT('Origin',(-3.25,-3.25,3.6));
#1341=CARTESIAN_POINT('',(-3.25,3.25,5.6));
#1342=CARTESIAN_POINT('',(-3.25,-3.25,5.6));
#1343=CARTESIAN_POINT('',(-3.25,3.25,0.));
#1344=CARTESIAN_POINT('',(-3.25,3.25,3.6));
#1345=CARTESIAN_POINT('',(-3.25,-1.62499999999924,0.));
#1346=CARTESIAN_POINT('Origin',(-5.56221735337203E-12,1.52322598978571E-12,
-12.));
#1347=CARTESIAN_POINT('',(8.74999999999444,8.75000000000152,-12.));
#1348=CARTESIAN_POINT('',(8.74999999999444,8.75000000000152,-12.));
#1349=CARTESIAN_POINT('',(8.74999999999444,-8.74999999999848,-12.));
#1350=CARTESIAN_POINT('Origin',(-4.44089209850063E-15,2.33146835171283E-14,
-12.));
#1351=CARTESIAN_POINT('Origin',(0.,-5.55111512312578E-16,5.6));
#1352=CARTESIAN_POINT('',(3.25,3.25,5.6));
#1353=CARTESIAN_POINT('',(3.25,3.25,5.6));
#1354=CARTESIAN_POINT('',(-3.25,3.25,5.6));
#1355=CARTESIAN_POINT('Origin',(3.25,3.25,3.6));
#1356=CARTESIAN_POINT('',(3.25,3.25,0.));
#1357=CARTESIAN_POINT('',(3.25,1.62500000000076,0.));
#1358=CARTESIAN_POINT('',(3.25,3.25,3.6));
#1359=CARTESIAN_POINT('Origin',(-5.56221735337203E-12,1.52322598978571E-12,
0.));
#1360=CARTESIAN_POINT('',(-1.62500000000278,3.25,0.));
#1361=CARTESIAN_POINT('',(8.74999999999444,8.75000000000152,0.));
#1362=CARTESIAN_POINT('',(8.74999999999444,-8.74999999999848,0.));
#1363=CARTESIAN_POINT('',(8.74999999999444,8.75000000000152,0.));
#1364=CARTESIAN_POINT('Origin',(-3.25,3.25,3.6));
#1365=CARTESIAN_POINT('Origin',(4.99999999999444,5.95000000000153,-6.));
#1366=CARTESIAN_POINT('',(4.99999999999444,5.95000000000153,-9.));
#1367=CARTESIAN_POINT('Origin',(4.99999999999444,5.95000000000153,-6.));
#1368=CARTESIAN_POINT('',(4.99999999999444,5.95000000000153,-7.5));
#1369=CARTESIAN_POINT('Origin',(4.99999999999444,5.95000000000153,-6.));
#1370=CARTESIAN_POINT('Origin',(4.99999999999444,7.35000000000152,-6.));
#1371=CARTESIAN_POINT('',(4.99999999999444,8.75000000000152,-9.));
#1372=CARTESIAN_POINT('Origin',(4.99999999999444,8.75000000000152,-6.));
#1373=CARTESIAN_POINT('',(4.99999999999444,7.35000000000152,-9.));
#1374=CARTESIAN_POINT('Origin',(-4.99999999999444,5.95000000000153,-6.));
#1375=CARTESIAN_POINT('',(-4.99999999999444,5.95000000000153,-9.));
#1376=CARTESIAN_POINT('Origin',(-4.99999999999444,5.95000000000153,-6.));
#1377=CARTESIAN_POINT('',(-4.99999999999444,5.95000000000153,-7.5));
#1378=CARTESIAN_POINT('Origin',(-4.99999999999444,5.95000000000153,-6.));
#1379=CARTESIAN_POINT('Origin',(-4.99999999999444,7.35000000000152,-6.));
#1380=CARTESIAN_POINT('',(-4.99999999999444,8.75000000000152,-9.));
#1381=CARTESIAN_POINT('Origin',(-4.99999999999444,8.75000000000152,-6.));
#1382=CARTESIAN_POINT('',(-4.99999999999444,7.35000000000152,-9.));
#1383=CARTESIAN_POINT('Origin',(-8.75000000000556,8.75000000000152,0.));
#1384=CARTESIAN_POINT('',(8.74999999999444,8.75000000000152,0.));
#1385=CARTESIAN_POINT('Origin',(-4.99999999999444,-0.249999999998476,-6.));
#1386=CARTESIAN_POINT('',(-4.99999999999444,-0.249999999998476,-7.5));
#1387=CARTESIAN_POINT('Origin',(4.99999999999444,-0.249999999998476,-6.));
#1388=CARTESIAN_POINT('',(4.99999999999444,-0.249999999998476,-7.5));
#1389=CARTESIAN_POINT('Origin',(8.74999999999444,8.75000000000152,0.));
#1390=CARTESIAN_POINT('Origin',(-4.44089209850063E-15,2.33146835171283E-14,
0.));
#1391=CARTESIAN_POINT('Origin',(-4.44089209850063E-15,2.33146835171283E-14,
-2.4));
#1392=CARTESIAN_POINT('Origin',(0.,-5.55111512312578E-16,-2.4));
#1393=UNCERTAINTY_MEASURE_WITH_UNIT(LENGTH_MEASURE(0.01),#1397,
'DISTANCE_ACCURACY_VALUE',
'Maximum model space distance between geometric entities at asserted c
onnectivities');
#1394=UNCERTAINTY_MEASURE_WITH_UNIT(LENGTH_MEASURE(0.01),#1397,
'DISTANCE_ACCURACY_VALUE',
'Maximum model space distance between geometric entities at asserted c
onnectivities');
#1395=(
GEOMETRIC_REPRESENTATION_CONTEXT(3)
GLOBAL_UNCERTAINTY_ASSIGNED_CONTEXT((#1393))
GLOBAL_UNIT_ASSIGNED_CONTEXT((#1397,#1399,#1400))
REPRESENTATION_CONTEXT('','3D')
);
#1396=(
GEOMETRIC_REPRESENTATION_CONTEXT(3)
GLOBAL_UNCERTAINTY_ASSIGNED_CONTEXT((#1394))
GLOBAL_UNIT_ASSIGNED_CONTEXT((#1397,#1399,#1400))
REPRESENTATION_CONTEXT('','3D')
);
#1397=(
LENGTH_UNIT()
NAMED_UNIT(*)
SI_UNIT(.MILLI.,.METRE.)
);
#1398=(
LENGTH_UNIT()
NAMED_UNIT(*)
SI_UNIT($,.METRE.)
);
#1399=(
NAMED_UNIT(*)
PLANE_ANGLE_UNIT()
SI_UNIT($,.RADIAN.)
);
#1400=(
NAMED_UNIT(*)
SI_UNIT($,.STERADIAN.)
SOLID_ANGLE_UNIT()
);
#1401=SHAPE_DEFINITION_REPRESENTATION(#1402,#1403);
#1402=PRODUCT_DEFINITION_SHAPE('',$,#1405);
#1403=SHAPE_REPRESENTATION('',(#869),#1395);
#1404=PRODUCT_DEFINITION_CONTEXT('part definition',#1409,'design');
#1405=PRODUCT_DEFINITION('bolted_clamp','bolted_clamp',#1406,#1404);
#1406=PRODUCT_DEFINITION_FORMATION('',$,#1411);
#1407=PRODUCT_RELATED_PRODUCT_CATEGORY('bolted_clamp','bolted_clamp',(#1411));
#1408=APPLICATION_PROTOCOL_DEFINITION('international standard',
'automotive_design',2009,#1409);
#1409=APPLICATION_CONTEXT(
'Core Data for Automotive Mechanical Design Process');
#1410=PRODUCT_CONTEXT('part definition',#1409,'mechanical');
#1411=PRODUCT('bolted_clamp','bolted_clamp',$,(#1410));
#1412=PRESENTATION_STYLE_ASSIGNMENT((#1413));
#1413=SURFACE_STYLE_USAGE(.BOTH.,#1414);
#1414=SURFACE_SIDE_STYLE('',(#1415));
#1415=SURFACE_STYLE_FILL_AREA(#1416);
#1416=FILL_AREA_STYLE(
'PA 11 - Nylon- HP 11-30 (with EOS P 396 3D Printer)',(#1417));
#1417=FILL_AREA_STYLE_COLOUR(
'PA 11 - Nylon- HP 11-30 (with EOS P 396 3D Printer)',#1418);
#1418=COLOUR_RGB('PA 11 - Nylon- HP 11-30 (with EOS P 396 3D Printer)',
0.247058823529412,0.247058823529412,0.247058823529412);
ENDSEC;
END-ISO-10303-21;
