ISO-10303-21;
HEADER;
/* Generated by software containing ST-Developer
 * from STEP Tools, Inc. (www.steptools.com) 
 */

FILE_DESCRIPTION(
/* description */ (''),
/* implementation_level */ '2;1');

FILE_NAME(
/* name */ 'mounting_base_xl4016.step',
/* time_stamp */ '2026-08-03T11:15:37+02:00',
/* author */ (''),
/* organization */ (''),
/* preprocessor_version */ 'ST-DEVELOPER v20.1',
/* originating_system */ 'Autodesk Translation Framework v15.8.0.0',
/* authorisation */ '');

FILE_SCHEMA (('AUTOMOTIVE_DESIGN { 1 0 10303 214 3 1 1 }'));
ENDSEC;

DATA;
#10=MECHANICAL_DESIGN_GEOMETRIC_PRESENTATION_REPRESENTATION('',(#13),#505);
#11=SHAPE_REPRESENTATION_RELATIONSHIP('SRR','None',#512,#12);
#12=ADVANCED_BREP_SHAPE_REPRESENTATION('',(#14),#504);
#13=STYLED_ITEM('',(#521),#14);
#14=MANIFOLD_SOLID_BREP('Body1',#297);
#15=FACE_BOUND('',#67,.T.);
#16=FACE_BOUND('',#73,.T.);
#17=FACE_BOUND('',#74,.T.);
#18=FACE_BOUND('',#75,.T.);
#19=FACE_BOUND('',#76,.T.);
#20=PLANE('',#314);
#21=PLANE('',#318);
#22=PLANE('',#322);
#23=PLANE('',#326);
#24=PLANE('',#327);
#25=PLANE('',#328);
#26=PLANE('',#329);
#27=PLANE('',#330);
#28=PLANE('',#331);
#29=PLANE('',#332);
#30=PLANE('',#333);
#31=PLANE('',#334);
#32=PLANE('',#335);
#33=PLANE('',#336);
#34=PLANE('',#337);
#35=FACE_OUTER_BOUND('',#54,.T.);
#36=FACE_OUTER_BOUND('',#55,.T.);
#37=FACE_OUTER_BOUND('',#56,.T.);
#38=FACE_OUTER_BOUND('',#57,.T.);
#39=FACE_OUTER_BOUND('',#58,.T.);
#40=FACE_OUTER_BOUND('',#59,.T.);
#41=FACE_OUTER_BOUND('',#60,.T.);
#42=FACE_OUTER_BOUND('',#61,.T.);
#43=FACE_OUTER_BOUND('',#62,.T.);
#44=FACE_OUTER_BOUND('',#63,.T.);
#45=FACE_OUTER_BOUND('',#64,.T.);
#46=FACE_OUTER_BOUND('',#65,.T.);
#47=FACE_OUTER_BOUND('',#66,.T.);
#48=FACE_OUTER_BOUND('',#68,.T.);
#49=FACE_OUTER_BOUND('',#69,.T.);
#50=FACE_OUTER_BOUND('',#70,.T.);
#51=FACE_OUTER_BOUND('',#71,.T.);
#52=FACE_OUTER_BOUND('',#72,.T.);
#53=FACE_OUTER_BOUND('',#77,.T.);
#54=EDGE_LOOP('',(#202,#203,#204,#205));
#55=EDGE_LOOP('',(#206));
#56=EDGE_LOOP('',(#207,#208,#209,#210));
#57=EDGE_LOOP('',(#211));
#58=EDGE_LOOP('',(#212,#213,#214,#215));
#59=EDGE_LOOP('',(#216));
#60=EDGE_LOOP('',(#217,#218,#219,#220));
#61=EDGE_LOOP('',(#221));
#62=EDGE_LOOP('',(#222,#223,#224,#225));
#63=EDGE_LOOP('',(#226,#227,#228,#229));
#64=EDGE_LOOP('',(#230,#231,#232,#233));
#65=EDGE_LOOP('',(#234,#235,#236,#237));
#66=EDGE_LOOP('',(#238,#239,#240,#241));
#67=EDGE_LOOP('',(#242,#243,#244,#245));
#68=EDGE_LOOP('',(#246,#247,#248,#249));
#69=EDGE_LOOP('',(#250,#251,#252,#253));
#70=EDGE_LOOP('',(#254,#255,#256,#257));
#71=EDGE_LOOP('',(#258,#259,#260,#261));
#72=EDGE_LOOP('',(#262,#263,#264,#265));
#73=EDGE_LOOP('',(#266));
#74=EDGE_LOOP('',(#267));
#75=EDGE_LOOP('',(#268));
#76=EDGE_LOOP('',(#269));
#77=EDGE_LOOP('',(#270,#271,#272,#273));
#78=LINE('',#427,#106);
#79=LINE('',#434,#107);
#80=LINE('',#441,#108);
#81=LINE('',#448,#109);
#82=LINE('',#454,#110);
#83=LINE('',#456,#111);
#84=LINE('',#458,#112);
#85=LINE('',#459,#113);
#86=LINE('',#462,#114);
#87=LINE('',#464,#115);
#88=LINE('',#465,#116);
#89=LINE('',#468,#117);
#90=LINE('',#470,#118);
#91=LINE('',#471,#119);
#92=LINE('',#473,#120);
#93=LINE('',#474,#121);
#94=LINE('',#478,#122);
#95=LINE('',#480,#123);
#96=LINE('',#482,#124);
#97=LINE('',#483,#125);
#98=LINE('',#486,#126);
#99=LINE('',#488,#127);
#100=LINE('',#489,#128);
#101=LINE('',#492,#129);
#102=LINE('',#493,#130);
#103=LINE('',#496,#131);
#104=LINE('',#497,#132);
#105=LINE('',#499,#133);
#106=VECTOR('',#344,1.4);
#107=VECTOR('',#353,1.4);
#108=VECTOR('',#362,1.4);
#109=VECTOR('',#371,1.4);
#110=VECTOR('',#378,10.);
#111=VECTOR('',#379,10.);
#112=VECTOR('',#380,10.);
#113=VECTOR('',#381,10.);
#114=VECTOR('',#384,10.);
#115=VECTOR('',#385,10.);
#116=VECTOR('',#386,10.);
#117=VECTOR('',#389,10.);
#118=VECTOR('',#390,10.);
#119=VECTOR('',#391,10.);
#120=VECTOR('',#394,10.);
#121=VECTOR('',#395,10.);
#122=VECTOR('',#398,10.);
#123=VECTOR('',#399,10.);
#124=VECTOR('',#400,10.);
#125=VECTOR('',#401,10.);
#126=VECTOR('',#404,10.);
#127=VECTOR('',#405,10.);
#128=VECTOR('',#406,10.);
#129=VECTOR('',#409,10.);
#130=VECTOR('',#410,10.);
#131=VECTOR('',#413,10.);
#132=VECTOR('',#414,10.);
#133=VECTOR('',#417,10.);
#134=CIRCLE('',#312,1.4);
#135=CIRCLE('',#313,1.4);
#136=CIRCLE('',#316,1.4);
#137=CIRCLE('',#317,1.4);
#138=CIRCLE('',#320,1.4);
#139=CIRCLE('',#321,1.4);
#140=CIRCLE('',#324,1.4);
#141=CIRCLE('',#325,1.4);
#142=VERTEX_POINT('',#424);
#143=VERTEX_POINT('',#426);
#144=VERTEX_POINT('',#431);
#145=VERTEX_POINT('',#433);
#146=VERTEX_POINT('',#438);
#147=VERTEX_POINT('',#440);
#148=VERTEX_POINT('',#445);
#149=VERTEX_POINT('',#447);
#150=VERTEX_POINT('',#452);
#151=VERTEX_POINT('',#453);
#152=VERTEX_POINT('',#455);
#153=VERTEX_POINT('',#457);
#154=VERTEX_POINT('',#461);
#155=VERTEX_POINT('',#463);
#156=VERTEX_POINT('',#467);
#157=VERTEX_POINT('',#469);
#158=VERTEX_POINT('',#476);
#159=VERTEX_POINT('',#477);
#160=VERTEX_POINT('',#479);
#161=VERTEX_POINT('',#481);
#162=VERTEX_POINT('',#485);
#163=VERTEX_POINT('',#487);
#164=VERTEX_POINT('',#491);
#165=VERTEX_POINT('',#495);
#166=EDGE_CURVE('',#142,#142,#134,.T.);
#167=EDGE_CURVE('',#142,#143,#78,.T.);
#168=EDGE_CURVE('',#143,#143,#135,.T.);
#169=EDGE_CURVE('',#144,#144,#136,.T.);
#170=EDGE_CURVE('',#144,#145,#79,.T.);
#171=EDGE_CURVE('',#145,#145,#137,.T.);
#172=EDGE_CURVE('',#146,#146,#138,.T.);
#173=EDGE_CURVE('',#146,#147,#80,.T.);
#174=EDGE_CURVE('',#147,#147,#139,.T.);
#175=EDGE_CURVE('',#148,#148,#140,.T.);
#176=EDGE_CURVE('',#148,#149,#81,.T.);
#177=EDGE_CURVE('',#149,#149,#141,.T.);
#178=EDGE_CURVE('',#150,#151,#82,.T.);
#179=EDGE_CURVE('',#150,#152,#83,.F.);
#180=EDGE_CURVE('',#153,#152,#84,.F.);
#181=EDGE_CURVE('',#151,#153,#85,.T.);
#182=EDGE_CURVE('',#151,#154,#86,.T.);
#183=EDGE_CURVE('',#155,#153,#87,.T.);
#184=EDGE_CURVE('',#154,#155,#88,.F.);
#185=EDGE_CURVE('',#154,#156,#89,.T.);
#186=EDGE_CURVE('',#157,#155,#90,.F.);
#187=EDGE_CURVE('',#156,#157,#91,.T.);
#188=EDGE_CURVE('',#156,#150,#92,.T.);
#189=EDGE_CURVE('',#152,#157,#93,.T.);
#190=EDGE_CURVE('',#158,#159,#94,.T.);
#191=EDGE_CURVE('',#159,#160,#95,.F.);
#192=EDGE_CURVE('',#160,#161,#96,.T.);
#193=EDGE_CURVE('',#161,#158,#97,.F.);
#194=EDGE_CURVE('',#162,#159,#98,.F.);
#195=EDGE_CURVE('',#163,#162,#99,.F.);
#196=EDGE_CURVE('',#163,#160,#100,.T.);
#197=EDGE_CURVE('',#164,#163,#101,.T.);
#198=EDGE_CURVE('',#164,#161,#102,.F.);
#199=EDGE_CURVE('',#165,#164,#103,.F.);
#200=EDGE_CURVE('',#158,#165,#104,.F.);
#201=EDGE_CURVE('',#162,#165,#105,.T.);
#202=ORIENTED_EDGE('',*,*,#166,.F.);
#203=ORIENTED_EDGE('',*,*,#167,.T.);
#204=ORIENTED_EDGE('',*,*,#168,.F.);
#205=ORIENTED_EDGE('',*,*,#167,.F.);
#206=ORIENTED_EDGE('',*,*,#166,.T.);
#207=ORIENTED_EDGE('',*,*,#169,.F.);
#208=ORIENTED_EDGE('',*,*,#170,.T.);
#209=ORIENTED_EDGE('',*,*,#171,.F.);
#210=ORIENTED_EDGE('',*,*,#170,.F.);
#211=ORIENTED_EDGE('',*,*,#169,.T.);
#212=ORIENTED_EDGE('',*,*,#172,.F.);
#213=ORIENTED_EDGE('',*,*,#173,.T.);
#214=ORIENTED_EDGE('',*,*,#174,.F.);
#215=ORIENTED_EDGE('',*,*,#173,.F.);
#216=ORIENTED_EDGE('',*,*,#172,.T.);
#217=ORIENTED_EDGE('',*,*,#175,.F.);
#218=ORIENTED_EDGE('',*,*,#176,.T.);
#219=ORIENTED_EDGE('',*,*,#177,.F.);
#220=ORIENTED_EDGE('',*,*,#176,.F.);
#221=ORIENTED_EDGE('',*,*,#175,.T.);
#222=ORIENTED_EDGE('',*,*,#178,.F.);
#223=ORIENTED_EDGE('',*,*,#179,.T.);
#224=ORIENTED_EDGE('',*,*,#180,.F.);
#225=ORIENTED_EDGE('',*,*,#181,.F.);
#226=ORIENTED_EDGE('',*,*,#182,.F.);
#227=ORIENTED_EDGE('',*,*,#181,.T.);
#228=ORIENTED_EDGE('',*,*,#183,.F.);
#229=ORIENTED_EDGE('',*,*,#184,.F.);
#230=ORIENTED_EDGE('',*,*,#185,.F.);
#231=ORIENTED_EDGE('',*,*,#184,.T.);
#232=ORIENTED_EDGE('',*,*,#186,.F.);
#233=ORIENTED_EDGE('',*,*,#187,.F.);
#234=ORIENTED_EDGE('',*,*,#188,.F.);
#235=ORIENTED_EDGE('',*,*,#187,.T.);
#236=ORIENTED_EDGE('',*,*,#189,.F.);
#237=ORIENTED_EDGE('',*,*,#179,.F.);
#238=ORIENTED_EDGE('',*,*,#190,.T.);
#239=ORIENTED_EDGE('',*,*,#191,.T.);
#240=ORIENTED_EDGE('',*,*,#192,.T.);
#241=ORIENTED_EDGE('',*,*,#193,.T.);
#242=ORIENTED_EDGE('',*,*,#189,.T.);
#243=ORIENTED_EDGE('',*,*,#186,.T.);
#244=ORIENTED_EDGE('',*,*,#183,.T.);
#245=ORIENTED_EDGE('',*,*,#180,.T.);
#246=ORIENTED_EDGE('',*,*,#194,.F.);
#247=ORIENTED_EDGE('',*,*,#195,.F.);
#248=ORIENTED_EDGE('',*,*,#196,.T.);
#249=ORIENTED_EDGE('',*,*,#191,.F.);
#250=ORIENTED_EDGE('',*,*,#196,.F.);
#251=ORIENTED_EDGE('',*,*,#197,.F.);
#252=ORIENTED_EDGE('',*,*,#198,.T.);
#253=ORIENTED_EDGE('',*,*,#192,.F.);
#254=ORIENTED_EDGE('',*,*,#198,.F.);
#255=ORIENTED_EDGE('',*,*,#199,.F.);
#256=ORIENTED_EDGE('',*,*,#200,.F.);
#257=ORIENTED_EDGE('',*,*,#193,.F.);
#258=ORIENTED_EDGE('',*,*,#200,.T.);
#259=ORIENTED_EDGE('',*,*,#201,.F.);
#260=ORIENTED_EDGE('',*,*,#194,.T.);
#261=ORIENTED_EDGE('',*,*,#190,.F.);
#262=ORIENTED_EDGE('',*,*,#178,.T.);
#263=ORIENTED_EDGE('',*,*,#182,.T.);
#264=ORIENTED_EDGE('',*,*,#185,.T.);
#265=ORIENTED_EDGE('',*,*,#188,.T.);
#266=ORIENTED_EDGE('',*,*,#168,.T.);
#267=ORIENTED_EDGE('',*,*,#171,.T.);
#268=ORIENTED_EDGE('',*,*,#174,.T.);
#269=ORIENTED_EDGE('',*,*,#177,.T.);
#270=ORIENTED_EDGE('',*,*,#201,.T.);
#271=ORIENTED_EDGE('',*,*,#199,.T.);
#272=ORIENTED_EDGE('',*,*,#197,.T.);
#273=ORIENTED_EDGE('',*,*,#195,.T.);
#274=CYLINDRICAL_SURFACE('',#311,1.4);
#275=CYLINDRICAL_SURFACE('',#315,1.4);
#276=CYLINDRICAL_SURFACE('',#319,1.4);
#277=CYLINDRICAL_SURFACE('',#323,1.4);
#278=ADVANCED_FACE('',(#35),#274,.T.);
#279=ADVANCED_FACE('',(#36),#20,.T.);
#280=ADVANCED_FACE('',(#37),#275,.T.);
#281=ADVANCED_FACE('',(#38),#21,.T.);
#282=ADVANCED_FACE('',(#39),#276,.T.);
#283=ADVANCED_FACE('',(#40),#22,.T.);
#284=ADVANCED_FACE('',(#41),#277,.T.);
#285=ADVANCED_FACE('',(#42),#23,.T.);
#286=ADVANCED_FACE('',(#43),#24,.T.);
#287=ADVANCED_FACE('',(#44),#25,.T.);
#288=ADVANCED_FACE('',(#45),#26,.T.);
#289=ADVANCED_FACE('',(#46),#27,.T.);
#290=ADVANCED_FACE('',(#47,#15),#28,.T.);
#291=ADVANCED_FACE('',(#48),#29,.T.);
#292=ADVANCED_FACE('',(#49),#30,.T.);
#293=ADVANCED_FACE('',(#50),#31,.T.);
#294=ADVANCED_FACE('',(#51),#32,.T.);
#295=ADVANCED_FACE('',(#52,#16,#17,#18,#19),#33,.T.);
#296=ADVANCED_FACE('',(#53),#34,.T.);
#297=CLOSED_SHELL('',(#278,#279,#280,#281,#282,#283,#284,#285,#286,#287,
#288,#289,#290,#291,#292,#293,#294,#295,#296));
#298=DERIVED_UNIT_ELEMENT(#300,1.);
#299=DERIVED_UNIT_ELEMENT(#507,-3.);
#300=(
MASS_UNIT()
NAMED_UNIT(*)
SI_UNIT(.KILO.,.GRAM.)
);
#301=DERIVED_UNIT((#298,#299));
#302=MEASURE_REPRESENTATION_ITEM('density measure',
POSITIVE_RATIO_MEASURE(1171.75),#301);
#303=PROPERTY_DEFINITION_REPRESENTATION(#308,#305);
#304=PROPERTY_DEFINITION_REPRESENTATION(#309,#306);
#305=REPRESENTATION('material name',(#307),#504);
#306=REPRESENTATION('density',(#302),#504);
#307=DESCRIPTIVE_REPRESENTATION_ITEM(
'PA 11 - Nylon- HP 11-30 (with EOS P 396 3D Printer)',
'PA 11 - Nylon- HP 11-30 (with EOS P 396 3D Printer)');
#308=PROPERTY_DEFINITION('material property','material name',#514);
#309=PROPERTY_DEFINITION('material property','density of part',#514);
#310=AXIS2_PLACEMENT_3D('',#422,#338,#339);
#311=AXIS2_PLACEMENT_3D('',#423,#340,#341);
#312=AXIS2_PLACEMENT_3D('',#425,#342,#343);
#313=AXIS2_PLACEMENT_3D('',#428,#345,#346);
#314=AXIS2_PLACEMENT_3D('',#429,#347,#348);
#315=AXIS2_PLACEMENT_3D('',#430,#349,#350);
#316=AXIS2_PLACEMENT_3D('',#432,#351,#352);
#317=AXIS2_PLACEMENT_3D('',#435,#354,#355);
#318=AXIS2_PLACEMENT_3D('',#436,#356,#357);
#319=AXIS2_PLACEMENT_3D('',#437,#358,#359);
#320=AXIS2_PLACEMENT_3D('',#439,#360,#361);
#321=AXIS2_PLACEMENT_3D('',#442,#363,#364);
#322=AXIS2_PLACEMENT_3D('',#443,#365,#366);
#323=AXIS2_PLACEMENT_3D('',#444,#367,#368);
#324=AXIS2_PLACEMENT_3D('',#446,#369,#370);
#325=AXIS2_PLACEMENT_3D('',#449,#372,#373);
#326=AXIS2_PLACEMENT_3D('',#450,#374,#375);
#327=AXIS2_PLACEMENT_3D('',#451,#376,#377);
#328=AXIS2_PLACEMENT_3D('',#460,#382,#383);
#329=AXIS2_PLACEMENT_3D('',#466,#387,#388);
#330=AXIS2_PLACEMENT_3D('',#472,#392,#393);
#331=AXIS2_PLACEMENT_3D('',#475,#396,#397);
#332=AXIS2_PLACEMENT_3D('',#484,#402,#403);
#333=AXIS2_PLACEMENT_3D('',#490,#407,#408);
#334=AXIS2_PLACEMENT_3D('',#494,#411,#412);
#335=AXIS2_PLACEMENT_3D('',#498,#415,#416);
#336=AXIS2_PLACEMENT_3D('',#500,#418,#419);
#337=AXIS2_PLACEMENT_3D('',#501,#420,#421);
#338=DIRECTION('axis',(0.,0.,1.));
#339=DIRECTION('refdir',(1.,0.,0.));
#340=DIRECTION('center_axis',(0.,0.,1.));
#341=DIRECTION('ref_axis',(1.,0.,0.));
#342=DIRECTION('center_axis',(0.,0.,1.));
#343=DIRECTION('ref_axis',(1.,0.,0.));
#344=DIRECTION('',(0.,0.,-1.));
#345=DIRECTION('center_axis',(0.,0.,-1.));
#346=DIRECTION('ref_axis',(1.,0.,0.));
#347=DIRECTION('center_axis',(0.,0.,1.));
#348=DIRECTION('ref_axis',(1.,0.,0.));
#349=DIRECTION('center_axis',(0.,0.,1.));
#350=DIRECTION('ref_axis',(1.,0.,0.));
#351=DIRECTION('center_axis',(0.,0.,1.));
#352=DIRECTION('ref_axis',(1.,0.,0.));
#353=DIRECTION('',(0.,0.,-1.));
#354=DIRECTION('center_axis',(0.,0.,-1.));
#355=DIRECTION('ref_axis',(1.,0.,0.));
#356=DIRECTION('center_axis',(0.,0.,1.));
#357=DIRECTION('ref_axis',(1.,0.,0.));
#358=DIRECTION('center_axis',(0.,0.,1.));
#359=DIRECTION('ref_axis',(1.,0.,0.));
#360=DIRECTION('center_axis',(0.,0.,1.));
#361=DIRECTION('ref_axis',(1.,0.,0.));
#362=DIRECTION('',(0.,0.,-1.));
#363=DIRECTION('center_axis',(0.,0.,-1.));
#364=DIRECTION('ref_axis',(1.,0.,0.));
#365=DIRECTION('center_axis',(0.,0.,1.));
#366=DIRECTION('ref_axis',(1.,0.,0.));
#367=DIRECTION('center_axis',(0.,0.,1.));
#368=DIRECTION('ref_axis',(1.,0.,0.));
#369=DIRECTION('center_axis',(0.,0.,1.));
#370=DIRECTION('ref_axis',(1.,0.,0.));
#371=DIRECTION('',(0.,0.,-1.));
#372=DIRECTION('center_axis',(0.,0.,-1.));
#373=DIRECTION('ref_axis',(1.,0.,0.));
#374=DIRECTION('center_axis',(0.,0.,1.));
#375=DIRECTION('ref_axis',(1.,0.,0.));
#376=DIRECTION('center_axis',(0.,1.,0.));
#377=DIRECTION('ref_axis',(-1.,0.,0.));
#378=DIRECTION('',(1.,0.,0.));
#379=DIRECTION('',(0.,0.,-1.));
#380=DIRECTION('',(1.,0.,0.));
#381=DIRECTION('',(0.,0.,1.));
#382=DIRECTION('center_axis',(-1.,0.,0.));
#383=DIRECTION('ref_axis',(0.,-1.,0.));
#384=DIRECTION('',(0.,1.,0.));
#385=DIRECTION('',(0.,-1.,0.));
#386=DIRECTION('',(0.,0.,-1.));
#387=DIRECTION('center_axis',(0.,-1.,0.));
#388=DIRECTION('ref_axis',(1.,0.,0.));
#389=DIRECTION('',(-1.,0.,0.));
#390=DIRECTION('',(-1.,0.,0.));
#391=DIRECTION('',(0.,0.,1.));
#392=DIRECTION('center_axis',(1.,0.,0.));
#393=DIRECTION('ref_axis',(0.,1.,0.));
#394=DIRECTION('',(0.,-1.,0.));
#395=DIRECTION('',(0.,1.,0.));
#396=DIRECTION('center_axis',(0.,0.,1.));
#397=DIRECTION('ref_axis',(1.,0.,0.));
#398=DIRECTION('',(0.,1.,0.));
#399=DIRECTION('',(1.,0.,0.));
#400=DIRECTION('',(6.70154743234501E-17,-1.,0.));
#401=DIRECTION('',(-1.,-4.24289053996875E-17,0.));
#402=DIRECTION('center_axis',(0.,1.,0.));
#403=DIRECTION('ref_axis',(1.,0.,0.));
#404=DIRECTION('',(0.,0.,-1.));
#405=DIRECTION('',(-1.,0.,0.));
#406=DIRECTION('',(0.,0.,1.));
#407=DIRECTION('center_axis',(-1.,-6.70154743234501E-17,0.));
#408=DIRECTION('ref_axis',(-6.70154743234501E-17,1.,0.));
#409=DIRECTION('',(-6.70154743234501E-17,1.,0.));
#410=DIRECTION('',(0.,0.,-1.));
#411=DIRECTION('center_axis',(4.24289053996875E-17,-1.,0.));
#412=DIRECTION('ref_axis',(-1.,-4.24289053996875E-17,0.));
#413=DIRECTION('',(1.,4.24289053996875E-17,0.));
#414=DIRECTION('',(0.,0.,1.));
#415=DIRECTION('center_axis',(1.,0.,0.));
#416=DIRECTION('ref_axis',(0.,-1.,0.));
#417=DIRECTION('',(0.,-1.,0.));
#418=DIRECTION('center_axis',(0.,0.,1.));
#419=DIRECTION('ref_axis',(1.,0.,0.));
#420=DIRECTION('center_axis',(0.,0.,-1.));
#421=DIRECTION('ref_axis',(-1.,0.,0.));
#422=CARTESIAN_POINT('',(0.,0.,0.));
#423=CARTESIAN_POINT('Origin',(3.7,5.,0.));
#424=CARTESIAN_POINT('',(2.3,5.,4.));
#425=CARTESIAN_POINT('Origin',(3.7,5.,4.));
#426=CARTESIAN_POINT('',(2.3,5.,0.));
#427=CARTESIAN_POINT('',(2.3,5.,0.));
#428=CARTESIAN_POINT('Origin',(3.7,5.,0.));
#429=CARTESIAN_POINT('Origin',(3.7,5.,4.));
#430=CARTESIAN_POINT('Origin',(61.8,31.7,0.));
#431=CARTESIAN_POINT('',(60.4,31.7,4.));
#432=CARTESIAN_POINT('Origin',(61.8,31.7,4.));
#433=CARTESIAN_POINT('',(60.4,31.7,0.));
#434=CARTESIAN_POINT('',(60.4,31.7,0.));
#435=CARTESIAN_POINT('Origin',(61.8,31.7,0.));
#436=CARTESIAN_POINT('Origin',(61.8,31.7,4.));
#437=CARTESIAN_POINT('Origin',(61.8,5.,0.));
#438=CARTESIAN_POINT('',(60.4,5.,4.));
#439=CARTESIAN_POINT('Origin',(61.8,5.,4.));
#440=CARTESIAN_POINT('',(60.4,5.,0.));
#441=CARTESIAN_POINT('',(60.4,5.,0.));
#442=CARTESIAN_POINT('Origin',(61.8,5.,0.));
#443=CARTESIAN_POINT('Origin',(61.8,5.,4.));
#444=CARTESIAN_POINT('Origin',(3.7,31.7,0.));
#445=CARTESIAN_POINT('',(2.3,31.7,4.));
#446=CARTESIAN_POINT('Origin',(3.7,31.7,4.));
#447=CARTESIAN_POINT('',(2.3,31.7,0.));
#448=CARTESIAN_POINT('',(2.3,31.7,0.));
#449=CARTESIAN_POINT('Origin',(3.7,31.7,0.));
#450=CARTESIAN_POINT('Origin',(3.7,31.7,4.));
#451=CARTESIAN_POINT('Origin',(70.5,-7.,0.));
#452=CARTESIAN_POINT('',(-5.,-7.,0.));
#453=CARTESIAN_POINT('',(70.5,-7.,0.));
#454=CARTESIAN_POINT('',(51.625,-7.,0.));
#455=CARTESIAN_POINT('',(-5.,-7.,2.));
#456=CARTESIAN_POINT('',(-5.,-7.,0.));
#457=CARTESIAN_POINT('',(70.5,-7.,2.));
#458=CARTESIAN_POINT('',(51.625,-7.,2.));
#459=CARTESIAN_POINT('',(70.5,-7.,0.));
#460=CARTESIAN_POINT('Origin',(70.5,41.7,0.));
#461=CARTESIAN_POINT('',(70.5,43.7,0.));
#462=CARTESIAN_POINT('',(70.5,30.025,0.));
#463=CARTESIAN_POINT('',(70.5,43.7,2.));
#464=CARTESIAN_POINT('',(70.5,-5.,2.));
#465=CARTESIAN_POINT('',(70.5,43.7,0.));
#466=CARTESIAN_POINT('Origin',(-5.,43.7,0.));
#467=CARTESIAN_POINT('',(-5.,43.7,0.));
#468=CARTESIAN_POINT('',(13.875,43.7,0.));
#469=CARTESIAN_POINT('',(-5.,43.7,2.));
#470=CARTESIAN_POINT('',(13.875,43.7,2.));
#471=CARTESIAN_POINT('',(-5.,43.7,0.));
#472=CARTESIAN_POINT('Origin',(-5.,-5.,0.));
#473=CARTESIAN_POINT('',(-5.,6.675,0.));
#474=CARTESIAN_POINT('',(-5.,41.7,2.));
#475=CARTESIAN_POINT('Origin',(32.75,18.35,2.));
#476=CARTESIAN_POINT('',(72.,-8.5,2.));
#477=CARTESIAN_POINT('',(72.,45.2,2.));
#478=CARTESIAN_POINT('',(72.,-6.5,2.));
#479=CARTESIAN_POINT('',(-6.5,45.2,2.));
#480=CARTESIAN_POINT('',(13.125,45.2,2.));
#481=CARTESIAN_POINT('',(-6.5,-8.50000000000001,2.));
#482=CARTESIAN_POINT('',(-6.5,43.2,2.));
#483=CARTESIAN_POINT('',(52.375,-8.5,2.));
#484=CARTESIAN_POINT('Origin',(-6.5,45.2,0.));
#485=CARTESIAN_POINT('',(72.,45.2,-2.));
#486=CARTESIAN_POINT('',(72.,45.2,0.));
#487=CARTESIAN_POINT('',(-6.5,45.2,-2.));
#488=CARTESIAN_POINT('',(13.125,45.2,-2.));
#489=CARTESIAN_POINT('',(-6.5,45.2,0.));
#490=CARTESIAN_POINT('Origin',(-6.5,-6.5,0.));
#491=CARTESIAN_POINT('',(-6.5,-8.50000000000001,-2.));
#492=CARTESIAN_POINT('',(-6.5,43.2,-2.));
#493=CARTESIAN_POINT('',(-6.5,-8.5,0.));
#494=CARTESIAN_POINT('Origin',(72.,-8.5,0.));
#495=CARTESIAN_POINT('',(72.,-8.5,-2.));
#496=CARTESIAN_POINT('',(52.375,-8.5,-2.));
#497=CARTESIAN_POINT('',(72.,-8.5,0.));
#498=CARTESIAN_POINT('Origin',(72.,43.2,0.));
#499=CARTESIAN_POINT('',(72.,-6.5,-2.));
#500=CARTESIAN_POINT('Origin',(32.75,18.35,0.));
#501=CARTESIAN_POINT('Origin',(32.75,18.35,-2.));
#502=UNCERTAINTY_MEASURE_WITH_UNIT(LENGTH_MEASURE(0.01),#506,
'DISTANCE_ACCURACY_VALUE',
'Maximum model space distance between geometric entities at asserted c
onnectivities');
#503=UNCERTAINTY_MEASURE_WITH_UNIT(LENGTH_MEASURE(0.01),#506,
'DISTANCE_ACCURACY_VALUE',
'Maximum model space distance between geometric entities at asserted c
onnectivities');
#504=(
GEOMETRIC_REPRESENTATION_CONTEXT(3)
GLOBAL_UNCERTAINTY_ASSIGNED_CONTEXT((#502))
GLOBAL_UNIT_ASSIGNED_CONTEXT((#506,#508,#509))
REPRESENTATION_CONTEXT('','3D')
);
#505=(
GEOMETRIC_REPRESENTATION_CONTEXT(3)
GLOBAL_UNCERTAINTY_ASSIGNED_CONTEXT((#503))
GLOBAL_UNIT_ASSIGNED_CONTEXT((#506,#508,#509))
REPRESENTATION_CONTEXT('','3D')
);
#506=(
LENGTH_UNIT()
NAMED_UNIT(*)
SI_UNIT(.MILLI.,.METRE.)
);
#507=(
LENGTH_UNIT()
NAMED_UNIT(*)
SI_UNIT($,.METRE.)
);
#508=(
NAMED_UNIT(*)
PLANE_ANGLE_UNIT()
SI_UNIT($,.RADIAN.)
);
#509=(
NAMED_UNIT(*)
SI_UNIT($,.STERADIAN.)
SOLID_ANGLE_UNIT()
);
#510=SHAPE_DEFINITION_REPRESENTATION(#511,#512);
#511=PRODUCT_DEFINITION_SHAPE('',$,#514);
#512=SHAPE_REPRESENTATION('',(#310),#504);
#513=PRODUCT_DEFINITION_CONTEXT('part definition',#518,'design');
#514=PRODUCT_DEFINITION('Przetwornica_XL4016','Przetwornica_XL4016 v3',
#515,#513);
#515=PRODUCT_DEFINITION_FORMATION('',$,#520);
#516=PRODUCT_RELATED_PRODUCT_CATEGORY('Przetwornica_XL4016 v3',
'Przetwornica_XL4016 v3',(#520));
#517=APPLICATION_PROTOCOL_DEFINITION('international standard',
'automotive_design',2009,#518);
#518=APPLICATION_CONTEXT(
'Core Data for Automotive Mechanical Design Process');
#519=PRODUCT_CONTEXT('part definition',#518,'mechanical');
#520=PRODUCT('Przetwornica_XL4016','Przetwornica_XL4016 v3',$,(#519));
#521=PRESENTATION_STYLE_ASSIGNMENT((#522));
#522=SURFACE_STYLE_USAGE(.BOTH.,#523);
#523=SURFACE_SIDE_STYLE('',(#524));
#524=SURFACE_STYLE_FILL_AREA(#525);
#525=FILL_AREA_STYLE(
'PA 11 - Nylon- HP 11-30 (with EOS P 396 3D Printer)',(#526));
#526=FILL_AREA_STYLE_COLOUR(
'PA 11 - Nylon- HP 11-30 (with EOS P 396 3D Printer)',#527);
#527=COLOUR_RGB('PA 11 - Nylon- HP 11-30 (with EOS P 396 3D Printer)',0.247058823529412,
0.247058823529412,0.247058823529412);
ENDSEC;
END-ISO-10303-21;
