ISO-10303-21;
HEADER;
/* Generated by software containing ST-Developer
 * from STEP Tools, Inc. (www.steptools.com) 
 */

FILE_DESCRIPTION(
/* description */ (''),
/* implementation_level */ '2;1');

FILE_NAME(
/* name */ 'expanding_foot.step',
/* time_stamp */ '2026-08-03T12:39:36+02:00',
/* author */ (''),
/* organization */ (''),
/* preprocessor_version */ 'ST-DEVELOPER v20.1',
/* originating_system */ 'Autodesk Translation Framework v15.8.0.0',
/* authorisation */ '');

FILE_SCHEMA (('AUTOMOTIVE_DESIGN { 1 0 10303 214 3 1 1 }'));
ENDSEC;

DATA;
#10=MECHANICAL_DESIGN_GEOMETRIC_PRESENTATION_REPRESENTATION('',(#13),#360);
#11=SHAPE_REPRESENTATION_RELATIONSHIP('SRR','None',#367,#12);
#12=ADVANCED_BREP_SHAPE_REPRESENTATION('',(#14),#359);
#13=STYLED_ITEM('',(#376),#14);
#14=MANIFOLD_SOLID_BREP('Body1',#216);
#15=FACE_BOUND('',#42,.T.);
#16=PLANE('',#233);
#17=PLANE('',#234);
#18=PLANE('',#235);
#19=PLANE('',#236);
#20=PLANE('',#237);
#21=PLANE('',#238);
#22=PLANE('',#239);
#23=PLANE('',#240);
#24=PLANE('',#241);
#25=PLANE('',#242);
#26=PLANE('',#243);
#27=FACE_OUTER_BOUND('',#39,.T.);
#28=FACE_OUTER_BOUND('',#40,.T.);
#29=FACE_OUTER_BOUND('',#41,.T.);
#30=FACE_OUTER_BOUND('',#43,.T.);
#31=FACE_OUTER_BOUND('',#44,.T.);
#32=FACE_OUTER_BOUND('',#45,.T.);
#33=FACE_OUTER_BOUND('',#46,.T.);
#34=FACE_OUTER_BOUND('',#47,.T.);
#35=FACE_OUTER_BOUND('',#48,.T.);
#36=FACE_OUTER_BOUND('',#49,.T.);
#37=FACE_OUTER_BOUND('',#50,.T.);
#38=FACE_OUTER_BOUND('',#51,.T.);
#39=EDGE_LOOP('',(#149,#150,#151,#152));
#40=EDGE_LOOP('',(#153));
#41=EDGE_LOOP('',(#154,#155,#156,#157,#158,#159,#160,#161));
#42=EDGE_LOOP('',(#162));
#43=EDGE_LOOP('',(#163,#164,#165,#166,#167,#168,#169,#170));
#44=EDGE_LOOP('',(#171,#172,#173,#174));
#45=EDGE_LOOP('',(#175,#176,#177,#178));
#46=EDGE_LOOP('',(#179,#180,#181,#182));
#47=EDGE_LOOP('',(#183,#184,#185,#186));
#48=EDGE_LOOP('',(#187,#188,#189,#190));
#49=EDGE_LOOP('',(#191,#192,#193,#194));
#50=EDGE_LOOP('',(#195,#196,#197,#198));
#51=EDGE_LOOP('',(#199,#200,#201,#202));
#52=LINE('',#304,#77);
#53=LINE('',#310,#78);
#54=LINE('',#312,#79);
#55=LINE('',#314,#80);
#56=LINE('',#316,#81);
#57=LINE('',#318,#82);
#58=LINE('',#320,#83);
#59=LINE('',#322,#84);
#60=LINE('',#323,#85);
#61=LINE('',#327,#86);
#62=LINE('',#329,#87);
#63=LINE('',#331,#88);
#64=LINE('',#333,#89);
#65=LINE('',#335,#90);
#66=LINE('',#337,#91);
#67=LINE('',#339,#92);
#68=LINE('',#340,#93);
#69=LINE('',#342,#94);
#70=LINE('',#343,#95);
#71=LINE('',#345,#96);
#72=LINE('',#347,#97);
#73=LINE('',#349,#98);
#74=LINE('',#351,#99);
#75=LINE('',#353,#100);
#76=LINE('',#355,#101);
#77=VECTOR('',#250,5.);
#78=VECTOR('',#257,10.);
#79=VECTOR('',#258,10.);
#80=VECTOR('',#259,10.);
#81=VECTOR('',#260,10.);
#82=VECTOR('',#261,10.);
#83=VECTOR('',#262,10.);
#84=VECTOR('',#263,10.);
#85=VECTOR('',#264,10.);
#86=VECTOR('',#267,10.);
#87=VECTOR('',#268,10.);
#88=VECTOR('',#269,10.);
#89=VECTOR('',#270,10.);
#90=VECTOR('',#271,10.);
#91=VECTOR('',#272,10.);
#92=VECTOR('',#273,10.);
#93=VECTOR('',#274,10.);
#94=VECTOR('',#277,10.);
#95=VECTOR('',#278,10.);
#96=VECTOR('',#281,10.);
#97=VECTOR('',#284,10.);
#98=VECTOR('',#287,10.);
#99=VECTOR('',#290,10.);
#100=VECTOR('',#293,10.);
#101=VECTOR('',#296,10.);
#102=CIRCLE('',#231,5.);
#103=CIRCLE('',#232,5.);
#104=VERTEX_POINT('',#301);
#105=VERTEX_POINT('',#303);
#106=VERTEX_POINT('',#308);
#107=VERTEX_POINT('',#309);
#108=VERTEX_POINT('',#311);
#109=VERTEX_POINT('',#313);
#110=VERTEX_POINT('',#315);
#111=VERTEX_POINT('',#317);
#112=VERTEX_POINT('',#319);
#113=VERTEX_POINT('',#321);
#114=VERTEX_POINT('',#325);
#115=VERTEX_POINT('',#326);
#116=VERTEX_POINT('',#328);
#117=VERTEX_POINT('',#330);
#118=VERTEX_POINT('',#332);
#119=VERTEX_POINT('',#334);
#120=VERTEX_POINT('',#336);
#121=VERTEX_POINT('',#338);
#122=EDGE_CURVE('',#104,#104,#102,.T.);
#123=EDGE_CURVE('',#104,#105,#52,.T.);
#124=EDGE_CURVE('',#105,#105,#103,.T.);
#125=EDGE_CURVE('',#106,#107,#53,.T.);
#126=EDGE_CURVE('',#108,#106,#54,.T.);
#127=EDGE_CURVE('',#109,#108,#55,.T.);
#128=EDGE_CURVE('',#110,#109,#56,.T.);
#129=EDGE_CURVE('',#111,#110,#57,.T.);
#130=EDGE_CURVE('',#112,#111,#58,.T.);
#131=EDGE_CURVE('',#113,#112,#59,.T.);
#132=EDGE_CURVE('',#107,#113,#60,.T.);
#133=EDGE_CURVE('',#114,#115,#61,.T.);
#134=EDGE_CURVE('',#115,#116,#62,.T.);
#135=EDGE_CURVE('',#116,#117,#63,.T.);
#136=EDGE_CURVE('',#117,#118,#64,.T.);
#137=EDGE_CURVE('',#118,#119,#65,.T.);
#138=EDGE_CURVE('',#119,#120,#66,.T.);
#139=EDGE_CURVE('',#120,#121,#67,.T.);
#140=EDGE_CURVE('',#121,#114,#68,.T.);
#141=EDGE_CURVE('',#114,#106,#69,.T.);
#142=EDGE_CURVE('',#115,#107,#70,.T.);
#143=EDGE_CURVE('',#116,#113,#71,.T.);
#144=EDGE_CURVE('',#117,#112,#72,.T.);
#145=EDGE_CURVE('',#118,#111,#73,.T.);
#146=EDGE_CURVE('',#119,#110,#74,.T.);
#147=EDGE_CURVE('',#120,#109,#75,.T.);
#148=EDGE_CURVE('',#121,#108,#76,.T.);
#149=ORIENTED_EDGE('',*,*,#122,.F.);
#150=ORIENTED_EDGE('',*,*,#123,.T.);
#151=ORIENTED_EDGE('',*,*,#124,.T.);
#152=ORIENTED_EDGE('',*,*,#123,.F.);
#153=ORIENTED_EDGE('',*,*,#124,.F.);
#154=ORIENTED_EDGE('',*,*,#125,.F.);
#155=ORIENTED_EDGE('',*,*,#126,.F.);
#156=ORIENTED_EDGE('',*,*,#127,.F.);
#157=ORIENTED_EDGE('',*,*,#128,.F.);
#158=ORIENTED_EDGE('',*,*,#129,.F.);
#159=ORIENTED_EDGE('',*,*,#130,.F.);
#160=ORIENTED_EDGE('',*,*,#131,.F.);
#161=ORIENTED_EDGE('',*,*,#132,.F.);
#162=ORIENTED_EDGE('',*,*,#122,.T.);
#163=ORIENTED_EDGE('',*,*,#133,.T.);
#164=ORIENTED_EDGE('',*,*,#134,.T.);
#165=ORIENTED_EDGE('',*,*,#135,.T.);
#166=ORIENTED_EDGE('',*,*,#136,.T.);
#167=ORIENTED_EDGE('',*,*,#137,.T.);
#168=ORIENTED_EDGE('',*,*,#138,.T.);
#169=ORIENTED_EDGE('',*,*,#139,.T.);
#170=ORIENTED_EDGE('',*,*,#140,.T.);
#171=ORIENTED_EDGE('',*,*,#133,.F.);
#172=ORIENTED_EDGE('',*,*,#141,.T.);
#173=ORIENTED_EDGE('',*,*,#125,.T.);
#174=ORIENTED_EDGE('',*,*,#142,.F.);
#175=ORIENTED_EDGE('',*,*,#134,.F.);
#176=ORIENTED_EDGE('',*,*,#142,.T.);
#177=ORIENTED_EDGE('',*,*,#132,.T.);
#178=ORIENTED_EDGE('',*,*,#143,.F.);
#179=ORIENTED_EDGE('',*,*,#135,.F.);
#180=ORIENTED_EDGE('',*,*,#143,.T.);
#181=ORIENTED_EDGE('',*,*,#131,.T.);
#182=ORIENTED_EDGE('',*,*,#144,.F.);
#183=ORIENTED_EDGE('',*,*,#136,.F.);
#184=ORIENTED_EDGE('',*,*,#144,.T.);
#185=ORIENTED_EDGE('',*,*,#130,.T.);
#186=ORIENTED_EDGE('',*,*,#145,.F.);
#187=ORIENTED_EDGE('',*,*,#137,.F.);
#188=ORIENTED_EDGE('',*,*,#145,.T.);
#189=ORIENTED_EDGE('',*,*,#129,.T.);
#190=ORIENTED_EDGE('',*,*,#146,.F.);
#191=ORIENTED_EDGE('',*,*,#138,.F.);
#192=ORIENTED_EDGE('',*,*,#146,.T.);
#193=ORIENTED_EDGE('',*,*,#128,.T.);
#194=ORIENTED_EDGE('',*,*,#147,.F.);
#195=ORIENTED_EDGE('',*,*,#139,.F.);
#196=ORIENTED_EDGE('',*,*,#147,.T.);
#197=ORIENTED_EDGE('',*,*,#127,.T.);
#198=ORIENTED_EDGE('',*,*,#148,.F.);
#199=ORIENTED_EDGE('',*,*,#140,.F.);
#200=ORIENTED_EDGE('',*,*,#148,.T.);
#201=ORIENTED_EDGE('',*,*,#126,.T.);
#202=ORIENTED_EDGE('',*,*,#141,.F.);
#203=CYLINDRICAL_SURFACE('',#230,5.);
#204=ADVANCED_FACE('',(#27),#203,.F.);
#205=ADVANCED_FACE('',(#28),#16,.F.);
#206=ADVANCED_FACE('',(#29,#15),#17,.T.);
#207=ADVANCED_FACE('',(#30),#18,.F.);
#208=ADVANCED_FACE('',(#31),#19,.F.);
#209=ADVANCED_FACE('',(#32),#20,.F.);
#210=ADVANCED_FACE('',(#33),#21,.F.);
#211=ADVANCED_FACE('',(#34),#22,.F.);
#212=ADVANCED_FACE('',(#35),#23,.F.);
#213=ADVANCED_FACE('',(#36),#24,.F.);
#214=ADVANCED_FACE('',(#37),#25,.F.);
#215=ADVANCED_FACE('',(#38),#26,.F.);
#216=CLOSED_SHELL('',(#204,#205,#206,#207,#208,#209,#210,#211,#212,#213,
#214,#215));
#217=DERIVED_UNIT_ELEMENT(#219,1.);
#218=DERIVED_UNIT_ELEMENT(#362,-3.);
#219=(
MASS_UNIT()
NAMED_UNIT(*)
SI_UNIT(.KILO.,.GRAM.)
);
#220=DERIVED_UNIT((#217,#218));
#221=MEASURE_REPRESENTATION_ITEM('density measure',
POSITIVE_RATIO_MEASURE(1171.75),#220);
#222=PROPERTY_DEFINITION_REPRESENTATION(#227,#224);
#223=PROPERTY_DEFINITION_REPRESENTATION(#228,#225);
#224=REPRESENTATION('material name',(#226),#359);
#225=REPRESENTATION('density',(#221),#359);
#226=DESCRIPTIVE_REPRESENTATION_ITEM(
'PA 11 - Nylon- HP 11-30 (with EOS P 396 3D Printer)',
'PA 11 - Nylon- HP 11-30 (with EOS P 396 3D Printer)');
#227=PROPERTY_DEFINITION('material property','material name',#369);
#228=PROPERTY_DEFINITION('material property','density of part',#369);
#229=AXIS2_PLACEMENT_3D('',#299,#244,#245);
#230=AXIS2_PLACEMENT_3D('',#300,#246,#247);
#231=AXIS2_PLACEMENT_3D('',#302,#248,#249);
#232=AXIS2_PLACEMENT_3D('',#305,#251,#252);
#233=AXIS2_PLACEMENT_3D('',#306,#253,#254);
#234=AXIS2_PLACEMENT_3D('',#307,#255,#256);
#235=AXIS2_PLACEMENT_3D('',#324,#265,#266);
#236=AXIS2_PLACEMENT_3D('',#341,#275,#276);
#237=AXIS2_PLACEMENT_3D('',#344,#279,#280);
#238=AXIS2_PLACEMENT_3D('',#346,#282,#283);
#239=AXIS2_PLACEMENT_3D('',#348,#285,#286);
#240=AXIS2_PLACEMENT_3D('',#350,#288,#289);
#241=AXIS2_PLACEMENT_3D('',#352,#291,#292);
#242=AXIS2_PLACEMENT_3D('',#354,#294,#295);
#243=AXIS2_PLACEMENT_3D('',#356,#297,#298);
#244=DIRECTION('axis',(0.,0.,1.));
#245=DIRECTION('refdir',(1.,0.,0.));
#246=DIRECTION('center_axis',(0.,0.,-1.));
#247=DIRECTION('ref_axis',(1.,0.,0.));
#248=DIRECTION('center_axis',(0.,0.,-1.));
#249=DIRECTION('ref_axis',(1.,0.,0.));
#250=DIRECTION('',(0.,0.,-1.));
#251=DIRECTION('center_axis',(0.,0.,-1.));
#252=DIRECTION('ref_axis',(1.,0.,0.));
#253=DIRECTION('center_axis',(0.,0.,-1.));
#254=DIRECTION('ref_axis',(1.,0.,0.));
#255=DIRECTION('center_axis',(0.,0.,1.));
#256=DIRECTION('ref_axis',(1.,0.,0.));
#257=DIRECTION('',(0.707106781186547,0.707106781186548,0.));
#258=DIRECTION('',(0.,1.,0.));
#259=DIRECTION('',(-0.707106781186547,0.707106781186548,0.));
#260=DIRECTION('',(-1.,0.,0.));
#261=DIRECTION('',(-0.707106781186548,-0.707106781186548,0.));
#262=DIRECTION('',(0.,-1.,0.));
#263=DIRECTION('',(0.707106781186548,-0.707106781186548,0.));
#264=DIRECTION('',(1.,0.,0.));
#265=DIRECTION('center_axis',(0.,0.,1.));
#266=DIRECTION('ref_axis',(1.,0.,0.));
#267=DIRECTION('',(0.707106781186548,0.707106781186548,0.));
#268=DIRECTION('',(1.,0.,0.));
#269=DIRECTION('',(0.707106781186548,-0.707106781186548,0.));
#270=DIRECTION('',(0.,-1.,0.));
#271=DIRECTION('',(-0.707106781186548,-0.707106781186548,0.));
#272=DIRECTION('',(-1.,0.,0.));
#273=DIRECTION('',(-0.707106781186548,0.707106781186548,0.));
#274=DIRECTION('',(0.,1.,0.));
#275=DIRECTION('center_axis',(0.615457454896664,-0.615457454896664,-0.492365963917331));
#276=DIRECTION('ref_axis',(-0.624695047554424,0.,-0.78086880944303));
#277=DIRECTION('',(0.348155311911396,-0.348155311911396,0.870388279778489));
#278=DIRECTION('',(0.348155311911396,-0.348155311911396,0.870388279778489));
#279=DIRECTION('center_axis',(0.,-0.928476690885259,-0.371390676354104));
#280=DIRECTION('ref_axis',(0.,0.371390676354104,-0.928476690885259));
#281=DIRECTION('',(-0.348155311911396,-0.348155311911396,0.870388279778489));
#282=DIRECTION('center_axis',(-0.615457454896664,-0.615457454896664,-0.492365963917331));
#283=DIRECTION('ref_axis',(-0.624695047554424,0.,0.78086880944303));
#284=DIRECTION('',(-0.348155311911396,-0.348155311911396,0.870388279778489));
#285=DIRECTION('center_axis',(-0.928476690885259,0.,-0.371390676354104));
#286=DIRECTION('ref_axis',(-0.371390676354104,0.,0.928476690885259));
#287=DIRECTION('',(-0.348155311911396,0.348155311911396,0.870388279778489));
#288=DIRECTION('center_axis',(-0.615457454896664,0.615457454896664,-0.492365963917331));
#289=DIRECTION('ref_axis',(-0.624695047554424,0.,0.78086880944303));
#290=DIRECTION('',(-0.348155311911396,0.348155311911396,0.870388279778489));
#291=DIRECTION('center_axis',(0.,0.928476690885259,-0.371390676354104));
#292=DIRECTION('ref_axis',(0.,0.371390676354104,0.928476690885259));
#293=DIRECTION('',(0.348155311911396,0.348155311911396,0.870388279778489));
#294=DIRECTION('center_axis',(0.615457454896664,0.615457454896664,-0.492365963917331));
#295=DIRECTION('ref_axis',(-0.624695047554424,0.,-0.78086880944303));
#296=DIRECTION('',(0.348155311911396,0.348155311911396,0.870388279778489));
#297=DIRECTION('center_axis',(0.928476690885259,0.,-0.371390676354104));
#298=DIRECTION('ref_axis',(-0.371390676354104,0.,-0.928476690885259));
#299=CARTESIAN_POINT('',(0.,0.,0.));
#300=CARTESIAN_POINT('Origin',(4.65000003576279,-38.9499998092651,36.9499969482422));
#301=CARTESIAN_POINT('',(-0.349999964237213,-38.9499998092651,36.9499969482422));
#302=CARTESIAN_POINT('Origin',(4.65000003576279,-38.9499998092651,36.9499969482422));
#303=CARTESIAN_POINT('',(-0.349999964237213,-38.9499998092651,24.9499969482422));
#304=CARTESIAN_POINT('',(-0.349999964237213,-38.9499998092651,36.9499969482422));
#305=CARTESIAN_POINT('Origin',(4.65000003576279,-38.9499998092651,24.9499969482422));
#306=CARTESIAN_POINT('Origin',(4.65000003576279,-38.9499998092651,24.9499969482422));
#307=CARTESIAN_POINT('Origin',(4.65000003576279,-38.9499998092651,36.9499969482422));
#308=CARTESIAN_POINT('',(-5.34999996423721,-30.1499998092651,36.9499969482422));
#309=CARTESIAN_POINT('',(-4.14999996423721,-28.9499998092651,36.9499969482422));
#310=CARTESIAN_POINT('',(-4.14999996423721,-28.9499998092651,36.9499969482422));
#311=CARTESIAN_POINT('',(-5.34999996423721,-47.7499998092651,36.9499969482422));
#312=CARTESIAN_POINT('',(-5.34999996423721,-30.1499998092651,36.9499969482422));
#313=CARTESIAN_POINT('',(-4.14999996423721,-48.9499998092651,36.9499969482422));
#314=CARTESIAN_POINT('',(-4.14999996423721,-48.9499998092651,36.9499969482422));
#315=CARTESIAN_POINT('',(13.4500000357628,-48.9499998092651,36.9499969482422));
#316=CARTESIAN_POINT('',(-4.14999996423721,-48.9499998092651,36.9499969482422));
#317=CARTESIAN_POINT('',(14.6500000357628,-47.7499998092651,36.9499969482422));
#318=CARTESIAN_POINT('',(14.6500000357628,-47.7499998092651,36.9499969482422));
#319=CARTESIAN_POINT('',(14.6500000357628,-30.1499998092651,36.9499969482422));
#320=CARTESIAN_POINT('',(14.6500000357628,-47.7499998092651,36.9499969482422));
#321=CARTESIAN_POINT('',(13.4500000357628,-28.9499998092651,36.9499969482422));
#322=CARTESIAN_POINT('',(14.6500000357628,-30.1499998092651,36.9499969482422));
#323=CARTESIAN_POINT('',(13.4500000357628,-28.9499998092651,36.9499969482422));
#324=CARTESIAN_POINT('Origin',(4.65000003576279,-38.9499998092651,11.9499969482422));
#325=CARTESIAN_POINT('',(-15.3499999642372,-20.1499998092651,11.9499969482422));
#326=CARTESIAN_POINT('',(-14.1499999642372,-18.9499998092651,11.9499969482422));
#327=CARTESIAN_POINT('',(-15.3499999642372,-20.1499998092651,11.9499969482422));
#328=CARTESIAN_POINT('',(23.4500000357628,-18.9499998092651,11.9499969482422));
#329=CARTESIAN_POINT('',(-14.1499999642372,-18.9499998092651,11.9499969482422));
#330=CARTESIAN_POINT('',(24.6500000357628,-20.1499998092651,11.9499969482422));
#331=CARTESIAN_POINT('',(23.4500000357628,-18.9499998092651,11.9499969482422));
#332=CARTESIAN_POINT('',(24.6500000357628,-57.7499998092651,11.9499969482422));
#333=CARTESIAN_POINT('',(24.6500000357628,-20.1499998092651,11.9499969482422));
#334=CARTESIAN_POINT('',(23.4500000357628,-58.9499998092651,11.9499969482422));
#335=CARTESIAN_POINT('',(24.6500000357628,-57.7499998092651,11.9499969482422));
#336=CARTESIAN_POINT('',(-14.1499999642372,-58.9499998092651,11.9499969482422));
#337=CARTESIAN_POINT('',(23.4500000357628,-58.9499998092651,11.9499969482422));
#338=CARTESIAN_POINT('',(-15.3499999642372,-57.7499998092651,11.9499969482422));
#339=CARTESIAN_POINT('',(-14.1499999642372,-58.9499998092651,11.9499969482422));
#340=CARTESIAN_POINT('',(-15.3499999642372,-57.7499998092651,11.9499969482422));
#341=CARTESIAN_POINT('Origin',(-15.3499999642372,-20.1499998092651,11.9499969482422));
#342=CARTESIAN_POINT('',(-15.3499999642372,-20.1499998092651,11.9499969482422));
#343=CARTESIAN_POINT('',(-14.1499999642372,-18.9499998092651,11.9499969482422));
#344=CARTESIAN_POINT('Origin',(-14.1499999642372,-18.9499998092651,11.9499969482422));
#345=CARTESIAN_POINT('',(23.4500000357628,-18.9499998092651,11.9499969482422));
#346=CARTESIAN_POINT('Origin',(23.4500000357628,-18.9499998092651,11.9499969482422));
#347=CARTESIAN_POINT('',(24.6500000357628,-20.1499998092651,11.9499969482422));
#348=CARTESIAN_POINT('Origin',(24.6500000357628,-20.1499998092651,11.9499969482422));
#349=CARTESIAN_POINT('',(24.6500000357628,-57.7499998092651,11.9499969482422));
#350=CARTESIAN_POINT('Origin',(24.6500000357628,-57.7499998092651,11.9499969482422));
#351=CARTESIAN_POINT('',(23.4500000357628,-58.9499998092651,11.9499969482422));
#352=CARTESIAN_POINT('Origin',(23.4500000357628,-58.9499998092651,11.9499969482422));
#353=CARTESIAN_POINT('',(-14.1499999642372,-58.9499998092651,11.9499969482422));
#354=CARTESIAN_POINT('Origin',(-14.1499999642372,-58.9499998092651,11.9499969482422));
#355=CARTESIAN_POINT('',(-15.3499999642372,-57.7499998092651,11.9499969482422));
#356=CARTESIAN_POINT('Origin',(-15.3499999642372,-57.7499998092651,11.9499969482422));
#357=UNCERTAINTY_MEASURE_WITH_UNIT(LENGTH_MEASURE(0.01),#361,
'DISTANCE_ACCURACY_VALUE',
'Maximum model space distance between geometric entities at asserted c
onnectivities');
#358=UNCERTAINTY_MEASURE_WITH_UNIT(LENGTH_MEASURE(0.01),#361,
'DISTANCE_ACCURACY_VALUE',
'Maximum model space distance between geometric entities at asserted c
onnectivities');
#359=(
GEOMETRIC_REPRESENTATION_CONTEXT(3)
GLOBAL_UNCERTAINTY_ASSIGNED_CONTEXT((#357))
GLOBAL_UNIT_ASSIGNED_CONTEXT((#361,#363,#364))
REPRESENTATION_CONTEXT('','3D')
);
#360=(
GEOMETRIC_REPRESENTATION_CONTEXT(3)
GLOBAL_UNCERTAINTY_ASSIGNED_CONTEXT((#358))
GLOBAL_UNIT_ASSIGNED_CONTEXT((#361,#363,#364))
REPRESENTATION_CONTEXT('','3D')
);
#361=(
LENGTH_UNIT()
NAMED_UNIT(*)
SI_UNIT(.MILLI.,.METRE.)
);
#362=(
LENGTH_UNIT()
NAMED_UNIT(*)
SI_UNIT($,.METRE.)
);
#363=(
NAMED_UNIT(*)
PLANE_ANGLE_UNIT()
SI_UNIT($,.RADIAN.)
);
#364=(
NAMED_UNIT(*)
SI_UNIT($,.STERADIAN.)
SOLID_ANGLE_UNIT()
);
#365=SHAPE_DEFINITION_REPRESENTATION(#366,#367);
#366=PRODUCT_DEFINITION_SHAPE('',$,#369);
#367=SHAPE_REPRESENTATION('',(#229),#359);
#368=PRODUCT_DEFINITION_CONTEXT('part definition',#373,'design');
#369=PRODUCT_DEFINITION('expanding_foot','expanding_foot',#370,#368);
#370=PRODUCT_DEFINITION_FORMATION('',$,#375);
#371=PRODUCT_RELATED_PRODUCT_CATEGORY('expanding_foot','expanding_foot',
(#375));
#372=APPLICATION_PROTOCOL_DEFINITION('international standard',
'automotive_design',2009,#373);
#373=APPLICATION_CONTEXT(
'Core Data for Automotive Mechanical Design Process');
#374=PRODUCT_CONTEXT('part definition',#373,'mechanical');
#375=PRODUCT('expanding_foot','expanding_foot',$,(#374));
#376=PRESENTATION_STYLE_ASSIGNMENT((#377));
#377=SURFACE_STYLE_USAGE(.BOTH.,#378);
#378=SURFACE_SIDE_STYLE('',(#379));
#379=SURFACE_STYLE_FILL_AREA(#380);
#380=FILL_AREA_STYLE(
'PA 11 - Nylon- HP 11-30 (with EOS P 396 3D Printer)',(#381));
#381=FILL_AREA_STYLE_COLOUR(
'PA 11 - Nylon- HP 11-30 (with EOS P 396 3D Printer)',#382);
#382=COLOUR_RGB('PA 11 - Nylon- HP 11-30 (with EOS P 396 3D Printer)',0.247058823529412,
0.247058823529412,0.247058823529412);
ENDSEC;
END-ISO-10303-21;
