ISO-10303-21;
HEADER;
/* Generated by software containing ST-Developer
 * from STEP Tools, Inc. (www.steptools.com) 
 */

FILE_DESCRIPTION(
/* description */ (''),
/* implementation_level */ '2;1');

FILE_NAME(
/* name */ 'riser_leg.step',
/* time_stamp */ '2026-08-03T12:39:10+02:00',
/* author */ (''),
/* organization */ (''),
/* preprocessor_version */ 'ST-DEVELOPER v20.1',
/* originating_system */ 'Autodesk Translation Framework v15.8.0.0',
/* authorisation */ '');

FILE_SCHEMA (('AUTOMOTIVE_DESIGN { 1 0 10303 214 3 1 1 }'));
ENDSEC;

DATA;
#10=MECHANICAL_DESIGN_GEOMETRIC_PRESENTATION_REPRESENTATION('',(#13),#1632);
#11=SHAPE_REPRESENTATION_RELATIONSHIP('SRR','None',#1639,#12);
#12=ADVANCED_BREP_SHAPE_REPRESENTATION('',(#14),#1631);
#13=STYLED_ITEM('',(#1648),#14);
#14=MANIFOLD_SOLID_BREP('cnc machine leg v1',#1008);
#15=FACE_BOUND('',#219,.T.);
#16=PLANE('',#1025);
#17=PLANE('',#1026);
#18=PLANE('',#1027);
#19=PLANE('',#1028);
#20=PLANE('',#1029);
#21=PLANE('',#1030);
#22=PLANE('',#1031);
#23=PLANE('',#1032);
#24=PLANE('',#1033);
#25=PLANE('',#1034);
#26=PLANE('',#1035);
#27=PLANE('',#1036);
#28=PLANE('',#1037);
#29=PLANE('',#1038);
#30=PLANE('',#1039);
#31=PLANE('',#1040);
#32=PLANE('',#1041);
#33=PLANE('',#1042);
#34=PLANE('',#1043);
#35=PLANE('',#1044);
#36=PLANE('',#1045);
#37=PLANE('',#1046);
#38=PLANE('',#1047);
#39=PLANE('',#1048);
#40=PLANE('',#1049);
#41=PLANE('',#1050);
#42=PLANE('',#1051);
#43=PLANE('',#1052);
#44=PLANE('',#1053);
#45=PLANE('',#1054);
#46=PLANE('',#1055);
#47=PLANE('',#1056);
#48=PLANE('',#1057);
#49=PLANE('',#1058);
#50=PLANE('',#1059);
#51=PLANE('',#1060);
#52=PLANE('',#1061);
#53=PLANE('',#1062);
#54=PLANE('',#1063);
#55=PLANE('',#1064);
#56=PLANE('',#1065);
#57=PLANE('',#1066);
#58=PLANE('',#1067);
#59=PLANE('',#1068);
#60=PLANE('',#1069);
#61=PLANE('',#1070);
#62=PLANE('',#1071);
#63=PLANE('',#1072);
#64=PLANE('',#1073);
#65=PLANE('',#1074);
#66=PLANE('',#1075);
#67=PLANE('',#1076);
#68=PLANE('',#1077);
#69=PLANE('',#1078);
#70=PLANE('',#1079);
#71=PLANE('',#1080);
#72=PLANE('',#1081);
#73=PLANE('',#1082);
#74=PLANE('',#1083);
#75=PLANE('',#1084);
#76=PLANE('',#1085);
#77=PLANE('',#1086);
#78=PLANE('',#1087);
#79=PLANE('',#1088);
#80=PLANE('',#1089);
#81=PLANE('',#1090);
#82=PLANE('',#1091);
#83=FACE_OUTER_BOUND('',#151,.T.);
#84=FACE_OUTER_BOUND('',#152,.T.);
#85=FACE_OUTER_BOUND('',#153,.T.);
#86=FACE_OUTER_BOUND('',#154,.T.);
#87=FACE_OUTER_BOUND('',#155,.T.);
#88=FACE_OUTER_BOUND('',#156,.T.);
#89=FACE_OUTER_BOUND('',#157,.T.);
#90=FACE_OUTER_BOUND('',#158,.T.);
#91=FACE_OUTER_BOUND('',#159,.T.);
#92=FACE_OUTER_BOUND('',#160,.T.);
#93=FACE_OUTER_BOUND('',#161,.T.);
#94=FACE_OUTER_BOUND('',#162,.T.);
#95=FACE_OUTER_BOUND('',#163,.T.);
#96=FACE_OUTER_BOUND('',#164,.T.);
#97=FACE_OUTER_BOUND('',#165,.T.);
#98=FACE_OUTER_BOUND('',#166,.T.);
#99=FACE_OUTER_BOUND('',#167,.T.);
#100=FACE_OUTER_BOUND('',#168,.T.);
#101=FACE_OUTER_BOUND('',#169,.T.);
#102=FACE_OUTER_BOUND('',#170,.T.);
#103=FACE_OUTER_BOUND('',#171,.T.);
#104=FACE_OUTER_BOUND('',#172,.T.);
#105=FACE_OUTER_BOUND('',#173,.T.);
#106=FACE_OUTER_BOUND('',#174,.T.);
#107=FACE_OUTER_BOUND('',#175,.T.);
#108=FACE_OUTER_BOUND('',#176,.T.);
#109=FACE_OUTER_BOUND('',#177,.T.);
#110=FACE_OUTER_BOUND('',#178,.T.);
#111=FACE_OUTER_BOUND('',#179,.T.);
#112=FACE_OUTER_BOUND('',#180,.T.);
#113=FACE_OUTER_BOUND('',#181,.T.);
#114=FACE_OUTER_BOUND('',#182,.T.);
#115=FACE_OUTER_BOUND('',#183,.T.);
#116=FACE_OUTER_BOUND('',#184,.T.);
#117=FACE_OUTER_BOUND('',#185,.T.);
#118=FACE_OUTER_BOUND('',#186,.T.);
#119=FACE_OUTER_BOUND('',#187,.T.);
#120=FACE_OUTER_BOUND('',#188,.T.);
#121=FACE_OUTER_BOUND('',#189,.T.);
#122=FACE_OUTER_BOUND('',#190,.T.);
#123=FACE_OUTER_BOUND('',#191,.T.);
#124=FACE_OUTER_BOUND('',#192,.T.);
#125=FACE_OUTER_BOUND('',#193,.T.);
#126=FACE_OUTER_BOUND('',#194,.T.);
#127=FACE_OUTER_BOUND('',#195,.T.);
#128=FACE_OUTER_BOUND('',#196,.T.);
#129=FACE_OUTER_BOUND('',#197,.T.);
#130=FACE_OUTER_BOUND('',#198,.T.);
#131=FACE_OUTER_BOUND('',#199,.T.);
#132=FACE_OUTER_BOUND('',#200,.T.);
#133=FACE_OUTER_BOUND('',#201,.T.);
#134=FACE_OUTER_BOUND('',#202,.T.);
#135=FACE_OUTER_BOUND('',#203,.T.);
#136=FACE_OUTER_BOUND('',#204,.T.);
#137=FACE_OUTER_BOUND('',#205,.T.);
#138=FACE_OUTER_BOUND('',#206,.T.);
#139=FACE_OUTER_BOUND('',#207,.T.);
#140=FACE_OUTER_BOUND('',#208,.T.);
#141=FACE_OUTER_BOUND('',#209,.T.);
#142=FACE_OUTER_BOUND('',#210,.T.);
#143=FACE_OUTER_BOUND('',#211,.T.);
#144=FACE_OUTER_BOUND('',#212,.T.);
#145=FACE_OUTER_BOUND('',#213,.T.);
#146=FACE_OUTER_BOUND('',#214,.T.);
#147=FACE_OUTER_BOUND('',#215,.T.);
#148=FACE_OUTER_BOUND('',#216,.T.);
#149=FACE_OUTER_BOUND('',#217,.T.);
#150=FACE_OUTER_BOUND('',#218,.T.);
#151=EDGE_LOOP('',(#677,#678,#679,#680));
#152=EDGE_LOOP('',(#681));
#153=EDGE_LOOP('',(#682,#683,#684));
#154=EDGE_LOOP('',(#685,#686,#687));
#155=EDGE_LOOP('',(#688,#689,#690));
#156=EDGE_LOOP('',(#691,#692,#693,#694));
#157=EDGE_LOOP('',(#695,#696,#697));
#158=EDGE_LOOP('',(#698,#699,#700));
#159=EDGE_LOOP('',(#701,#702,#703));
#160=EDGE_LOOP('',(#704,#705,#706));
#161=EDGE_LOOP('',(#707,#708,#709,#710));
#162=EDGE_LOOP('',(#711,#712,#713,#714));
#163=EDGE_LOOP('',(#715,#716,#717,#718));
#164=EDGE_LOOP('',(#719,#720,#721));
#165=EDGE_LOOP('',(#722,#723,#724));
#166=EDGE_LOOP('',(#725,#726,#727));
#167=EDGE_LOOP('',(#728,#729,#730));
#168=EDGE_LOOP('',(#731,#732,#733,#734));
#169=EDGE_LOOP('',(#735,#736,#737,#738));
#170=EDGE_LOOP('',(#739,#740,#741,#742));
#171=EDGE_LOOP('',(#743,#744,#745,#746));
#172=EDGE_LOOP('',(#747,#748,#749));
#173=EDGE_LOOP('',(#750,#751,#752));
#174=EDGE_LOOP('',(#753,#754,#755));
#175=EDGE_LOOP('',(#756,#757,#758,#759));
#176=EDGE_LOOP('',(#760,#761,#762,#763));
#177=EDGE_LOOP('',(#764,#765,#766,#767));
#178=EDGE_LOOP('',(#768,#769,#770,#771));
#179=EDGE_LOOP('',(#772,#773,#774,#775));
#180=EDGE_LOOP('',(#776,#777,#778,#779));
#181=EDGE_LOOP('',(#780,#781,#782,#783));
#182=EDGE_LOOP('',(#784,#785,#786,#787));
#183=EDGE_LOOP('',(#788,#789,#790,#791));
#184=EDGE_LOOP('',(#792,#793,#794));
#185=EDGE_LOOP('',(#795,#796,#797));
#186=EDGE_LOOP('',(#798,#799,#800));
#187=EDGE_LOOP('',(#801,#802,#803,#804));
#188=EDGE_LOOP('',(#805,#806,#807));
#189=EDGE_LOOP('',(#808,#809,#810));
#190=EDGE_LOOP('',(#811,#812,#813));
#191=EDGE_LOOP('',(#814,#815,#816));
#192=EDGE_LOOP('',(#817,#818,#819));
#193=EDGE_LOOP('',(#820,#821,#822));
#194=EDGE_LOOP('',(#823,#824,#825));
#195=EDGE_LOOP('',(#826,#827,#828));
#196=EDGE_LOOP('',(#829,#830,#831,#832));
#197=EDGE_LOOP('',(#833,#834,#835,#836));
#198=EDGE_LOOP('',(#837,#838,#839));
#199=EDGE_LOOP('',(#840,#841,#842,#843));
#200=EDGE_LOOP('',(#844,#845,#846));
#201=EDGE_LOOP('',(#847,#848,#849,#850));
#202=EDGE_LOOP('',(#851,#852,#853,#854));
#203=EDGE_LOOP('',(#855,#856,#857));
#204=EDGE_LOOP('',(#858,#859,#860));
#205=EDGE_LOOP('',(#861,#862,#863));
#206=EDGE_LOOP('',(#864,#865,#866));
#207=EDGE_LOOP('',(#867,#868,#869,#870));
#208=EDGE_LOOP('',(#871,#872,#873));
#209=EDGE_LOOP('',(#874,#875,#876,#877,#878,#879,#880,#881,#882,#883,#884,
#885));
#210=EDGE_LOOP('',(#886,#887,#888,#889,#890,#891,#892,#893,#894,#895,#896,
#897));
#211=EDGE_LOOP('',(#898,#899,#900));
#212=EDGE_LOOP('',(#901,#902,#903,#904));
#213=EDGE_LOOP('',(#905,#906,#907));
#214=EDGE_LOOP('',(#908,#909,#910));
#215=EDGE_LOOP('',(#911,#912,#913,#914));
#216=EDGE_LOOP('',(#915,#916,#917));
#217=EDGE_LOOP('',(#918,#919,#920,#921));
#218=EDGE_LOOP('',(#922,#923,#924,#925,#926,#927,#928,#929,#930,#931,#932,
#933,#934,#935,#936,#937));
#219=EDGE_LOOP('',(#938));
#220=LINE('',#1368,#349);
#221=LINE('',#1374,#350);
#222=LINE('',#1376,#351);
#223=LINE('',#1377,#352);
#224=LINE('',#1380,#353);
#225=LINE('',#1381,#354);
#226=LINE('',#1384,#355);
#227=LINE('',#1385,#356);
#228=LINE('',#1388,#357);
#229=LINE('',#1390,#358);
#230=LINE('',#1391,#359);
#231=LINE('',#1394,#360);
#232=LINE('',#1395,#361);
#233=LINE('',#1398,#362);
#234=LINE('',#1399,#363);
#235=LINE('',#1402,#364);
#236=LINE('',#1403,#365);
#237=LINE('',#1406,#366);
#238=LINE('',#1407,#367);
#239=LINE('',#1410,#368);
#240=LINE('',#1412,#369);
#241=LINE('',#1413,#370);
#242=LINE('',#1416,#371);
#243=LINE('',#1417,#372);
#244=LINE('',#1420,#373);
#245=LINE('',#1421,#374);
#246=LINE('',#1424,#375);
#247=LINE('',#1425,#376);
#248=LINE('',#1428,#377);
#249=LINE('',#1429,#378);
#250=LINE('',#1432,#379);
#251=LINE('',#1433,#380);
#252=LINE('',#1435,#381);
#253=LINE('',#1438,#382);
#254=LINE('',#1440,#383);
#255=LINE('',#1441,#384);
#256=LINE('',#1444,#385);
#257=LINE('',#1446,#386);
#258=LINE('',#1447,#387);
#259=LINE('',#1451,#388);
#260=LINE('',#1453,#389);
#261=LINE('',#1455,#390);
#262=LINE('',#1456,#391);
#263=LINE('',#1459,#392);
#264=LINE('',#1461,#393);
#265=LINE('',#1462,#394);
#266=LINE('',#1464,#395);
#267=LINE('',#1465,#396);
#268=LINE('',#1467,#397);
#269=LINE('',#1469,#398);
#270=LINE('',#1472,#399);
#271=LINE('',#1473,#400);
#272=LINE('',#1476,#401);
#273=LINE('',#1477,#402);
#274=LINE('',#1480,#403);
#275=LINE('',#1481,#404);
#276=LINE('',#1484,#405);
#277=LINE('',#1485,#406);
#278=LINE('',#1489,#407);
#279=LINE('',#1490,#408);
#280=LINE('',#1491,#409);
#281=LINE('',#1494,#410);
#282=LINE('',#1496,#411);
#283=LINE('',#1497,#412);
#284=LINE('',#1500,#413);
#285=LINE('',#1501,#414);
#286=LINE('',#1504,#415);
#287=LINE('',#1505,#416);
#288=LINE('',#1507,#417);
#289=LINE('',#1510,#418);
#290=LINE('',#1512,#419);
#291=LINE('',#1513,#420);
#292=LINE('',#1515,#421);
#293=LINE('',#1518,#422);
#294=LINE('',#1519,#423);
#295=LINE('',#1522,#424);
#296=LINE('',#1523,#425);
#297=LINE('',#1526,#426);
#298=LINE('',#1527,#427);
#299=LINE('',#1529,#428);
#300=LINE('',#1532,#429);
#301=LINE('',#1533,#430);
#302=LINE('',#1535,#431);
#303=LINE('',#1537,#432);
#304=LINE('',#1540,#433);
#305=LINE('',#1541,#434);
#306=LINE('',#1543,#435);
#307=LINE('',#1544,#436);
#308=LINE('',#1548,#437);
#309=LINE('',#1549,#438);
#310=LINE('',#1552,#439);
#311=LINE('',#1553,#440);
#312=LINE('',#1557,#441);
#313=LINE('',#1558,#442);
#314=LINE('',#1559,#443);
#315=LINE('',#1562,#444);
#316=LINE('',#1563,#445);
#317=LINE('',#1566,#446);
#318=LINE('',#1567,#447);
#319=LINE('',#1570,#448);
#320=LINE('',#1572,#449);
#321=LINE('',#1573,#450);
#322=LINE('',#1576,#451);
#323=LINE('',#1577,#452);
#324=LINE('',#1579,#453);
#325=LINE('',#1580,#454);
#326=LINE('',#1582,#455);
#327=LINE('',#1586,#456);
#328=LINE('',#1587,#457);
#329=LINE('',#1590,#458);
#330=LINE('',#1591,#459);
#331=LINE('',#1594,#460);
#332=LINE('',#1595,#461);
#333=LINE('',#1598,#462);
#334=LINE('',#1600,#463);
#335=LINE('',#1601,#464);
#336=LINE('',#1603,#465);
#337=LINE('',#1606,#466);
#338=LINE('',#1607,#467);
#339=LINE('',#1610,#468);
#340=LINE('',#1611,#469);
#341=LINE('',#1613,#470);
#342=LINE('',#1616,#471);
#343=LINE('',#1617,#472);
#344=LINE('',#1620,#473);
#345=LINE('',#1621,#474);
#346=LINE('',#1624,#475);
#347=LINE('',#1625,#476);
#348=LINE('',#1627,#477);
#349=VECTOR('',#1098,5.);
#350=VECTOR('',#1105,10.);
#351=VECTOR('',#1106,10.);
#352=VECTOR('',#1107,10.);
#353=VECTOR('',#1110,10.);
#354=VECTOR('',#1111,10.);
#355=VECTOR('',#1114,10.);
#356=VECTOR('',#1115,10.);
#357=VECTOR('',#1118,10.);
#358=VECTOR('',#1119,10.);
#359=VECTOR('',#1120,10.);
#360=VECTOR('',#1123,10.);
#361=VECTOR('',#1124,10.);
#362=VECTOR('',#1127,10.);
#363=VECTOR('',#1128,10.);
#364=VECTOR('',#1131,10.);
#365=VECTOR('',#1132,10.);
#366=VECTOR('',#1135,10.);
#367=VECTOR('',#1136,10.);
#368=VECTOR('',#1139,10.);
#369=VECTOR('',#1140,10.);
#370=VECTOR('',#1141,10.);
#371=VECTOR('',#1144,10.);
#372=VECTOR('',#1145,10.);
#373=VECTOR('',#1148,10.);
#374=VECTOR('',#1149,10.);
#375=VECTOR('',#1152,10.);
#376=VECTOR('',#1153,10.);
#377=VECTOR('',#1156,10.);
#378=VECTOR('',#1157,10.);
#379=VECTOR('',#1160,10.);
#380=VECTOR('',#1161,10.);
#381=VECTOR('',#1164,10.);
#382=VECTOR('',#1167,10.);
#383=VECTOR('',#1168,10.);
#384=VECTOR('',#1169,10.);
#385=VECTOR('',#1172,10.);
#386=VECTOR('',#1173,10.);
#387=VECTOR('',#1174,10.);
#388=VECTOR('',#1177,10.);
#389=VECTOR('',#1178,10.);
#390=VECTOR('',#1179,10.);
#391=VECTOR('',#1180,10.);
#392=VECTOR('',#1183,10.);
#393=VECTOR('',#1184,10.);
#394=VECTOR('',#1185,10.);
#395=VECTOR('',#1188,10.);
#396=VECTOR('',#1189,10.);
#397=VECTOR('',#1192,10.);
#398=VECTOR('',#1195,10.);
#399=VECTOR('',#1198,10.);
#400=VECTOR('',#1199,10.);
#401=VECTOR('',#1202,10.);
#402=VECTOR('',#1203,10.);
#403=VECTOR('',#1206,10.);
#404=VECTOR('',#1207,10.);
#405=VECTOR('',#1210,10.);
#406=VECTOR('',#1211,10.);
#407=VECTOR('',#1214,10.);
#408=VECTOR('',#1215,10.);
#409=VECTOR('',#1216,10.);
#410=VECTOR('',#1219,10.);
#411=VECTOR('',#1220,10.);
#412=VECTOR('',#1221,10.);
#413=VECTOR('',#1224,10.);
#414=VECTOR('',#1225,10.);
#415=VECTOR('',#1228,10.);
#416=VECTOR('',#1229,10.);
#417=VECTOR('',#1232,10.);
#418=VECTOR('',#1235,10.);
#419=VECTOR('',#1236,10.);
#420=VECTOR('',#1237,10.);
#421=VECTOR('',#1240,10.);
#422=VECTOR('',#1243,10.);
#423=VECTOR('',#1244,10.);
#424=VECTOR('',#1247,10.);
#425=VECTOR('',#1248,10.);
#426=VECTOR('',#1251,10.);
#427=VECTOR('',#1252,10.);
#428=VECTOR('',#1255,10.);
#429=VECTOR('',#1258,10.);
#430=VECTOR('',#1259,10.);
#431=VECTOR('',#1262,10.);
#432=VECTOR('',#1265,10.);
#433=VECTOR('',#1268,10.);
#434=VECTOR('',#1269,10.);
#435=VECTOR('',#1272,10.);
#436=VECTOR('',#1273,10.);
#437=VECTOR('',#1278,10.);
#438=VECTOR('',#1279,10.);
#439=VECTOR('',#1282,10.);
#440=VECTOR('',#1283,10.);
#441=VECTOR('',#1286,10.);
#442=VECTOR('',#1287,10.);
#443=VECTOR('',#1288,10.);
#444=VECTOR('',#1291,10.);
#445=VECTOR('',#1292,10.);
#446=VECTOR('',#1295,10.);
#447=VECTOR('',#1296,10.);
#448=VECTOR('',#1299,10.);
#449=VECTOR('',#1300,10.);
#450=VECTOR('',#1301,10.);
#451=VECTOR('',#1304,10.);
#452=VECTOR('',#1305,10.);
#453=VECTOR('',#1308,10.);
#454=VECTOR('',#1309,10.);
#455=VECTOR('',#1312,10.);
#456=VECTOR('',#1317,10.);
#457=VECTOR('',#1318,10.);
#458=VECTOR('',#1321,10.);
#459=VECTOR('',#1322,10.);
#460=VECTOR('',#1325,10.);
#461=VECTOR('',#1326,10.);
#462=VECTOR('',#1329,10.);
#463=VECTOR('',#1330,10.);
#464=VECTOR('',#1331,10.);
#465=VECTOR('',#1334,10.);
#466=VECTOR('',#1337,10.);
#467=VECTOR('',#1338,10.);
#468=VECTOR('',#1341,10.);
#469=VECTOR('',#1342,10.);
#470=VECTOR('',#1345,10.);
#471=VECTOR('',#1348,10.);
#472=VECTOR('',#1349,10.);
#473=VECTOR('',#1352,10.);
#474=VECTOR('',#1353,10.);
#475=VECTOR('',#1356,10.);
#476=VECTOR('',#1357,10.);
#477=VECTOR('',#1360,10.);
#478=CIRCLE('',#1023,4.85);
#479=CIRCLE('',#1024,4.85);
#480=VERTEX_POINT('',#1365);
#481=VERTEX_POINT('',#1367);
#482=VERTEX_POINT('',#1372);
#483=VERTEX_POINT('',#1373);
#484=VERTEX_POINT('',#1375);
#485=VERTEX_POINT('',#1379);
#486=VERTEX_POINT('',#1383);
#487=VERTEX_POINT('',#1387);
#488=VERTEX_POINT('',#1389);
#489=VERTEX_POINT('',#1393);
#490=VERTEX_POINT('',#1397);
#491=VERTEX_POINT('',#1401);
#492=VERTEX_POINT('',#1405);
#493=VERTEX_POINT('',#1409);
#494=VERTEX_POINT('',#1411);
#495=VERTEX_POINT('',#1415);
#496=VERTEX_POINT('',#1419);
#497=VERTEX_POINT('',#1423);
#498=VERTEX_POINT('',#1427);
#499=VERTEX_POINT('',#1431);
#500=VERTEX_POINT('',#1437);
#501=VERTEX_POINT('',#1439);
#502=VERTEX_POINT('',#1443);
#503=VERTEX_POINT('',#1445);
#504=VERTEX_POINT('',#1449);
#505=VERTEX_POINT('',#1450);
#506=VERTEX_POINT('',#1452);
#507=VERTEX_POINT('',#1454);
#508=VERTEX_POINT('',#1458);
#509=VERTEX_POINT('',#1460);
#510=VERTEX_POINT('',#1471);
#511=VERTEX_POINT('',#1475);
#512=VERTEX_POINT('',#1479);
#513=VERTEX_POINT('',#1483);
#514=VERTEX_POINT('',#1487);
#515=VERTEX_POINT('',#1488);
#516=VERTEX_POINT('',#1493);
#517=VERTEX_POINT('',#1495);
#518=VERTEX_POINT('',#1499);
#519=VERTEX_POINT('',#1503);
#520=VERTEX_POINT('',#1509);
#521=VERTEX_POINT('',#1511);
#522=VERTEX_POINT('',#1517);
#523=VERTEX_POINT('',#1521);
#524=VERTEX_POINT('',#1525);
#525=VERTEX_POINT('',#1531);
#526=VERTEX_POINT('',#1539);
#527=VERTEX_POINT('',#1547);
#528=VERTEX_POINT('',#1551);
#529=VERTEX_POINT('',#1555);
#530=VERTEX_POINT('',#1556);
#531=VERTEX_POINT('',#1561);
#532=VERTEX_POINT('',#1565);
#533=VERTEX_POINT('',#1569);
#534=VERTEX_POINT('',#1571);
#535=VERTEX_POINT('',#1575);
#536=VERTEX_POINT('',#1585);
#537=VERTEX_POINT('',#1589);
#538=VERTEX_POINT('',#1593);
#539=VERTEX_POINT('',#1597);
#540=VERTEX_POINT('',#1599);
#541=VERTEX_POINT('',#1605);
#542=VERTEX_POINT('',#1609);
#543=VERTEX_POINT('',#1615);
#544=VERTEX_POINT('',#1619);
#545=VERTEX_POINT('',#1623);
#546=EDGE_CURVE('',#480,#480,#478,.F.);
#547=EDGE_CURVE('',#480,#481,#220,.T.);
#548=EDGE_CURVE('',#481,#481,#479,.T.);
#549=EDGE_CURVE('',#482,#483,#221,.T.);
#550=EDGE_CURVE('',#484,#482,#222,.T.);
#551=EDGE_CURVE('',#484,#483,#223,.T.);
#552=EDGE_CURVE('',#485,#482,#224,.T.);
#553=EDGE_CURVE('',#485,#484,#225,.T.);
#554=EDGE_CURVE('',#485,#486,#226,.T.);
#555=EDGE_CURVE('',#486,#484,#227,.T.);
#556=EDGE_CURVE('',#483,#487,#228,.T.);
#557=EDGE_CURVE('',#487,#488,#229,.T.);
#558=EDGE_CURVE('',#482,#488,#230,.T.);
#559=EDGE_CURVE('',#487,#489,#231,.T.);
#560=EDGE_CURVE('',#488,#489,#232,.T.);
#561=EDGE_CURVE('',#489,#490,#233,.T.);
#562=EDGE_CURVE('',#488,#490,#234,.T.);
#563=EDGE_CURVE('',#489,#491,#235,.T.);
#564=EDGE_CURVE('',#491,#490,#236,.T.);
#565=EDGE_CURVE('',#492,#485,#237,.T.);
#566=EDGE_CURVE('',#492,#486,#238,.T.);
#567=EDGE_CURVE('',#493,#482,#239,.T.);
#568=EDGE_CURVE('',#494,#493,#240,.T.);
#569=EDGE_CURVE('',#494,#485,#241,.T.);
#570=EDGE_CURVE('',#495,#488,#242,.T.);
#571=EDGE_CURVE('',#493,#495,#243,.T.);
#572=EDGE_CURVE('',#496,#490,#244,.T.);
#573=EDGE_CURVE('',#495,#496,#245,.T.);
#574=EDGE_CURVE('',#491,#497,#246,.T.);
#575=EDGE_CURVE('',#497,#490,#247,.T.);
#576=EDGE_CURVE('',#498,#489,#248,.T.);
#577=EDGE_CURVE('',#498,#491,#249,.T.);
#578=EDGE_CURVE('',#498,#499,#250,.T.);
#579=EDGE_CURVE('',#499,#491,#251,.T.);
#580=EDGE_CURVE('',#499,#497,#252,.T.);
#581=EDGE_CURVE('',#500,#499,#253,.T.);
#582=EDGE_CURVE('',#501,#498,#254,.T.);
#583=EDGE_CURVE('',#501,#500,#255,.T.);
#584=EDGE_CURVE('',#500,#502,#256,.T.);
#585=EDGE_CURVE('',#501,#503,#257,.T.);
#586=EDGE_CURVE('',#503,#502,#258,.T.);
#587=EDGE_CURVE('',#504,#505,#259,.T.);
#588=EDGE_CURVE('',#505,#506,#260,.T.);
#589=EDGE_CURVE('',#507,#506,#261,.T.);
#590=EDGE_CURVE('',#504,#507,#262,.T.);
#591=EDGE_CURVE('',#506,#508,#263,.T.);
#592=EDGE_CURVE('',#509,#508,#264,.T.);
#593=EDGE_CURVE('',#507,#509,#265,.T.);
#594=EDGE_CURVE('',#486,#508,#266,.T.);
#595=EDGE_CURVE('',#484,#508,#267,.T.);
#596=EDGE_CURVE('',#486,#509,#268,.T.);
#597=EDGE_CURVE('',#492,#509,#269,.T.);
#598=EDGE_CURVE('',#510,#497,#270,.T.);
#599=EDGE_CURVE('',#510,#496,#271,.T.);
#600=EDGE_CURVE('',#511,#499,#272,.T.);
#601=EDGE_CURVE('',#511,#510,#273,.T.);
#602=EDGE_CURVE('',#512,#500,#274,.T.);
#603=EDGE_CURVE('',#512,#511,#275,.T.);
#604=EDGE_CURVE('',#513,#502,#276,.T.);
#605=EDGE_CURVE('',#512,#513,#277,.T.);
#606=EDGE_CURVE('',#514,#515,#278,.T.);
#607=EDGE_CURVE('',#514,#513,#279,.T.);
#608=EDGE_CURVE('',#515,#502,#280,.T.);
#609=EDGE_CURVE('',#516,#507,#281,.T.);
#610=EDGE_CURVE('',#517,#516,#282,.T.);
#611=EDGE_CURVE('',#517,#504,#283,.T.);
#612=EDGE_CURVE('',#518,#509,#284,.T.);
#613=EDGE_CURVE('',#516,#518,#285,.T.);
#614=EDGE_CURVE('',#519,#492,#286,.T.);
#615=EDGE_CURVE('',#519,#518,#287,.T.);
#616=EDGE_CURVE('',#519,#494,#288,.T.);
#617=EDGE_CURVE('',#520,#495,#289,.T.);
#618=EDGE_CURVE('',#495,#521,#290,.T.);
#619=EDGE_CURVE('',#520,#521,#291,.T.);
#620=EDGE_CURVE('',#521,#496,#292,.T.);
#621=EDGE_CURVE('',#522,#496,#293,.T.);
#622=EDGE_CURVE('',#521,#522,#294,.T.);
#623=EDGE_CURVE('',#523,#520,#295,.T.);
#624=EDGE_CURVE('',#493,#523,#296,.T.);
#625=EDGE_CURVE('',#524,#523,#297,.T.);
#626=EDGE_CURVE('',#524,#493,#298,.T.);
#627=EDGE_CURVE('',#494,#524,#299,.T.);
#628=EDGE_CURVE('',#525,#524,#300,.T.);
#629=EDGE_CURVE('',#494,#525,#301,.T.);
#630=EDGE_CURVE('',#522,#510,#302,.T.);
#631=EDGE_CURVE('',#519,#525,#303,.T.);
#632=EDGE_CURVE('',#524,#526,#304,.T.);
#633=EDGE_CURVE('',#525,#526,#305,.T.);
#634=EDGE_CURVE('',#518,#526,#306,.T.);
#635=EDGE_CURVE('',#525,#518,#307,.T.);
#636=EDGE_CURVE('',#527,#526,#308,.T.);
#637=EDGE_CURVE('',#516,#527,#309,.T.);
#638=EDGE_CURVE('',#528,#527,#310,.T.);
#639=EDGE_CURVE('',#517,#528,#311,.T.);
#640=EDGE_CURVE('',#529,#530,#312,.T.);
#641=EDGE_CURVE('',#529,#517,#313,.T.);
#642=EDGE_CURVE('',#517,#530,#314,.T.);
#643=EDGE_CURVE('',#530,#531,#315,.T.);
#644=EDGE_CURVE('',#531,#528,#316,.T.);
#645=EDGE_CURVE('',#531,#532,#317,.T.);
#646=EDGE_CURVE('',#532,#528,#318,.T.);
#647=EDGE_CURVE('',#533,#512,#319,.T.);
#648=EDGE_CURVE('',#534,#513,#320,.T.);
#649=EDGE_CURVE('',#533,#534,#321,.T.);
#650=EDGE_CURVE('',#535,#511,#322,.T.);
#651=EDGE_CURVE('',#533,#535,#323,.T.);
#652=EDGE_CURVE('',#535,#522,#324,.T.);
#653=EDGE_CURVE('',#535,#521,#325,.T.);
#654=EDGE_CURVE('',#511,#522,#326,.T.);
#655=EDGE_CURVE('',#536,#514,#327,.T.);
#656=EDGE_CURVE('',#536,#513,#328,.T.);
#657=EDGE_CURVE('',#537,#536,#329,.T.);
#658=EDGE_CURVE('',#534,#537,#330,.T.);
#659=EDGE_CURVE('',#538,#537,#331,.T.);
#660=EDGE_CURVE('',#538,#534,#332,.T.);
#661=EDGE_CURVE('',#539,#505,#333,.T.);
#662=EDGE_CURVE('',#540,#539,#334,.T.);
#663=EDGE_CURVE('',#540,#503,#335,.T.);
#664=EDGE_CURVE('',#532,#538,#336,.T.);
#665=EDGE_CURVE('',#515,#541,#337,.T.);
#666=EDGE_CURVE('',#541,#502,#338,.T.);
#667=EDGE_CURVE('',#541,#542,#339,.T.);
#668=EDGE_CURVE('',#503,#542,#340,.T.);
#669=EDGE_CURVE('',#542,#540,#341,.T.);
#670=EDGE_CURVE('',#539,#543,#342,.T.);
#671=EDGE_CURVE('',#543,#505,#343,.T.);
#672=EDGE_CURVE('',#543,#544,#344,.T.);
#673=EDGE_CURVE('',#504,#544,#345,.T.);
#674=EDGE_CURVE('',#544,#545,#346,.T.);
#675=EDGE_CURVE('',#545,#504,#347,.T.);
#676=EDGE_CURVE('',#545,#529,#348,.T.);
#677=ORIENTED_EDGE('',*,*,#546,.F.);
#678=ORIENTED_EDGE('',*,*,#547,.T.);
#679=ORIENTED_EDGE('',*,*,#548,.F.);
#680=ORIENTED_EDGE('',*,*,#547,.F.);
#681=ORIENTED_EDGE('',*,*,#546,.T.);
#682=ORIENTED_EDGE('',*,*,#549,.F.);
#683=ORIENTED_EDGE('',*,*,#550,.F.);
#684=ORIENTED_EDGE('',*,*,#551,.T.);
#685=ORIENTED_EDGE('',*,*,#550,.T.);
#686=ORIENTED_EDGE('',*,*,#552,.F.);
#687=ORIENTED_EDGE('',*,*,#553,.T.);
#688=ORIENTED_EDGE('',*,*,#553,.F.);
#689=ORIENTED_EDGE('',*,*,#554,.T.);
#690=ORIENTED_EDGE('',*,*,#555,.T.);
#691=ORIENTED_EDGE('',*,*,#556,.T.);
#692=ORIENTED_EDGE('',*,*,#557,.T.);
#693=ORIENTED_EDGE('',*,*,#558,.F.);
#694=ORIENTED_EDGE('',*,*,#549,.T.);
#695=ORIENTED_EDGE('',*,*,#559,.T.);
#696=ORIENTED_EDGE('',*,*,#560,.F.);
#697=ORIENTED_EDGE('',*,*,#557,.F.);
#698=ORIENTED_EDGE('',*,*,#560,.T.);
#699=ORIENTED_EDGE('',*,*,#561,.T.);
#700=ORIENTED_EDGE('',*,*,#562,.F.);
#701=ORIENTED_EDGE('',*,*,#561,.F.);
#702=ORIENTED_EDGE('',*,*,#563,.T.);
#703=ORIENTED_EDGE('',*,*,#564,.T.);
#704=ORIENTED_EDGE('',*,*,#554,.F.);
#705=ORIENTED_EDGE('',*,*,#565,.F.);
#706=ORIENTED_EDGE('',*,*,#566,.T.);
#707=ORIENTED_EDGE('',*,*,#552,.T.);
#708=ORIENTED_EDGE('',*,*,#567,.F.);
#709=ORIENTED_EDGE('',*,*,#568,.F.);
#710=ORIENTED_EDGE('',*,*,#569,.T.);
#711=ORIENTED_EDGE('',*,*,#558,.T.);
#712=ORIENTED_EDGE('',*,*,#570,.F.);
#713=ORIENTED_EDGE('',*,*,#571,.F.);
#714=ORIENTED_EDGE('',*,*,#567,.T.);
#715=ORIENTED_EDGE('',*,*,#562,.T.);
#716=ORIENTED_EDGE('',*,*,#572,.F.);
#717=ORIENTED_EDGE('',*,*,#573,.F.);
#718=ORIENTED_EDGE('',*,*,#570,.T.);
#719=ORIENTED_EDGE('',*,*,#564,.F.);
#720=ORIENTED_EDGE('',*,*,#574,.T.);
#721=ORIENTED_EDGE('',*,*,#575,.T.);
#722=ORIENTED_EDGE('',*,*,#576,.F.);
#723=ORIENTED_EDGE('',*,*,#577,.T.);
#724=ORIENTED_EDGE('',*,*,#563,.F.);
#725=ORIENTED_EDGE('',*,*,#577,.F.);
#726=ORIENTED_EDGE('',*,*,#578,.T.);
#727=ORIENTED_EDGE('',*,*,#579,.T.);
#728=ORIENTED_EDGE('',*,*,#579,.F.);
#729=ORIENTED_EDGE('',*,*,#580,.T.);
#730=ORIENTED_EDGE('',*,*,#574,.F.);
#731=ORIENTED_EDGE('',*,*,#581,.T.);
#732=ORIENTED_EDGE('',*,*,#578,.F.);
#733=ORIENTED_EDGE('',*,*,#582,.F.);
#734=ORIENTED_EDGE('',*,*,#583,.T.);
#735=ORIENTED_EDGE('',*,*,#584,.F.);
#736=ORIENTED_EDGE('',*,*,#583,.F.);
#737=ORIENTED_EDGE('',*,*,#585,.T.);
#738=ORIENTED_EDGE('',*,*,#586,.T.);
#739=ORIENTED_EDGE('',*,*,#587,.T.);
#740=ORIENTED_EDGE('',*,*,#588,.T.);
#741=ORIENTED_EDGE('',*,*,#589,.F.);
#742=ORIENTED_EDGE('',*,*,#590,.F.);
#743=ORIENTED_EDGE('',*,*,#589,.T.);
#744=ORIENTED_EDGE('',*,*,#591,.T.);
#745=ORIENTED_EDGE('',*,*,#592,.F.);
#746=ORIENTED_EDGE('',*,*,#593,.F.);
#747=ORIENTED_EDGE('',*,*,#555,.F.);
#748=ORIENTED_EDGE('',*,*,#594,.T.);
#749=ORIENTED_EDGE('',*,*,#595,.F.);
#750=ORIENTED_EDGE('',*,*,#594,.F.);
#751=ORIENTED_EDGE('',*,*,#596,.T.);
#752=ORIENTED_EDGE('',*,*,#592,.T.);
#753=ORIENTED_EDGE('',*,*,#596,.F.);
#754=ORIENTED_EDGE('',*,*,#566,.F.);
#755=ORIENTED_EDGE('',*,*,#597,.T.);
#756=ORIENTED_EDGE('',*,*,#575,.F.);
#757=ORIENTED_EDGE('',*,*,#598,.F.);
#758=ORIENTED_EDGE('',*,*,#599,.T.);
#759=ORIENTED_EDGE('',*,*,#572,.T.);
#760=ORIENTED_EDGE('',*,*,#580,.F.);
#761=ORIENTED_EDGE('',*,*,#600,.F.);
#762=ORIENTED_EDGE('',*,*,#601,.T.);
#763=ORIENTED_EDGE('',*,*,#598,.T.);
#764=ORIENTED_EDGE('',*,*,#581,.F.);
#765=ORIENTED_EDGE('',*,*,#602,.F.);
#766=ORIENTED_EDGE('',*,*,#603,.T.);
#767=ORIENTED_EDGE('',*,*,#600,.T.);
#768=ORIENTED_EDGE('',*,*,#584,.T.);
#769=ORIENTED_EDGE('',*,*,#604,.F.);
#770=ORIENTED_EDGE('',*,*,#605,.F.);
#771=ORIENTED_EDGE('',*,*,#602,.T.);
#772=ORIENTED_EDGE('',*,*,#606,.F.);
#773=ORIENTED_EDGE('',*,*,#607,.T.);
#774=ORIENTED_EDGE('',*,*,#604,.T.);
#775=ORIENTED_EDGE('',*,*,#608,.F.);
#776=ORIENTED_EDGE('',*,*,#590,.T.);
#777=ORIENTED_EDGE('',*,*,#609,.F.);
#778=ORIENTED_EDGE('',*,*,#610,.F.);
#779=ORIENTED_EDGE('',*,*,#611,.T.);
#780=ORIENTED_EDGE('',*,*,#593,.T.);
#781=ORIENTED_EDGE('',*,*,#612,.F.);
#782=ORIENTED_EDGE('',*,*,#613,.F.);
#783=ORIENTED_EDGE('',*,*,#609,.T.);
#784=ORIENTED_EDGE('',*,*,#597,.F.);
#785=ORIENTED_EDGE('',*,*,#614,.F.);
#786=ORIENTED_EDGE('',*,*,#615,.T.);
#787=ORIENTED_EDGE('',*,*,#612,.T.);
#788=ORIENTED_EDGE('',*,*,#565,.T.);
#789=ORIENTED_EDGE('',*,*,#569,.F.);
#790=ORIENTED_EDGE('',*,*,#616,.F.);
#791=ORIENTED_EDGE('',*,*,#614,.T.);
#792=ORIENTED_EDGE('',*,*,#617,.T.);
#793=ORIENTED_EDGE('',*,*,#618,.T.);
#794=ORIENTED_EDGE('',*,*,#619,.F.);
#795=ORIENTED_EDGE('',*,*,#618,.F.);
#796=ORIENTED_EDGE('',*,*,#573,.T.);
#797=ORIENTED_EDGE('',*,*,#620,.F.);
#798=ORIENTED_EDGE('',*,*,#620,.T.);
#799=ORIENTED_EDGE('',*,*,#621,.F.);
#800=ORIENTED_EDGE('',*,*,#622,.F.);
#801=ORIENTED_EDGE('',*,*,#571,.T.);
#802=ORIENTED_EDGE('',*,*,#617,.F.);
#803=ORIENTED_EDGE('',*,*,#623,.F.);
#804=ORIENTED_EDGE('',*,*,#624,.F.);
#805=ORIENTED_EDGE('',*,*,#625,.F.);
#806=ORIENTED_EDGE('',*,*,#626,.T.);
#807=ORIENTED_EDGE('',*,*,#624,.T.);
#808=ORIENTED_EDGE('',*,*,#626,.F.);
#809=ORIENTED_EDGE('',*,*,#627,.F.);
#810=ORIENTED_EDGE('',*,*,#568,.T.);
#811=ORIENTED_EDGE('',*,*,#627,.T.);
#812=ORIENTED_EDGE('',*,*,#628,.F.);
#813=ORIENTED_EDGE('',*,*,#629,.F.);
#814=ORIENTED_EDGE('',*,*,#621,.T.);
#815=ORIENTED_EDGE('',*,*,#599,.F.);
#816=ORIENTED_EDGE('',*,*,#630,.F.);
#817=ORIENTED_EDGE('',*,*,#629,.T.);
#818=ORIENTED_EDGE('',*,*,#631,.F.);
#819=ORIENTED_EDGE('',*,*,#616,.T.);
#820=ORIENTED_EDGE('',*,*,#632,.T.);
#821=ORIENTED_EDGE('',*,*,#633,.F.);
#822=ORIENTED_EDGE('',*,*,#628,.T.);
#823=ORIENTED_EDGE('',*,*,#633,.T.);
#824=ORIENTED_EDGE('',*,*,#634,.F.);
#825=ORIENTED_EDGE('',*,*,#635,.F.);
#826=ORIENTED_EDGE('',*,*,#635,.T.);
#827=ORIENTED_EDGE('',*,*,#615,.F.);
#828=ORIENTED_EDGE('',*,*,#631,.T.);
#829=ORIENTED_EDGE('',*,*,#636,.F.);
#830=ORIENTED_EDGE('',*,*,#637,.F.);
#831=ORIENTED_EDGE('',*,*,#613,.T.);
#832=ORIENTED_EDGE('',*,*,#634,.T.);
#833=ORIENTED_EDGE('',*,*,#638,.F.);
#834=ORIENTED_EDGE('',*,*,#639,.F.);
#835=ORIENTED_EDGE('',*,*,#610,.T.);
#836=ORIENTED_EDGE('',*,*,#637,.T.);
#837=ORIENTED_EDGE('',*,*,#640,.F.);
#838=ORIENTED_EDGE('',*,*,#641,.T.);
#839=ORIENTED_EDGE('',*,*,#642,.T.);
#840=ORIENTED_EDGE('',*,*,#643,.F.);
#841=ORIENTED_EDGE('',*,*,#642,.F.);
#842=ORIENTED_EDGE('',*,*,#639,.T.);
#843=ORIENTED_EDGE('',*,*,#644,.F.);
#844=ORIENTED_EDGE('',*,*,#645,.F.);
#845=ORIENTED_EDGE('',*,*,#644,.T.);
#846=ORIENTED_EDGE('',*,*,#646,.F.);
#847=ORIENTED_EDGE('',*,*,#647,.T.);
#848=ORIENTED_EDGE('',*,*,#605,.T.);
#849=ORIENTED_EDGE('',*,*,#648,.F.);
#850=ORIENTED_EDGE('',*,*,#649,.F.);
#851=ORIENTED_EDGE('',*,*,#650,.T.);
#852=ORIENTED_EDGE('',*,*,#603,.F.);
#853=ORIENTED_EDGE('',*,*,#647,.F.);
#854=ORIENTED_EDGE('',*,*,#651,.T.);
#855=ORIENTED_EDGE('',*,*,#622,.T.);
#856=ORIENTED_EDGE('',*,*,#652,.F.);
#857=ORIENTED_EDGE('',*,*,#653,.T.);
#858=ORIENTED_EDGE('',*,*,#652,.T.);
#859=ORIENTED_EDGE('',*,*,#654,.F.);
#860=ORIENTED_EDGE('',*,*,#650,.F.);
#861=ORIENTED_EDGE('',*,*,#654,.T.);
#862=ORIENTED_EDGE('',*,*,#630,.T.);
#863=ORIENTED_EDGE('',*,*,#601,.F.);
#864=ORIENTED_EDGE('',*,*,#655,.F.);
#865=ORIENTED_EDGE('',*,*,#656,.T.);
#866=ORIENTED_EDGE('',*,*,#607,.F.);
#867=ORIENTED_EDGE('',*,*,#657,.F.);
#868=ORIENTED_EDGE('',*,*,#658,.F.);
#869=ORIENTED_EDGE('',*,*,#648,.T.);
#870=ORIENTED_EDGE('',*,*,#656,.F.);
#871=ORIENTED_EDGE('',*,*,#659,.F.);
#872=ORIENTED_EDGE('',*,*,#660,.T.);
#873=ORIENTED_EDGE('',*,*,#658,.T.);
#874=ORIENTED_EDGE('',*,*,#595,.T.);
#875=ORIENTED_EDGE('',*,*,#591,.F.);
#876=ORIENTED_EDGE('',*,*,#588,.F.);
#877=ORIENTED_EDGE('',*,*,#661,.F.);
#878=ORIENTED_EDGE('',*,*,#662,.F.);
#879=ORIENTED_EDGE('',*,*,#663,.T.);
#880=ORIENTED_EDGE('',*,*,#585,.F.);
#881=ORIENTED_EDGE('',*,*,#582,.T.);
#882=ORIENTED_EDGE('',*,*,#576,.T.);
#883=ORIENTED_EDGE('',*,*,#559,.F.);
#884=ORIENTED_EDGE('',*,*,#556,.F.);
#885=ORIENTED_EDGE('',*,*,#551,.F.);
#886=ORIENTED_EDGE('',*,*,#653,.F.);
#887=ORIENTED_EDGE('',*,*,#651,.F.);
#888=ORIENTED_EDGE('',*,*,#649,.T.);
#889=ORIENTED_EDGE('',*,*,#660,.F.);
#890=ORIENTED_EDGE('',*,*,#664,.F.);
#891=ORIENTED_EDGE('',*,*,#646,.T.);
#892=ORIENTED_EDGE('',*,*,#638,.T.);
#893=ORIENTED_EDGE('',*,*,#636,.T.);
#894=ORIENTED_EDGE('',*,*,#632,.F.);
#895=ORIENTED_EDGE('',*,*,#625,.T.);
#896=ORIENTED_EDGE('',*,*,#623,.T.);
#897=ORIENTED_EDGE('',*,*,#619,.T.);
#898=ORIENTED_EDGE('',*,*,#665,.F.);
#899=ORIENTED_EDGE('',*,*,#608,.T.);
#900=ORIENTED_EDGE('',*,*,#666,.F.);
#901=ORIENTED_EDGE('',*,*,#667,.F.);
#902=ORIENTED_EDGE('',*,*,#666,.T.);
#903=ORIENTED_EDGE('',*,*,#586,.F.);
#904=ORIENTED_EDGE('',*,*,#668,.T.);
#905=ORIENTED_EDGE('',*,*,#669,.F.);
#906=ORIENTED_EDGE('',*,*,#668,.F.);
#907=ORIENTED_EDGE('',*,*,#663,.F.);
#908=ORIENTED_EDGE('',*,*,#670,.F.);
#909=ORIENTED_EDGE('',*,*,#661,.T.);
#910=ORIENTED_EDGE('',*,*,#671,.F.);
#911=ORIENTED_EDGE('',*,*,#672,.F.);
#912=ORIENTED_EDGE('',*,*,#671,.T.);
#913=ORIENTED_EDGE('',*,*,#587,.F.);
#914=ORIENTED_EDGE('',*,*,#673,.T.);
#915=ORIENTED_EDGE('',*,*,#674,.F.);
#916=ORIENTED_EDGE('',*,*,#673,.F.);
#917=ORIENTED_EDGE('',*,*,#675,.F.);
#918=ORIENTED_EDGE('',*,*,#676,.F.);
#919=ORIENTED_EDGE('',*,*,#675,.T.);
#920=ORIENTED_EDGE('',*,*,#611,.F.);
#921=ORIENTED_EDGE('',*,*,#641,.F.);
#922=ORIENTED_EDGE('',*,*,#606,.T.);
#923=ORIENTED_EDGE('',*,*,#665,.T.);
#924=ORIENTED_EDGE('',*,*,#667,.T.);
#925=ORIENTED_EDGE('',*,*,#669,.T.);
#926=ORIENTED_EDGE('',*,*,#662,.T.);
#927=ORIENTED_EDGE('',*,*,#670,.T.);
#928=ORIENTED_EDGE('',*,*,#672,.T.);
#929=ORIENTED_EDGE('',*,*,#674,.T.);
#930=ORIENTED_EDGE('',*,*,#676,.T.);
#931=ORIENTED_EDGE('',*,*,#640,.T.);
#932=ORIENTED_EDGE('',*,*,#643,.T.);
#933=ORIENTED_EDGE('',*,*,#645,.T.);
#934=ORIENTED_EDGE('',*,*,#664,.T.);
#935=ORIENTED_EDGE('',*,*,#659,.T.);
#936=ORIENTED_EDGE('',*,*,#657,.T.);
#937=ORIENTED_EDGE('',*,*,#655,.T.);
#938=ORIENTED_EDGE('',*,*,#548,.T.);
#939=CYLINDRICAL_SURFACE('',#1022,4.85);
#940=ADVANCED_FACE('',(#83),#939,.T.);
#941=ADVANCED_FACE('',(#84),#16,.T.);
#942=ADVANCED_FACE('',(#85),#17,.T.);
#943=ADVANCED_FACE('',(#86),#18,.T.);
#944=ADVANCED_FACE('',(#87),#19,.T.);
#945=ADVANCED_FACE('',(#88),#20,.T.);
#946=ADVANCED_FACE('',(#89),#21,.T.);
#947=ADVANCED_FACE('',(#90),#22,.T.);
#948=ADVANCED_FACE('',(#91),#23,.T.);
#949=ADVANCED_FACE('',(#92),#24,.T.);
#950=ADVANCED_FACE('',(#93),#25,.T.);
#951=ADVANCED_FACE('',(#94),#26,.T.);
#952=ADVANCED_FACE('',(#95),#27,.T.);
#953=ADVANCED_FACE('',(#96),#28,.T.);
#954=ADVANCED_FACE('',(#97),#29,.T.);
#955=ADVANCED_FACE('',(#98),#30,.T.);
#956=ADVANCED_FACE('',(#99),#31,.T.);
#957=ADVANCED_FACE('',(#100),#32,.T.);
#958=ADVANCED_FACE('',(#101),#33,.T.);
#959=ADVANCED_FACE('',(#102),#34,.T.);
#960=ADVANCED_FACE('',(#103),#35,.T.);
#961=ADVANCED_FACE('',(#104),#36,.T.);
#962=ADVANCED_FACE('',(#105),#37,.T.);
#963=ADVANCED_FACE('',(#106),#38,.T.);
#964=ADVANCED_FACE('',(#107),#39,.T.);
#965=ADVANCED_FACE('',(#108),#40,.T.);
#966=ADVANCED_FACE('',(#109),#41,.T.);
#967=ADVANCED_FACE('',(#110),#42,.T.);
#968=ADVANCED_FACE('',(#111),#43,.T.);
#969=ADVANCED_FACE('',(#112),#44,.T.);
#970=ADVANCED_FACE('',(#113),#45,.T.);
#971=ADVANCED_FACE('',(#114),#46,.T.);
#972=ADVANCED_FACE('',(#115),#47,.T.);
#973=ADVANCED_FACE('',(#116),#48,.T.);
#974=ADVANCED_FACE('',(#117),#49,.T.);
#975=ADVANCED_FACE('',(#118),#50,.T.);
#976=ADVANCED_FACE('',(#119),#51,.T.);
#977=ADVANCED_FACE('',(#120),#52,.T.);
#978=ADVANCED_FACE('',(#121),#53,.T.);
#979=ADVANCED_FACE('',(#122),#54,.T.);
#980=ADVANCED_FACE('',(#123),#55,.T.);
#981=ADVANCED_FACE('',(#124),#56,.T.);
#982=ADVANCED_FACE('',(#125),#57,.T.);
#983=ADVANCED_FACE('',(#126),#58,.T.);
#984=ADVANCED_FACE('',(#127),#59,.T.);
#985=ADVANCED_FACE('',(#128),#60,.T.);
#986=ADVANCED_FACE('',(#129),#61,.T.);
#987=ADVANCED_FACE('',(#130),#62,.T.);
#988=ADVANCED_FACE('',(#131),#63,.T.);
#989=ADVANCED_FACE('',(#132),#64,.T.);
#990=ADVANCED_FACE('',(#133),#65,.T.);
#991=ADVANCED_FACE('',(#134),#66,.T.);
#992=ADVANCED_FACE('',(#135),#67,.T.);
#993=ADVANCED_FACE('',(#136),#68,.T.);
#994=ADVANCED_FACE('',(#137),#69,.T.);
#995=ADVANCED_FACE('',(#138),#70,.T.);
#996=ADVANCED_FACE('',(#139),#71,.T.);
#997=ADVANCED_FACE('',(#140),#72,.T.);
#998=ADVANCED_FACE('',(#141),#73,.T.);
#999=ADVANCED_FACE('',(#142),#74,.T.);
#1000=ADVANCED_FACE('',(#143),#75,.T.);
#1001=ADVANCED_FACE('',(#144),#76,.T.);
#1002=ADVANCED_FACE('',(#145),#77,.T.);
#1003=ADVANCED_FACE('',(#146),#78,.T.);
#1004=ADVANCED_FACE('',(#147),#79,.T.);
#1005=ADVANCED_FACE('',(#148),#80,.T.);
#1006=ADVANCED_FACE('',(#149),#81,.T.);
#1007=ADVANCED_FACE('',(#150,#15),#82,.T.);
#1008=CLOSED_SHELL('',(#940,#941,#942,#943,#944,#945,#946,#947,#948,#949,
#950,#951,#952,#953,#954,#955,#956,#957,#958,#959,#960,#961,#962,#963,#964,
#965,#966,#967,#968,#969,#970,#971,#972,#973,#974,#975,#976,#977,#978,#979,
#980,#981,#982,#983,#984,#985,#986,#987,#988,#989,#990,#991,#992,#993,#994,
#995,#996,#997,#998,#999,#1000,#1001,#1002,#1003,#1004,#1005,#1006,#1007));
#1009=DERIVED_UNIT_ELEMENT(#1011,1.);
#1010=DERIVED_UNIT_ELEMENT(#1634,-3.);
#1011=(
MASS_UNIT()
NAMED_UNIT(*)
SI_UNIT(.KILO.,.GRAM.)
);
#1012=DERIVED_UNIT((#1009,#1010));
#1013=MEASURE_REPRESENTATION_ITEM('density measure',
POSITIVE_RATIO_MEASURE(1171.75),#1012);
#1014=PROPERTY_DEFINITION_REPRESENTATION(#1019,#1016);
#1015=PROPERTY_DEFINITION_REPRESENTATION(#1020,#1017);
#1016=REPRESENTATION('material name',(#1018),#1631);
#1017=REPRESENTATION('density',(#1013),#1631);
#1018=DESCRIPTIVE_REPRESENTATION_ITEM(
'PA 11 - Nylon- HP 11-30 (with EOS P 396 3D Printer)',
'PA 11 - Nylon- HP 11-30 (with EOS P 396 3D Printer)');
#1019=PROPERTY_DEFINITION('material property','material name',#1641);
#1020=PROPERTY_DEFINITION('material property','density of part',#1641);
#1021=AXIS2_PLACEMENT_3D('',#1363,#1092,#1093);
#1022=AXIS2_PLACEMENT_3D('',#1364,#1094,#1095);
#1023=AXIS2_PLACEMENT_3D('',#1366,#1096,#1097);
#1024=AXIS2_PLACEMENT_3D('',#1369,#1099,#1100);
#1025=AXIS2_PLACEMENT_3D('',#1370,#1101,#1102);
#1026=AXIS2_PLACEMENT_3D('',#1371,#1103,#1104);
#1027=AXIS2_PLACEMENT_3D('',#1378,#1108,#1109);
#1028=AXIS2_PLACEMENT_3D('',#1382,#1112,#1113);
#1029=AXIS2_PLACEMENT_3D('',#1386,#1116,#1117);
#1030=AXIS2_PLACEMENT_3D('',#1392,#1121,#1122);
#1031=AXIS2_PLACEMENT_3D('',#1396,#1125,#1126);
#1032=AXIS2_PLACEMENT_3D('',#1400,#1129,#1130);
#1033=AXIS2_PLACEMENT_3D('',#1404,#1133,#1134);
#1034=AXIS2_PLACEMENT_3D('',#1408,#1137,#1138);
#1035=AXIS2_PLACEMENT_3D('',#1414,#1142,#1143);
#1036=AXIS2_PLACEMENT_3D('',#1418,#1146,#1147);
#1037=AXIS2_PLACEMENT_3D('',#1422,#1150,#1151);
#1038=AXIS2_PLACEMENT_3D('',#1426,#1154,#1155);
#1039=AXIS2_PLACEMENT_3D('',#1430,#1158,#1159);
#1040=AXIS2_PLACEMENT_3D('',#1434,#1162,#1163);
#1041=AXIS2_PLACEMENT_3D('',#1436,#1165,#1166);
#1042=AXIS2_PLACEMENT_3D('',#1442,#1170,#1171);
#1043=AXIS2_PLACEMENT_3D('',#1448,#1175,#1176);
#1044=AXIS2_PLACEMENT_3D('',#1457,#1181,#1182);
#1045=AXIS2_PLACEMENT_3D('',#1463,#1186,#1187);
#1046=AXIS2_PLACEMENT_3D('',#1466,#1190,#1191);
#1047=AXIS2_PLACEMENT_3D('',#1468,#1193,#1194);
#1048=AXIS2_PLACEMENT_3D('',#1470,#1196,#1197);
#1049=AXIS2_PLACEMENT_3D('',#1474,#1200,#1201);
#1050=AXIS2_PLACEMENT_3D('',#1478,#1204,#1205);
#1051=AXIS2_PLACEMENT_3D('',#1482,#1208,#1209);
#1052=AXIS2_PLACEMENT_3D('',#1486,#1212,#1213);
#1053=AXIS2_PLACEMENT_3D('',#1492,#1217,#1218);
#1054=AXIS2_PLACEMENT_3D('',#1498,#1222,#1223);
#1055=AXIS2_PLACEMENT_3D('',#1502,#1226,#1227);
#1056=AXIS2_PLACEMENT_3D('',#1506,#1230,#1231);
#1057=AXIS2_PLACEMENT_3D('',#1508,#1233,#1234);
#1058=AXIS2_PLACEMENT_3D('',#1514,#1238,#1239);
#1059=AXIS2_PLACEMENT_3D('',#1516,#1241,#1242);
#1060=AXIS2_PLACEMENT_3D('',#1520,#1245,#1246);
#1061=AXIS2_PLACEMENT_3D('',#1524,#1249,#1250);
#1062=AXIS2_PLACEMENT_3D('',#1528,#1253,#1254);
#1063=AXIS2_PLACEMENT_3D('',#1530,#1256,#1257);
#1064=AXIS2_PLACEMENT_3D('',#1534,#1260,#1261);
#1065=AXIS2_PLACEMENT_3D('',#1536,#1263,#1264);
#1066=AXIS2_PLACEMENT_3D('',#1538,#1266,#1267);
#1067=AXIS2_PLACEMENT_3D('',#1542,#1270,#1271);
#1068=AXIS2_PLACEMENT_3D('',#1545,#1274,#1275);
#1069=AXIS2_PLACEMENT_3D('',#1546,#1276,#1277);
#1070=AXIS2_PLACEMENT_3D('',#1550,#1280,#1281);
#1071=AXIS2_PLACEMENT_3D('',#1554,#1284,#1285);
#1072=AXIS2_PLACEMENT_3D('',#1560,#1289,#1290);
#1073=AXIS2_PLACEMENT_3D('',#1564,#1293,#1294);
#1074=AXIS2_PLACEMENT_3D('',#1568,#1297,#1298);
#1075=AXIS2_PLACEMENT_3D('',#1574,#1302,#1303);
#1076=AXIS2_PLACEMENT_3D('',#1578,#1306,#1307);
#1077=AXIS2_PLACEMENT_3D('',#1581,#1310,#1311);
#1078=AXIS2_PLACEMENT_3D('',#1583,#1313,#1314);
#1079=AXIS2_PLACEMENT_3D('',#1584,#1315,#1316);
#1080=AXIS2_PLACEMENT_3D('',#1588,#1319,#1320);
#1081=AXIS2_PLACEMENT_3D('',#1592,#1323,#1324);
#1082=AXIS2_PLACEMENT_3D('',#1596,#1327,#1328);
#1083=AXIS2_PLACEMENT_3D('',#1602,#1332,#1333);
#1084=AXIS2_PLACEMENT_3D('',#1604,#1335,#1336);
#1085=AXIS2_PLACEMENT_3D('',#1608,#1339,#1340);
#1086=AXIS2_PLACEMENT_3D('',#1612,#1343,#1344);
#1087=AXIS2_PLACEMENT_3D('',#1614,#1346,#1347);
#1088=AXIS2_PLACEMENT_3D('',#1618,#1350,#1351);
#1089=AXIS2_PLACEMENT_3D('',#1622,#1354,#1355);
#1090=AXIS2_PLACEMENT_3D('',#1626,#1358,#1359);
#1091=AXIS2_PLACEMENT_3D('',#1628,#1361,#1362);
#1092=DIRECTION('axis',(0.,0.,1.));
#1093=DIRECTION('refdir',(1.,0.,0.));
#1094=DIRECTION('center_axis',(0.,0.,-1.));
#1095=DIRECTION('ref_axis',(1.,0.,0.));
#1096=DIRECTION('center_axis',(0.,0.,1.));
#1097=DIRECTION('ref_axis',(1.,0.,0.));
#1098=DIRECTION('',(0.,0.,1.));
#1099=DIRECTION('center_axis',(0.,0.,1.));
#1100=DIRECTION('ref_axis',(1.,0.,0.));
#1101=DIRECTION('center_axis',(0.,0.,-1.));
#1102=DIRECTION('ref_axis',(1.,0.,0.));
#1103=DIRECTION('center_axis',(-0.478025982599657,-0.707106817076919,0.521048087227063));
#1104=DIRECTION('ref_axis',(0.736873309006294,0.,0.676030862072224));
#1105=DIRECTION('',(0.265355699852734,-0.681757417471811,-0.681757417471811));
#1106=DIRECTION('',(0.403960677358123,0.349766131981437,0.845268847212004));
#1107=DIRECTION('',(0.736873309006295,0.,0.676030862072224));
#1108=DIRECTION('center_axis',(-0.478025701180836,-0.707107038816991,0.521048044489217));
#1109=DIRECTION('ref_axis',(0.736873479640503,0.,0.676030676080973));
#1110=DIRECTION('',(0.736873479640503,0.,0.676030676080973));
#1111=DIRECTION('',(0.726949432942657,-0.651452277415556,-0.217150759138519));
#1112=DIRECTION('center_axis',(-0.478027391499691,-0.707107981619121,0.521045214263153));
#1113=DIRECTION('ref_axis',(0.736870459584087,0.,0.676033967927896));
#1114=DIRECTION('',(0.675229055386222,-0.675229326986748,-0.296868790443277));
#1115=DIRECTION('',(0.876049797267314,-0.340972316308954,0.340990662949595));
#1116=DIRECTION('center_axis',(0.,-0.707106781186548,0.707106781186548));
#1117=DIRECTION('ref_axis',(1.,0.,0.));
#1118=DIRECTION('',(1.,0.,0.));
#1119=DIRECTION('',(0.26535577854986,0.681757402156441,0.681757402156441));
#1120=DIRECTION('',(1.,0.,0.));
#1121=DIRECTION('center_axis',(0.478025974834979,-0.707106844000397,0.521048057813159));
#1122=DIRECTION('ref_axis',(0.736873295465611,0.,-0.676030876831562));
#1123=DIRECTION('',(0.736873295465611,0.,-0.676030876831562));
#1124=DIRECTION('',(0.403960622840343,-0.349766141186465,-0.845268869457507));
#1125=DIRECTION('center_axis',(0.478025747012952,-0.707107023509609,0.521048023214838));
#1126=DIRECTION('ref_axis',(0.736873433602193,0.,-0.67603072626273));
#1127=DIRECTION('',(0.726949394797041,0.651452315725253,0.217150771908418));
#1128=DIRECTION('',(0.736873433602193,0.,-0.67603072626273));
#1129=DIRECTION('center_axis',(0.478028267724994,-0.707108429474507,0.52104380259431));
#1130=DIRECTION('ref_axis',(0.736868929887782,0.,-0.676035635278226));
#1131=DIRECTION('',(0.876049263982177,0.340973001347835,-0.340991348025335));
#1132=DIRECTION('',(0.675229203154717,0.675229203154717,0.296868735999752));
#1133=DIRECTION('center_axis',(-0.707106923397931,-0.707106638975136,0.));
#1134=DIRECTION('ref_axis',(0.,0.,1.));
#1135=DIRECTION('',(0.,0.,1.));
#1136=DIRECTION('',(0.577350940076818,-0.577351172307375,0.577348695181443));
#1137=DIRECTION('center_axis',(-0.676030676080973,0.,0.736873479640503));
#1138=DIRECTION('ref_axis',(0.736873479640503,0.,0.676030676080973));
#1139=DIRECTION('',(0.,-1.,0.));
#1140=DIRECTION('',(0.736873479640503,0.,0.676030676080973));
#1141=DIRECTION('',(0.,-1.,0.));
#1142=DIRECTION('center_axis',(0.,0.,1.));
#1143=DIRECTION('ref_axis',(1.,0.,0.));
#1144=DIRECTION('',(0.,-1.,0.));
#1145=DIRECTION('',(1.,0.,0.));
#1146=DIRECTION('center_axis',(0.67603072626273,0.,0.736873433602193));
#1147=DIRECTION('ref_axis',(0.736873433602193,0.,-0.67603072626273));
#1148=DIRECTION('',(0.,-1.,0.));
#1149=DIRECTION('',(0.736873433602193,0.,-0.67603072626273));
#1150=DIRECTION('center_axis',(0.707106781186548,-0.707106781186548,0.));
#1151=DIRECTION('ref_axis',(0.,0.,-1.));
#1152=DIRECTION('',(0.577351094896978,0.577351094896978,-0.577348617771378));
#1153=DIRECTION('',(0.,0.,1.));
#1154=DIRECTION('center_axis',(0.,-0.707125804007279,-0.707087757854045));
#1155=DIRECTION('ref_axis',(-1.,0.,0.));
#1156=DIRECTION('',(1.,0.,0.));
#1157=DIRECTION('',(0.999009369430096,0.0314656419064078,-0.0314673349729618));
#1158=DIRECTION('center_axis',(-1.23733935057947E-6,-0.707106162515446,
-0.707107399856026));
#1159=DIRECTION('ref_axis',(-0.999999999998469,0.,1.74986055983789E-6));
#1160=DIRECTION('',(0.577350651553775,0.577350078007456,-0.577350078007456));
#1161=DIRECTION('',(0.716345584012253,-0.493381745252543,0.493379628397544));
#1162=DIRECTION('center_axis',(0.,-0.707105264260399,-0.707108298109442));
#1163=DIRECTION('ref_axis',(-1.,0.,0.));
#1164=DIRECTION('',(1.,0.,0.));
#1165=DIRECTION('center_axis',(0.707106429962562,-0.707107132410358,0.));
#1166=DIRECTION('ref_axis',(0.,0.,-1.));
#1167=DIRECTION('',(0.,0.,1.));
#1168=DIRECTION('',(0.,0.,1.));
#1169=DIRECTION('',(0.577350651553775,0.577350078007456,0.577350078007456));
#1170=DIRECTION('center_axis',(0.,-0.707106781186548,0.707106781186548));
#1171=DIRECTION('ref_axis',(1.,0.,0.));
#1172=DIRECTION('',(1.,0.,0.));
#1173=DIRECTION('',(1.,0.,0.));
#1174=DIRECTION('',(0.577350651553775,0.577350078007456,0.577350078007456));
#1175=DIRECTION('center_axis',(0.,-0.707106781186548,0.707106781186548));
#1176=DIRECTION('ref_axis',(1.,0.,0.));
#1177=DIRECTION('',(0.577350651553775,-0.577350078007456,-0.577350078007456));
#1178=DIRECTION('',(1.,0.,0.));
#1179=DIRECTION('',(0.577350555962773,-0.577350125802999,-0.577350125802999));
#1180=DIRECTION('',(1.,0.,0.));
#1181=DIRECTION('center_axis',(-0.707106517768542,-0.707107044604455,0.));
#1182=DIRECTION('ref_axis',(0.,0.,1.));
#1183=DIRECTION('',(0.,0.,1.));
#1184=DIRECTION('',(0.577350555962773,-0.577350125802999,0.577350125802999));
#1185=DIRECTION('',(0.,0.,1.));
#1186=DIRECTION('center_axis',(0.,-0.707125804007279,-0.707087757854045));
#1187=DIRECTION('ref_axis',(-1.,0.,0.));
#1188=DIRECTION('',(0.999009369796802,-0.0314656360854001,0.0314673291516409));
#1189=DIRECTION('',(1.,0.,0.));
#1190=DIRECTION('center_axis',(1.23733910376977E-6,-0.707106162515723,-0.707107399855748));
#1191=DIRECTION('ref_axis',(-0.999999999998469,0.,-1.74986021079726E-6));
#1192=DIRECTION('',(0.716345761144625,0.493381616661883,-0.493379499807435));
#1193=DIRECTION('center_axis',(0.,-0.707105264260399,-0.707108298109442));
#1194=DIRECTION('ref_axis',(-1.,0.,0.));
#1195=DIRECTION('',(1.,0.,0.));
#1196=DIRECTION('center_axis',(1.,0.,0.));
#1197=DIRECTION('ref_axis',(0.,0.,-1.));
#1198=DIRECTION('',(0.,-1.,0.));
#1199=DIRECTION('',(0.,0.,1.));
#1200=DIRECTION('center_axis',(0.,0.,-1.));
#1201=DIRECTION('ref_axis',(-1.,0.,0.));
#1202=DIRECTION('',(0.,-1.,0.));
#1203=DIRECTION('',(1.,0.,0.));
#1204=DIRECTION('center_axis',(1.,0.,0.));
#1205=DIRECTION('ref_axis',(0.,0.,-1.));
#1206=DIRECTION('',(0.,-1.,0.));
#1207=DIRECTION('',(0.,0.,1.));
#1208=DIRECTION('center_axis',(0.,0.,1.));
#1209=DIRECTION('ref_axis',(1.,0.,0.));
#1210=DIRECTION('',(0.,-1.,0.));
#1211=DIRECTION('',(1.,0.,0.));
#1212=DIRECTION('center_axis',(1.,0.,0.));
#1213=DIRECTION('ref_axis',(0.,0.,-1.));
#1214=DIRECTION('',(0.,-1.,0.));
#1215=DIRECTION('',(0.,0.,1.));
#1216=DIRECTION('',(0.,0.,1.));
#1217=DIRECTION('center_axis',(0.,0.,1.));
#1218=DIRECTION('ref_axis',(1.,0.,0.));
#1219=DIRECTION('',(0.,-1.,0.));
#1220=DIRECTION('',(1.,0.,0.));
#1221=DIRECTION('',(0.,-1.,0.));
#1222=DIRECTION('center_axis',(-1.,0.,0.));
#1223=DIRECTION('ref_axis',(0.,0.,1.));
#1224=DIRECTION('',(0.,-1.,0.));
#1225=DIRECTION('',(0.,0.,1.));
#1226=DIRECTION('center_axis',(0.,0.,-1.));
#1227=DIRECTION('ref_axis',(-1.,0.,0.));
#1228=DIRECTION('',(0.,-1.,0.));
#1229=DIRECTION('',(1.,0.,0.));
#1230=DIRECTION('center_axis',(-1.,0.,0.));
#1231=DIRECTION('ref_axis',(0.,0.,1.));
#1232=DIRECTION('',(0.,0.,1.));
#1233=DIRECTION('center_axis',(0.478025974834979,0.707106844000397,0.521048057813159));
#1234=DIRECTION('ref_axis',(0.736873295465611,0.,-0.676030876831562));
#1235=DIRECTION('',(0.26535577854986,-0.681757402156441,0.681757402156441));
#1236=DIRECTION('',(0.403960622840343,0.349766141186465,-0.845268869457507));
#1237=DIRECTION('',(0.736873295465611,0.,-0.676030876831562));
#1238=DIRECTION('center_axis',(0.478025747012952,0.707107023509609,0.521048023214838));
#1239=DIRECTION('ref_axis',(0.736873433602193,0.,-0.67603072626273));
#1240=DIRECTION('',(0.726949394797041,-0.651452315725253,0.217150771908418));
#1241=DIRECTION('center_axis',(0.478033428807707,0.707111308109765,0.521035160891896));
#1242=DIRECTION('ref_axis',(0.736859708439303,0.,-0.676045686384245));
#1243=DIRECTION('',(0.675229863592424,-0.675228415055134,0.296869026365314));
#1244=DIRECTION('',(0.876046523797982,-0.340981108132449,-0.340990281442506));
#1245=DIRECTION('center_axis',(0.,0.707106781186548,0.707106781186548));
#1246=DIRECTION('ref_axis',(1.,0.,0.));
#1247=DIRECTION('',(1.,0.,0.));
#1248=DIRECTION('',(0.265355699852734,0.681757417471811,-0.681757417471811));
#1249=DIRECTION('center_axis',(-0.478025982599657,0.707106817076919,0.521048087227063));
#1250=DIRECTION('ref_axis',(0.736873309006294,0.,0.676030862072224));
#1251=DIRECTION('',(0.736873309006295,0.,0.676030862072224));
#1252=DIRECTION('',(0.403960677358123,-0.349766131981437,0.845268847212004));
#1253=DIRECTION('center_axis',(-0.478025701180836,0.707107038816991,0.521048044489217));
#1254=DIRECTION('ref_axis',(0.736873479640503,0.,0.676030676080973));
#1255=DIRECTION('',(0.726949432942657,0.651452277415556,-0.217150759138519));
#1256=DIRECTION('center_axis',(-0.478032552578285,0.707110860260456,0.521036572590838));
#1257=DIRECTION('ref_axis',(0.736861238192776,0.,0.676044019017259));
#1258=DIRECTION('',(0.876047057092461,0.340980423081567,0.340989596373194));
#1259=DIRECTION('',(0.675229715824025,0.675228538887261,-0.296869080808999));
#1260=DIRECTION('center_axis',(0.707106022724693,0.707107539647588,0.));
#1261=DIRECTION('ref_axis',(0.,0.,-1.));
#1262=DIRECTION('',(0.577351507752426,-0.57735026918874,-0.577349030625055));
#1263=DIRECTION('center_axis',(-0.707106164936229,0.707107397436329,0.));
#1264=DIRECTION('ref_axis',(0.,0.,1.));
#1265=DIRECTION('',(0.577351352932266,0.577350346599137,0.577349108035285));
#1266=DIRECTION('center_axis',(0.,0.707116292532948,-0.707097269712208));
#1267=DIRECTION('ref_axis',(-1.,0.,0.));
#1268=DIRECTION('',(1.,0.,0.));
#1269=DIRECTION('',(0.999009343186129,0.0314664817803459,0.0314673283134438));
#1270=DIRECTION('center_axis',(6.18669822532285E-7,0.707106471851203,-0.707107090521486));
#1271=DIRECTION('ref_axis',(-0.999999999999617,0.,-8.74930870903563E-7));
#1272=DIRECTION('',(0.577350555962773,0.577350125802999,0.577350125802999));
#1273=DIRECTION('',(0.716346135226387,-0.493380815882123,-0.493379757454346));
#1274=DIRECTION('center_axis',(0.,0.707106022723066,-0.707107539649215));
#1275=DIRECTION('ref_axis',(-1.,0.,0.));
#1276=DIRECTION('center_axis',(-0.707106517768542,0.707107044604455,0.));
#1277=DIRECTION('ref_axis',(0.,0.,1.));
#1278=DIRECTION('',(0.,0.,1.));
#1279=DIRECTION('',(0.577350555962773,0.577350125802999,-0.577350125802999));
#1280=DIRECTION('center_axis',(0.,0.707106781186548,0.707106781186548));
#1281=DIRECTION('ref_axis',(1.,0.,0.));
#1282=DIRECTION('',(1.,0.,0.));
#1283=DIRECTION('',(0.577350651553775,0.577350078007456,-0.577350078007456));
#1284=DIRECTION('center_axis',(-0.707106254350635,0.707107308022068,0.));
#1285=DIRECTION('ref_axis',(0.,0.,1.));
#1286=DIRECTION('',(0.707107308022068,0.707106254350635,0.));
#1287=DIRECTION('',(0.,0.,1.));
#1288=DIRECTION('',(0.00755624713403677,0.00755623587435716,-0.999942901584216));
#1289=DIRECTION('center_axis',(-0.707106431299708,0.707107131073214,-2.67429089425851E-9));
#1290=DIRECTION('ref_axis',(-3.78202032379056E-9,0.,1.));
#1291=DIRECTION('',(0.707107131073214,0.707106431299708,0.));
#1292=DIRECTION('',(0.00767217848676751,0.00767217467595349,0.999941135974018));
#1293=DIRECTION('center_axis',(-0.707106605574533,0.707106956798518,0.));
#1294=DIRECTION('ref_axis',(0.,0.,1.));
#1295=DIRECTION('',(0.707106956798518,0.707106605574533,0.));
#1296=DIRECTION('',(0.,0.,1.));
#1297=DIRECTION('center_axis',(0.,0.707106781186548,0.707106781186548));
#1298=DIRECTION('ref_axis',(1.,0.,0.));
#1299=DIRECTION('',(0.577350651553775,-0.577350078007456,0.577350078007456));
#1300=DIRECTION('',(0.577350651553775,-0.577350078007456,0.577350078007456));
#1301=DIRECTION('',(1.,0.,0.));
#1302=DIRECTION('center_axis',(0.707106429962562,0.707107132410358,0.));
#1303=DIRECTION('ref_axis',(0.,0.,-1.));
#1304=DIRECTION('',(0.577350651553775,-0.577350078007456,-0.577350078007456));
#1305=DIRECTION('',(0.,0.,1.));
#1306=DIRECTION('center_axis',(0.,0.707116292532948,-0.707097269712208));
#1307=DIRECTION('ref_axis',(-1.,0.,0.));
#1308=DIRECTION('',(0.999009342819413,-0.0314664876015098,-0.0314673341347642));
#1309=DIRECTION('',(1.,0.,0.));
#1310=DIRECTION('center_axis',(-6.1866994593731E-7,0.707106471851064,-0.707107090521625));
#1311=DIRECTION('ref_axis',(-0.999999999999617,0.,8.74931045424374E-7));
#1312=DIRECTION('',(0.716345958094117,0.493380944472709,0.493379886044657));
#1313=DIRECTION('center_axis',(0.,0.707106022723066,-0.707107539649215));
#1314=DIRECTION('ref_axis',(-1.,0.,0.));
#1315=DIRECTION('center_axis',(0.707106781186548,0.707106781186548,0.));
#1316=DIRECTION('ref_axis',(0.,0.,-1.));
#1317=DIRECTION('',(0.707106781186548,-0.707106781186548,0.));
#1318=DIRECTION('',(0.00755623587500005,-0.00755623587500005,0.999942901669292));
#1319=DIRECTION('center_axis',(0.707106427288271,0.707107135084647,5.34858175817435E-9));
#1320=DIRECTION('ref_axis',(7.56404064758112E-9,0.,-1.));
#1321=DIRECTION('',(0.707107135084647,-0.707106427288271,0.));
#1322=DIRECTION('',(0.00767218991853662,-0.00767217467528055,-0.999941135886311));
#1323=DIRECTION('center_axis',(0.707106078738751,0.707107483633646,0.));
#1324=DIRECTION('ref_axis',(0.,0.,-1.));
#1325=DIRECTION('',(0.707107483633646,-0.707106078738751,0.));
#1326=DIRECTION('',(0.,0.,1.));
#1327=DIRECTION('center_axis',(0.,-1.,0.));
#1328=DIRECTION('ref_axis',(0.,0.,-1.));
#1329=DIRECTION('',(0.,0.,1.));
#1330=DIRECTION('',(-1.,0.,0.));
#1331=DIRECTION('',(0.,0.,1.));
#1332=DIRECTION('center_axis',(0.,1.,0.));
#1333=DIRECTION('ref_axis',(0.,0.,1.));
#1334=DIRECTION('',(1.,0.,0.));
#1335=DIRECTION('center_axis',(0.707106781186548,-0.707106781186548,0.));
#1336=DIRECTION('ref_axis',(0.,0.,-1.));
#1337=DIRECTION('',(-0.707106781186548,-0.707106781186548,0.));
#1338=DIRECTION('',(0.00755623587500005,0.00755623587500005,0.999942901669292));
#1339=DIRECTION('center_axis',(0.707106427288271,-0.707107135084647,5.34858175817435E-9));
#1340=DIRECTION('ref_axis',(7.56404064758112E-9,0.,-1.));
#1341=DIRECTION('',(-0.707107135084647,-0.707106427288271,0.));
#1342=DIRECTION('',(0.00767218991853662,0.00767217467528055,-0.999941135886311));
#1343=DIRECTION('center_axis',(0.707106078738751,-0.707107483633646,0.));
#1344=DIRECTION('ref_axis',(0.,0.,-1.));
#1345=DIRECTION('',(-0.707107483633646,-0.707106078738751,0.));
#1346=DIRECTION('center_axis',(-0.707106605574533,-0.707106956798518,0.));
#1347=DIRECTION('ref_axis',(0.,0.,1.));
#1348=DIRECTION('',(-0.707106956798518,0.707106605574533,0.));
#1349=DIRECTION('',(0.00767217848676751,-0.00767217467595349,0.999941135974018));
#1350=DIRECTION('center_axis',(-0.707106431299708,-0.707107131073214,-2.67429089425851E-9));
#1351=DIRECTION('ref_axis',(-3.78202032379056E-9,0.,1.));
#1352=DIRECTION('',(-0.707107131073214,0.707106431299708,0.));
#1353=DIRECTION('',(0.00755624713403677,-0.00755623587435716,-0.999942901584216));
#1354=DIRECTION('center_axis',(-0.707106254350635,-0.707107308022068,0.));
#1355=DIRECTION('ref_axis',(0.,0.,1.));
#1356=DIRECTION('',(-0.707107308022068,0.707106254350635,0.));
#1357=DIRECTION('',(0.,0.,1.));
#1358=DIRECTION('center_axis',(-1.,0.,0.));
#1359=DIRECTION('ref_axis',(0.,0.,1.));
#1360=DIRECTION('',(0.,1.,0.));
#1361=DIRECTION('center_axis',(0.,0.,-1.));
#1362=DIRECTION('ref_axis',(-1.,0.,0.));
#1363=CARTESIAN_POINT('',(0.,0.,0.));
#1364=CARTESIAN_POINT('Origin',(4.65000003576279,-38.9499998092651,36.9499969482422));
#1365=CARTESIAN_POINT('',(-0.199999964237213,-38.9499998092651,25.1499969482422));
#1366=CARTESIAN_POINT('Origin',(4.65000003576279,-38.9499998092651,25.1499969482422));
#1367=CARTESIAN_POINT('',(-0.199999964237213,-38.9499998092651,36.9499969482422));
#1368=CARTESIAN_POINT('',(-0.199999964237213,-38.9499998092651,36.9499969482422));
#1369=CARTESIAN_POINT('Origin',(4.65000003576279,-38.9499998092651,36.9499969482422));
#1370=CARTESIAN_POINT('Origin',(4.65000003576279,-38.9499998092651,25.1499969482422));
#1371=CARTESIAN_POINT('Origin',(0.639067366719246,-48.9499998092651,85.1499938964844));
#1372=CARTESIAN_POINT('',(2.02500015497208,-47.7500009536743,88.0499935150146));
#1373=CARTESIAN_POINT('',(2.49206736683846,-48.9499998092651,86.8499946594238));
#1374=CARTESIAN_POINT('',(2.02500015497208,-47.7500009536743,88.0499935150146));
#1375=CARTESIAN_POINT('',(0.639067366719246,-48.9499998092651,85.1499938964844));
#1376=CARTESIAN_POINT('',(0.639067366719246,-48.9499998092651,85.1499938964844));
#1377=CARTESIAN_POINT('',(0.639067366719246,-48.9499998092651,85.1499938964844));
#1378=CARTESIAN_POINT('Origin',(-0.700000002980232,-47.7500009536743,85.5499935150146));
#1379=CARTESIAN_POINT('',(-0.700000002980232,-47.7500009536743,85.5499935150146));
#1380=CARTESIAN_POINT('',(-0.700000002980232,-47.7500009536743,85.5499935150146));
#1381=CARTESIAN_POINT('',(-0.700000002980232,-47.7500009536743,85.5499935150146));
#1382=CARTESIAN_POINT('Origin',(0.411378219723701,-48.8613796234131,85.0613689422607));
#1383=CARTESIAN_POINT('',(0.411378219723701,-48.8613796234131,85.0613689422607));
#1384=CARTESIAN_POINT('',(-0.700000002980232,-47.7500009536743,85.5499935150146));
#1385=CARTESIAN_POINT('',(0.411378219723701,-48.8613796234131,85.0613689422607));
#1386=CARTESIAN_POINT('Origin',(2.02500015497208,-47.7500009536743,88.0499935150146));
#1387=CARTESIAN_POINT('',(6.80793285369873,-48.9499998092651,86.8499946594238));
#1388=CARTESIAN_POINT('',(2.49206736683846,-48.9499998092651,86.8499946594238));
#1389=CARTESIAN_POINT('',(7.27500021457672,-47.7500009536743,88.0499935150146));
#1390=CARTESIAN_POINT('',(6.80793285369873,-48.9499998092651,86.8499946594238));
#1391=CARTESIAN_POINT('',(2.02500015497208,-47.7500009536743,88.0499935150146));
#1392=CARTESIAN_POINT('Origin',(7.27500021457672,-47.7500009536743,88.0499935150146));
#1393=CARTESIAN_POINT('',(8.66093277931213,-48.9499998092651,85.1499938964844));
#1394=CARTESIAN_POINT('',(6.80793285369873,-48.9499998092651,86.8499946594238));
#1395=CARTESIAN_POINT('',(7.27500021457672,-47.7500009536743,88.0499935150146));
#1396=CARTESIAN_POINT('Origin',(10.,-47.7500009536743,85.5499935150146));
#1397=CARTESIAN_POINT('',(10.,-47.7500009536743,85.5499935150146));
#1398=CARTESIAN_POINT('',(8.66093277931213,-48.9499998092651,85.1499938964844));
#1399=CARTESIAN_POINT('',(7.27500021457672,-47.7500009536743,88.0499935150146));
#1400=CARTESIAN_POINT('Origin',(8.88862133026123,-48.8613796234131,85.0613689422607));
#1401=CARTESIAN_POINT('',(8.88862133026123,-48.8613796234131,85.0613689422607));
#1402=CARTESIAN_POINT('',(8.66093277931213,-48.9499998092651,85.1499938964844));
#1403=CARTESIAN_POINT('',(8.88862133026123,-48.8613796234131,85.0613689422607));
#1404=CARTESIAN_POINT('Origin',(-0.700000002980232,-47.7500009536743,83.9499950408936));
#1405=CARTESIAN_POINT('',(-0.700000002980232,-47.7500009536743,83.9499950408936));
#1406=CARTESIAN_POINT('',(-0.700000002980232,-47.7500009536743,83.9499950408936));
#1407=CARTESIAN_POINT('',(-0.700000002980232,-47.7500009536743,83.9499950408936));
#1408=CARTESIAN_POINT('Origin',(-0.700000002980232,-30.149998664856,85.5499935150146));
#1409=CARTESIAN_POINT('',(2.02500015497208,-30.149998664856,88.0499935150146));
#1410=CARTESIAN_POINT('',(2.02500015497208,-30.149998664856,88.0499935150146));
#1411=CARTESIAN_POINT('',(-0.700000002980232,-30.149998664856,85.5499935150146));
#1412=CARTESIAN_POINT('',(-0.700000002980232,-30.149998664856,85.5499935150146));
#1413=CARTESIAN_POINT('',(-0.700000002980232,-30.149998664856,85.5499935150146));
#1414=CARTESIAN_POINT('Origin',(2.02500015497208,-30.149998664856,88.0499935150146));
#1415=CARTESIAN_POINT('',(7.27500021457672,-30.149998664856,88.0499935150146));
#1416=CARTESIAN_POINT('',(7.27500021457672,-30.149998664856,88.0499935150146));
#1417=CARTESIAN_POINT('',(2.02500015497208,-30.149998664856,88.0499935150146));
#1418=CARTESIAN_POINT('Origin',(7.27500021457672,-30.149998664856,88.0499935150146));
#1419=CARTESIAN_POINT('',(10.,-30.149998664856,85.5499935150146));
#1420=CARTESIAN_POINT('',(10.,-30.149998664856,85.5499935150146));
#1421=CARTESIAN_POINT('',(7.27500021457672,-30.149998664856,88.0499935150146));
#1422=CARTESIAN_POINT('Origin',(10.,-47.7500009536743,83.9499950408936));
#1423=CARTESIAN_POINT('',(10.,-47.7500009536743,83.9499950408936));
#1424=CARTESIAN_POINT('',(8.88862133026123,-48.8613796234131,85.0613689422607));
#1425=CARTESIAN_POINT('',(10.,-47.7500009536743,83.9499950408936));
#1426=CARTESIAN_POINT('Origin',(8.88862133026123,-48.8613796234131,85.0613689422607));
#1427=CARTESIAN_POINT('',(6.07500016689301,-48.9499998092651,85.1499938964844));
#1428=CARTESIAN_POINT('',(6.07500016689301,-48.9499998092651,85.1499938964844));
#1429=CARTESIAN_POINT('',(6.07500016689301,-48.9499998092651,85.1499938964844));
#1430=CARTESIAN_POINT('Origin',(7.27500021457672,-47.7500009536743,83.9499950408936));
#1431=CARTESIAN_POINT('',(7.27500021457672,-47.7500009536743,83.9499950408936));
#1432=CARTESIAN_POINT('',(6.07500016689301,-48.9499998092651,85.1499938964844));
#1433=CARTESIAN_POINT('',(7.27500021457672,-47.7500009536743,83.9499950408936));
#1434=CARTESIAN_POINT('Origin',(10.,-47.7500009536743,83.9499950408936));
#1435=CARTESIAN_POINT('',(7.27500021457672,-47.7500009536743,83.9499950408936));
#1436=CARTESIAN_POINT('Origin',(6.07500016689301,-48.9499998092651,80.7499980926514));
#1437=CARTESIAN_POINT('',(7.27500021457672,-47.7500009536743,81.9499969482422));
#1438=CARTESIAN_POINT('',(7.27500021457672,-47.7500009536743,81.9499969482422));
#1439=CARTESIAN_POINT('',(6.07500016689301,-48.9499998092651,80.7499980926514));
#1440=CARTESIAN_POINT('',(6.07500016689301,-48.9499998092651,80.7499980926514));
#1441=CARTESIAN_POINT('',(6.07500016689301,-48.9499998092651,80.7499980926514));
#1442=CARTESIAN_POINT('Origin',(13.4500002861023,-48.9499998092651,80.7499980926514));
#1443=CARTESIAN_POINT('',(14.650000333786,-47.7500009536743,81.9499969482422));
#1444=CARTESIAN_POINT('',(7.27500021457672,-47.7500009536743,81.9499969482422));
#1445=CARTESIAN_POINT('',(13.4500002861023,-48.9499998092651,80.7499980926514));
#1446=CARTESIAN_POINT('',(6.07500016689301,-48.9499998092651,80.7499980926514));
#1447=CARTESIAN_POINT('',(13.4500002861023,-48.9499998092651,80.7499980926514));
#1448=CARTESIAN_POINT('Origin',(2.02500015497208,-47.7500009536743,81.9499969482422));
#1449=CARTESIAN_POINT('',(-5.35000026226044,-47.7500009536743,81.9499969482422));
#1450=CARTESIAN_POINT('',(-4.15000021457672,-48.9499998092651,80.7499980926514));
#1451=CARTESIAN_POINT('',(-5.35000026226044,-47.7500009536743,81.9499969482422));
#1452=CARTESIAN_POINT('',(3.22499990463257,-48.9499998092651,80.7499980926514));
#1453=CARTESIAN_POINT('',(-4.15000021457672,-48.9499998092651,80.7499980926514));
#1454=CARTESIAN_POINT('',(2.02500015497208,-47.7500009536743,81.9499969482422));
#1455=CARTESIAN_POINT('',(2.02500015497208,-47.7500009536743,81.9499969482422));
#1456=CARTESIAN_POINT('',(-5.35000026226044,-47.7500009536743,81.9499969482422));
#1457=CARTESIAN_POINT('Origin',(2.02500015497208,-47.7500009536743,83.9499950408936));
#1458=CARTESIAN_POINT('',(3.22499990463257,-48.9499998092651,85.1499938964844));
#1459=CARTESIAN_POINT('',(3.22499990463257,-48.9499998092651,80.7499980926514));
#1460=CARTESIAN_POINT('',(2.02500015497208,-47.7500009536743,83.9499950408936));
#1461=CARTESIAN_POINT('',(2.02500015497208,-47.7500009536743,83.9499950408936));
#1462=CARTESIAN_POINT('',(2.02500015497208,-47.7500009536743,81.9499969482422));
#1463=CARTESIAN_POINT('Origin',(3.22499990463257,-48.9499998092651,85.1499938964844));
#1464=CARTESIAN_POINT('',(0.411378219723701,-48.8613796234131,85.0613689422607));
#1465=CARTESIAN_POINT('',(0.639067366719246,-48.9499998092651,85.1499938964844));
#1466=CARTESIAN_POINT('Origin',(2.02500015497208,-47.7500009536743,83.9499950408936));
#1467=CARTESIAN_POINT('',(0.411378219723701,-48.8613796234131,85.0613689422607));
#1468=CARTESIAN_POINT('Origin',(-0.700000002980232,-47.7500009536743,83.9499950408936));
#1469=CARTESIAN_POINT('',(-0.700000002980232,-47.7500009536743,83.9499950408936));
#1470=CARTESIAN_POINT('Origin',(10.,-30.149998664856,85.5499935150146));
#1471=CARTESIAN_POINT('',(10.,-30.149998664856,83.9499950408936));
#1472=CARTESIAN_POINT('',(10.,-30.149998664856,83.9499950408936));
#1473=CARTESIAN_POINT('',(10.,-30.149998664856,83.9499950408936));
#1474=CARTESIAN_POINT('Origin',(10.,-30.149998664856,83.9499950408936));
#1475=CARTESIAN_POINT('',(7.27500021457672,-30.149998664856,83.9499950408936));
#1476=CARTESIAN_POINT('',(7.27500021457672,-30.149998664856,83.9499950408936));
#1477=CARTESIAN_POINT('',(7.27500021457672,-30.149998664856,83.9499950408936));
#1478=CARTESIAN_POINT('Origin',(7.27500021457672,-30.149998664856,83.9499950408936));
#1479=CARTESIAN_POINT('',(7.27500021457672,-30.149998664856,81.9499969482422));
#1480=CARTESIAN_POINT('',(7.27500021457672,-30.149998664856,81.9499969482422));
#1481=CARTESIAN_POINT('',(7.27500021457672,-30.149998664856,81.9499969482422));
#1482=CARTESIAN_POINT('Origin',(7.27500021457672,-30.149998664856,81.9499969482422));
#1483=CARTESIAN_POINT('',(14.650000333786,-30.149998664856,81.9499969482422));
#1484=CARTESIAN_POINT('',(14.650000333786,-30.149998664856,81.9499969482422));
#1485=CARTESIAN_POINT('',(7.27500021457672,-30.149998664856,81.9499969482422));
#1486=CARTESIAN_POINT('Origin',(14.650000333786,-47.7500009536743,3.14998626708984));
#1487=CARTESIAN_POINT('',(14.650000333786,-30.149998664856,36.9499969482422));
#1488=CARTESIAN_POINT('',(14.650000333786,-47.7500009536743,36.9499969482422));
#1489=CARTESIAN_POINT('',(14.650000333786,-43.3500003814697,36.9499969482422));
#1490=CARTESIAN_POINT('',(14.650000333786,-30.149998664856,3.14998626708984));
#1491=CARTESIAN_POINT('',(14.650000333786,-47.7500009536743,3.14998626708984));
#1492=CARTESIAN_POINT('Origin',(-5.35000026226044,-30.149998664856,81.9499969482422));
#1493=CARTESIAN_POINT('',(2.02500015497208,-30.149998664856,81.9499969482422));
#1494=CARTESIAN_POINT('',(2.02500015497208,-30.149998664856,81.9499969482422));
#1495=CARTESIAN_POINT('',(-5.35000026226044,-30.149998664856,81.9499969482422));
#1496=CARTESIAN_POINT('',(-5.35000026226044,-30.149998664856,81.9499969482422));
#1497=CARTESIAN_POINT('',(-5.35000026226044,-30.149998664856,81.9499969482422));
#1498=CARTESIAN_POINT('Origin',(2.02500015497208,-30.149998664856,81.9499969482422));
#1499=CARTESIAN_POINT('',(2.02500015497208,-30.149998664856,83.9499950408936));
#1500=CARTESIAN_POINT('',(2.02500015497208,-30.149998664856,83.9499950408936));
#1501=CARTESIAN_POINT('',(2.02500015497208,-30.149998664856,81.9499969482422));
#1502=CARTESIAN_POINT('Origin',(2.02500015497208,-30.149998664856,83.9499950408936));
#1503=CARTESIAN_POINT('',(-0.700000002980232,-30.149998664856,83.9499950408936));
#1504=CARTESIAN_POINT('',(-0.700000002980232,-30.149998664856,83.9499950408936));
#1505=CARTESIAN_POINT('',(-0.700000002980232,-30.149998664856,83.9499950408936));
#1506=CARTESIAN_POINT('Origin',(-0.700000002980232,-30.149998664856,83.9499950408936));
#1507=CARTESIAN_POINT('',(-0.700000002980232,-30.149998664856,83.9499950408936));
#1508=CARTESIAN_POINT('Origin',(8.66093277931213,-28.9499998092651,85.1499938964844));
#1509=CARTESIAN_POINT('',(6.80793285369873,-28.9499998092651,86.8499946594238));
#1510=CARTESIAN_POINT('',(6.80793285369873,-28.9499998092651,86.8499946594238));
#1511=CARTESIAN_POINT('',(8.66093277931213,-28.9499998092651,85.1499938964844));
#1512=CARTESIAN_POINT('',(7.27500021457672,-30.149998664856,88.0499935150146));
#1513=CARTESIAN_POINT('',(6.80793285369873,-28.9499998092651,86.8499946594238));
#1514=CARTESIAN_POINT('Origin',(10.,-30.149998664856,85.5499935150146));
#1515=CARTESIAN_POINT('',(8.66093277931213,-28.9499998092651,85.1499938964844));
#1516=CARTESIAN_POINT('Origin',(8.88862133026123,-29.038622379303,85.0613689422607));
#1517=CARTESIAN_POINT('',(8.88862133026123,-29.038622379303,85.0613689422607));
#1518=CARTESIAN_POINT('',(8.88862133026123,-29.038622379303,85.0613689422607));
#1519=CARTESIAN_POINT('',(8.66093277931213,-28.9499998092651,85.1499938964844));
#1520=CARTESIAN_POINT('Origin',(2.49206736683846,-28.9499998092651,86.8499946594238));
#1521=CARTESIAN_POINT('',(2.49206736683846,-28.9499998092651,86.8499946594238));
#1522=CARTESIAN_POINT('',(2.49206736683846,-28.9499998092651,86.8499946594238));
#1523=CARTESIAN_POINT('',(2.02500015497208,-30.149998664856,88.0499935150146));
#1524=CARTESIAN_POINT('Origin',(2.02500015497208,-30.149998664856,88.0499935150146));
#1525=CARTESIAN_POINT('',(0.639067366719246,-28.9499998092651,85.1499938964844));
#1526=CARTESIAN_POINT('',(0.639067366719246,-28.9499998092651,85.1499938964844));
#1527=CARTESIAN_POINT('',(0.639067366719246,-28.9499998092651,85.1499938964844));
#1528=CARTESIAN_POINT('Origin',(-0.700000002980232,-30.149998664856,85.5499935150146));
#1529=CARTESIAN_POINT('',(-0.700000002980232,-30.149998664856,85.5499935150146));
#1530=CARTESIAN_POINT('Origin',(0.411378219723701,-29.038622379303,85.0613689422607));
#1531=CARTESIAN_POINT('',(0.411378219723701,-29.038622379303,85.0613689422607));
#1532=CARTESIAN_POINT('',(0.411378219723701,-29.038622379303,85.0613689422607));
#1533=CARTESIAN_POINT('',(-0.700000002980232,-30.149998664856,85.5499935150146));
#1534=CARTESIAN_POINT('Origin',(10.,-30.149998664856,83.9499950408936));
#1535=CARTESIAN_POINT('',(8.88862133026123,-29.038622379303,85.0613689422607));
#1536=CARTESIAN_POINT('Origin',(-0.700000002980232,-30.149998664856,83.9499950408936));
#1537=CARTESIAN_POINT('',(-0.700000002980232,-30.149998664856,83.9499950408936));
#1538=CARTESIAN_POINT('Origin',(0.411378219723701,-29.038622379303,85.0613689422607));
#1539=CARTESIAN_POINT('',(3.22499990463257,-28.9499998092651,85.1499938964844));
#1540=CARTESIAN_POINT('',(0.639067366719246,-28.9499998092651,85.1499938964844));
#1541=CARTESIAN_POINT('',(0.411378219723701,-29.038622379303,85.0613689422607));
#1542=CARTESIAN_POINT('Origin',(2.02500015497208,-30.149998664856,83.9499950408936));
#1543=CARTESIAN_POINT('',(2.02500015497208,-30.149998664856,83.9499950408936));
#1544=CARTESIAN_POINT('',(0.411378219723701,-29.038622379303,85.0613689422607));
#1545=CARTESIAN_POINT('Origin',(-0.700000002980232,-30.149998664856,83.9499950408936));
#1546=CARTESIAN_POINT('Origin',(2.02500015497208,-30.149998664856,83.9499950408936));
#1547=CARTESIAN_POINT('',(3.22499990463257,-28.9499998092651,80.7499980926514));
#1548=CARTESIAN_POINT('',(3.22499990463257,-28.9499998092651,80.7499980926514));
#1549=CARTESIAN_POINT('',(2.02500015497208,-30.149998664856,81.9499969482422));
#1550=CARTESIAN_POINT('Origin',(2.02500015497208,-30.149998664856,81.9499969482422));
#1551=CARTESIAN_POINT('',(-4.15000021457672,-28.9499998092651,80.7499980926514));
#1552=CARTESIAN_POINT('',(-4.15000021457672,-28.9499998092651,80.7499980926514));
#1553=CARTESIAN_POINT('',(-5.35000026226044,-30.149998664856,81.9499969482422));
#1554=CARTESIAN_POINT('Origin',(-4.74999994039536,-29.5499992370605,2.54999160766602));
#1555=CARTESIAN_POINT('',(-5.35000026226044,-30.149998664856,36.9499969482422));
#1556=CARTESIAN_POINT('',(-5.00994972488181,-29.8099486341918,36.9499969482422));
#1557=CARTESIAN_POINT('',(-4.74999658763076,-29.5499958843009,36.9499969482422));
#1558=CARTESIAN_POINT('',(-5.35000026226044,-30.149998664856,3.14998626708984));
#1559=CARTESIAN_POINT('',(-5.35000026226044,-30.149998664856,81.9499969482422));
#1560=CARTESIAN_POINT('Origin',(-4.15000021457672,-28.9499998092651,80.7499980926514));
#1561=CARTESIAN_POINT('',(-4.48606142299295,-29.2860608507579,36.9499969482422));
#1562=CARTESIAN_POINT('',(-4.44999789198019,-29.2499973554346,36.9499969482422));
#1563=CARTESIAN_POINT('',(-4.74999994039536,-29.5499992370605,2.54999160766602));
#1564=CARTESIAN_POINT('Origin',(-4.15000021457672,-28.9499998092651,3.14998626708984));
#1565=CARTESIAN_POINT('',(-4.15000021457672,-28.9499998092651,36.9499969482422));
#1566=CARTESIAN_POINT('',(-4.44999905923891,-29.2499985049162,36.9499969482422));
#1567=CARTESIAN_POINT('',(-4.15000021457672,-28.9499998092651,3.14998626708984));
#1568=CARTESIAN_POINT('Origin',(13.4500002861023,-28.9499998092651,80.7499980926514));
#1569=CARTESIAN_POINT('',(6.07500016689301,-28.9499998092651,80.7499980926514));
#1570=CARTESIAN_POINT('',(6.07500016689301,-28.9499998092651,80.7499980926514));
#1571=CARTESIAN_POINT('',(13.4500002861023,-28.9499998092651,80.7499980926514));
#1572=CARTESIAN_POINT('',(13.4500002861023,-28.9499998092651,80.7499980926514));
#1573=CARTESIAN_POINT('',(6.07500016689301,-28.9499998092651,80.7499980926514));
#1574=CARTESIAN_POINT('Origin',(6.07500016689301,-28.9499998092651,80.7499980926514));
#1575=CARTESIAN_POINT('',(6.07500016689301,-28.9499998092651,85.1499938964844));
#1576=CARTESIAN_POINT('',(6.07500016689301,-28.9499998092651,85.1499938964844));
#1577=CARTESIAN_POINT('',(6.07500016689301,-28.9499998092651,80.7499980926514));
#1578=CARTESIAN_POINT('Origin',(6.07500016689301,-28.9499998092651,85.1499938964844));
#1579=CARTESIAN_POINT('',(6.07500016689301,-28.9499998092651,85.1499938964844));
#1580=CARTESIAN_POINT('',(6.07500016689301,-28.9499998092651,85.1499938964844));
#1581=CARTESIAN_POINT('Origin',(7.27500021457672,-30.149998664856,83.9499950408936));
#1582=CARTESIAN_POINT('',(7.27500021457672,-30.149998664856,83.9499950408936));
#1583=CARTESIAN_POINT('Origin',(10.,-30.149998664856,83.9499950408936));
#1584=CARTESIAN_POINT('Origin',(14.650000333786,-30.149998664856,81.9499969482422));
#1585=CARTESIAN_POINT('',(14.3099503031219,-29.8099486341918,36.9499969482422));
#1586=CARTESIAN_POINT('',(14.3500005453825,-29.8499988764524,36.9499969482422));
#1587=CARTESIAN_POINT('',(14.0500009059906,-29.5499992370605,2.54999160766602));
#1588=CARTESIAN_POINT('Origin',(13.4500002861023,-28.9499998092651,80.7499980926514));
#1589=CARTESIAN_POINT('',(13.786061995289,-29.2860608507579,36.9499969482422));
#1590=CARTESIAN_POINT('',(13.7499981870229,-29.2499970785908,36.9499969482422));
#1591=CARTESIAN_POINT('',(13.4500002861023,-28.9499998092651,80.7499980926514));
#1592=CARTESIAN_POINT('Origin',(13.4500002861023,-28.9499998092651,3.14998626708984));
#1593=CARTESIAN_POINT('',(13.4500002861023,-28.9499998092651,36.9499969482422));
#1594=CARTESIAN_POINT('',(13.7499958525052,-29.2499947796311,36.9499969482422));
#1595=CARTESIAN_POINT('',(13.4500002861023,-28.9499998092651,3.14998626708984));
#1596=CARTESIAN_POINT('Origin',(2.49206736683846,-48.9499998092651,86.8499946594238));
#1597=CARTESIAN_POINT('',(-4.15000021457672,-48.9499998092651,36.9499969482422));
#1598=CARTESIAN_POINT('',(-4.15000021457672,-48.9499998092651,3.14998626708984));
#1599=CARTESIAN_POINT('',(13.4500002861023,-48.9499998092651,36.9499969482422));
#1600=CARTESIAN_POINT('',(0.249999910593033,-48.9499998092651,36.9499969482422));
#1601=CARTESIAN_POINT('',(13.4500002861023,-48.9499998092651,3.14998626708984));
#1602=CARTESIAN_POINT('Origin',(6.80793285369873,-28.9499998092651,86.8499946594238));
#1603=CARTESIAN_POINT('',(3.93749997019768,-28.9499998092651,36.9499969482422));
#1604=CARTESIAN_POINT('Origin',(14.0500009059906,-48.3500003814697,2.54999160766602));
#1605=CARTESIAN_POINT('',(14.3099503031219,-48.0900509843384,36.9499969482422));
#1606=CARTESIAN_POINT('',(14.0500008314848,-48.3500004559755,36.9499969482422));
#1607=CARTESIAN_POINT('',(14.0500009059906,-48.3500003814697,2.54999160766602));
#1608=CARTESIAN_POINT('Origin',(13.4500002861023,-48.9499998092651,80.7499980926514));
#1609=CARTESIAN_POINT('',(13.786061995289,-48.6139387677724,36.9499969482422));
#1610=CARTESIAN_POINT('',(13.7499981870229,-48.6500025399395,36.9499969482422));
#1611=CARTESIAN_POINT('',(13.4500002861023,-48.9499998092651,80.7499980926514));
#1612=CARTESIAN_POINT('Origin',(13.4500002861023,-48.9499998092651,3.14998626708984));
#1613=CARTESIAN_POINT('',(13.7499958525052,-48.6500048388992,36.9499969482422));
#1614=CARTESIAN_POINT('Origin',(-4.15000021457672,-48.9499998092651,3.14998626708984));
#1615=CARTESIAN_POINT('',(-4.48606142299295,-48.6139387677724,36.9499969482422));
#1616=CARTESIAN_POINT('',(-4.44999905923891,-48.6500011136141,36.9499969482422));
#1617=CARTESIAN_POINT('',(-4.74999994039536,-48.3500003814697,2.54999160766602));
#1618=CARTESIAN_POINT('Origin',(-4.15000021457672,-48.9499998092651,80.7499980926514));
#1619=CARTESIAN_POINT('',(-5.00994972488181,-48.0900509843384,36.9499969482422));
#1620=CARTESIAN_POINT('',(-4.44999789198019,-48.6500022630957,36.9499969482422));
#1621=CARTESIAN_POINT('',(-5.35000026226044,-47.7500009536743,81.9499969482422));
#1622=CARTESIAN_POINT('Origin',(-5.35000026226044,-47.7500009536743,81.9499969482422));
#1623=CARTESIAN_POINT('',(-5.35000026226044,-47.7500009536743,36.9499969482422));
#1624=CARTESIAN_POINT('',(-5.0499967485633,-48.0500040203316,36.9499969482422));
#1625=CARTESIAN_POINT('',(-5.35000026226044,-47.7500009536743,3.14998626708984));
#1626=CARTESIAN_POINT('Origin',(-5.35000026226044,-30.149998664856,3.14998626708984));
#1627=CARTESIAN_POINT('',(-5.35000026226044,-34.5499992370605,36.9499969482422));
#1628=CARTESIAN_POINT('Origin',(4.65000003576279,-38.9499998092651,36.9499969482422));
#1629=UNCERTAINTY_MEASURE_WITH_UNIT(LENGTH_MEASURE(0.01),#1633,
'DISTANCE_ACCURACY_VALUE',
'Maximum model space distance between geometric entities at asserted c
onnectivities');
#1630=UNCERTAINTY_MEASURE_WITH_UNIT(LENGTH_MEASURE(0.01),#1633,
'DISTANCE_ACCURACY_VALUE',
'Maximum model space distance between geometric entities at asserted c
onnectivities');
#1631=(
GEOMETRIC_REPRESENTATION_CONTEXT(3)
GLOBAL_UNCERTAINTY_ASSIGNED_CONTEXT((#1629))
GLOBAL_UNIT_ASSIGNED_CONTEXT((#1633,#1635,#1636))
REPRESENTATION_CONTEXT('','3D')
);
#1632=(
GEOMETRIC_REPRESENTATION_CONTEXT(3)
GLOBAL_UNCERTAINTY_ASSIGNED_CONTEXT((#1630))
GLOBAL_UNIT_ASSIGNED_CONTEXT((#1633,#1635,#1636))
REPRESENTATION_CONTEXT('','3D')
);
#1633=(
LENGTH_UNIT()
NAMED_UNIT(*)
SI_UNIT(.MILLI.,.METRE.)
);
#1634=(
LENGTH_UNIT()
NAMED_UNIT(*)
SI_UNIT($,.METRE.)
);
#1635=(
NAMED_UNIT(*)
PLANE_ANGLE_UNIT()
SI_UNIT($,.RADIAN.)
);
#1636=(
NAMED_UNIT(*)
SI_UNIT($,.STERADIAN.)
SOLID_ANGLE_UNIT()
);
#1637=SHAPE_DEFINITION_REPRESENTATION(#1638,#1639);
#1638=PRODUCT_DEFINITION_SHAPE('',$,#1641);
#1639=SHAPE_REPRESENTATION('',(#1021),#1631);
#1640=PRODUCT_DEFINITION_CONTEXT('part definition',#1645,'design');
#1641=PRODUCT_DEFINITION('riser_leg','riser_leg',#1642,#1640);
#1642=PRODUCT_DEFINITION_FORMATION('',$,#1647);
#1643=PRODUCT_RELATED_PRODUCT_CATEGORY('riser_leg','riser_leg',(#1647));
#1644=APPLICATION_PROTOCOL_DEFINITION('international standard',
'automotive_design',2009,#1645);
#1645=APPLICATION_CONTEXT(
'Core Data for Automotive Mechanical Design Process');
#1646=PRODUCT_CONTEXT('part definition',#1645,'mechanical');
#1647=PRODUCT('riser_leg','riser_leg',$,(#1646));
#1648=PRESENTATION_STYLE_ASSIGNMENT((#1649));
#1649=SURFACE_STYLE_USAGE(.BOTH.,#1650);
#1650=SURFACE_SIDE_STYLE('',(#1651));
#1651=SURFACE_STYLE_FILL_AREA(#1652);
#1652=FILL_AREA_STYLE(
'PA 11 - Nylon- HP 11-30 (with EOS P 396 3D Printer)',(#1653));
#1653=FILL_AREA_STYLE_COLOUR(
'PA 11 - Nylon- HP 11-30 (with EOS P 396 3D Printer)',#1654);
#1654=COLOUR_RGB('PA 11 - Nylon- HP 11-30 (with EOS P 396 3D Printer)',
0.247058823529412,0.247058823529412,0.247058823529412);
ENDSEC;
END-ISO-10303-21;
