ISO-10303-21;
HEADER;
/* Generated by software containing ST-Developer
 * from STEP Tools, Inc. (www.steptools.com) 
 */

FILE_DESCRIPTION(
/* description */ (''),
/* implementation_level */ '2;1');

FILE_NAME(
/* name */ 'expansion_platform_gantry.step',
/* time_stamp */ '2026-08-03T12:26:02+02:00',
/* author */ (''),
/* organization */ (''),
/* preprocessor_version */ 'ST-DEVELOPER v20.1',
/* originating_system */ 'Autodesk Translation Framework v15.8.0.0',
/* authorisation */ '');

FILE_SCHEMA (('AUTOMOTIVE_DESIGN { 1 0 10303 214 3 1 1 }'));
ENDSEC;

DATA;
#10=MECHANICAL_DESIGN_GEOMETRIC_PRESENTATION_REPRESENTATION('',(#13),#879);
#11=SHAPE_REPRESENTATION_RELATIONSHIP('SRR','None',#886,#12);
#12=ADVANCED_BREP_SHAPE_REPRESENTATION('',(#14),#878);
#13=STYLED_ITEM('',(#896),#14);
#14=MANIFOLD_SOLID_BREP('Platform',#519);
#15=FACE_BOUND('',#91,.T.);
#16=FACE_BOUND('',#98,.T.);
#17=FACE_BOUND('',#99,.T.);
#18=FACE_BOUND('',#100,.T.);
#19=FACE_BOUND('',#101,.T.);
#20=FACE_BOUND('',#102,.T.);
#21=FACE_BOUND('',#113,.T.);
#22=FACE_BOUND('',#114,.T.);
#23=FACE_BOUND('',#115,.T.);
#24=FACE_BOUND('',#116,.T.);
#25=FACE_BOUND('',#117,.T.);
#26=FACE_BOUND('',#118,.T.);
#27=FACE_BOUND('',#121,.T.);
#28=FACE_BOUND('',#122,.T.);
#29=FACE_BOUND('',#123,.T.);
#30=FACE_BOUND('',#124,.T.);
#31=FACE_BOUND('',#125,.T.);
#32=FACE_BOUND('',#126,.T.);
#33=FACE_BOUND('',#127,.T.);
#34=PLANE('',#545);
#35=PLANE('',#546);
#36=PLANE('',#548);
#37=PLANE('',#550);
#38=PLANE('',#552);
#39=PLANE('',#557);
#40=PLANE('',#567);
#41=PLANE('',#568);
#42=PLANE('',#577);
#43=PLANE('',#578);
#44=PLANE('',#579);
#45=PLANE('',#580);
#46=PLANE('',#581);
#47=PLANE('',#582);
#48=PLANE('',#583);
#49=PLANE('',#584);
#50=PLANE('',#585);
#51=FACE_OUTER_BOUND('',#80,.T.);
#52=FACE_OUTER_BOUND('',#81,.T.);
#53=FACE_OUTER_BOUND('',#82,.T.);
#54=FACE_OUTER_BOUND('',#83,.T.);
#55=FACE_OUTER_BOUND('',#84,.T.);
#56=FACE_OUTER_BOUND('',#85,.T.);
#57=FACE_OUTER_BOUND('',#86,.T.);
#58=FACE_OUTER_BOUND('',#87,.T.);
#59=FACE_OUTER_BOUND('',#88,.T.);
#60=FACE_OUTER_BOUND('',#89,.T.);
#61=FACE_OUTER_BOUND('',#90,.T.);
#62=FACE_OUTER_BOUND('',#92,.T.);
#63=FACE_OUTER_BOUND('',#93,.T.);
#64=FACE_OUTER_BOUND('',#94,.T.);
#65=FACE_OUTER_BOUND('',#95,.T.);
#66=FACE_OUTER_BOUND('',#96,.T.);
#67=FACE_OUTER_BOUND('',#97,.T.);
#68=FACE_OUTER_BOUND('',#103,.T.);
#69=FACE_OUTER_BOUND('',#104,.T.);
#70=FACE_OUTER_BOUND('',#105,.T.);
#71=FACE_OUTER_BOUND('',#106,.T.);
#72=FACE_OUTER_BOUND('',#107,.T.);
#73=FACE_OUTER_BOUND('',#108,.T.);
#74=FACE_OUTER_BOUND('',#109,.T.);
#75=FACE_OUTER_BOUND('',#110,.T.);
#76=FACE_OUTER_BOUND('',#111,.T.);
#77=FACE_OUTER_BOUND('',#112,.T.);
#78=FACE_OUTER_BOUND('',#119,.T.);
#79=FACE_OUTER_BOUND('',#120,.T.);
#80=EDGE_LOOP('',(#346,#347,#348,#349));
#81=EDGE_LOOP('',(#350,#351,#352,#353));
#82=EDGE_LOOP('',(#354,#355,#356,#357));
#83=EDGE_LOOP('',(#358,#359,#360,#361));
#84=EDGE_LOOP('',(#362,#363,#364,#365));
#85=EDGE_LOOP('',(#366));
#86=EDGE_LOOP('',(#367));
#87=EDGE_LOOP('',(#368));
#88=EDGE_LOOP('',(#369));
#89=EDGE_LOOP('',(#370,#371,#372,#373));
#90=EDGE_LOOP('',(#374));
#91=EDGE_LOOP('',(#375));
#92=EDGE_LOOP('',(#376,#377,#378,#379));
#93=EDGE_LOOP('',(#380,#381,#382,#383));
#94=EDGE_LOOP('',(#384,#385,#386,#387));
#95=EDGE_LOOP('',(#388,#389,#390,#391));
#96=EDGE_LOOP('',(#392,#393,#394,#395));
#97=EDGE_LOOP('',(#396,#397,#398,#399));
#98=EDGE_LOOP('',(#400));
#99=EDGE_LOOP('',(#401));
#100=EDGE_LOOP('',(#402));
#101=EDGE_LOOP('',(#403));
#102=EDGE_LOOP('',(#404));
#103=EDGE_LOOP('',(#405,#406,#407,#408));
#104=EDGE_LOOP('',(#409,#410,#411,#412));
#105=EDGE_LOOP('',(#413,#414,#415,#416));
#106=EDGE_LOOP('',(#417,#418,#419,#420));
#107=EDGE_LOOP('',(#421,#422,#423,#424,#425,#426));
#108=EDGE_LOOP('',(#427,#428,#429,#430));
#109=EDGE_LOOP('',(#431,#432,#433,#434));
#110=EDGE_LOOP('',(#435,#436,#437,#438));
#111=EDGE_LOOP('',(#439,#440,#441,#442));
#112=EDGE_LOOP('',(#443,#444,#445,#446,#447,#448,#449,#450));
#113=EDGE_LOOP('',(#451));
#114=EDGE_LOOP('',(#452));
#115=EDGE_LOOP('',(#453));
#116=EDGE_LOOP('',(#454));
#117=EDGE_LOOP('',(#455));
#118=EDGE_LOOP('',(#456));
#119=EDGE_LOOP('',(#457,#458,#459,#460,#461,#462));
#120=EDGE_LOOP('',(#463,#464,#465,#466,#467,#468,#469,#470));
#121=EDGE_LOOP('',(#471));
#122=EDGE_LOOP('',(#472));
#123=EDGE_LOOP('',(#473));
#124=EDGE_LOOP('',(#474));
#125=EDGE_LOOP('',(#475));
#126=EDGE_LOOP('',(#476));
#127=EDGE_LOOP('',(#477));
#128=LINE('',#741,#170);
#129=LINE('',#747,#171);
#130=LINE('',#753,#172);
#131=LINE('',#759,#173);
#132=LINE('',#764,#174);
#133=LINE('',#766,#175);
#134=LINE('',#768,#176);
#135=LINE('',#769,#177);
#136=LINE('',#786,#178);
#137=LINE('',#794,#179);
#138=LINE('',#798,#180);
#139=LINE('',#802,#181);
#140=LINE('',#806,#182);
#141=LINE('',#810,#183);
#142=LINE('',#812,#184);
#143=LINE('',#814,#185);
#144=LINE('',#815,#186);
#145=LINE('',#818,#187);
#146=LINE('',#820,#188);
#147=LINE('',#821,#189);
#148=LINE('',#825,#190);
#149=LINE('',#830,#191);
#150=LINE('',#836,#192);
#151=LINE('',#841,#193);
#152=LINE('',#842,#194);
#153=LINE('',#843,#195);
#154=LINE('',#847,#196);
#155=LINE('',#848,#197);
#156=LINE('',#849,#198);
#157=LINE('',#852,#199);
#158=LINE('',#854,#200);
#159=LINE('',#855,#201);
#160=LINE('',#858,#202);
#161=LINE('',#860,#203);
#162=LINE('',#861,#204);
#163=LINE('',#864,#205);
#164=LINE('',#866,#206);
#165=LINE('',#867,#207);
#166=LINE('',#869,#208);
#167=LINE('',#870,#209);
#168=LINE('',#872,#210);
#169=LINE('',#874,#211);
#170=VECTOR('',#592,2.6);
#171=VECTOR('',#599,2.6);
#172=VECTOR('',#606,2.6);
#173=VECTOR('',#613,2.6);
#174=VECTOR('',#618,10.);
#175=VECTOR('',#619,10.);
#176=VECTOR('',#620,10.);
#177=VECTOR('',#621,10.);
#178=VECTOR('',#642,11.);
#179=VECTOR('',#653,5.);
#180=VECTOR('',#658,5.);
#181=VECTOR('',#663,5.);
#182=VECTOR('',#668,5.);
#183=VECTOR('',#671,10.);
#184=VECTOR('',#672,10.);
#185=VECTOR('',#673,10.);
#186=VECTOR('',#674,10.);
#187=VECTOR('',#677,10.);
#188=VECTOR('',#678,10.);
#189=VECTOR('',#679,10.);
#190=VECTOR('',#684,25.);
#191=VECTOR('',#689,2.6);
#192=VECTOR('',#696,2.6);
#193=VECTOR('',#701,10.);
#194=VECTOR('',#702,10.);
#195=VECTOR('',#703,10.);
#196=VECTOR('',#706,10.);
#197=VECTOR('',#707,10.);
#198=VECTOR('',#708,10.);
#199=VECTOR('',#711,10.);
#200=VECTOR('',#712,10.);
#201=VECTOR('',#713,10.);
#202=VECTOR('',#716,10.);
#203=VECTOR('',#717,10.);
#204=VECTOR('',#718,10.);
#205=VECTOR('',#721,10.);
#206=VECTOR('',#722,10.);
#207=VECTOR('',#723,10.);
#208=VECTOR('',#726,10.);
#209=VECTOR('',#727,10.);
#210=VECTOR('',#730,10.);
#211=VECTOR('',#733,10.);
#212=CIRCLE('',#534,2.6);
#213=CIRCLE('',#535,2.6);
#214=CIRCLE('',#537,2.6);
#215=CIRCLE('',#538,2.6);
#216=CIRCLE('',#540,2.6);
#217=CIRCLE('',#541,2.6);
#218=CIRCLE('',#543,2.6);
#219=CIRCLE('',#544,2.6);
#220=CIRCLE('',#547,5.8);
#221=CIRCLE('',#549,5.8);
#222=CIRCLE('',#551,5.8);
#223=CIRCLE('',#553,5.8);
#224=CIRCLE('',#555,17.);
#225=CIRCLE('',#556,17.);
#226=CIRCLE('',#558,25.);
#227=CIRCLE('',#560,5.8);
#228=CIRCLE('',#562,5.8);
#229=CIRCLE('',#564,5.8);
#230=CIRCLE('',#566,5.8);
#231=CIRCLE('',#570,25.);
#232=CIRCLE('',#572,2.6);
#233=CIRCLE('',#573,2.6);
#234=CIRCLE('',#575,2.6);
#235=CIRCLE('',#576,2.6);
#236=VERTEX_POINT('',#738);
#237=VERTEX_POINT('',#740);
#238=VERTEX_POINT('',#744);
#239=VERTEX_POINT('',#746);
#240=VERTEX_POINT('',#750);
#241=VERTEX_POINT('',#752);
#242=VERTEX_POINT('',#756);
#243=VERTEX_POINT('',#758);
#244=VERTEX_POINT('',#762);
#245=VERTEX_POINT('',#763);
#246=VERTEX_POINT('',#765);
#247=VERTEX_POINT('',#767);
#248=VERTEX_POINT('',#771);
#249=VERTEX_POINT('',#774);
#250=VERTEX_POINT('',#777);
#251=VERTEX_POINT('',#780);
#252=VERTEX_POINT('',#783);
#253=VERTEX_POINT('',#785);
#254=VERTEX_POINT('',#789);
#255=VERTEX_POINT('',#792);
#256=VERTEX_POINT('',#796);
#257=VERTEX_POINT('',#800);
#258=VERTEX_POINT('',#804);
#259=VERTEX_POINT('',#808);
#260=VERTEX_POINT('',#809);
#261=VERTEX_POINT('',#811);
#262=VERTEX_POINT('',#813);
#263=VERTEX_POINT('',#817);
#264=VERTEX_POINT('',#819);
#265=VERTEX_POINT('',#823);
#266=VERTEX_POINT('',#827);
#267=VERTEX_POINT('',#829);
#268=VERTEX_POINT('',#833);
#269=VERTEX_POINT('',#835);
#270=VERTEX_POINT('',#839);
#271=VERTEX_POINT('',#840);
#272=VERTEX_POINT('',#845);
#273=VERTEX_POINT('',#846);
#274=VERTEX_POINT('',#851);
#275=VERTEX_POINT('',#853);
#276=VERTEX_POINT('',#857);
#277=VERTEX_POINT('',#859);
#278=VERTEX_POINT('',#863);
#279=VERTEX_POINT('',#865);
#280=EDGE_CURVE('',#236,#236,#212,.T.);
#281=EDGE_CURVE('',#236,#237,#128,.T.);
#282=EDGE_CURVE('',#237,#237,#213,.T.);
#283=EDGE_CURVE('',#238,#238,#214,.T.);
#284=EDGE_CURVE('',#238,#239,#129,.T.);
#285=EDGE_CURVE('',#239,#239,#215,.T.);
#286=EDGE_CURVE('',#240,#240,#216,.T.);
#287=EDGE_CURVE('',#240,#241,#130,.T.);
#288=EDGE_CURVE('',#241,#241,#217,.T.);
#289=EDGE_CURVE('',#242,#242,#218,.T.);
#290=EDGE_CURVE('',#242,#243,#131,.T.);
#291=EDGE_CURVE('',#243,#243,#219,.T.);
#292=EDGE_CURVE('',#244,#245,#132,.T.);
#293=EDGE_CURVE('',#246,#245,#133,.T.);
#294=EDGE_CURVE('',#247,#246,#134,.T.);
#295=EDGE_CURVE('',#244,#247,#135,.T.);
#296=EDGE_CURVE('',#248,#248,#220,.T.);
#297=EDGE_CURVE('',#249,#249,#221,.T.);
#298=EDGE_CURVE('',#250,#250,#222,.T.);
#299=EDGE_CURVE('',#251,#251,#223,.T.);
#300=EDGE_CURVE('',#252,#252,#224,.F.);
#301=EDGE_CURVE('',#252,#253,#136,.T.);
#302=EDGE_CURVE('',#253,#253,#225,.F.);
#303=EDGE_CURVE('',#254,#254,#226,.F.);
#304=EDGE_CURVE('',#255,#255,#227,.F.);
#305=EDGE_CURVE('',#255,#248,#137,.T.);
#306=EDGE_CURVE('',#256,#256,#228,.F.);
#307=EDGE_CURVE('',#256,#249,#138,.T.);
#308=EDGE_CURVE('',#257,#257,#229,.F.);
#309=EDGE_CURVE('',#257,#250,#139,.T.);
#310=EDGE_CURVE('',#258,#258,#230,.F.);
#311=EDGE_CURVE('',#258,#251,#140,.T.);
#312=EDGE_CURVE('',#259,#260,#141,.F.);
#313=EDGE_CURVE('',#261,#259,#142,.T.);
#314=EDGE_CURVE('',#261,#262,#143,.F.);
#315=EDGE_CURVE('',#262,#260,#144,.T.);
#316=EDGE_CURVE('',#263,#260,#145,.F.);
#317=EDGE_CURVE('',#264,#263,#146,.T.);
#318=EDGE_CURVE('',#259,#264,#147,.F.);
#319=EDGE_CURVE('',#265,#265,#231,.F.);
#320=EDGE_CURVE('',#265,#254,#148,.T.);
#321=EDGE_CURVE('',#266,#266,#232,.T.);
#322=EDGE_CURVE('',#266,#267,#149,.T.);
#323=EDGE_CURVE('',#267,#267,#233,.T.);
#324=EDGE_CURVE('',#268,#268,#234,.T.);
#325=EDGE_CURVE('',#268,#269,#150,.T.);
#326=EDGE_CURVE('',#269,#269,#235,.T.);
#327=EDGE_CURVE('',#270,#271,#151,.T.);
#328=EDGE_CURVE('',#264,#271,#152,.T.);
#329=EDGE_CURVE('',#263,#270,#153,.T.);
#330=EDGE_CURVE('',#272,#273,#154,.T.);
#331=EDGE_CURVE('',#273,#261,#155,.F.);
#332=EDGE_CURVE('',#271,#272,#156,.T.);
#333=EDGE_CURVE('',#272,#274,#157,.T.);
#334=EDGE_CURVE('',#274,#275,#158,.T.);
#335=EDGE_CURVE('',#273,#275,#159,.T.);
#336=EDGE_CURVE('',#274,#276,#160,.T.);
#337=EDGE_CURVE('',#276,#277,#161,.T.);
#338=EDGE_CURVE('',#275,#277,#162,.T.);
#339=EDGE_CURVE('',#276,#278,#163,.T.);
#340=EDGE_CURVE('',#278,#279,#164,.T.);
#341=EDGE_CURVE('',#277,#279,#165,.T.);
#342=EDGE_CURVE('',#278,#244,#166,.T.);
#343=EDGE_CURVE('',#279,#247,#167,.T.);
#344=EDGE_CURVE('',#262,#246,#168,.F.);
#345=EDGE_CURVE('',#245,#270,#169,.T.);
#346=ORIENTED_EDGE('',*,*,#280,.F.);
#347=ORIENTED_EDGE('',*,*,#281,.T.);
#348=ORIENTED_EDGE('',*,*,#282,.F.);
#349=ORIENTED_EDGE('',*,*,#281,.F.);
#350=ORIENTED_EDGE('',*,*,#283,.F.);
#351=ORIENTED_EDGE('',*,*,#284,.T.);
#352=ORIENTED_EDGE('',*,*,#285,.F.);
#353=ORIENTED_EDGE('',*,*,#284,.F.);
#354=ORIENTED_EDGE('',*,*,#286,.F.);
#355=ORIENTED_EDGE('',*,*,#287,.T.);
#356=ORIENTED_EDGE('',*,*,#288,.F.);
#357=ORIENTED_EDGE('',*,*,#287,.F.);
#358=ORIENTED_EDGE('',*,*,#289,.F.);
#359=ORIENTED_EDGE('',*,*,#290,.T.);
#360=ORIENTED_EDGE('',*,*,#291,.F.);
#361=ORIENTED_EDGE('',*,*,#290,.F.);
#362=ORIENTED_EDGE('',*,*,#292,.T.);
#363=ORIENTED_EDGE('',*,*,#293,.F.);
#364=ORIENTED_EDGE('',*,*,#294,.F.);
#365=ORIENTED_EDGE('',*,*,#295,.F.);
#366=ORIENTED_EDGE('',*,*,#296,.F.);
#367=ORIENTED_EDGE('',*,*,#297,.F.);
#368=ORIENTED_EDGE('',*,*,#298,.F.);
#369=ORIENTED_EDGE('',*,*,#299,.F.);
#370=ORIENTED_EDGE('',*,*,#300,.T.);
#371=ORIENTED_EDGE('',*,*,#301,.T.);
#372=ORIENTED_EDGE('',*,*,#302,.F.);
#373=ORIENTED_EDGE('',*,*,#301,.F.);
#374=ORIENTED_EDGE('',*,*,#303,.F.);
#375=ORIENTED_EDGE('',*,*,#300,.F.);
#376=ORIENTED_EDGE('',*,*,#304,.F.);
#377=ORIENTED_EDGE('',*,*,#305,.T.);
#378=ORIENTED_EDGE('',*,*,#296,.T.);
#379=ORIENTED_EDGE('',*,*,#305,.F.);
#380=ORIENTED_EDGE('',*,*,#306,.F.);
#381=ORIENTED_EDGE('',*,*,#307,.T.);
#382=ORIENTED_EDGE('',*,*,#297,.T.);
#383=ORIENTED_EDGE('',*,*,#307,.F.);
#384=ORIENTED_EDGE('',*,*,#308,.F.);
#385=ORIENTED_EDGE('',*,*,#309,.T.);
#386=ORIENTED_EDGE('',*,*,#298,.T.);
#387=ORIENTED_EDGE('',*,*,#309,.F.);
#388=ORIENTED_EDGE('',*,*,#310,.F.);
#389=ORIENTED_EDGE('',*,*,#311,.T.);
#390=ORIENTED_EDGE('',*,*,#299,.T.);
#391=ORIENTED_EDGE('',*,*,#311,.F.);
#392=ORIENTED_EDGE('',*,*,#312,.F.);
#393=ORIENTED_EDGE('',*,*,#313,.F.);
#394=ORIENTED_EDGE('',*,*,#314,.T.);
#395=ORIENTED_EDGE('',*,*,#315,.T.);
#396=ORIENTED_EDGE('',*,*,#312,.T.);
#397=ORIENTED_EDGE('',*,*,#316,.F.);
#398=ORIENTED_EDGE('',*,*,#317,.F.);
#399=ORIENTED_EDGE('',*,*,#318,.F.);
#400=ORIENTED_EDGE('',*,*,#302,.T.);
#401=ORIENTED_EDGE('',*,*,#289,.T.);
#402=ORIENTED_EDGE('',*,*,#286,.T.);
#403=ORIENTED_EDGE('',*,*,#283,.T.);
#404=ORIENTED_EDGE('',*,*,#280,.T.);
#405=ORIENTED_EDGE('',*,*,#319,.F.);
#406=ORIENTED_EDGE('',*,*,#320,.T.);
#407=ORIENTED_EDGE('',*,*,#303,.T.);
#408=ORIENTED_EDGE('',*,*,#320,.F.);
#409=ORIENTED_EDGE('',*,*,#321,.F.);
#410=ORIENTED_EDGE('',*,*,#322,.T.);
#411=ORIENTED_EDGE('',*,*,#323,.T.);
#412=ORIENTED_EDGE('',*,*,#322,.F.);
#413=ORIENTED_EDGE('',*,*,#324,.F.);
#414=ORIENTED_EDGE('',*,*,#325,.T.);
#415=ORIENTED_EDGE('',*,*,#326,.T.);
#416=ORIENTED_EDGE('',*,*,#325,.F.);
#417=ORIENTED_EDGE('',*,*,#327,.T.);
#418=ORIENTED_EDGE('',*,*,#328,.F.);
#419=ORIENTED_EDGE('',*,*,#317,.T.);
#420=ORIENTED_EDGE('',*,*,#329,.T.);
#421=ORIENTED_EDGE('',*,*,#330,.T.);
#422=ORIENTED_EDGE('',*,*,#331,.T.);
#423=ORIENTED_EDGE('',*,*,#313,.T.);
#424=ORIENTED_EDGE('',*,*,#318,.T.);
#425=ORIENTED_EDGE('',*,*,#328,.T.);
#426=ORIENTED_EDGE('',*,*,#332,.T.);
#427=ORIENTED_EDGE('',*,*,#333,.T.);
#428=ORIENTED_EDGE('',*,*,#334,.T.);
#429=ORIENTED_EDGE('',*,*,#335,.F.);
#430=ORIENTED_EDGE('',*,*,#330,.F.);
#431=ORIENTED_EDGE('',*,*,#336,.T.);
#432=ORIENTED_EDGE('',*,*,#337,.T.);
#433=ORIENTED_EDGE('',*,*,#338,.F.);
#434=ORIENTED_EDGE('',*,*,#334,.F.);
#435=ORIENTED_EDGE('',*,*,#339,.T.);
#436=ORIENTED_EDGE('',*,*,#340,.T.);
#437=ORIENTED_EDGE('',*,*,#341,.F.);
#438=ORIENTED_EDGE('',*,*,#337,.F.);
#439=ORIENTED_EDGE('',*,*,#342,.T.);
#440=ORIENTED_EDGE('',*,*,#295,.T.);
#441=ORIENTED_EDGE('',*,*,#343,.F.);
#442=ORIENTED_EDGE('',*,*,#340,.F.);
#443=ORIENTED_EDGE('',*,*,#314,.F.);
#444=ORIENTED_EDGE('',*,*,#331,.F.);
#445=ORIENTED_EDGE('',*,*,#335,.T.);
#446=ORIENTED_EDGE('',*,*,#338,.T.);
#447=ORIENTED_EDGE('',*,*,#341,.T.);
#448=ORIENTED_EDGE('',*,*,#343,.T.);
#449=ORIENTED_EDGE('',*,*,#294,.T.);
#450=ORIENTED_EDGE('',*,*,#344,.F.);
#451=ORIENTED_EDGE('',*,*,#321,.T.);
#452=ORIENTED_EDGE('',*,*,#324,.T.);
#453=ORIENTED_EDGE('',*,*,#310,.T.);
#454=ORIENTED_EDGE('',*,*,#308,.T.);
#455=ORIENTED_EDGE('',*,*,#306,.T.);
#456=ORIENTED_EDGE('',*,*,#304,.T.);
#457=ORIENTED_EDGE('',*,*,#293,.T.);
#458=ORIENTED_EDGE('',*,*,#345,.T.);
#459=ORIENTED_EDGE('',*,*,#329,.F.);
#460=ORIENTED_EDGE('',*,*,#316,.T.);
#461=ORIENTED_EDGE('',*,*,#315,.F.);
#462=ORIENTED_EDGE('',*,*,#344,.T.);
#463=ORIENTED_EDGE('',*,*,#292,.F.);
#464=ORIENTED_EDGE('',*,*,#342,.F.);
#465=ORIENTED_EDGE('',*,*,#339,.F.);
#466=ORIENTED_EDGE('',*,*,#336,.F.);
#467=ORIENTED_EDGE('',*,*,#333,.F.);
#468=ORIENTED_EDGE('',*,*,#332,.F.);
#469=ORIENTED_EDGE('',*,*,#327,.F.);
#470=ORIENTED_EDGE('',*,*,#345,.F.);
#471=ORIENTED_EDGE('',*,*,#319,.T.);
#472=ORIENTED_EDGE('',*,*,#323,.F.);
#473=ORIENTED_EDGE('',*,*,#326,.F.);
#474=ORIENTED_EDGE('',*,*,#291,.T.);
#475=ORIENTED_EDGE('',*,*,#288,.T.);
#476=ORIENTED_EDGE('',*,*,#285,.T.);
#477=ORIENTED_EDGE('',*,*,#282,.T.);
#478=CYLINDRICAL_SURFACE('',#533,2.6);
#479=CYLINDRICAL_SURFACE('',#536,2.6);
#480=CYLINDRICAL_SURFACE('',#539,2.6);
#481=CYLINDRICAL_SURFACE('',#542,2.6);
#482=CYLINDRICAL_SURFACE('',#554,17.);
#483=CYLINDRICAL_SURFACE('',#559,5.8);
#484=CYLINDRICAL_SURFACE('',#561,5.8);
#485=CYLINDRICAL_SURFACE('',#563,5.8);
#486=CYLINDRICAL_SURFACE('',#565,5.8);
#487=CYLINDRICAL_SURFACE('',#569,25.);
#488=CYLINDRICAL_SURFACE('',#571,2.6);
#489=CYLINDRICAL_SURFACE('',#574,2.6);
#490=ADVANCED_FACE('',(#51),#478,.F.);
#491=ADVANCED_FACE('',(#52),#479,.F.);
#492=ADVANCED_FACE('',(#53),#480,.F.);
#493=ADVANCED_FACE('',(#54),#481,.F.);
#494=ADVANCED_FACE('',(#55),#34,.T.);
#495=ADVANCED_FACE('',(#56),#35,.T.);
#496=ADVANCED_FACE('',(#57),#36,.T.);
#497=ADVANCED_FACE('',(#58),#37,.T.);
#498=ADVANCED_FACE('',(#59),#38,.T.);
#499=ADVANCED_FACE('',(#60),#482,.F.);
#500=ADVANCED_FACE('',(#61,#15),#39,.T.);
#501=ADVANCED_FACE('',(#62),#483,.F.);
#502=ADVANCED_FACE('',(#63),#484,.F.);
#503=ADVANCED_FACE('',(#64),#485,.F.);
#504=ADVANCED_FACE('',(#65),#486,.F.);
#505=ADVANCED_FACE('',(#66),#40,.T.);
#506=ADVANCED_FACE('',(#67,#16,#17,#18,#19,#20),#41,.F.);
#507=ADVANCED_FACE('',(#68),#487,.F.);
#508=ADVANCED_FACE('',(#69),#488,.F.);
#509=ADVANCED_FACE('',(#70),#489,.F.);
#510=ADVANCED_FACE('',(#71),#42,.T.);
#511=ADVANCED_FACE('',(#72),#43,.T.);
#512=ADVANCED_FACE('',(#73),#44,.T.);
#513=ADVANCED_FACE('',(#74),#45,.T.);
#514=ADVANCED_FACE('',(#75),#46,.T.);
#515=ADVANCED_FACE('',(#76),#47,.T.);
#516=ADVANCED_FACE('',(#77,#21,#22,#23,#24,#25,#26),#48,.F.);
#517=ADVANCED_FACE('',(#78),#49,.T.);
#518=ADVANCED_FACE('',(#79,#27,#28,#29,#30,#31,#32,#33),#50,.T.);
#519=CLOSED_SHELL('',(#490,#491,#492,#493,#494,#495,#496,#497,#498,#499,
#500,#501,#502,#503,#504,#505,#506,#507,#508,#509,#510,#511,#512,#513,#514,
#515,#516,#517,#518));
#520=DERIVED_UNIT_ELEMENT(#522,1.);
#521=DERIVED_UNIT_ELEMENT(#881,-3.);
#522=(
MASS_UNIT()
NAMED_UNIT(*)
SI_UNIT(.KILO.,.GRAM.)
);
#523=DERIVED_UNIT((#520,#521));
#524=MEASURE_REPRESENTATION_ITEM('density measure',
POSITIVE_RATIO_MEASURE(1541.),#523);
#525=PROPERTY_DEFINITION_REPRESENTATION(#530,#527);
#526=PROPERTY_DEFINITION_REPRESENTATION(#531,#528);
#527=REPRESENTATION('material name',(#529),#878);
#528=REPRESENTATION('density',(#524),#878);
#529=DESCRIPTIVE_REPRESENTATION_ITEM('PET Plastic','PET Plastic');
#530=PROPERTY_DEFINITION('material property','material name',#888);
#531=PROPERTY_DEFINITION('material property','density of part',#888);
#532=AXIS2_PLACEMENT_3D('',#736,#586,#587);
#533=AXIS2_PLACEMENT_3D('',#737,#588,#589);
#534=AXIS2_PLACEMENT_3D('',#739,#590,#591);
#535=AXIS2_PLACEMENT_3D('',#742,#593,#594);
#536=AXIS2_PLACEMENT_3D('',#743,#595,#596);
#537=AXIS2_PLACEMENT_3D('',#745,#597,#598);
#538=AXIS2_PLACEMENT_3D('',#748,#600,#601);
#539=AXIS2_PLACEMENT_3D('',#749,#602,#603);
#540=AXIS2_PLACEMENT_3D('',#751,#604,#605);
#541=AXIS2_PLACEMENT_3D('',#754,#607,#608);
#542=AXIS2_PLACEMENT_3D('',#755,#609,#610);
#543=AXIS2_PLACEMENT_3D('',#757,#611,#612);
#544=AXIS2_PLACEMENT_3D('',#760,#614,#615);
#545=AXIS2_PLACEMENT_3D('',#761,#616,#617);
#546=AXIS2_PLACEMENT_3D('',#770,#622,#623);
#547=AXIS2_PLACEMENT_3D('',#772,#624,#625);
#548=AXIS2_PLACEMENT_3D('',#773,#626,#627);
#549=AXIS2_PLACEMENT_3D('',#775,#628,#629);
#550=AXIS2_PLACEMENT_3D('',#776,#630,#631);
#551=AXIS2_PLACEMENT_3D('',#778,#632,#633);
#552=AXIS2_PLACEMENT_3D('',#779,#634,#635);
#553=AXIS2_PLACEMENT_3D('',#781,#636,#637);
#554=AXIS2_PLACEMENT_3D('',#782,#638,#639);
#555=AXIS2_PLACEMENT_3D('',#784,#640,#641);
#556=AXIS2_PLACEMENT_3D('',#787,#643,#644);
#557=AXIS2_PLACEMENT_3D('',#788,#645,#646);
#558=AXIS2_PLACEMENT_3D('',#790,#647,#648);
#559=AXIS2_PLACEMENT_3D('',#791,#649,#650);
#560=AXIS2_PLACEMENT_3D('',#793,#651,#652);
#561=AXIS2_PLACEMENT_3D('',#795,#654,#655);
#562=AXIS2_PLACEMENT_3D('',#797,#656,#657);
#563=AXIS2_PLACEMENT_3D('',#799,#659,#660);
#564=AXIS2_PLACEMENT_3D('',#801,#661,#662);
#565=AXIS2_PLACEMENT_3D('',#803,#664,#665);
#566=AXIS2_PLACEMENT_3D('',#805,#666,#667);
#567=AXIS2_PLACEMENT_3D('',#807,#669,#670);
#568=AXIS2_PLACEMENT_3D('',#816,#675,#676);
#569=AXIS2_PLACEMENT_3D('',#822,#680,#681);
#570=AXIS2_PLACEMENT_3D('',#824,#682,#683);
#571=AXIS2_PLACEMENT_3D('',#826,#685,#686);
#572=AXIS2_PLACEMENT_3D('',#828,#687,#688);
#573=AXIS2_PLACEMENT_3D('',#831,#690,#691);
#574=AXIS2_PLACEMENT_3D('',#832,#692,#693);
#575=AXIS2_PLACEMENT_3D('',#834,#694,#695);
#576=AXIS2_PLACEMENT_3D('',#837,#697,#698);
#577=AXIS2_PLACEMENT_3D('',#838,#699,#700);
#578=AXIS2_PLACEMENT_3D('',#844,#704,#705);
#579=AXIS2_PLACEMENT_3D('',#850,#709,#710);
#580=AXIS2_PLACEMENT_3D('',#856,#714,#715);
#581=AXIS2_PLACEMENT_3D('',#862,#719,#720);
#582=AXIS2_PLACEMENT_3D('',#868,#724,#725);
#583=AXIS2_PLACEMENT_3D('',#871,#728,#729);
#584=AXIS2_PLACEMENT_3D('',#873,#731,#732);
#585=AXIS2_PLACEMENT_3D('',#875,#734,#735);
#586=DIRECTION('axis',(0.,0.,1.));
#587=DIRECTION('refdir',(1.,0.,0.));
#588=DIRECTION('center_axis',(0.,0.,1.));
#589=DIRECTION('ref_axis',(-1.,0.,0.));
#590=DIRECTION('center_axis',(0.,0.,1.));
#591=DIRECTION('ref_axis',(-1.,0.,0.));
#592=DIRECTION('',(0.,0.,1.));
#593=DIRECTION('center_axis',(0.,0.,-1.));
#594=DIRECTION('ref_axis',(-1.,0.,0.));
#595=DIRECTION('center_axis',(0.,0.,1.));
#596=DIRECTION('ref_axis',(-1.,0.,0.));
#597=DIRECTION('center_axis',(0.,0.,1.));
#598=DIRECTION('ref_axis',(-1.,0.,0.));
#599=DIRECTION('',(0.,0.,1.));
#600=DIRECTION('center_axis',(0.,0.,-1.));
#601=DIRECTION('ref_axis',(-1.,0.,0.));
#602=DIRECTION('center_axis',(0.,0.,1.));
#603=DIRECTION('ref_axis',(-1.,0.,0.));
#604=DIRECTION('center_axis',(0.,0.,1.));
#605=DIRECTION('ref_axis',(-1.,0.,0.));
#606=DIRECTION('',(0.,0.,1.));
#607=DIRECTION('center_axis',(0.,0.,-1.));
#608=DIRECTION('ref_axis',(-1.,0.,0.));
#609=DIRECTION('center_axis',(0.,0.,1.));
#610=DIRECTION('ref_axis',(-1.,0.,0.));
#611=DIRECTION('center_axis',(0.,0.,1.));
#612=DIRECTION('ref_axis',(-1.,0.,0.));
#613=DIRECTION('',(0.,0.,1.));
#614=DIRECTION('center_axis',(0.,0.,-1.));
#615=DIRECTION('ref_axis',(-1.,0.,0.));
#616=DIRECTION('center_axis',(1.,0.,0.));
#617=DIRECTION('ref_axis',(0.,-1.,0.));
#618=DIRECTION('',(0.,-1.,0.));
#619=DIRECTION('',(0.,0.,1.));
#620=DIRECTION('',(0.,-1.,0.));
#621=DIRECTION('',(0.,0.,-1.));
#622=DIRECTION('center_axis',(0.,0.,-1.));
#623=DIRECTION('ref_axis',(1.,0.,0.));
#624=DIRECTION('center_axis',(0.,0.,1.));
#625=DIRECTION('ref_axis',(1.,0.,0.));
#626=DIRECTION('center_axis',(0.,0.,-1.));
#627=DIRECTION('ref_axis',(1.,0.,0.));
#628=DIRECTION('center_axis',(0.,0.,1.));
#629=DIRECTION('ref_axis',(1.,0.,0.));
#630=DIRECTION('center_axis',(0.,0.,-1.));
#631=DIRECTION('ref_axis',(1.,0.,0.));
#632=DIRECTION('center_axis',(0.,0.,1.));
#633=DIRECTION('ref_axis',(1.,0.,0.));
#634=DIRECTION('center_axis',(0.,0.,-1.));
#635=DIRECTION('ref_axis',(1.,0.,0.));
#636=DIRECTION('center_axis',(0.,0.,1.));
#637=DIRECTION('ref_axis',(1.,0.,0.));
#638=DIRECTION('center_axis',(0.,0.,-1.));
#639=DIRECTION('ref_axis',(-1.,0.,0.));
#640=DIRECTION('center_axis',(0.,0.,-1.));
#641=DIRECTION('ref_axis',(-1.,0.,0.));
#642=DIRECTION('',(0.,0.,-1.));
#643=DIRECTION('center_axis',(0.,0.,-1.));
#644=DIRECTION('ref_axis',(-1.,0.,0.));
#645=DIRECTION('center_axis',(0.,0.,1.));
#646=DIRECTION('ref_axis',(1.,0.,0.));
#647=DIRECTION('center_axis',(0.,0.,1.));
#648=DIRECTION('ref_axis',(-1.,0.,0.));
#649=DIRECTION('center_axis',(0.,0.,1.));
#650=DIRECTION('ref_axis',(1.,0.,0.));
#651=DIRECTION('center_axis',(0.,0.,-1.));
#652=DIRECTION('ref_axis',(1.,0.,0.));
#653=DIRECTION('',(0.,0.,1.));
#654=DIRECTION('center_axis',(0.,0.,1.));
#655=DIRECTION('ref_axis',(1.,0.,0.));
#656=DIRECTION('center_axis',(0.,0.,-1.));
#657=DIRECTION('ref_axis',(1.,0.,0.));
#658=DIRECTION('',(0.,0.,1.));
#659=DIRECTION('center_axis',(0.,0.,1.));
#660=DIRECTION('ref_axis',(1.,0.,0.));
#661=DIRECTION('center_axis',(0.,0.,-1.));
#662=DIRECTION('ref_axis',(1.,0.,0.));
#663=DIRECTION('',(0.,0.,1.));
#664=DIRECTION('center_axis',(0.,0.,1.));
#665=DIRECTION('ref_axis',(1.,0.,0.));
#666=DIRECTION('center_axis',(0.,0.,-1.));
#667=DIRECTION('ref_axis',(1.,0.,0.));
#668=DIRECTION('',(0.,0.,1.));
#669=DIRECTION('center_axis',(1.,0.,0.));
#670=DIRECTION('ref_axis',(0.,1.,0.));
#671=DIRECTION('',(0.,-1.,0.));
#672=DIRECTION('',(0.,0.,1.));
#673=DIRECTION('',(0.,-1.,0.));
#674=DIRECTION('',(0.,0.,1.));
#675=DIRECTION('center_axis',(0.,0.,1.));
#676=DIRECTION('ref_axis',(1.,0.,0.));
#677=DIRECTION('',(1.,0.,0.));
#678=DIRECTION('',(0.,1.,0.));
#679=DIRECTION('',(-1.,0.,0.));
#680=DIRECTION('center_axis',(0.,0.,-1.));
#681=DIRECTION('ref_axis',(-1.,0.,0.));
#682=DIRECTION('center_axis',(0.,0.,1.));
#683=DIRECTION('ref_axis',(-1.,0.,0.));
#684=DIRECTION('',(0.,0.,-1.));
#685=DIRECTION('center_axis',(0.,0.,1.));
#686=DIRECTION('ref_axis',(-1.,0.,0.));
#687=DIRECTION('center_axis',(0.,0.,1.));
#688=DIRECTION('ref_axis',(-1.,0.,0.));
#689=DIRECTION('',(0.,0.,1.));
#690=DIRECTION('center_axis',(0.,0.,1.));
#691=DIRECTION('ref_axis',(-1.,0.,0.));
#692=DIRECTION('center_axis',(0.,0.,1.));
#693=DIRECTION('ref_axis',(-1.,0.,0.));
#694=DIRECTION('center_axis',(0.,0.,1.));
#695=DIRECTION('ref_axis',(-1.,0.,0.));
#696=DIRECTION('',(0.,0.,1.));
#697=DIRECTION('center_axis',(0.,0.,1.));
#698=DIRECTION('ref_axis',(-1.,0.,0.));
#699=DIRECTION('center_axis',(1.,0.,0.));
#700=DIRECTION('ref_axis',(0.,0.,-1.));
#701=DIRECTION('',(0.,-1.,0.));
#702=DIRECTION('',(0.,0.,1.));
#703=DIRECTION('',(0.,0.,1.));
#704=DIRECTION('center_axis',(0.,-1.,0.));
#705=DIRECTION('ref_axis',(1.,0.,0.));
#706=DIRECTION('',(0.,0.,-1.));
#707=DIRECTION('',(-1.,0.,0.));
#708=DIRECTION('',(-1.,0.,0.));
#709=DIRECTION('center_axis',(1.,0.,0.));
#710=DIRECTION('ref_axis',(0.,-1.,0.));
#711=DIRECTION('',(0.,-1.,0.));
#712=DIRECTION('',(0.,0.,-1.));
#713=DIRECTION('',(0.,-1.,0.));
#714=DIRECTION('center_axis',(0.,-1.,0.));
#715=DIRECTION('ref_axis',(-1.,0.,0.));
#716=DIRECTION('',(-1.,0.,0.));
#717=DIRECTION('',(0.,0.,-1.));
#718=DIRECTION('',(-1.,0.,0.));
#719=DIRECTION('center_axis',(-1.,0.,0.));
#720=DIRECTION('ref_axis',(0.,1.,0.));
#721=DIRECTION('',(0.,1.,0.));
#722=DIRECTION('',(0.,0.,-1.));
#723=DIRECTION('',(0.,1.,0.));
#724=DIRECTION('center_axis',(0.,1.,0.));
#725=DIRECTION('ref_axis',(1.,0.,0.));
#726=DIRECTION('',(1.,0.,0.));
#727=DIRECTION('',(1.,0.,0.));
#728=DIRECTION('center_axis',(0.,0.,1.));
#729=DIRECTION('ref_axis',(-1.,0.,0.));
#730=DIRECTION('',(1.,0.,0.));
#731=DIRECTION('center_axis',(0.,1.,0.));
#732=DIRECTION('ref_axis',(-1.,0.,0.));
#733=DIRECTION('',(1.,0.,0.));
#734=DIRECTION('center_axis',(0.,0.,1.));
#735=DIRECTION('ref_axis',(1.,0.,0.));
#736=CARTESIAN_POINT('',(0.,0.,0.));
#737=CARTESIAN_POINT('Origin',(56.12,56.31,9.));
#738=CARTESIAN_POINT('',(58.72,56.31,6.));
#739=CARTESIAN_POINT('Origin',(56.12,56.31,6.));
#740=CARTESIAN_POINT('',(58.72,56.31,15.));
#741=CARTESIAN_POINT('',(58.72,56.31,9.));
#742=CARTESIAN_POINT('Origin',(56.12,56.31,15.));
#743=CARTESIAN_POINT('Origin',(56.12,9.19,9.));
#744=CARTESIAN_POINT('',(58.72,9.19,6.));
#745=CARTESIAN_POINT('Origin',(56.12,9.19,6.));
#746=CARTESIAN_POINT('',(58.72,9.19,15.));
#747=CARTESIAN_POINT('',(58.72,9.19,9.));
#748=CARTESIAN_POINT('Origin',(56.12,9.19,15.));
#749=CARTESIAN_POINT('Origin',(8.97999999999999,56.31,9.));
#750=CARTESIAN_POINT('',(11.58,56.31,6.));
#751=CARTESIAN_POINT('Origin',(8.97999999999999,56.31,6.));
#752=CARTESIAN_POINT('',(11.58,56.31,15.));
#753=CARTESIAN_POINT('',(11.58,56.31,9.));
#754=CARTESIAN_POINT('Origin',(8.97999999999999,56.31,15.));
#755=CARTESIAN_POINT('Origin',(8.97999999999999,9.19,9.));
#756=CARTESIAN_POINT('',(11.58,9.19,6.));
#757=CARTESIAN_POINT('Origin',(8.97999999999999,9.19,6.));
#758=CARTESIAN_POINT('',(11.58,9.19,15.));
#759=CARTESIAN_POINT('',(11.58,9.19,9.));
#760=CARTESIAN_POINT('Origin',(8.97999999999999,9.19,15.));
#761=CARTESIAN_POINT('Origin',(-4.52500000000001,112.75,15.));
#762=CARTESIAN_POINT('',(-4.52500000000001,112.75,15.));
#763=CARTESIAN_POINT('',(-4.52500000000001,65.25,15.));
#764=CARTESIAN_POINT('',(-4.52500000000001,112.75,15.));
#765=CARTESIAN_POINT('',(-4.52500000000001,65.25,3.));
#766=CARTESIAN_POINT('',(-4.52500000000001,65.25,9.));
#767=CARTESIAN_POINT('',(-4.52500000000001,112.75,3.));
#768=CARTESIAN_POINT('',(-4.52500000000001,112.75,3.));
#769=CARTESIAN_POINT('',(-4.52500000000001,112.75,15.));
#770=CARTESIAN_POINT('Origin',(-52.6,52.75,6.3));
#771=CARTESIAN_POINT('',(-58.4,52.75,6.3));
#772=CARTESIAN_POINT('Origin',(-52.6,52.75,6.3));
#773=CARTESIAN_POINT('Origin',(-12.9,52.75,6.3));
#774=CARTESIAN_POINT('',(-18.7,52.75,6.3));
#775=CARTESIAN_POINT('Origin',(-12.9,52.75,6.3));
#776=CARTESIAN_POINT('Origin',(-52.6,12.75,6.3));
#777=CARTESIAN_POINT('',(-58.4,12.75,6.3));
#778=CARTESIAN_POINT('Origin',(-52.6,12.75,6.3));
#779=CARTESIAN_POINT('Origin',(-12.9,12.75,6.3));
#780=CARTESIAN_POINT('',(-18.7,12.75,6.3));
#781=CARTESIAN_POINT('Origin',(-12.9,12.75,6.3));
#782=CARTESIAN_POINT('Origin',(32.55,32.75,9.));
#783=CARTESIAN_POINT('',(49.55,32.75,12.6));
#784=CARTESIAN_POINT('Origin',(32.55,32.75,12.6));
#785=CARTESIAN_POINT('',(49.55,32.75,6.));
#786=CARTESIAN_POINT('',(49.55,32.75,9.));
#787=CARTESIAN_POINT('Origin',(32.55,32.75,6.));
#788=CARTESIAN_POINT('Origin',(32.55,32.75,12.6));
#789=CARTESIAN_POINT('',(57.55,32.75,12.6));
#790=CARTESIAN_POINT('Origin',(32.55,32.75,12.6));
#791=CARTESIAN_POINT('Origin',(-52.6,52.75,3.));
#792=CARTESIAN_POINT('',(-58.4,52.75,3.));
#793=CARTESIAN_POINT('Origin',(-52.6,52.75,3.));
#794=CARTESIAN_POINT('',(-58.4,52.75,3.));
#795=CARTESIAN_POINT('Origin',(-12.9,52.75,3.));
#796=CARTESIAN_POINT('',(-18.7,52.75,3.));
#797=CARTESIAN_POINT('Origin',(-12.9,52.75,3.));
#798=CARTESIAN_POINT('',(-18.7,52.75,3.));
#799=CARTESIAN_POINT('Origin',(-52.6,12.75,3.));
#800=CARTESIAN_POINT('',(-58.4,12.75,3.));
#801=CARTESIAN_POINT('Origin',(-52.6,12.75,3.));
#802=CARTESIAN_POINT('',(-58.4,12.75,3.));
#803=CARTESIAN_POINT('Origin',(-12.9,12.75,3.));
#804=CARTESIAN_POINT('',(-18.7,12.75,3.));
#805=CARTESIAN_POINT('Origin',(-12.9,12.75,3.));
#806=CARTESIAN_POINT('',(-18.7,12.75,3.));
#807=CARTESIAN_POINT('Origin',(-0.250000000000004,17.75,3.));
#808=CARTESIAN_POINT('',(-0.250000000000004,0.249999999999995,6.));
#809=CARTESIAN_POINT('',(-0.250000000000004,65.25,6.));
#810=CARTESIAN_POINT('',(-0.250000000000004,25.25,6.));
#811=CARTESIAN_POINT('',(-0.250000000000004,0.249999999999995,3.));
#812=CARTESIAN_POINT('',(-0.250000000000004,0.249999999999995,3.));
#813=CARTESIAN_POINT('',(-0.250000000000004,65.25,3.));
#814=CARTESIAN_POINT('',(-0.250000000000004,25.25,3.));
#815=CARTESIAN_POINT('',(-0.250000000000004,65.25,3.));
#816=CARTESIAN_POINT('Origin',(-32.75,32.75,6.));
#817=CARTESIAN_POINT('',(65.35,65.25,6.));
#818=CARTESIAN_POINT('',(-25.25,65.25,6.));
#819=CARTESIAN_POINT('',(65.35,0.249999999999995,6.));
#820=CARTESIAN_POINT('',(65.35,25.25,6.));
#821=CARTESIAN_POINT('',(-40.25,0.249999999999995,6.));
#822=CARTESIAN_POINT('Origin',(32.55,32.75,21.));
#823=CARTESIAN_POINT('',(57.55,32.75,15.));
#824=CARTESIAN_POINT('Origin',(32.55,32.75,15.));
#825=CARTESIAN_POINT('',(57.55,32.75,21.));
#826=CARTESIAN_POINT('Origin',(-12.9,32.75,3.));
#827=CARTESIAN_POINT('',(-10.3,32.75,3.));
#828=CARTESIAN_POINT('Origin',(-12.9,32.75,3.));
#829=CARTESIAN_POINT('',(-10.3,32.75,15.));
#830=CARTESIAN_POINT('',(-10.3,32.75,3.));
#831=CARTESIAN_POINT('Origin',(-12.9,32.75,15.));
#832=CARTESIAN_POINT('Origin',(-52.6,32.75,3.));
#833=CARTESIAN_POINT('',(-50.,32.75,3.));
#834=CARTESIAN_POINT('Origin',(-52.6,32.75,3.));
#835=CARTESIAN_POINT('',(-50.,32.75,15.));
#836=CARTESIAN_POINT('',(-50.,32.75,3.));
#837=CARTESIAN_POINT('Origin',(-52.6,32.75,15.));
#838=CARTESIAN_POINT('Origin',(65.35,17.75,3.));
#839=CARTESIAN_POINT('',(65.35,65.25,15.));
#840=CARTESIAN_POINT('',(65.35,0.249999999999995,15.));
#841=CARTESIAN_POINT('',(65.35,25.25,15.));
#842=CARTESIAN_POINT('',(65.35,0.249999999999995,9.));
#843=CARTESIAN_POINT('',(65.35,65.25,3.));
#844=CARTESIAN_POINT('Origin',(-47.75,0.249999999999995,3.));
#845=CARTESIAN_POINT('',(-4.52500000000001,0.249999999999995,15.));
#846=CARTESIAN_POINT('',(-4.52500000000001,0.249999999999995,3.));
#847=CARTESIAN_POINT('',(-4.52500000000001,0.249999999999995,9.));
#848=CARTESIAN_POINT('',(-40.25,0.249999999999995,3.));
#849=CARTESIAN_POINT('',(-40.25,0.249999999999995,15.));
#850=CARTESIAN_POINT('Origin',(-4.52500000000001,0.250000000000004,15.));
#851=CARTESIAN_POINT('',(-4.52500000000001,-47.25,15.));
#852=CARTESIAN_POINT('',(-4.52500000000001,112.75,15.));
#853=CARTESIAN_POINT('',(-4.52500000000001,-47.25,3.));
#854=CARTESIAN_POINT('',(-4.52500000000001,-47.25,15.));
#855=CARTESIAN_POINT('',(-4.52500000000001,112.75,3.));
#856=CARTESIAN_POINT('Origin',(-4.52500000000001,-47.25,15.));
#857=CARTESIAN_POINT('',(-114.525,-47.25,15.));
#858=CARTESIAN_POINT('',(-4.52500000000001,-47.25,15.));
#859=CARTESIAN_POINT('',(-114.525,-47.25,3.));
#860=CARTESIAN_POINT('',(-114.525,-47.25,15.));
#861=CARTESIAN_POINT('',(-4.52500000000001,-47.25,3.));
#862=CARTESIAN_POINT('Origin',(-114.525,-47.25,15.));
#863=CARTESIAN_POINT('',(-114.525,112.75,15.));
#864=CARTESIAN_POINT('',(-114.525,-47.25,15.));
#865=CARTESIAN_POINT('',(-114.525,112.75,3.));
#866=CARTESIAN_POINT('',(-114.525,112.75,15.));
#867=CARTESIAN_POINT('',(-114.525,-47.25,3.));
#868=CARTESIAN_POINT('Origin',(-114.525,112.75,15.));
#869=CARTESIAN_POINT('',(-114.525,112.75,15.));
#870=CARTESIAN_POINT('',(-114.525,112.75,3.));
#871=CARTESIAN_POINT('Origin',(-32.75,32.75,3.));
#872=CARTESIAN_POINT('',(-25.25,65.25,3.));
#873=CARTESIAN_POINT('Origin',(-17.75,65.25,3.));
#874=CARTESIAN_POINT('',(-25.25,65.25,15.));
#875=CARTESIAN_POINT('Origin',(32.55,32.75,15.));
#876=UNCERTAINTY_MEASURE_WITH_UNIT(LENGTH_MEASURE(0.01),#880,
'DISTANCE_ACCURACY_VALUE',
'Maximum model space distance between geometric entities at asserted c
onnectivities');
#877=UNCERTAINTY_MEASURE_WITH_UNIT(LENGTH_MEASURE(0.01),#880,
'DISTANCE_ACCURACY_VALUE',
'Maximum model space distance between geometric entities at asserted c
onnectivities');
#878=(
GEOMETRIC_REPRESENTATION_CONTEXT(3)
GLOBAL_UNCERTAINTY_ASSIGNED_CONTEXT((#876))
GLOBAL_UNIT_ASSIGNED_CONTEXT((#880,#882,#883))
REPRESENTATION_CONTEXT('','3D')
);
#879=(
GEOMETRIC_REPRESENTATION_CONTEXT(3)
GLOBAL_UNCERTAINTY_ASSIGNED_CONTEXT((#877))
GLOBAL_UNIT_ASSIGNED_CONTEXT((#880,#882,#883))
REPRESENTATION_CONTEXT('','3D')
);
#880=(
LENGTH_UNIT()
NAMED_UNIT(*)
SI_UNIT(.MILLI.,.METRE.)
);
#881=(
LENGTH_UNIT()
NAMED_UNIT(*)
SI_UNIT($,.METRE.)
);
#882=(
NAMED_UNIT(*)
PLANE_ANGLE_UNIT()
SI_UNIT($,.RADIAN.)
);
#883=(
NAMED_UNIT(*)
SI_UNIT($,.STERADIAN.)
SOLID_ANGLE_UNIT()
);
#884=SHAPE_DEFINITION_REPRESENTATION(#885,#886);
#885=PRODUCT_DEFINITION_SHAPE('',$,#888);
#886=SHAPE_REPRESENTATION('',(#532),#878);
#887=PRODUCT_DEFINITION_CONTEXT('part definition',#892,'design');
#888=PRODUCT_DEFINITION('podstawka','podstawka v17',#889,#887);
#889=PRODUCT_DEFINITION_FORMATION('',$,#894);
#890=PRODUCT_RELATED_PRODUCT_CATEGORY('podstawka v17','podstawka v17',(#894));
#891=APPLICATION_PROTOCOL_DEFINITION('international standard',
'automotive_design',2009,#892);
#892=APPLICATION_CONTEXT(
'Core Data for Automotive Mechanical Design Process');
#893=PRODUCT_CONTEXT('part definition',#892,'mechanical');
#894=PRODUCT('podstawka','podstawka v17',$,(#893));
#895=PRESENTATION_STYLE_ASSIGNMENT((#897));
#896=PRESENTATION_STYLE_ASSIGNMENT((#898));
#897=SURFACE_STYLE_USAGE(.BOTH.,#899);
#898=SURFACE_STYLE_USAGE(.BOTH.,#900);
#899=SURFACE_SIDE_STYLE('',(#901));
#900=SURFACE_SIDE_STYLE('',(#902));
#901=SURFACE_STYLE_FILL_AREA(#903);
#902=SURFACE_STYLE_FILL_AREA(#904);
#903=FILL_AREA_STYLE('Polycarbonate (Clear)',(#905));
#904=FILL_AREA_STYLE(
'PA 11 - Nylon- HP 11-30 (with EOS P 396 3D Printer)',(#906));
#905=FILL_AREA_STYLE_COLOUR('Polycarbonate (Clear)',#907);
#906=FILL_AREA_STYLE_COLOUR(
'PA 11 - Nylon- HP 11-30 (with EOS P 396 3D Printer)',#908);
#907=COLOUR_RGB('Polycarbonate (Clear)',0.964705882352941,0.964705882352941,
0.952941176470588);
#908=COLOUR_RGB('PA 11 - Nylon- HP 11-30 (with EOS P 396 3D Printer)',0.247058823529412,
0.247058823529412,0.247058823529412);
ENDSEC;
END-ISO-10303-21;
