ISO-10303-21;
HEADER;
/* Generated by software containing ST-Developer
 * from STEP Tools, Inc. (www.steptools.com) 
 */

FILE_DESCRIPTION(
/* description */ (''),
/* implementation_level */ '2;1');

FILE_NAME(
/* name */ 'eth_mount.step',
/* time_stamp */ '2026-08-03T10:50:15+02:00',
/* author */ (''),
/* organization */ (''),
/* preprocessor_version */ 'ST-DEVELOPER v20.1',
/* originating_system */ 'Autodesk Translation Framework v15.8.0.0',
/* authorisation */ '');

FILE_SCHEMA (('AUTOMOTIVE_DESIGN { 1 0 10303 214 3 1 1 }'));
ENDSEC;

DATA;
#10=MECHANICAL_DESIGN_GEOMETRIC_PRESENTATION_REPRESENTATION('',(#13,#14),
#1600);
#11=SHAPE_REPRESENTATION_RELATIONSHIP('SRR','None',#1607,#12);
#12=ADVANCED_BREP_SHAPE_REPRESENTATION('',(#15,#16),#1599);
#13=STYLED_ITEM('',(#1616),#15);
#14=STYLED_ITEM('',(#1616),#16);
#15=MANIFOLD_SOLID_BREP('position_mount',#987);
#16=MANIFOLD_SOLID_BREP('protect_housing',#988);
#17=FACE_BOUND('',#179,.T.);
#18=FACE_BOUND('',#180,.T.);
#19=FACE_BOUND('',#181,.T.);
#20=FACE_BOUND('',#182,.T.);
#21=FACE_BOUND('',#183,.T.);
#22=FACE_BOUND('',#184,.T.);
#23=FACE_BOUND('',#185,.T.);
#24=FACE_BOUND('',#187,.T.);
#25=FACE_BOUND('',#188,.T.);
#26=FACE_BOUND('',#189,.T.);
#27=FACE_BOUND('',#190,.T.);
#28=FACE_BOUND('',#191,.T.);
#29=FACE_BOUND('',#192,.T.);
#30=FACE_BOUND('',#193,.T.);
#31=FACE_BOUND('',#195,.T.);
#32=PLANE('',#1005);
#33=PLANE('',#1009);
#34=PLANE('',#1013);
#35=PLANE('',#1017);
#36=PLANE('',#1018);
#37=PLANE('',#1019);
#38=PLANE('',#1020);
#39=PLANE('',#1021);
#40=PLANE('',#1022);
#41=PLANE('',#1023);
#42=PLANE('',#1024);
#43=PLANE('',#1025);
#44=PLANE('',#1026);
#45=PLANE('',#1027);
#46=PLANE('',#1028);
#47=PLANE('',#1029);
#48=PLANE('',#1033);
#49=PLANE('',#1034);
#50=PLANE('',#1035);
#51=PLANE('',#1036);
#52=PLANE('',#1037);
#53=PLANE('',#1038);
#54=PLANE('',#1042);
#55=PLANE('',#1043);
#56=PLANE('',#1044);
#57=PLANE('',#1045);
#58=PLANE('',#1046);
#59=PLANE('',#1047);
#60=PLANE('',#1048);
#61=PLANE('',#1049);
#62=PLANE('',#1050);
#63=PLANE('',#1051);
#64=PLANE('',#1052);
#65=PLANE('',#1053);
#66=PLANE('',#1054);
#67=PLANE('',#1055);
#68=PLANE('',#1056);
#69=PLANE('',#1057);
#70=PLANE('',#1058);
#71=PLANE('',#1059);
#72=PLANE('',#1060);
#73=PLANE('',#1061);
#74=PLANE('',#1062);
#75=PLANE('',#1063);
#76=PLANE('',#1064);
#77=PLANE('',#1065);
#78=PLANE('',#1066);
#79=PLANE('',#1067);
#80=PLANE('',#1068);
#81=PLANE('',#1069);
#82=PLANE('',#1070);
#83=FACE_OUTER_BOUND('',#140,.T.);
#84=FACE_OUTER_BOUND('',#141,.T.);
#85=FACE_OUTER_BOUND('',#142,.T.);
#86=FACE_OUTER_BOUND('',#143,.T.);
#87=FACE_OUTER_BOUND('',#144,.T.);
#88=FACE_OUTER_BOUND('',#145,.T.);
#89=FACE_OUTER_BOUND('',#146,.T.);
#90=FACE_OUTER_BOUND('',#147,.T.);
#91=FACE_OUTER_BOUND('',#148,.T.);
#92=FACE_OUTER_BOUND('',#149,.T.);
#93=FACE_OUTER_BOUND('',#150,.T.);
#94=FACE_OUTER_BOUND('',#151,.T.);
#95=FACE_OUTER_BOUND('',#152,.T.);
#96=FACE_OUTER_BOUND('',#153,.T.);
#97=FACE_OUTER_BOUND('',#154,.T.);
#98=FACE_OUTER_BOUND('',#155,.T.);
#99=FACE_OUTER_BOUND('',#156,.T.);
#100=FACE_OUTER_BOUND('',#157,.T.);
#101=FACE_OUTER_BOUND('',#158,.T.);
#102=FACE_OUTER_BOUND('',#159,.T.);
#103=FACE_OUTER_BOUND('',#160,.T.);
#104=FACE_OUTER_BOUND('',#161,.T.);
#105=FACE_OUTER_BOUND('',#162,.T.);
#106=FACE_OUTER_BOUND('',#163,.T.);
#107=FACE_OUTER_BOUND('',#164,.T.);
#108=FACE_OUTER_BOUND('',#165,.T.);
#109=FACE_OUTER_BOUND('',#166,.T.);
#110=FACE_OUTER_BOUND('',#167,.T.);
#111=FACE_OUTER_BOUND('',#168,.T.);
#112=FACE_OUTER_BOUND('',#169,.T.);
#113=FACE_OUTER_BOUND('',#170,.T.);
#114=FACE_OUTER_BOUND('',#171,.T.);
#115=FACE_OUTER_BOUND('',#172,.T.);
#116=FACE_OUTER_BOUND('',#173,.T.);
#117=FACE_OUTER_BOUND('',#174,.T.);
#118=FACE_OUTER_BOUND('',#175,.T.);
#119=FACE_OUTER_BOUND('',#176,.T.);
#120=FACE_OUTER_BOUND('',#177,.T.);
#121=FACE_OUTER_BOUND('',#178,.T.);
#122=FACE_OUTER_BOUND('',#186,.T.);
#123=FACE_OUTER_BOUND('',#194,.T.);
#124=FACE_OUTER_BOUND('',#196,.T.);
#125=FACE_OUTER_BOUND('',#197,.T.);
#126=FACE_OUTER_BOUND('',#198,.T.);
#127=FACE_OUTER_BOUND('',#199,.T.);
#128=FACE_OUTER_BOUND('',#200,.T.);
#129=FACE_OUTER_BOUND('',#201,.T.);
#130=FACE_OUTER_BOUND('',#202,.T.);
#131=FACE_OUTER_BOUND('',#203,.T.);
#132=FACE_OUTER_BOUND('',#204,.T.);
#133=FACE_OUTER_BOUND('',#205,.T.);
#134=FACE_OUTER_BOUND('',#206,.T.);
#135=FACE_OUTER_BOUND('',#207,.T.);
#136=FACE_OUTER_BOUND('',#208,.T.);
#137=FACE_OUTER_BOUND('',#209,.T.);
#138=FACE_OUTER_BOUND('',#210,.T.);
#139=FACE_OUTER_BOUND('',#211,.T.);
#140=EDGE_LOOP('',(#668,#669,#670,#671));
#141=EDGE_LOOP('',(#672));
#142=EDGE_LOOP('',(#673,#674,#675,#676));
#143=EDGE_LOOP('',(#677));
#144=EDGE_LOOP('',(#678,#679,#680,#681));
#145=EDGE_LOOP('',(#682));
#146=EDGE_LOOP('',(#683,#684,#685,#686));
#147=EDGE_LOOP('',(#687));
#148=EDGE_LOOP('',(#688,#689,#690,#691));
#149=EDGE_LOOP('',(#692,#693,#694,#695));
#150=EDGE_LOOP('',(#696,#697,#698,#699));
#151=EDGE_LOOP('',(#700,#701,#702,#703));
#152=EDGE_LOOP('',(#704,#705,#706,#707));
#153=EDGE_LOOP('',(#708,#709,#710,#711));
#154=EDGE_LOOP('',(#712,#713,#714,#715));
#155=EDGE_LOOP('',(#716,#717,#718,#719));
#156=EDGE_LOOP('',(#720,#721,#722,#723));
#157=EDGE_LOOP('',(#724,#725,#726,#727));
#158=EDGE_LOOP('',(#728,#729,#730,#731));
#159=EDGE_LOOP('',(#732,#733,#734,#735));
#160=EDGE_LOOP('',(#736,#737,#738,#739));
#161=EDGE_LOOP('',(#740));
#162=EDGE_LOOP('',(#741,#742,#743,#744));
#163=EDGE_LOOP('',(#745,#746,#747,#748));
#164=EDGE_LOOP('',(#749,#750,#751,#752));
#165=EDGE_LOOP('',(#753,#754,#755,#756));
#166=EDGE_LOOP('',(#757,#758,#759,#760));
#167=EDGE_LOOP('',(#761,#762,#763,#764));
#168=EDGE_LOOP('',(#765));
#169=EDGE_LOOP('',(#766,#767,#768,#769));
#170=EDGE_LOOP('',(#770,#771,#772,#773));
#171=EDGE_LOOP('',(#774,#775,#776,#777));
#172=EDGE_LOOP('',(#778,#779,#780,#781));
#173=EDGE_LOOP('',(#782,#783,#784,#785));
#174=EDGE_LOOP('',(#786,#787,#788,#789));
#175=EDGE_LOOP('',(#790,#791,#792,#793));
#176=EDGE_LOOP('',(#794,#795,#796,#797));
#177=EDGE_LOOP('',(#798,#799,#800,#801));
#178=EDGE_LOOP('',(#802,#803,#804,#805));
#179=EDGE_LOOP('',(#806,#807,#808,#809));
#180=EDGE_LOOP('',(#810));
#181=EDGE_LOOP('',(#811,#812,#813,#814));
#182=EDGE_LOOP('',(#815));
#183=EDGE_LOOP('',(#816,#817,#818,#819));
#184=EDGE_LOOP('',(#820,#821,#822,#823));
#185=EDGE_LOOP('',(#824,#825,#826,#827));
#186=EDGE_LOOP('',(#828,#829,#830,#831));
#187=EDGE_LOOP('',(#832));
#188=EDGE_LOOP('',(#833));
#189=EDGE_LOOP('',(#834));
#190=EDGE_LOOP('',(#835));
#191=EDGE_LOOP('',(#836,#837,#838,#839));
#192=EDGE_LOOP('',(#840,#841,#842,#843));
#193=EDGE_LOOP('',(#844,#845,#846,#847));
#194=EDGE_LOOP('',(#848,#849,#850,#851));
#195=EDGE_LOOP('',(#852,#853,#854,#855,#856,#857,#858,#859));
#196=EDGE_LOOP('',(#860,#861,#862,#863));
#197=EDGE_LOOP('',(#864,#865,#866,#867));
#198=EDGE_LOOP('',(#868,#869,#870,#871));
#199=EDGE_LOOP('',(#872,#873,#874,#875));
#200=EDGE_LOOP('',(#876,#877,#878,#879));
#201=EDGE_LOOP('',(#880,#881,#882,#883));
#202=EDGE_LOOP('',(#884,#885,#886,#887));
#203=EDGE_LOOP('',(#888,#889,#890,#891));
#204=EDGE_LOOP('',(#892,#893,#894,#895));
#205=EDGE_LOOP('',(#896,#897,#898,#899));
#206=EDGE_LOOP('',(#900,#901,#902,#903));
#207=EDGE_LOOP('',(#904,#905,#906,#907));
#208=EDGE_LOOP('',(#908,#909,#910,#911));
#209=EDGE_LOOP('',(#912,#913,#914,#915));
#210=EDGE_LOOP('',(#916,#917,#918,#919));
#211=EDGE_LOOP('',(#920,#921,#922,#923));
#212=LINE('',#1332,#328);
#213=LINE('',#1339,#329);
#214=LINE('',#1346,#330);
#215=LINE('',#1353,#331);
#216=LINE('',#1359,#332);
#217=LINE('',#1361,#333);
#218=LINE('',#1363,#334);
#219=LINE('',#1364,#335);
#220=LINE('',#1367,#336);
#221=LINE('',#1369,#337);
#222=LINE('',#1370,#338);
#223=LINE('',#1373,#339);
#224=LINE('',#1375,#340);
#225=LINE('',#1376,#341);
#226=LINE('',#1378,#342);
#227=LINE('',#1379,#343);
#228=LINE('',#1383,#344);
#229=LINE('',#1385,#345);
#230=LINE('',#1387,#346);
#231=LINE('',#1388,#347);
#232=LINE('',#1391,#348);
#233=LINE('',#1393,#349);
#234=LINE('',#1394,#350);
#235=LINE('',#1397,#351);
#236=LINE('',#1399,#352);
#237=LINE('',#1400,#353);
#238=LINE('',#1402,#354);
#239=LINE('',#1403,#355);
#240=LINE('',#1407,#356);
#241=LINE('',#1409,#357);
#242=LINE('',#1411,#358);
#243=LINE('',#1412,#359);
#244=LINE('',#1415,#360);
#245=LINE('',#1417,#361);
#246=LINE('',#1418,#362);
#247=LINE('',#1421,#363);
#248=LINE('',#1423,#364);
#249=LINE('',#1424,#365);
#250=LINE('',#1426,#366);
#251=LINE('',#1427,#367);
#252=LINE('',#1432,#368);
#253=LINE('',#1438,#369);
#254=LINE('',#1440,#370);
#255=LINE('',#1442,#371);
#256=LINE('',#1443,#372);
#257=LINE('',#1446,#373);
#258=LINE('',#1448,#374);
#259=LINE('',#1449,#375);
#260=LINE('',#1452,#376);
#261=LINE('',#1454,#377);
#262=LINE('',#1455,#378);
#263=LINE('',#1457,#379);
#264=LINE('',#1458,#380);
#265=LINE('',#1464,#381);
#266=LINE('',#1470,#382);
#267=LINE('',#1472,#383);
#268=LINE('',#1474,#384);
#269=LINE('',#1475,#385);
#270=LINE('',#1478,#386);
#271=LINE('',#1480,#387);
#272=LINE('',#1481,#388);
#273=LINE('',#1484,#389);
#274=LINE('',#1486,#390);
#275=LINE('',#1487,#391);
#276=LINE('',#1489,#392);
#277=LINE('',#1490,#393);
#278=LINE('',#1495,#394);
#279=LINE('',#1497,#395);
#280=LINE('',#1499,#396);
#281=LINE('',#1500,#397);
#282=LINE('',#1503,#398);
#283=LINE('',#1505,#399);
#284=LINE('',#1506,#400);
#285=LINE('',#1509,#401);
#286=LINE('',#1511,#402);
#287=LINE('',#1512,#403);
#288=LINE('',#1514,#404);
#289=LINE('',#1515,#405);
#290=LINE('',#1521,#406);
#291=LINE('',#1523,#407);
#292=LINE('',#1525,#408);
#293=LINE('',#1526,#409);
#294=LINE('',#1529,#410);
#295=LINE('',#1531,#411);
#296=LINE('',#1533,#412);
#297=LINE('',#1535,#413);
#298=LINE('',#1537,#414);
#299=LINE('',#1539,#415);
#300=LINE('',#1541,#416);
#301=LINE('',#1542,#417);
#302=LINE('',#1545,#418);
#303=LINE('',#1547,#419);
#304=LINE('',#1548,#420);
#305=LINE('',#1551,#421);
#306=LINE('',#1552,#422);
#307=LINE('',#1555,#423);
#308=LINE('',#1556,#424);
#309=LINE('',#1558,#425);
#310=LINE('',#1563,#426);
#311=LINE('',#1565,#427);
#312=LINE('',#1567,#428);
#313=LINE('',#1568,#429);
#314=LINE('',#1571,#430);
#315=LINE('',#1573,#431);
#316=LINE('',#1574,#432);
#317=LINE('',#1578,#433);
#318=LINE('',#1579,#434);
#319=LINE('',#1580,#435);
#320=LINE('',#1582,#436);
#321=LINE('',#1583,#437);
#322=LINE('',#1585,#438);
#323=LINE('',#1587,#439);
#324=LINE('',#1588,#440);
#325=LINE('',#1591,#441);
#326=LINE('',#1593,#442);
#327=LINE('',#1595,#443);
#328=VECTOR('',#1077,0.700000000000001);
#329=VECTOR('',#1086,0.7);
#330=VECTOR('',#1095,0.700000000000001);
#331=VECTOR('',#1104,0.7);
#332=VECTOR('',#1111,10.);
#333=VECTOR('',#1112,10.);
#334=VECTOR('',#1113,10.);
#335=VECTOR('',#1114,10.);
#336=VECTOR('',#1117,10.);
#337=VECTOR('',#1118,10.);
#338=VECTOR('',#1119,10.);
#339=VECTOR('',#1122,10.);
#340=VECTOR('',#1123,10.);
#341=VECTOR('',#1124,10.);
#342=VECTOR('',#1127,10.);
#343=VECTOR('',#1128,10.);
#344=VECTOR('',#1131,10.);
#345=VECTOR('',#1132,10.);
#346=VECTOR('',#1133,10.);
#347=VECTOR('',#1134,10.);
#348=VECTOR('',#1137,10.);
#349=VECTOR('',#1138,10.);
#350=VECTOR('',#1139,10.);
#351=VECTOR('',#1142,10.);
#352=VECTOR('',#1143,10.);
#353=VECTOR('',#1144,10.);
#354=VECTOR('',#1147,10.);
#355=VECTOR('',#1148,10.);
#356=VECTOR('',#1151,10.);
#357=VECTOR('',#1152,10.);
#358=VECTOR('',#1153,10.);
#359=VECTOR('',#1154,10.);
#360=VECTOR('',#1157,10.);
#361=VECTOR('',#1158,10.);
#362=VECTOR('',#1159,10.);
#363=VECTOR('',#1162,10.);
#364=VECTOR('',#1163,10.);
#365=VECTOR('',#1164,10.);
#366=VECTOR('',#1167,10.);
#367=VECTOR('',#1168,10.);
#368=VECTOR('',#1173,1.7);
#369=VECTOR('',#1180,10.);
#370=VECTOR('',#1181,10.);
#371=VECTOR('',#1182,10.);
#372=VECTOR('',#1183,10.);
#373=VECTOR('',#1186,10.);
#374=VECTOR('',#1187,10.);
#375=VECTOR('',#1188,10.);
#376=VECTOR('',#1191,10.);
#377=VECTOR('',#1192,10.);
#378=VECTOR('',#1193,10.);
#379=VECTOR('',#1196,10.);
#380=VECTOR('',#1197,10.);
#381=VECTOR('',#1204,1.7);
#382=VECTOR('',#1211,10.);
#383=VECTOR('',#1212,10.);
#384=VECTOR('',#1213,10.);
#385=VECTOR('',#1214,10.);
#386=VECTOR('',#1217,10.);
#387=VECTOR('',#1218,10.);
#388=VECTOR('',#1219,10.);
#389=VECTOR('',#1222,10.);
#390=VECTOR('',#1223,10.);
#391=VECTOR('',#1224,10.);
#392=VECTOR('',#1227,10.);
#393=VECTOR('',#1228,10.);
#394=VECTOR('',#1233,10.);
#395=VECTOR('',#1234,10.);
#396=VECTOR('',#1235,10.);
#397=VECTOR('',#1236,10.);
#398=VECTOR('',#1239,10.);
#399=VECTOR('',#1240,10.);
#400=VECTOR('',#1241,10.);
#401=VECTOR('',#1244,10.);
#402=VECTOR('',#1245,10.);
#403=VECTOR('',#1246,10.);
#404=VECTOR('',#1249,10.);
#405=VECTOR('',#1250,10.);
#406=VECTOR('',#1257,10.);
#407=VECTOR('',#1258,10.);
#408=VECTOR('',#1259,10.);
#409=VECTOR('',#1260,10.);
#410=VECTOR('',#1261,10.);
#411=VECTOR('',#1262,10.);
#412=VECTOR('',#1263,10.);
#413=VECTOR('',#1264,10.);
#414=VECTOR('',#1265,10.);
#415=VECTOR('',#1266,10.);
#416=VECTOR('',#1267,10.);
#417=VECTOR('',#1268,10.);
#418=VECTOR('',#1271,10.);
#419=VECTOR('',#1272,10.);
#420=VECTOR('',#1273,10.);
#421=VECTOR('',#1276,10.);
#422=VECTOR('',#1277,10.);
#423=VECTOR('',#1280,10.);
#424=VECTOR('',#1281,10.);
#425=VECTOR('',#1284,10.);
#426=VECTOR('',#1289,10.);
#427=VECTOR('',#1290,10.);
#428=VECTOR('',#1291,10.);
#429=VECTOR('',#1292,10.);
#430=VECTOR('',#1295,10.);
#431=VECTOR('',#1296,10.);
#432=VECTOR('',#1297,10.);
#433=VECTOR('',#1300,10.);
#434=VECTOR('',#1301,10.);
#435=VECTOR('',#1302,10.);
#436=VECTOR('',#1305,10.);
#437=VECTOR('',#1306,10.);
#438=VECTOR('',#1309,10.);
#439=VECTOR('',#1312,10.);
#440=VECTOR('',#1313,10.);
#441=VECTOR('',#1318,10.);
#442=VECTOR('',#1321,10.);
#443=VECTOR('',#1324,10.);
#444=CIRCLE('',#1003,0.700000000000001);
#445=CIRCLE('',#1004,0.700000000000001);
#446=CIRCLE('',#1007,0.7);
#447=CIRCLE('',#1008,0.7);
#448=CIRCLE('',#1011,0.700000000000001);
#449=CIRCLE('',#1012,0.700000000000001);
#450=CIRCLE('',#1015,0.7);
#451=CIRCLE('',#1016,0.7);
#452=CIRCLE('',#1031,1.7);
#453=CIRCLE('',#1032,1.7);
#454=CIRCLE('',#1040,1.7);
#455=CIRCLE('',#1041,1.7);
#456=VERTEX_POINT('',#1329);
#457=VERTEX_POINT('',#1331);
#458=VERTEX_POINT('',#1336);
#459=VERTEX_POINT('',#1338);
#460=VERTEX_POINT('',#1343);
#461=VERTEX_POINT('',#1345);
#462=VERTEX_POINT('',#1350);
#463=VERTEX_POINT('',#1352);
#464=VERTEX_POINT('',#1357);
#465=VERTEX_POINT('',#1358);
#466=VERTEX_POINT('',#1360);
#467=VERTEX_POINT('',#1362);
#468=VERTEX_POINT('',#1366);
#469=VERTEX_POINT('',#1368);
#470=VERTEX_POINT('',#1372);
#471=VERTEX_POINT('',#1374);
#472=VERTEX_POINT('',#1381);
#473=VERTEX_POINT('',#1382);
#474=VERTEX_POINT('',#1384);
#475=VERTEX_POINT('',#1386);
#476=VERTEX_POINT('',#1390);
#477=VERTEX_POINT('',#1392);
#478=VERTEX_POINT('',#1396);
#479=VERTEX_POINT('',#1398);
#480=VERTEX_POINT('',#1405);
#481=VERTEX_POINT('',#1406);
#482=VERTEX_POINT('',#1408);
#483=VERTEX_POINT('',#1410);
#484=VERTEX_POINT('',#1414);
#485=VERTEX_POINT('',#1416);
#486=VERTEX_POINT('',#1420);
#487=VERTEX_POINT('',#1422);
#488=VERTEX_POINT('',#1429);
#489=VERTEX_POINT('',#1431);
#490=VERTEX_POINT('',#1436);
#491=VERTEX_POINT('',#1437);
#492=VERTEX_POINT('',#1439);
#493=VERTEX_POINT('',#1441);
#494=VERTEX_POINT('',#1445);
#495=VERTEX_POINT('',#1447);
#496=VERTEX_POINT('',#1451);
#497=VERTEX_POINT('',#1453);
#498=VERTEX_POINT('',#1461);
#499=VERTEX_POINT('',#1463);
#500=VERTEX_POINT('',#1468);
#501=VERTEX_POINT('',#1469);
#502=VERTEX_POINT('',#1471);
#503=VERTEX_POINT('',#1473);
#504=VERTEX_POINT('',#1477);
#505=VERTEX_POINT('',#1479);
#506=VERTEX_POINT('',#1483);
#507=VERTEX_POINT('',#1485);
#508=VERTEX_POINT('',#1493);
#509=VERTEX_POINT('',#1494);
#510=VERTEX_POINT('',#1496);
#511=VERTEX_POINT('',#1498);
#512=VERTEX_POINT('',#1502);
#513=VERTEX_POINT('',#1504);
#514=VERTEX_POINT('',#1508);
#515=VERTEX_POINT('',#1510);
#516=VERTEX_POINT('',#1519);
#517=VERTEX_POINT('',#1520);
#518=VERTEX_POINT('',#1522);
#519=VERTEX_POINT('',#1524);
#520=VERTEX_POINT('',#1527);
#521=VERTEX_POINT('',#1528);
#522=VERTEX_POINT('',#1530);
#523=VERTEX_POINT('',#1532);
#524=VERTEX_POINT('',#1534);
#525=VERTEX_POINT('',#1536);
#526=VERTEX_POINT('',#1538);
#527=VERTEX_POINT('',#1540);
#528=VERTEX_POINT('',#1544);
#529=VERTEX_POINT('',#1546);
#530=VERTEX_POINT('',#1550);
#531=VERTEX_POINT('',#1554);
#532=VERTEX_POINT('',#1561);
#533=VERTEX_POINT('',#1562);
#534=VERTEX_POINT('',#1564);
#535=VERTEX_POINT('',#1566);
#536=VERTEX_POINT('',#1570);
#537=VERTEX_POINT('',#1572);
#538=VERTEX_POINT('',#1576);
#539=VERTEX_POINT('',#1577);
#540=EDGE_CURVE('',#456,#456,#444,.T.);
#541=EDGE_CURVE('',#456,#457,#212,.T.);
#542=EDGE_CURVE('',#457,#457,#445,.T.);
#543=EDGE_CURVE('',#458,#458,#446,.T.);
#544=EDGE_CURVE('',#458,#459,#213,.T.);
#545=EDGE_CURVE('',#459,#459,#447,.T.);
#546=EDGE_CURVE('',#460,#460,#448,.T.);
#547=EDGE_CURVE('',#460,#461,#214,.T.);
#548=EDGE_CURVE('',#461,#461,#449,.T.);
#549=EDGE_CURVE('',#462,#462,#450,.T.);
#550=EDGE_CURVE('',#462,#463,#215,.T.);
#551=EDGE_CURVE('',#463,#463,#451,.T.);
#552=EDGE_CURVE('',#464,#465,#216,.T.);
#553=EDGE_CURVE('',#464,#466,#217,.T.);
#554=EDGE_CURVE('',#467,#466,#218,.T.);
#555=EDGE_CURVE('',#465,#467,#219,.T.);
#556=EDGE_CURVE('',#468,#464,#220,.T.);
#557=EDGE_CURVE('',#468,#469,#221,.T.);
#558=EDGE_CURVE('',#466,#469,#222,.T.);
#559=EDGE_CURVE('',#470,#468,#223,.T.);
#560=EDGE_CURVE('',#470,#471,#224,.T.);
#561=EDGE_CURVE('',#469,#471,#225,.T.);
#562=EDGE_CURVE('',#465,#470,#226,.T.);
#563=EDGE_CURVE('',#471,#467,#227,.T.);
#564=EDGE_CURVE('',#472,#473,#228,.T.);
#565=EDGE_CURVE('',#472,#474,#229,.T.);
#566=EDGE_CURVE('',#475,#474,#230,.T.);
#567=EDGE_CURVE('',#473,#475,#231,.T.);
#568=EDGE_CURVE('',#476,#472,#232,.T.);
#569=EDGE_CURVE('',#476,#477,#233,.T.);
#570=EDGE_CURVE('',#474,#477,#234,.T.);
#571=EDGE_CURVE('',#478,#476,#235,.T.);
#572=EDGE_CURVE('',#478,#479,#236,.T.);
#573=EDGE_CURVE('',#477,#479,#237,.T.);
#574=EDGE_CURVE('',#473,#478,#238,.T.);
#575=EDGE_CURVE('',#479,#475,#239,.T.);
#576=EDGE_CURVE('',#480,#481,#240,.T.);
#577=EDGE_CURVE('',#480,#482,#241,.T.);
#578=EDGE_CURVE('',#483,#482,#242,.T.);
#579=EDGE_CURVE('',#481,#483,#243,.T.);
#580=EDGE_CURVE('',#484,#480,#244,.T.);
#581=EDGE_CURVE('',#484,#485,#245,.T.);
#582=EDGE_CURVE('',#482,#485,#246,.T.);
#583=EDGE_CURVE('',#486,#484,#247,.T.);
#584=EDGE_CURVE('',#486,#487,#248,.T.);
#585=EDGE_CURVE('',#485,#487,#249,.T.);
#586=EDGE_CURVE('',#481,#486,#250,.T.);
#587=EDGE_CURVE('',#487,#483,#251,.T.);
#588=EDGE_CURVE('',#488,#488,#452,.T.);
#589=EDGE_CURVE('',#488,#489,#252,.T.);
#590=EDGE_CURVE('',#489,#489,#453,.T.);
#591=EDGE_CURVE('',#490,#491,#253,.T.);
#592=EDGE_CURVE('',#490,#492,#254,.T.);
#593=EDGE_CURVE('',#492,#493,#255,.T.);
#594=EDGE_CURVE('',#491,#493,#256,.T.);
#595=EDGE_CURVE('',#494,#490,#257,.T.);
#596=EDGE_CURVE('',#494,#495,#258,.T.);
#597=EDGE_CURVE('',#495,#492,#259,.T.);
#598=EDGE_CURVE('',#496,#494,#260,.T.);
#599=EDGE_CURVE('',#496,#497,#261,.T.);
#600=EDGE_CURVE('',#497,#495,#262,.T.);
#601=EDGE_CURVE('',#491,#496,#263,.T.);
#602=EDGE_CURVE('',#493,#497,#264,.T.);
#603=EDGE_CURVE('',#498,#498,#454,.T.);
#604=EDGE_CURVE('',#498,#499,#265,.T.);
#605=EDGE_CURVE('',#499,#499,#455,.T.);
#606=EDGE_CURVE('',#500,#501,#266,.T.);
#607=EDGE_CURVE('',#500,#502,#267,.T.);
#608=EDGE_CURVE('',#502,#503,#268,.T.);
#609=EDGE_CURVE('',#501,#503,#269,.T.);
#610=EDGE_CURVE('',#504,#500,#270,.T.);
#611=EDGE_CURVE('',#504,#505,#271,.T.);
#612=EDGE_CURVE('',#505,#502,#272,.T.);
#613=EDGE_CURVE('',#506,#504,#273,.T.);
#614=EDGE_CURVE('',#506,#507,#274,.T.);
#615=EDGE_CURVE('',#507,#505,#275,.T.);
#616=EDGE_CURVE('',#501,#506,#276,.T.);
#617=EDGE_CURVE('',#503,#507,#277,.T.);
#618=EDGE_CURVE('',#508,#509,#278,.T.);
#619=EDGE_CURVE('',#508,#510,#279,.T.);
#620=EDGE_CURVE('',#511,#510,#280,.T.);
#621=EDGE_CURVE('',#509,#511,#281,.T.);
#622=EDGE_CURVE('',#509,#512,#282,.T.);
#623=EDGE_CURVE('',#513,#511,#283,.T.);
#624=EDGE_CURVE('',#512,#513,#284,.T.);
#625=EDGE_CURVE('',#514,#512,#285,.T.);
#626=EDGE_CURVE('',#515,#513,#286,.T.);
#627=EDGE_CURVE('',#514,#515,#287,.T.);
#628=EDGE_CURVE('',#514,#508,#288,.T.);
#629=EDGE_CURVE('',#510,#515,#289,.T.);
#630=EDGE_CURVE('',#516,#517,#290,.T.);
#631=EDGE_CURVE('',#516,#518,#291,.T.);
#632=EDGE_CURVE('',#519,#518,#292,.T.);
#633=EDGE_CURVE('',#517,#519,#293,.T.);
#634=EDGE_CURVE('',#520,#521,#294,.F.);
#635=EDGE_CURVE('',#521,#522,#295,.T.);
#636=EDGE_CURVE('',#522,#523,#296,.F.);
#637=EDGE_CURVE('',#523,#524,#297,.F.);
#638=EDGE_CURVE('',#524,#525,#298,.F.);
#639=EDGE_CURVE('',#525,#526,#299,.T.);
#640=EDGE_CURVE('',#526,#527,#300,.F.);
#641=EDGE_CURVE('',#527,#520,#301,.F.);
#642=EDGE_CURVE('',#516,#528,#302,.T.);
#643=EDGE_CURVE('',#529,#528,#303,.T.);
#644=EDGE_CURVE('',#518,#529,#304,.T.);
#645=EDGE_CURVE('',#530,#529,#305,.T.);
#646=EDGE_CURVE('',#519,#530,#306,.T.);
#647=EDGE_CURVE('',#531,#530,#307,.T.);
#648=EDGE_CURVE('',#517,#531,#308,.T.);
#649=EDGE_CURVE('',#528,#531,#309,.T.);
#650=EDGE_CURVE('',#532,#533,#310,.T.);
#651=EDGE_CURVE('',#534,#533,#311,.T.);
#652=EDGE_CURVE('',#534,#535,#312,.T.);
#653=EDGE_CURVE('',#535,#532,#313,.F.);
#654=EDGE_CURVE('',#536,#535,#314,.F.);
#655=EDGE_CURVE('',#537,#534,#315,.T.);
#656=EDGE_CURVE('',#537,#536,#316,.T.);
#657=EDGE_CURVE('',#538,#539,#317,.T.);
#658=EDGE_CURVE('',#539,#536,#318,.F.);
#659=EDGE_CURVE('',#538,#537,#319,.T.);
#660=EDGE_CURVE('',#532,#526,#320,.F.);
#661=EDGE_CURVE('',#533,#525,#321,.T.);
#662=EDGE_CURVE('',#535,#527,#322,.T.);
#663=EDGE_CURVE('',#539,#521,#323,.T.);
#664=EDGE_CURVE('',#536,#520,#324,.T.);
#665=EDGE_CURVE('',#534,#524,#325,.F.);
#666=EDGE_CURVE('',#537,#523,#326,.F.);
#667=EDGE_CURVE('',#538,#522,#327,.F.);
#668=ORIENTED_EDGE('',*,*,#540,.F.);
#669=ORIENTED_EDGE('',*,*,#541,.T.);
#670=ORIENTED_EDGE('',*,*,#542,.F.);
#671=ORIENTED_EDGE('',*,*,#541,.F.);
#672=ORIENTED_EDGE('',*,*,#540,.T.);
#673=ORIENTED_EDGE('',*,*,#543,.F.);
#674=ORIENTED_EDGE('',*,*,#544,.T.);
#675=ORIENTED_EDGE('',*,*,#545,.F.);
#676=ORIENTED_EDGE('',*,*,#544,.F.);
#677=ORIENTED_EDGE('',*,*,#543,.T.);
#678=ORIENTED_EDGE('',*,*,#546,.F.);
#679=ORIENTED_EDGE('',*,*,#547,.T.);
#680=ORIENTED_EDGE('',*,*,#548,.F.);
#681=ORIENTED_EDGE('',*,*,#547,.F.);
#682=ORIENTED_EDGE('',*,*,#546,.T.);
#683=ORIENTED_EDGE('',*,*,#549,.F.);
#684=ORIENTED_EDGE('',*,*,#550,.T.);
#685=ORIENTED_EDGE('',*,*,#551,.F.);
#686=ORIENTED_EDGE('',*,*,#550,.F.);
#687=ORIENTED_EDGE('',*,*,#549,.T.);
#688=ORIENTED_EDGE('',*,*,#552,.F.);
#689=ORIENTED_EDGE('',*,*,#553,.T.);
#690=ORIENTED_EDGE('',*,*,#554,.F.);
#691=ORIENTED_EDGE('',*,*,#555,.F.);
#692=ORIENTED_EDGE('',*,*,#556,.F.);
#693=ORIENTED_EDGE('',*,*,#557,.T.);
#694=ORIENTED_EDGE('',*,*,#558,.F.);
#695=ORIENTED_EDGE('',*,*,#553,.F.);
#696=ORIENTED_EDGE('',*,*,#559,.F.);
#697=ORIENTED_EDGE('',*,*,#560,.T.);
#698=ORIENTED_EDGE('',*,*,#561,.F.);
#699=ORIENTED_EDGE('',*,*,#557,.F.);
#700=ORIENTED_EDGE('',*,*,#562,.F.);
#701=ORIENTED_EDGE('',*,*,#555,.T.);
#702=ORIENTED_EDGE('',*,*,#563,.F.);
#703=ORIENTED_EDGE('',*,*,#560,.F.);
#704=ORIENTED_EDGE('',*,*,#564,.F.);
#705=ORIENTED_EDGE('',*,*,#565,.T.);
#706=ORIENTED_EDGE('',*,*,#566,.F.);
#707=ORIENTED_EDGE('',*,*,#567,.F.);
#708=ORIENTED_EDGE('',*,*,#568,.F.);
#709=ORIENTED_EDGE('',*,*,#569,.T.);
#710=ORIENTED_EDGE('',*,*,#570,.F.);
#711=ORIENTED_EDGE('',*,*,#565,.F.);
#712=ORIENTED_EDGE('',*,*,#571,.F.);
#713=ORIENTED_EDGE('',*,*,#572,.T.);
#714=ORIENTED_EDGE('',*,*,#573,.F.);
#715=ORIENTED_EDGE('',*,*,#569,.F.);
#716=ORIENTED_EDGE('',*,*,#574,.F.);
#717=ORIENTED_EDGE('',*,*,#567,.T.);
#718=ORIENTED_EDGE('',*,*,#575,.F.);
#719=ORIENTED_EDGE('',*,*,#572,.F.);
#720=ORIENTED_EDGE('',*,*,#576,.F.);
#721=ORIENTED_EDGE('',*,*,#577,.T.);
#722=ORIENTED_EDGE('',*,*,#578,.F.);
#723=ORIENTED_EDGE('',*,*,#579,.F.);
#724=ORIENTED_EDGE('',*,*,#580,.F.);
#725=ORIENTED_EDGE('',*,*,#581,.T.);
#726=ORIENTED_EDGE('',*,*,#582,.F.);
#727=ORIENTED_EDGE('',*,*,#577,.F.);
#728=ORIENTED_EDGE('',*,*,#583,.F.);
#729=ORIENTED_EDGE('',*,*,#584,.T.);
#730=ORIENTED_EDGE('',*,*,#585,.F.);
#731=ORIENTED_EDGE('',*,*,#581,.F.);
#732=ORIENTED_EDGE('',*,*,#586,.F.);
#733=ORIENTED_EDGE('',*,*,#579,.T.);
#734=ORIENTED_EDGE('',*,*,#587,.F.);
#735=ORIENTED_EDGE('',*,*,#584,.F.);
#736=ORIENTED_EDGE('',*,*,#588,.F.);
#737=ORIENTED_EDGE('',*,*,#589,.T.);
#738=ORIENTED_EDGE('',*,*,#590,.T.);
#739=ORIENTED_EDGE('',*,*,#589,.F.);
#740=ORIENTED_EDGE('',*,*,#590,.F.);
#741=ORIENTED_EDGE('',*,*,#591,.F.);
#742=ORIENTED_EDGE('',*,*,#592,.T.);
#743=ORIENTED_EDGE('',*,*,#593,.T.);
#744=ORIENTED_EDGE('',*,*,#594,.F.);
#745=ORIENTED_EDGE('',*,*,#595,.F.);
#746=ORIENTED_EDGE('',*,*,#596,.T.);
#747=ORIENTED_EDGE('',*,*,#597,.T.);
#748=ORIENTED_EDGE('',*,*,#592,.F.);
#749=ORIENTED_EDGE('',*,*,#598,.F.);
#750=ORIENTED_EDGE('',*,*,#599,.T.);
#751=ORIENTED_EDGE('',*,*,#600,.T.);
#752=ORIENTED_EDGE('',*,*,#596,.F.);
#753=ORIENTED_EDGE('',*,*,#601,.F.);
#754=ORIENTED_EDGE('',*,*,#594,.T.);
#755=ORIENTED_EDGE('',*,*,#602,.T.);
#756=ORIENTED_EDGE('',*,*,#599,.F.);
#757=ORIENTED_EDGE('',*,*,#602,.F.);
#758=ORIENTED_EDGE('',*,*,#593,.F.);
#759=ORIENTED_EDGE('',*,*,#597,.F.);
#760=ORIENTED_EDGE('',*,*,#600,.F.);
#761=ORIENTED_EDGE('',*,*,#603,.F.);
#762=ORIENTED_EDGE('',*,*,#604,.T.);
#763=ORIENTED_EDGE('',*,*,#605,.T.);
#764=ORIENTED_EDGE('',*,*,#604,.F.);
#765=ORIENTED_EDGE('',*,*,#605,.F.);
#766=ORIENTED_EDGE('',*,*,#606,.F.);
#767=ORIENTED_EDGE('',*,*,#607,.T.);
#768=ORIENTED_EDGE('',*,*,#608,.T.);
#769=ORIENTED_EDGE('',*,*,#609,.F.);
#770=ORIENTED_EDGE('',*,*,#610,.F.);
#771=ORIENTED_EDGE('',*,*,#611,.T.);
#772=ORIENTED_EDGE('',*,*,#612,.T.);
#773=ORIENTED_EDGE('',*,*,#607,.F.);
#774=ORIENTED_EDGE('',*,*,#613,.F.);
#775=ORIENTED_EDGE('',*,*,#614,.T.);
#776=ORIENTED_EDGE('',*,*,#615,.T.);
#777=ORIENTED_EDGE('',*,*,#611,.F.);
#778=ORIENTED_EDGE('',*,*,#616,.F.);
#779=ORIENTED_EDGE('',*,*,#609,.T.);
#780=ORIENTED_EDGE('',*,*,#617,.T.);
#781=ORIENTED_EDGE('',*,*,#614,.F.);
#782=ORIENTED_EDGE('',*,*,#617,.F.);
#783=ORIENTED_EDGE('',*,*,#608,.F.);
#784=ORIENTED_EDGE('',*,*,#612,.F.);
#785=ORIENTED_EDGE('',*,*,#615,.F.);
#786=ORIENTED_EDGE('',*,*,#618,.F.);
#787=ORIENTED_EDGE('',*,*,#619,.T.);
#788=ORIENTED_EDGE('',*,*,#620,.F.);
#789=ORIENTED_EDGE('',*,*,#621,.F.);
#790=ORIENTED_EDGE('',*,*,#622,.F.);
#791=ORIENTED_EDGE('',*,*,#621,.T.);
#792=ORIENTED_EDGE('',*,*,#623,.F.);
#793=ORIENTED_EDGE('',*,*,#624,.F.);
#794=ORIENTED_EDGE('',*,*,#625,.T.);
#795=ORIENTED_EDGE('',*,*,#624,.T.);
#796=ORIENTED_EDGE('',*,*,#626,.F.);
#797=ORIENTED_EDGE('',*,*,#627,.F.);
#798=ORIENTED_EDGE('',*,*,#628,.F.);
#799=ORIENTED_EDGE('',*,*,#627,.T.);
#800=ORIENTED_EDGE('',*,*,#629,.F.);
#801=ORIENTED_EDGE('',*,*,#619,.F.);
#802=ORIENTED_EDGE('',*,*,#628,.T.);
#803=ORIENTED_EDGE('',*,*,#618,.T.);
#804=ORIENTED_EDGE('',*,*,#622,.T.);
#805=ORIENTED_EDGE('',*,*,#625,.F.);
#806=ORIENTED_EDGE('',*,*,#606,.T.);
#807=ORIENTED_EDGE('',*,*,#616,.T.);
#808=ORIENTED_EDGE('',*,*,#613,.T.);
#809=ORIENTED_EDGE('',*,*,#610,.T.);
#810=ORIENTED_EDGE('',*,*,#603,.T.);
#811=ORIENTED_EDGE('',*,*,#591,.T.);
#812=ORIENTED_EDGE('',*,*,#601,.T.);
#813=ORIENTED_EDGE('',*,*,#598,.T.);
#814=ORIENTED_EDGE('',*,*,#595,.T.);
#815=ORIENTED_EDGE('',*,*,#588,.T.);
#816=ORIENTED_EDGE('',*,*,#576,.T.);
#817=ORIENTED_EDGE('',*,*,#586,.T.);
#818=ORIENTED_EDGE('',*,*,#583,.T.);
#819=ORIENTED_EDGE('',*,*,#580,.T.);
#820=ORIENTED_EDGE('',*,*,#564,.T.);
#821=ORIENTED_EDGE('',*,*,#574,.T.);
#822=ORIENTED_EDGE('',*,*,#571,.T.);
#823=ORIENTED_EDGE('',*,*,#568,.T.);
#824=ORIENTED_EDGE('',*,*,#552,.T.);
#825=ORIENTED_EDGE('',*,*,#562,.T.);
#826=ORIENTED_EDGE('',*,*,#559,.T.);
#827=ORIENTED_EDGE('',*,*,#556,.T.);
#828=ORIENTED_EDGE('',*,*,#629,.T.);
#829=ORIENTED_EDGE('',*,*,#626,.T.);
#830=ORIENTED_EDGE('',*,*,#623,.T.);
#831=ORIENTED_EDGE('',*,*,#620,.T.);
#832=ORIENTED_EDGE('',*,*,#542,.T.);
#833=ORIENTED_EDGE('',*,*,#545,.T.);
#834=ORIENTED_EDGE('',*,*,#548,.T.);
#835=ORIENTED_EDGE('',*,*,#551,.T.);
#836=ORIENTED_EDGE('',*,*,#554,.T.);
#837=ORIENTED_EDGE('',*,*,#558,.T.);
#838=ORIENTED_EDGE('',*,*,#561,.T.);
#839=ORIENTED_EDGE('',*,*,#563,.T.);
#840=ORIENTED_EDGE('',*,*,#566,.T.);
#841=ORIENTED_EDGE('',*,*,#570,.T.);
#842=ORIENTED_EDGE('',*,*,#573,.T.);
#843=ORIENTED_EDGE('',*,*,#575,.T.);
#844=ORIENTED_EDGE('',*,*,#578,.T.);
#845=ORIENTED_EDGE('',*,*,#582,.T.);
#846=ORIENTED_EDGE('',*,*,#585,.T.);
#847=ORIENTED_EDGE('',*,*,#587,.T.);
#848=ORIENTED_EDGE('',*,*,#630,.F.);
#849=ORIENTED_EDGE('',*,*,#631,.T.);
#850=ORIENTED_EDGE('',*,*,#632,.F.);
#851=ORIENTED_EDGE('',*,*,#633,.F.);
#852=ORIENTED_EDGE('',*,*,#634,.T.);
#853=ORIENTED_EDGE('',*,*,#635,.T.);
#854=ORIENTED_EDGE('',*,*,#636,.T.);
#855=ORIENTED_EDGE('',*,*,#637,.T.);
#856=ORIENTED_EDGE('',*,*,#638,.T.);
#857=ORIENTED_EDGE('',*,*,#639,.T.);
#858=ORIENTED_EDGE('',*,*,#640,.T.);
#859=ORIENTED_EDGE('',*,*,#641,.T.);
#860=ORIENTED_EDGE('',*,*,#631,.F.);
#861=ORIENTED_EDGE('',*,*,#642,.T.);
#862=ORIENTED_EDGE('',*,*,#643,.F.);
#863=ORIENTED_EDGE('',*,*,#644,.F.);
#864=ORIENTED_EDGE('',*,*,#632,.T.);
#865=ORIENTED_EDGE('',*,*,#644,.T.);
#866=ORIENTED_EDGE('',*,*,#645,.F.);
#867=ORIENTED_EDGE('',*,*,#646,.F.);
#868=ORIENTED_EDGE('',*,*,#633,.T.);
#869=ORIENTED_EDGE('',*,*,#646,.T.);
#870=ORIENTED_EDGE('',*,*,#647,.F.);
#871=ORIENTED_EDGE('',*,*,#648,.F.);
#872=ORIENTED_EDGE('',*,*,#630,.T.);
#873=ORIENTED_EDGE('',*,*,#648,.T.);
#874=ORIENTED_EDGE('',*,*,#649,.F.);
#875=ORIENTED_EDGE('',*,*,#642,.F.);
#876=ORIENTED_EDGE('',*,*,#649,.T.);
#877=ORIENTED_EDGE('',*,*,#647,.T.);
#878=ORIENTED_EDGE('',*,*,#645,.T.);
#879=ORIENTED_EDGE('',*,*,#643,.T.);
#880=ORIENTED_EDGE('',*,*,#650,.T.);
#881=ORIENTED_EDGE('',*,*,#651,.F.);
#882=ORIENTED_EDGE('',*,*,#652,.T.);
#883=ORIENTED_EDGE('',*,*,#653,.T.);
#884=ORIENTED_EDGE('',*,*,#654,.T.);
#885=ORIENTED_EDGE('',*,*,#652,.F.);
#886=ORIENTED_EDGE('',*,*,#655,.F.);
#887=ORIENTED_EDGE('',*,*,#656,.T.);
#888=ORIENTED_EDGE('',*,*,#657,.T.);
#889=ORIENTED_EDGE('',*,*,#658,.T.);
#890=ORIENTED_EDGE('',*,*,#656,.F.);
#891=ORIENTED_EDGE('',*,*,#659,.F.);
#892=ORIENTED_EDGE('',*,*,#650,.F.);
#893=ORIENTED_EDGE('',*,*,#660,.T.);
#894=ORIENTED_EDGE('',*,*,#639,.F.);
#895=ORIENTED_EDGE('',*,*,#661,.F.);
#896=ORIENTED_EDGE('',*,*,#653,.F.);
#897=ORIENTED_EDGE('',*,*,#662,.T.);
#898=ORIENTED_EDGE('',*,*,#640,.F.);
#899=ORIENTED_EDGE('',*,*,#660,.F.);
#900=ORIENTED_EDGE('',*,*,#658,.F.);
#901=ORIENTED_EDGE('',*,*,#663,.T.);
#902=ORIENTED_EDGE('',*,*,#634,.F.);
#903=ORIENTED_EDGE('',*,*,#664,.F.);
#904=ORIENTED_EDGE('',*,*,#654,.F.);
#905=ORIENTED_EDGE('',*,*,#664,.T.);
#906=ORIENTED_EDGE('',*,*,#641,.F.);
#907=ORIENTED_EDGE('',*,*,#662,.F.);
#908=ORIENTED_EDGE('',*,*,#651,.T.);
#909=ORIENTED_EDGE('',*,*,#661,.T.);
#910=ORIENTED_EDGE('',*,*,#638,.F.);
#911=ORIENTED_EDGE('',*,*,#665,.F.);
#912=ORIENTED_EDGE('',*,*,#655,.T.);
#913=ORIENTED_EDGE('',*,*,#665,.T.);
#914=ORIENTED_EDGE('',*,*,#637,.F.);
#915=ORIENTED_EDGE('',*,*,#666,.F.);
#916=ORIENTED_EDGE('',*,*,#659,.T.);
#917=ORIENTED_EDGE('',*,*,#666,.T.);
#918=ORIENTED_EDGE('',*,*,#636,.F.);
#919=ORIENTED_EDGE('',*,*,#667,.F.);
#920=ORIENTED_EDGE('',*,*,#657,.F.);
#921=ORIENTED_EDGE('',*,*,#667,.T.);
#922=ORIENTED_EDGE('',*,*,#635,.F.);
#923=ORIENTED_EDGE('',*,*,#663,.F.);
#924=CYLINDRICAL_SURFACE('',#1002,0.700000000000001);
#925=CYLINDRICAL_SURFACE('',#1006,0.7);
#926=CYLINDRICAL_SURFACE('',#1010,0.700000000000001);
#927=CYLINDRICAL_SURFACE('',#1014,0.7);
#928=CYLINDRICAL_SURFACE('',#1030,1.7);
#929=CYLINDRICAL_SURFACE('',#1039,1.7);
#930=ADVANCED_FACE('',(#83),#924,.T.);
#931=ADVANCED_FACE('',(#84),#32,.T.);
#932=ADVANCED_FACE('',(#85),#925,.T.);
#933=ADVANCED_FACE('',(#86),#33,.T.);
#934=ADVANCED_FACE('',(#87),#926,.T.);
#935=ADVANCED_FACE('',(#88),#34,.T.);
#936=ADVANCED_FACE('',(#89),#927,.T.);
#937=ADVANCED_FACE('',(#90),#35,.T.);
#938=ADVANCED_FACE('',(#91),#36,.F.);
#939=ADVANCED_FACE('',(#92),#37,.F.);
#940=ADVANCED_FACE('',(#93),#38,.F.);
#941=ADVANCED_FACE('',(#94),#39,.F.);
#942=ADVANCED_FACE('',(#95),#40,.F.);
#943=ADVANCED_FACE('',(#96),#41,.F.);
#944=ADVANCED_FACE('',(#97),#42,.F.);
#945=ADVANCED_FACE('',(#98),#43,.F.);
#946=ADVANCED_FACE('',(#99),#44,.F.);
#947=ADVANCED_FACE('',(#100),#45,.F.);
#948=ADVANCED_FACE('',(#101),#46,.F.);
#949=ADVANCED_FACE('',(#102),#47,.F.);
#950=ADVANCED_FACE('',(#103),#928,.F.);
#951=ADVANCED_FACE('',(#104),#48,.T.);
#952=ADVANCED_FACE('',(#105),#49,.F.);
#953=ADVANCED_FACE('',(#106),#50,.F.);
#954=ADVANCED_FACE('',(#107),#51,.F.);
#955=ADVANCED_FACE('',(#108),#52,.F.);
#956=ADVANCED_FACE('',(#109),#53,.F.);
#957=ADVANCED_FACE('',(#110),#929,.F.);
#958=ADVANCED_FACE('',(#111),#54,.T.);
#959=ADVANCED_FACE('',(#112),#55,.F.);
#960=ADVANCED_FACE('',(#113),#56,.F.);
#961=ADVANCED_FACE('',(#114),#57,.F.);
#962=ADVANCED_FACE('',(#115),#58,.F.);
#963=ADVANCED_FACE('',(#116),#59,.F.);
#964=ADVANCED_FACE('',(#117),#60,.T.);
#965=ADVANCED_FACE('',(#118),#61,.T.);
#966=ADVANCED_FACE('',(#119),#62,.T.);
#967=ADVANCED_FACE('',(#120),#63,.T.);
#968=ADVANCED_FACE('',(#121,#17,#18,#19,#20,#21,#22,#23),#64,.T.);
#969=ADVANCED_FACE('',(#122,#24,#25,#26,#27,#28,#29,#30),#65,.T.);
#970=ADVANCED_FACE('',(#123,#31),#66,.F.);
#971=ADVANCED_FACE('',(#124),#67,.T.);
#972=ADVANCED_FACE('',(#125),#68,.T.);
#973=ADVANCED_FACE('',(#126),#69,.T.);
#974=ADVANCED_FACE('',(#127),#70,.T.);
#975=ADVANCED_FACE('',(#128),#71,.T.);
#976=ADVANCED_FACE('',(#129),#72,.T.);
#977=ADVANCED_FACE('',(#130),#73,.T.);
#978=ADVANCED_FACE('',(#131),#74,.T.);
#979=ADVANCED_FACE('',(#132),#75,.T.);
#980=ADVANCED_FACE('',(#133),#76,.T.);
#981=ADVANCED_FACE('',(#134),#77,.T.);
#982=ADVANCED_FACE('',(#135),#78,.T.);
#983=ADVANCED_FACE('',(#136),#79,.T.);
#984=ADVANCED_FACE('',(#137),#80,.T.);
#985=ADVANCED_FACE('',(#138),#81,.T.);
#986=ADVANCED_FACE('',(#139),#82,.T.);
#987=CLOSED_SHELL('',(#930,#931,#932,#933,#934,#935,#936,#937,#938,#939,
#940,#941,#942,#943,#944,#945,#946,#947,#948,#949,#950,#951,#952,#953,#954,
#955,#956,#957,#958,#959,#960,#961,#962,#963,#964,#965,#966,#967,#968,#969));
#988=CLOSED_SHELL('',(#970,#971,#972,#973,#974,#975,#976,#977,#978,#979,
#980,#981,#982,#983,#984,#985,#986));
#989=DERIVED_UNIT_ELEMENT(#991,1.);
#990=DERIVED_UNIT_ELEMENT(#1602,-3.);
#991=(
MASS_UNIT()
NAMED_UNIT(*)
SI_UNIT(.KILO.,.GRAM.)
);
#992=DERIVED_UNIT((#989,#990));
#993=MEASURE_REPRESENTATION_ITEM('density measure',
POSITIVE_RATIO_MEASURE(1171.75),#992);
#994=PROPERTY_DEFINITION_REPRESENTATION(#999,#996);
#995=PROPERTY_DEFINITION_REPRESENTATION(#1000,#997);
#996=REPRESENTATION('material name',(#998),#1599);
#997=REPRESENTATION('density',(#993),#1599);
#998=DESCRIPTIVE_REPRESENTATION_ITEM(
'PA 11 - Nylon- HP 11-30 (with EOS P 396 3D Printer)',
'PA 11 - Nylon- HP 11-30 (with EOS P 396 3D Printer)');
#999=PROPERTY_DEFINITION('material property','material name',#1609);
#1000=PROPERTY_DEFINITION('material property','density of part',#1609);
#1001=AXIS2_PLACEMENT_3D('',#1327,#1071,#1072);
#1002=AXIS2_PLACEMENT_3D('',#1328,#1073,#1074);
#1003=AXIS2_PLACEMENT_3D('',#1330,#1075,#1076);
#1004=AXIS2_PLACEMENT_3D('',#1333,#1078,#1079);
#1005=AXIS2_PLACEMENT_3D('',#1334,#1080,#1081);
#1006=AXIS2_PLACEMENT_3D('',#1335,#1082,#1083);
#1007=AXIS2_PLACEMENT_3D('',#1337,#1084,#1085);
#1008=AXIS2_PLACEMENT_3D('',#1340,#1087,#1088);
#1009=AXIS2_PLACEMENT_3D('',#1341,#1089,#1090);
#1010=AXIS2_PLACEMENT_3D('',#1342,#1091,#1092);
#1011=AXIS2_PLACEMENT_3D('',#1344,#1093,#1094);
#1012=AXIS2_PLACEMENT_3D('',#1347,#1096,#1097);
#1013=AXIS2_PLACEMENT_3D('',#1348,#1098,#1099);
#1014=AXIS2_PLACEMENT_3D('',#1349,#1100,#1101);
#1015=AXIS2_PLACEMENT_3D('',#1351,#1102,#1103);
#1016=AXIS2_PLACEMENT_3D('',#1354,#1105,#1106);
#1017=AXIS2_PLACEMENT_3D('',#1355,#1107,#1108);
#1018=AXIS2_PLACEMENT_3D('',#1356,#1109,#1110);
#1019=AXIS2_PLACEMENT_3D('',#1365,#1115,#1116);
#1020=AXIS2_PLACEMENT_3D('',#1371,#1120,#1121);
#1021=AXIS2_PLACEMENT_3D('',#1377,#1125,#1126);
#1022=AXIS2_PLACEMENT_3D('',#1380,#1129,#1130);
#1023=AXIS2_PLACEMENT_3D('',#1389,#1135,#1136);
#1024=AXIS2_PLACEMENT_3D('',#1395,#1140,#1141);
#1025=AXIS2_PLACEMENT_3D('',#1401,#1145,#1146);
#1026=AXIS2_PLACEMENT_3D('',#1404,#1149,#1150);
#1027=AXIS2_PLACEMENT_3D('',#1413,#1155,#1156);
#1028=AXIS2_PLACEMENT_3D('',#1419,#1160,#1161);
#1029=AXIS2_PLACEMENT_3D('',#1425,#1165,#1166);
#1030=AXIS2_PLACEMENT_3D('',#1428,#1169,#1170);
#1031=AXIS2_PLACEMENT_3D('',#1430,#1171,#1172);
#1032=AXIS2_PLACEMENT_3D('',#1433,#1174,#1175);
#1033=AXIS2_PLACEMENT_3D('',#1434,#1176,#1177);
#1034=AXIS2_PLACEMENT_3D('',#1435,#1178,#1179);
#1035=AXIS2_PLACEMENT_3D('',#1444,#1184,#1185);
#1036=AXIS2_PLACEMENT_3D('',#1450,#1189,#1190);
#1037=AXIS2_PLACEMENT_3D('',#1456,#1194,#1195);
#1038=AXIS2_PLACEMENT_3D('',#1459,#1198,#1199);
#1039=AXIS2_PLACEMENT_3D('',#1460,#1200,#1201);
#1040=AXIS2_PLACEMENT_3D('',#1462,#1202,#1203);
#1041=AXIS2_PLACEMENT_3D('',#1465,#1205,#1206);
#1042=AXIS2_PLACEMENT_3D('',#1466,#1207,#1208);
#1043=AXIS2_PLACEMENT_3D('',#1467,#1209,#1210);
#1044=AXIS2_PLACEMENT_3D('',#1476,#1215,#1216);
#1045=AXIS2_PLACEMENT_3D('',#1482,#1220,#1221);
#1046=AXIS2_PLACEMENT_3D('',#1488,#1225,#1226);
#1047=AXIS2_PLACEMENT_3D('',#1491,#1229,#1230);
#1048=AXIS2_PLACEMENT_3D('',#1492,#1231,#1232);
#1049=AXIS2_PLACEMENT_3D('',#1501,#1237,#1238);
#1050=AXIS2_PLACEMENT_3D('',#1507,#1242,#1243);
#1051=AXIS2_PLACEMENT_3D('',#1513,#1247,#1248);
#1052=AXIS2_PLACEMENT_3D('',#1516,#1251,#1252);
#1053=AXIS2_PLACEMENT_3D('',#1517,#1253,#1254);
#1054=AXIS2_PLACEMENT_3D('',#1518,#1255,#1256);
#1055=AXIS2_PLACEMENT_3D('',#1543,#1269,#1270);
#1056=AXIS2_PLACEMENT_3D('',#1549,#1274,#1275);
#1057=AXIS2_PLACEMENT_3D('',#1553,#1278,#1279);
#1058=AXIS2_PLACEMENT_3D('',#1557,#1282,#1283);
#1059=AXIS2_PLACEMENT_3D('',#1559,#1285,#1286);
#1060=AXIS2_PLACEMENT_3D('',#1560,#1287,#1288);
#1061=AXIS2_PLACEMENT_3D('',#1569,#1293,#1294);
#1062=AXIS2_PLACEMENT_3D('',#1575,#1298,#1299);
#1063=AXIS2_PLACEMENT_3D('',#1581,#1303,#1304);
#1064=AXIS2_PLACEMENT_3D('',#1584,#1307,#1308);
#1065=AXIS2_PLACEMENT_3D('',#1586,#1310,#1311);
#1066=AXIS2_PLACEMENT_3D('',#1589,#1314,#1315);
#1067=AXIS2_PLACEMENT_3D('',#1590,#1316,#1317);
#1068=AXIS2_PLACEMENT_3D('',#1592,#1319,#1320);
#1069=AXIS2_PLACEMENT_3D('',#1594,#1322,#1323);
#1070=AXIS2_PLACEMENT_3D('',#1596,#1325,#1326);
#1071=DIRECTION('axis',(0.,0.,1.));
#1072=DIRECTION('refdir',(1.,0.,0.));
#1073=DIRECTION('center_axis',(0.,0.,-1.));
#1074=DIRECTION('ref_axis',(1.,0.,0.));
#1075=DIRECTION('center_axis',(0.,0.,-1.));
#1076=DIRECTION('ref_axis',(1.,0.,0.));
#1077=DIRECTION('',(0.,0.,1.));
#1078=DIRECTION('center_axis',(0.,0.,1.));
#1079=DIRECTION('ref_axis',(1.,0.,0.));
#1080=DIRECTION('center_axis',(0.,0.,-1.));
#1081=DIRECTION('ref_axis',(1.,0.,0.));
#1082=DIRECTION('center_axis',(0.,0.,-1.));
#1083=DIRECTION('ref_axis',(1.,0.,0.));
#1084=DIRECTION('center_axis',(0.,0.,-1.));
#1085=DIRECTION('ref_axis',(1.,0.,0.));
#1086=DIRECTION('',(0.,0.,1.));
#1087=DIRECTION('center_axis',(0.,0.,1.));
#1088=DIRECTION('ref_axis',(1.,0.,0.));
#1089=DIRECTION('center_axis',(0.,0.,-1.));
#1090=DIRECTION('ref_axis',(1.,0.,0.));
#1091=DIRECTION('center_axis',(0.,0.,-1.));
#1092=DIRECTION('ref_axis',(1.,0.,0.));
#1093=DIRECTION('center_axis',(0.,0.,-1.));
#1094=DIRECTION('ref_axis',(1.,0.,0.));
#1095=DIRECTION('',(0.,0.,1.));
#1096=DIRECTION('center_axis',(0.,0.,1.));
#1097=DIRECTION('ref_axis',(1.,0.,0.));
#1098=DIRECTION('center_axis',(0.,0.,-1.));
#1099=DIRECTION('ref_axis',(1.,0.,0.));
#1100=DIRECTION('center_axis',(0.,0.,-1.));
#1101=DIRECTION('ref_axis',(1.,0.,0.));
#1102=DIRECTION('center_axis',(0.,0.,-1.));
#1103=DIRECTION('ref_axis',(1.,0.,0.));
#1104=DIRECTION('',(0.,0.,1.));
#1105=DIRECTION('center_axis',(0.,0.,1.));
#1106=DIRECTION('ref_axis',(1.,0.,0.));
#1107=DIRECTION('center_axis',(0.,0.,-1.));
#1108=DIRECTION('ref_axis',(1.,0.,0.));
#1109=DIRECTION('center_axis',(0.,1.,0.));
#1110=DIRECTION('ref_axis',(1.,0.,0.));
#1111=DIRECTION('',(1.,0.,0.));
#1112=DIRECTION('',(0.,0.,-1.));
#1113=DIRECTION('',(-1.,0.,0.));
#1114=DIRECTION('',(0.,0.,-1.));
#1115=DIRECTION('center_axis',(-1.,0.,0.));
#1116=DIRECTION('ref_axis',(0.,1.,0.));
#1117=DIRECTION('',(0.,1.,0.));
#1118=DIRECTION('',(0.,0.,-1.));
#1119=DIRECTION('',(0.,-1.,0.));
#1120=DIRECTION('center_axis',(-1.37145197159578E-15,-1.,0.));
#1121=DIRECTION('ref_axis',(-1.,1.37145197159578E-15,0.));
#1122=DIRECTION('',(-1.,1.37145197159578E-15,0.));
#1123=DIRECTION('',(0.,0.,-1.));
#1124=DIRECTION('',(1.,-1.37145197159578E-15,0.));
#1125=DIRECTION('center_axis',(1.,0.,0.));
#1126=DIRECTION('ref_axis',(0.,-1.,0.));
#1127=DIRECTION('',(0.,-1.,0.));
#1128=DIRECTION('',(0.,1.,0.));
#1129=DIRECTION('center_axis',(0.,1.,0.));
#1130=DIRECTION('ref_axis',(1.,0.,0.));
#1131=DIRECTION('',(1.,0.,0.));
#1132=DIRECTION('',(0.,0.,-1.));
#1133=DIRECTION('',(-1.,0.,0.));
#1134=DIRECTION('',(0.,0.,-1.));
#1135=DIRECTION('center_axis',(-1.,0.,0.));
#1136=DIRECTION('ref_axis',(0.,1.,0.));
#1137=DIRECTION('',(0.,1.,0.));
#1138=DIRECTION('',(0.,0.,-1.));
#1139=DIRECTION('',(0.,-1.,0.));
#1140=DIRECTION('center_axis',(0.,-1.,0.));
#1141=DIRECTION('ref_axis',(-1.,0.,0.));
#1142=DIRECTION('',(-1.,0.,0.));
#1143=DIRECTION('',(0.,0.,-1.));
#1144=DIRECTION('',(1.,0.,0.));
#1145=DIRECTION('center_axis',(1.,0.,0.));
#1146=DIRECTION('ref_axis',(0.,-1.,0.));
#1147=DIRECTION('',(0.,-1.,0.));
#1148=DIRECTION('',(0.,1.,0.));
#1149=DIRECTION('center_axis',(-1.,0.,0.));
#1150=DIRECTION('ref_axis',(0.,1.,0.));
#1151=DIRECTION('',(0.,1.,0.));
#1152=DIRECTION('',(0.,0.,-1.));
#1153=DIRECTION('',(0.,-1.,0.));
#1154=DIRECTION('',(0.,0.,-1.));
#1155=DIRECTION('center_axis',(0.,-1.,0.));
#1156=DIRECTION('ref_axis',(-1.,0.,0.));
#1157=DIRECTION('',(-1.,0.,0.));
#1158=DIRECTION('',(0.,0.,-1.));
#1159=DIRECTION('',(1.,0.,0.));
#1160=DIRECTION('center_axis',(1.,0.,0.));
#1161=DIRECTION('ref_axis',(0.,-1.,0.));
#1162=DIRECTION('',(0.,-1.,0.));
#1163=DIRECTION('',(0.,0.,-1.));
#1164=DIRECTION('',(0.,1.,0.));
#1165=DIRECTION('center_axis',(0.,1.,0.));
#1166=DIRECTION('ref_axis',(1.,0.,0.));
#1167=DIRECTION('',(1.,0.,0.));
#1168=DIRECTION('',(-1.,0.,0.));
#1169=DIRECTION('center_axis',(0.,0.,-1.));
#1170=DIRECTION('ref_axis',(1.,0.,0.));
#1171=DIRECTION('center_axis',(0.,0.,-1.));
#1172=DIRECTION('ref_axis',(1.,0.,0.));
#1173=DIRECTION('',(0.,0.,-1.));
#1174=DIRECTION('center_axis',(0.,0.,-1.));
#1175=DIRECTION('ref_axis',(1.,0.,0.));
#1176=DIRECTION('center_axis',(0.,0.,1.));
#1177=DIRECTION('ref_axis',(1.,0.,0.));
#1178=DIRECTION('center_axis',(-2.4671622769448E-15,1.,0.));
#1179=DIRECTION('ref_axis',(1.,2.4671622769448E-15,0.));
#1180=DIRECTION('',(1.,2.4671622769448E-15,0.));
#1181=DIRECTION('',(0.,0.,-1.));
#1182=DIRECTION('',(1.,2.4671622769448E-15,0.));
#1183=DIRECTION('',(0.,0.,-1.));
#1184=DIRECTION('center_axis',(-1.,4.33680868994202E-16,0.));
#1185=DIRECTION('ref_axis',(4.33680868994202E-16,1.,0.));
#1186=DIRECTION('',(4.33680868994202E-16,1.,0.));
#1187=DIRECTION('',(0.,0.,-1.));
#1188=DIRECTION('',(4.33680868994202E-16,1.,0.));
#1189=DIRECTION('center_axis',(0.,-1.,0.));
#1190=DIRECTION('ref_axis',(-1.,0.,0.));
#1191=DIRECTION('',(-1.,0.,0.));
#1192=DIRECTION('',(0.,0.,-1.));
#1193=DIRECTION('',(-1.,0.,0.));
#1194=DIRECTION('center_axis',(1.,2.96296914521113E-33,0.));
#1195=DIRECTION('ref_axis',(2.96296914521113E-33,-1.,0.));
#1196=DIRECTION('',(2.96296914521113E-33,-1.,0.));
#1197=DIRECTION('',(2.96296914521113E-33,-1.,0.));
#1198=DIRECTION('center_axis',(0.,0.,-1.));
#1199=DIRECTION('ref_axis',(-1.,0.,0.));
#1200=DIRECTION('center_axis',(0.,0.,-1.));
#1201=DIRECTION('ref_axis',(1.,0.,0.));
#1202=DIRECTION('center_axis',(0.,0.,-1.));
#1203=DIRECTION('ref_axis',(1.,0.,0.));
#1204=DIRECTION('',(0.,0.,-1.));
#1205=DIRECTION('center_axis',(0.,0.,-1.));
#1206=DIRECTION('ref_axis',(1.,0.,0.));
#1207=DIRECTION('center_axis',(0.,0.,1.));
#1208=DIRECTION('ref_axis',(1.,0.,0.));
#1209=DIRECTION('center_axis',(-1.,0.,0.));
#1210=DIRECTION('ref_axis',(0.,1.,0.));
#1211=DIRECTION('',(0.,1.,0.));
#1212=DIRECTION('',(0.,0.,-1.));
#1213=DIRECTION('',(0.,1.,0.));
#1214=DIRECTION('',(0.,0.,-1.));
#1215=DIRECTION('center_axis',(-1.2335811384724E-15,-1.,0.));
#1216=DIRECTION('ref_axis',(-1.,1.2335811384724E-15,0.));
#1217=DIRECTION('',(-1.,1.2335811384724E-15,0.));
#1218=DIRECTION('',(0.,0.,-1.));
#1219=DIRECTION('',(-1.,1.2335811384724E-15,0.));
#1220=DIRECTION('center_axis',(1.,-1.38777878078145E-15,0.));
#1221=DIRECTION('ref_axis',(-1.38777878078145E-15,-1.,0.));
#1222=DIRECTION('',(-1.38777878078145E-15,-1.,0.));
#1223=DIRECTION('',(0.,0.,-1.));
#1224=DIRECTION('',(-1.38777878078145E-15,-1.,0.));
#1225=DIRECTION('center_axis',(2.4671622769448E-15,1.,0.));
#1226=DIRECTION('ref_axis',(1.,-2.4671622769448E-15,0.));
#1227=DIRECTION('',(1.,-2.4671622769448E-15,0.));
#1228=DIRECTION('',(1.,-2.4671622769448E-15,0.));
#1229=DIRECTION('center_axis',(0.,0.,-1.));
#1230=DIRECTION('ref_axis',(-1.,0.,0.));
#1231=DIRECTION('center_axis',(0.,1.,0.));
#1232=DIRECTION('ref_axis',(1.,0.,0.));
#1233=DIRECTION('',(-1.,0.,0.));
#1234=DIRECTION('',(0.,0.,-1.));
#1235=DIRECTION('',(1.,0.,0.));
#1236=DIRECTION('',(0.,0.,-1.));
#1237=DIRECTION('center_axis',(-1.,-1.29095700537809E-16,0.));
#1238=DIRECTION('ref_axis',(-1.29095700537809E-16,1.,0.));
#1239=DIRECTION('',(1.29095700537809E-16,-1.,0.));
#1240=DIRECTION('',(-1.29095700537809E-16,1.,0.));
#1241=DIRECTION('',(0.,0.,-1.));
#1242=DIRECTION('center_axis',(-1.5419764230905E-17,-1.,0.));
#1243=DIRECTION('ref_axis',(-1.,1.5419764230905E-17,0.));
#1244=DIRECTION('',(-1.,1.5419764230905E-17,0.));
#1245=DIRECTION('',(-1.,1.5419764230905E-17,0.));
#1246=DIRECTION('',(0.,0.,-1.));
#1247=DIRECTION('center_axis',(1.,0.,0.));
#1248=DIRECTION('ref_axis',(0.,-1.,0.));
#1249=DIRECTION('',(0.,1.,0.));
#1250=DIRECTION('',(0.,-1.,0.));
#1251=DIRECTION('center_axis',(0.,0.,1.));
#1252=DIRECTION('ref_axis',(1.,0.,0.));
#1253=DIRECTION('center_axis',(0.,0.,-1.));
#1254=DIRECTION('ref_axis',(-1.,0.,0.));
#1255=DIRECTION('center_axis',(0.,0.,1.));
#1256=DIRECTION('ref_axis',(1.,0.,0.));
#1257=DIRECTION('',(0.,1.,0.));
#1258=DIRECTION('',(-1.,5.04646829375071E-17,0.));
#1259=DIRECTION('',(0.,-1.,0.));
#1260=DIRECTION('',(-1.,0.,0.));
#1261=DIRECTION('',(0.,1.,0.));
#1262=DIRECTION('',(0.707106781186547,-0.707106781186547,0.));
#1263=DIRECTION('',(0.,-1.,0.));
#1264=DIRECTION('',(1.,0.,0.));
#1265=DIRECTION('',(-2.31296463463574E-16,1.,0.));
#1266=DIRECTION('',(0.707106781186548,0.707106781186547,0.));
#1267=DIRECTION('',(1.29095700537809E-16,-1.,0.));
#1268=DIRECTION('',(-1.,0.,0.));
#1269=DIRECTION('center_axis',(-5.04646829375071E-17,-1.,0.));
#1270=DIRECTION('ref_axis',(1.,-5.04646829375071E-17,0.));
#1271=DIRECTION('',(0.,0.,1.));
#1272=DIRECTION('',(1.,-5.04646829375071E-17,0.));
#1273=DIRECTION('',(0.,0.,1.));
#1274=DIRECTION('center_axis',(-1.,0.,0.));
#1275=DIRECTION('ref_axis',(0.,-1.,0.));
#1276=DIRECTION('',(0.,-1.,0.));
#1277=DIRECTION('',(0.,0.,1.));
#1278=DIRECTION('center_axis',(0.,1.,0.));
#1279=DIRECTION('ref_axis',(-1.,0.,0.));
#1280=DIRECTION('',(-1.,0.,0.));
#1281=DIRECTION('',(0.,0.,1.));
#1282=DIRECTION('center_axis',(1.,0.,0.));
#1283=DIRECTION('ref_axis',(0.,1.,0.));
#1284=DIRECTION('',(0.,1.,0.));
#1285=DIRECTION('center_axis',(0.,0.,1.));
#1286=DIRECTION('ref_axis',(1.,0.,0.));
#1287=DIRECTION('center_axis',(0.707106781186547,9.12844452723125E-17,-0.707106781186548));
#1288=DIRECTION('ref_axis',(-0.707106781186548,0.,-0.707106781186547));
#1289=DIRECTION('',(-0.577350269189626,-0.577350269189626,-0.577350269189625));
#1290=DIRECTION('',(2.31296463463574E-16,-1.,1.02200762925765E-16));
#1291=DIRECTION('',(0.577350269189626,-0.577350269189626,0.577350269189625));
#1292=DIRECTION('',(-1.29095700537809E-16,1.,0.));
#1293=DIRECTION('center_axis',(0.,-0.707106781186547,-0.707106781186548));
#1294=DIRECTION('ref_axis',(-1.,0.,0.));
#1295=DIRECTION('',(1.,0.,0.));
#1296=DIRECTION('',(-1.,0.,0.));
#1297=DIRECTION('',(-0.577350269189626,-0.577350269189626,0.577350269189626));
#1298=DIRECTION('center_axis',(-0.707106781186548,0.,-0.707106781186547));
#1299=DIRECTION('ref_axis',(-0.707106781186547,0.,0.707106781186548));
#1300=DIRECTION('',(-0.577350269189626,0.577350269189626,0.577350269189626));
#1301=DIRECTION('',(0.,-1.,0.));
#1302=DIRECTION('',(0.,1.,0.));
#1303=DIRECTION('center_axis',(0.707106781186547,-0.707106781186548,0.));
#1304=DIRECTION('ref_axis',(0.707106781186548,0.707106781186547,0.));
#1305=DIRECTION('',(0.,0.,-1.));
#1306=DIRECTION('',(0.,0.,1.));
#1307=DIRECTION('center_axis',(1.,1.29095700537809E-16,0.));
#1308=DIRECTION('ref_axis',(-1.29095700537809E-16,1.,0.));
#1309=DIRECTION('',(0.,0.,1.));
#1310=DIRECTION('center_axis',(-1.,0.,0.));
#1311=DIRECTION('ref_axis',(0.,-1.,0.));
#1312=DIRECTION('',(0.,0.,1.));
#1313=DIRECTION('',(0.,0.,1.));
#1314=DIRECTION('center_axis',(0.,-1.,0.));
#1315=DIRECTION('ref_axis',(1.,0.,0.));
#1316=DIRECTION('center_axis',(-1.,-2.31296463463574E-16,0.));
#1317=DIRECTION('ref_axis',(2.31296463463574E-16,-1.,0.));
#1318=DIRECTION('',(0.,0.,-1.));
#1319=DIRECTION('center_axis',(0.,1.,0.));
#1320=DIRECTION('ref_axis',(-1.,0.,0.));
#1321=DIRECTION('',(0.,0.,-1.));
#1322=DIRECTION('center_axis',(1.,0.,0.));
#1323=DIRECTION('ref_axis',(0.,1.,0.));
#1324=DIRECTION('',(0.,0.,-1.));
#1325=DIRECTION('center_axis',(-0.707106781186548,-0.707106781186548,0.));
#1326=DIRECTION('ref_axis',(0.707106781186548,-0.707106781186548,0.));
#1327=CARTESIAN_POINT('',(0.,0.,0.));
#1328=CARTESIAN_POINT('Origin',(-14.56,1.74,-7.));
#1329=CARTESIAN_POINT('',(-15.26,1.74,-9.6));
#1330=CARTESIAN_POINT('Origin',(-14.56,1.74,-9.6));
#1331=CARTESIAN_POINT('',(-15.26,1.74,-7.));
#1332=CARTESIAN_POINT('',(-15.26,1.74,-7.));
#1333=CARTESIAN_POINT('Origin',(-14.56,1.74,-7.));
#1334=CARTESIAN_POINT('Origin',(-14.56,1.74,-9.6));
#1335=CARTESIAN_POINT('Origin',(-1.96,1.74,-7.));
#1336=CARTESIAN_POINT('',(-2.66,1.74,-9.6));
#1337=CARTESIAN_POINT('Origin',(-1.96,1.74,-9.6));
#1338=CARTESIAN_POINT('',(-2.66,1.74,-7.));
#1339=CARTESIAN_POINT('',(-2.66,1.74,-7.));
#1340=CARTESIAN_POINT('Origin',(-1.96,1.74,-7.));
#1341=CARTESIAN_POINT('Origin',(-1.96,1.74,-9.6));
#1342=CARTESIAN_POINT('Origin',(-14.66,11.9,-7.));
#1343=CARTESIAN_POINT('',(-15.36,11.9,-9.6));
#1344=CARTESIAN_POINT('Origin',(-14.66,11.9,-9.6));
#1345=CARTESIAN_POINT('',(-15.36,11.9,-7.));
#1346=CARTESIAN_POINT('',(-15.36,11.9,-7.));
#1347=CARTESIAN_POINT('Origin',(-14.66,11.9,-7.));
#1348=CARTESIAN_POINT('Origin',(-14.66,11.9,-9.6));
#1349=CARTESIAN_POINT('Origin',(-1.96,11.9,-7.));
#1350=CARTESIAN_POINT('',(-2.66,11.9,-9.6));
#1351=CARTESIAN_POINT('Origin',(-1.96,11.9,-9.6));
#1352=CARTESIAN_POINT('',(-2.66,11.9,-7.));
#1353=CARTESIAN_POINT('',(-2.66,11.9,-7.));
#1354=CARTESIAN_POINT('Origin',(-1.96,11.9,-7.));
#1355=CARTESIAN_POINT('Origin',(-1.96,11.9,-9.6));
#1356=CARTESIAN_POINT('Origin',(-12.45,11.,0.));
#1357=CARTESIAN_POINT('',(-12.45,11.,0.));
#1358=CARTESIAN_POINT('',(-3.95,11.,0.));
#1359=CARTESIAN_POINT('',(-10.325,11.,0.));
#1360=CARTESIAN_POINT('',(-12.45,11.,-7.));
#1361=CARTESIAN_POINT('',(-12.45,11.,0.));
#1362=CARTESIAN_POINT('',(-3.95,11.,-7.));
#1363=CARTESIAN_POINT('',(-10.325,11.,-7.));
#1364=CARTESIAN_POINT('',(-3.95,11.,0.));
#1365=CARTESIAN_POINT('Origin',(-12.45,5.,0.));
#1366=CARTESIAN_POINT('',(-12.45,5.,0.));
#1367=CARTESIAN_POINT('',(-12.45,6.4,0.));
#1368=CARTESIAN_POINT('',(-12.45,5.,-7.));
#1369=CARTESIAN_POINT('',(-12.45,5.,0.));
#1370=CARTESIAN_POINT('',(-12.45,6.4,-7.));
#1371=CARTESIAN_POINT('Origin',(-3.95,4.99999999999999,0.));
#1372=CARTESIAN_POINT('',(-3.95,4.99999999999999,0.));
#1373=CARTESIAN_POINT('',(-6.075,4.99999999999999,0.));
#1374=CARTESIAN_POINT('',(-3.95,4.99999999999999,-7.));
#1375=CARTESIAN_POINT('',(-3.95,4.99999999999999,0.));
#1376=CARTESIAN_POINT('',(-6.075,4.99999999999999,-7.));
#1377=CARTESIAN_POINT('Origin',(-3.95,11.,0.));
#1378=CARTESIAN_POINT('',(-3.95,9.4,0.));
#1379=CARTESIAN_POINT('',(-3.95,9.4,-7.));
#1380=CARTESIAN_POINT('Origin',(-4.2,15.6,0.));
#1381=CARTESIAN_POINT('',(-4.2,15.6,0.));
#1382=CARTESIAN_POINT('',(-4.62223186652937E-32,15.6,0.));
#1383=CARTESIAN_POINT('',(-6.2,15.6,0.));
#1384=CARTESIAN_POINT('',(-4.2,15.6,-7.));
#1385=CARTESIAN_POINT('',(-4.2,15.6,0.));
#1386=CARTESIAN_POINT('',(-4.62223186652937E-32,15.6,-7.));
#1387=CARTESIAN_POINT('',(-6.2,15.6,-7.));
#1388=CARTESIAN_POINT('',(-4.62223186652937E-32,15.6,0.));
#1389=CARTESIAN_POINT('Origin',(-4.2,13.2,0.));
#1390=CARTESIAN_POINT('',(-4.2,13.2,0.));
#1391=CARTESIAN_POINT('',(-4.2,10.5,0.));
#1392=CARTESIAN_POINT('',(-4.2,13.2,-7.));
#1393=CARTESIAN_POINT('',(-4.2,13.2,0.));
#1394=CARTESIAN_POINT('',(-4.2,10.5,-7.));
#1395=CARTESIAN_POINT('Origin',(0.,13.2,0.));
#1396=CARTESIAN_POINT('',(-4.62223186652937E-32,13.2,0.));
#1397=CARTESIAN_POINT('',(-4.1,13.2,0.));
#1398=CARTESIAN_POINT('',(-4.62223186652937E-32,13.2,-7.));
#1399=CARTESIAN_POINT('',(-4.62223186652937E-32,13.2,0.));
#1400=CARTESIAN_POINT('',(-4.1,13.2,-7.));
#1401=CARTESIAN_POINT('Origin',(-4.62223186652937E-32,15.6,0.));
#1402=CARTESIAN_POINT('',(0.,11.7,0.));
#1403=CARTESIAN_POINT('',(0.,11.7,-7.));
#1404=CARTESIAN_POINT('Origin',(-16.4,13.2,0.));
#1405=CARTESIAN_POINT('',(-16.4,13.2,0.));
#1406=CARTESIAN_POINT('',(-16.4,15.6,0.));
#1407=CARTESIAN_POINT('',(-16.4,10.5,0.));
#1408=CARTESIAN_POINT('',(-16.4,13.2,-7.));
#1409=CARTESIAN_POINT('',(-16.4,13.2,0.));
#1410=CARTESIAN_POINT('',(-16.4,15.6,-7.));
#1411=CARTESIAN_POINT('',(-16.4,10.5,-7.));
#1412=CARTESIAN_POINT('',(-16.4,15.6,0.));
#1413=CARTESIAN_POINT('Origin',(-12.2,13.2,0.));
#1414=CARTESIAN_POINT('',(-12.2,13.2,0.));
#1415=CARTESIAN_POINT('',(-10.2,13.2,0.));
#1416=CARTESIAN_POINT('',(-12.2,13.2,-7.));
#1417=CARTESIAN_POINT('',(-12.2,13.2,0.));
#1418=CARTESIAN_POINT('',(-10.2,13.2,-7.));
#1419=CARTESIAN_POINT('Origin',(-12.2,15.6,0.));
#1420=CARTESIAN_POINT('',(-12.2,15.6,0.));
#1421=CARTESIAN_POINT('',(-12.2,11.7,0.));
#1422=CARTESIAN_POINT('',(-12.2,15.6,-7.));
#1423=CARTESIAN_POINT('',(-12.2,15.6,0.));
#1424=CARTESIAN_POINT('',(-12.2,11.7,-7.));
#1425=CARTESIAN_POINT('Origin',(-16.4,15.6,0.));
#1426=CARTESIAN_POINT('',(-12.3,15.6,0.));
#1427=CARTESIAN_POINT('',(-12.3,15.6,-7.));
#1428=CARTESIAN_POINT('Origin',(-2.1,5.4,0.));
#1429=CARTESIAN_POINT('',(-3.8,5.4,0.));
#1430=CARTESIAN_POINT('Origin',(-2.1,5.4,0.));
#1431=CARTESIAN_POINT('',(-3.8,5.4,-4.));
#1432=CARTESIAN_POINT('',(-3.8,5.4,0.));
#1433=CARTESIAN_POINT('Origin',(-2.1,5.4,-4.));
#1434=CARTESIAN_POINT('Origin',(-2.1,5.4,-4.));
#1435=CARTESIAN_POINT('Origin',(-1.8,10.7,0.));
#1436=CARTESIAN_POINT('',(-1.8,10.7,0.));
#1437=CARTESIAN_POINT('',(-2.77555756156289E-15,10.7,0.));
#1438=CARTESIAN_POINT('',(-5.,10.7,0.));
#1439=CARTESIAN_POINT('',(-1.8,10.7,-4.));
#1440=CARTESIAN_POINT('',(-1.8,10.7,0.));
#1441=CARTESIAN_POINT('',(-2.77555756156289E-15,10.7,-4.));
#1442=CARTESIAN_POINT('',(-1.8,10.7,-4.));
#1443=CARTESIAN_POINT('',(-2.77555756156289E-15,10.7,0.));
#1444=CARTESIAN_POINT('Origin',(-1.8,7.5,0.));
#1445=CARTESIAN_POINT('',(-1.8,7.5,0.));
#1446=CARTESIAN_POINT('',(-1.8,7.65,0.));
#1447=CARTESIAN_POINT('',(-1.8,7.5,-4.));
#1448=CARTESIAN_POINT('',(-1.8,7.5,0.));
#1449=CARTESIAN_POINT('',(-1.8,7.5,-4.));
#1450=CARTESIAN_POINT('Origin',(-6.15315286183885E-15,7.5,0.));
#1451=CARTESIAN_POINT('',(-6.15315286183885E-15,7.5,0.));
#1452=CARTESIAN_POINT('',(-4.1,7.5,0.));
#1453=CARTESIAN_POINT('',(-6.15315286183885E-15,7.5,-4.));
#1454=CARTESIAN_POINT('',(-6.15315286183885E-15,7.5,0.));
#1455=CARTESIAN_POINT('',(-6.15315286183885E-15,7.5,-4.));
#1456=CARTESIAN_POINT('Origin',(-3.17037698537591E-32,10.7,0.));
#1457=CARTESIAN_POINT('',(0.,9.25,0.));
#1458=CARTESIAN_POINT('',(0.,0.,-4.));
#1459=CARTESIAN_POINT('Origin',(-0.9,9.1,-4.));
#1460=CARTESIAN_POINT('Origin',(-14.400000038,5.4,0.));
#1461=CARTESIAN_POINT('',(-16.100000038,5.4,0.));
#1462=CARTESIAN_POINT('Origin',(-14.400000038,5.4,0.));
#1463=CARTESIAN_POINT('',(-16.100000038,5.4,-4.));
#1464=CARTESIAN_POINT('',(-16.100000038,5.4,0.));
#1465=CARTESIAN_POINT('Origin',(-14.400000038,5.4,-4.));
#1466=CARTESIAN_POINT('Origin',(-14.400000038,5.4,-4.));
#1467=CARTESIAN_POINT('Origin',(-16.4,7.5,0.));
#1468=CARTESIAN_POINT('',(-16.4,7.5,0.));
#1469=CARTESIAN_POINT('',(-16.4,10.7,0.));
#1470=CARTESIAN_POINT('',(-16.4,7.65,0.));
#1471=CARTESIAN_POINT('',(-16.4,7.5,-4.));
#1472=CARTESIAN_POINT('',(-16.4,7.5,0.));
#1473=CARTESIAN_POINT('',(-16.4,10.7,-4.));
#1474=CARTESIAN_POINT('',(-16.4,15.6,-4.));
#1475=CARTESIAN_POINT('',(-16.4,10.7,0.));
#1476=CARTESIAN_POINT('Origin',(-14.6,7.5,0.));
#1477=CARTESIAN_POINT('',(-14.6,7.5,0.));
#1478=CARTESIAN_POINT('',(-11.4,7.49999999999999,0.));
#1479=CARTESIAN_POINT('',(-14.6,7.5,-4.));
#1480=CARTESIAN_POINT('',(-14.6,7.5,0.));
#1481=CARTESIAN_POINT('',(-16.4,7.5,-4.));
#1482=CARTESIAN_POINT('Origin',(-14.6,10.7,0.));
#1483=CARTESIAN_POINT('',(-14.6,10.7,0.));
#1484=CARTESIAN_POINT('',(-14.6,9.25,0.));
#1485=CARTESIAN_POINT('',(-14.6,10.7,-4.));
#1486=CARTESIAN_POINT('',(-14.6,10.7,0.));
#1487=CARTESIAN_POINT('',(-14.6,7.5,-4.));
#1488=CARTESIAN_POINT('Origin',(-16.4,10.7,0.));
#1489=CARTESIAN_POINT('',(-12.3,10.7,0.));
#1490=CARTESIAN_POINT('',(-14.6,10.7,-4.));
#1491=CARTESIAN_POINT('Origin',(-15.5,9.1,-4.));
#1492=CARTESIAN_POINT('Origin',(-17.2,16.4,0.));
#1493=CARTESIAN_POINT('',(0.8,16.4,0.));
#1494=CARTESIAN_POINT('',(-17.2,16.4,0.));
#1495=CARTESIAN_POINT('',(0.8,16.4,0.));
#1496=CARTESIAN_POINT('',(0.8,16.4,-7.));
#1497=CARTESIAN_POINT('',(0.8,16.4,0.));
#1498=CARTESIAN_POINT('',(-17.2,16.4,-7.));
#1499=CARTESIAN_POINT('',(0.8,16.4,-7.));
#1500=CARTESIAN_POINT('',(-17.2,16.4,0.));
#1501=CARTESIAN_POINT('Origin',(-17.2,-0.800000000000001,0.));
#1502=CARTESIAN_POINT('',(-17.2,-0.800000000000001,0.));
#1503=CARTESIAN_POINT('',(-17.2,16.4,0.));
#1504=CARTESIAN_POINT('',(-17.2,-0.800000000000001,-7.));
#1505=CARTESIAN_POINT('',(-17.2,16.4,-7.));
#1506=CARTESIAN_POINT('',(-17.2,-0.800000000000001,0.));
#1507=CARTESIAN_POINT('Origin',(0.8,-0.8,0.));
#1508=CARTESIAN_POINT('',(0.8,-0.8,0.));
#1509=CARTESIAN_POINT('',(0.8,-0.8,0.));
#1510=CARTESIAN_POINT('',(0.8,-0.800000000000001,-7.));
#1511=CARTESIAN_POINT('',(0.8,-0.8,-7.));
#1512=CARTESIAN_POINT('',(0.8,-0.8,0.));
#1513=CARTESIAN_POINT('Origin',(0.8,16.4,0.));
#1514=CARTESIAN_POINT('',(0.8,-0.8,0.));
#1515=CARTESIAN_POINT('',(0.8,-0.8,-7.));
#1516=CARTESIAN_POINT('Origin',(-8.2,7.8,0.));
#1517=CARTESIAN_POINT('Origin',(-8.2,7.8,-7.));
#1518=CARTESIAN_POINT('Origin',(-8.2,23.8,19.));
#1519=CARTESIAN_POINT('',(2.8,13.2,19.));
#1520=CARTESIAN_POINT('',(2.8,34.4,19.));
#1521=CARTESIAN_POINT('',(2.8,13.2,19.));
#1522=CARTESIAN_POINT('',(-19.2,13.2,19.));
#1523=CARTESIAN_POINT('',(2.8,13.2,19.));
#1524=CARTESIAN_POINT('',(-19.2,34.4,19.));
#1525=CARTESIAN_POINT('',(-19.2,34.4,19.));
#1526=CARTESIAN_POINT('',(2.8,34.4,19.));
#1527=CARTESIAN_POINT('',(1.2,32.8,19.));
#1528=CARTESIAN_POINT('',(1.2,14.8,19.));
#1529=CARTESIAN_POINT('',(1.2,28.1,19.));
#1530=CARTESIAN_POINT('',(2.6,13.4,19.));
#1531=CARTESIAN_POINT('',(0.8,15.2,19.));
#1532=CARTESIAN_POINT('',(2.6,34.2,19.));
#1533=CARTESIAN_POINT('',(2.6,19.,19.));
#1534=CARTESIAN_POINT('',(-19.,34.2,19.));
#1535=CARTESIAN_POINT('',(-3.2,34.2,19.));
#1536=CARTESIAN_POINT('',(-19.,13.4,19.));
#1537=CARTESIAN_POINT('',(-19.,28.6,19.));
#1538=CARTESIAN_POINT('',(-17.6,14.8,19.));
#1539=CARTESIAN_POINT('',(-17.2,15.2,19.));
#1540=CARTESIAN_POINT('',(-17.6,32.8,19.));
#1541=CARTESIAN_POINT('',(-17.6,19.5,19.));
#1542=CARTESIAN_POINT('',(-12.7,32.8,19.));
#1543=CARTESIAN_POINT('Origin',(-19.2,13.2,19.));
#1544=CARTESIAN_POINT('',(2.8,13.2,21.));
#1545=CARTESIAN_POINT('',(2.8,13.2,19.));
#1546=CARTESIAN_POINT('',(-19.2,13.2,21.));
#1547=CARTESIAN_POINT('',(2.8,13.2,21.));
#1548=CARTESIAN_POINT('',(-19.2,13.2,19.));
#1549=CARTESIAN_POINT('Origin',(-19.2,34.4,19.));
#1550=CARTESIAN_POINT('',(-19.2,34.4,21.));
#1551=CARTESIAN_POINT('',(-19.2,34.4,21.));
#1552=CARTESIAN_POINT('',(-19.2,34.4,19.));
#1553=CARTESIAN_POINT('Origin',(2.8,34.4,19.));
#1554=CARTESIAN_POINT('',(2.8,34.4,21.));
#1555=CARTESIAN_POINT('',(2.8,34.4,21.));
#1556=CARTESIAN_POINT('',(2.8,34.4,19.));
#1557=CARTESIAN_POINT('Origin',(2.8,13.2,19.));
#1558=CARTESIAN_POINT('',(2.8,13.2,21.));
#1559=CARTESIAN_POINT('Origin',(-8.2,23.8,21.));
#1560=CARTESIAN_POINT('Origin',(-17.7,19.5,1.5));
#1561=CARTESIAN_POINT('',(-17.6,14.8,1.6));
#1562=CARTESIAN_POINT('',(-19.,13.4,0.199999999999997));
#1563=CARTESIAN_POINT('',(-17.15,15.25,2.05));
#1564=CARTESIAN_POINT('',(-19.,34.2,0.199999999999998));
#1565=CARTESIAN_POINT('',(-19.,26.45,0.199999999999997));
#1566=CARTESIAN_POINT('',(-17.6,32.8,1.6));
#1567=CARTESIAN_POINT('',(-18.2,33.4,1.));
#1568=CARTESIAN_POINT('',(-17.6,17.35,1.6));
#1569=CARTESIAN_POINT('Origin',(-12.7,32.9,1.5));
#1570=CARTESIAN_POINT('',(1.2,32.8,1.6));
#1571=CARTESIAN_POINT('',(-14.95,32.8,1.6));
#1572=CARTESIAN_POINT('',(2.6,34.2,0.2));
#1573=CARTESIAN_POINT('',(-5.45,34.2,0.2));
#1574=CARTESIAN_POINT('',(1.8,33.4,1.));
#1575=CARTESIAN_POINT('Origin',(1.3,28.1,1.5));
#1576=CARTESIAN_POINT('',(2.6,13.4,0.199999999999999));
#1577=CARTESIAN_POINT('',(1.2,14.8,1.6));
#1578=CARTESIAN_POINT('',(-1.01666666666667,17.0166666666667,3.81666666666667));
#1579=CARTESIAN_POINT('',(1.2,30.25,1.6));
#1580=CARTESIAN_POINT('',(2.6,21.15,0.2));
#1581=CARTESIAN_POINT('Origin',(-18.2,14.2,1.));
#1582=CARTESIAN_POINT('',(-17.6,14.8,1.));
#1583=CARTESIAN_POINT('',(-19.,13.4,1.));
#1584=CARTESIAN_POINT('Origin',(-17.6,15.2,1.));
#1585=CARTESIAN_POINT('',(-17.6,32.8,1.));
#1586=CARTESIAN_POINT('Origin',(1.2,32.4,1.));
#1587=CARTESIAN_POINT('',(1.2,14.8,1.));
#1588=CARTESIAN_POINT('',(1.2,32.8,1.));
#1589=CARTESIAN_POINT('Origin',(-17.2,32.8,1.));
#1590=CARTESIAN_POINT('Origin',(-19.,33.4,1.));
#1591=CARTESIAN_POINT('',(-19.,34.2,1.));
#1592=CARTESIAN_POINT('Origin',(1.8,34.2,1.));
#1593=CARTESIAN_POINT('',(2.6,34.2,1.));
#1594=CARTESIAN_POINT('Origin',(2.6,14.2,1.));
#1595=CARTESIAN_POINT('',(2.6,13.4,1.));
#1596=CARTESIAN_POINT('Origin',(0.8,15.2,1.));
#1597=UNCERTAINTY_MEASURE_WITH_UNIT(LENGTH_MEASURE(0.01),#1601,
'DISTANCE_ACCURACY_VALUE',
'Maximum model space distance between geometric entities at asserted c
onnectivities');
#1598=UNCERTAINTY_MEASURE_WITH_UNIT(LENGTH_MEASURE(0.01),#1601,
'DISTANCE_ACCURACY_VALUE',
'Maximum model space distance between geometric entities at asserted c
onnectivities');
#1599=(
GEOMETRIC_REPRESENTATION_CONTEXT(3)
GLOBAL_UNCERTAINTY_ASSIGNED_CONTEXT((#1597))
GLOBAL_UNIT_ASSIGNED_CONTEXT((#1601,#1603,#1604))
REPRESENTATION_CONTEXT('','3D')
);
#1600=(
GEOMETRIC_REPRESENTATION_CONTEXT(3)
GLOBAL_UNCERTAINTY_ASSIGNED_CONTEXT((#1598))
GLOBAL_UNIT_ASSIGNED_CONTEXT((#1601,#1603,#1604))
REPRESENTATION_CONTEXT('','3D')
);
#1601=(
LENGTH_UNIT()
NAMED_UNIT(*)
SI_UNIT(.MILLI.,.METRE.)
);
#1602=(
LENGTH_UNIT()
NAMED_UNIT(*)
SI_UNIT($,.METRE.)
);
#1603=(
NAMED_UNIT(*)
PLANE_ANGLE_UNIT()
SI_UNIT($,.RADIAN.)
);
#1604=(
NAMED_UNIT(*)
SI_UNIT($,.STERADIAN.)
SOLID_ANGLE_UNIT()
);
#1605=SHAPE_DEFINITION_REPRESENTATION(#1606,#1607);
#1606=PRODUCT_DEFINITION_SHAPE('',$,#1609);
#1607=SHAPE_REPRESENTATION('',(#1001),#1599);
#1608=PRODUCT_DEFINITION_CONTEXT('part definition',#1613,'design');
#1609=PRODUCT_DEFINITION('Podstawka_na_gnazdo_rj45',
'Podstawka_na_gnazdo_rj45 v12',#1610,#1608);
#1610=PRODUCT_DEFINITION_FORMATION('',$,#1615);
#1611=PRODUCT_RELATED_PRODUCT_CATEGORY('Podstawka_na_gnazdo_rj45 v12',
'Podstawka_na_gnazdo_rj45 v12',(#1615));
#1612=APPLICATION_PROTOCOL_DEFINITION('international standard',
'automotive_design',2009,#1613);
#1613=APPLICATION_CONTEXT(
'Core Data for Automotive Mechanical Design Process');
#1614=PRODUCT_CONTEXT('part definition',#1613,'mechanical');
#1615=PRODUCT('Podstawka_na_gnazdo_rj45','Podstawka_na_gnazdo_rj45 v12',
$,(#1614));
#1616=PRESENTATION_STYLE_ASSIGNMENT((#1617));
#1617=SURFACE_STYLE_USAGE(.BOTH.,#1618);
#1618=SURFACE_SIDE_STYLE('',(#1619));
#1619=SURFACE_STYLE_FILL_AREA(#1620);
#1620=FILL_AREA_STYLE(
'PA 11 - Nylon- HP 11-30 (with EOS P 396 3D Printer)',(#1621));
#1621=FILL_AREA_STYLE_COLOUR(
'PA 11 - Nylon- HP 11-30 (with EOS P 396 3D Printer)',#1622);
#1622=COLOUR_RGB('PA 11 - Nylon- HP 11-30 (with EOS P 396 3D Printer)',
0.247058823529412,0.247058823529412,0.247058823529412);
ENDSEC;
END-ISO-10303-21;
